%TF.GenerationSoftware,KiCad,Pcbnew,(6.0.5)*%
%TF.CreationDate,2022-06-17T01:03:42+02:00*%
%TF.ProjectId,seq,7365712e-6b69-4636-9164-5f7063625858,rev?*%
%TF.SameCoordinates,Original*%
%TF.FileFunction,Copper,L1,Top*%
%TF.FilePolarity,Positive*%
%FSLAX46Y46*%
G04 Gerber Fmt 4.6, Leading zero omitted, Abs format (unit mm)*
G04 Created by KiCad (PCBNEW (6.0.5)) date 2022-06-17 01:03:42*
%MOMM*%
%LPD*%
G01*
G04 APERTURE LIST*
G04 Aperture macros list*
%AMRoundRect*
0 Rectangle with rounded corners*
0 $1 Rounding radius*
0 $2 $3 $4 $5 $6 $7 $8 $9 X,Y pos of 4 corners*
0 Add a 4 corners polygon primitive as box body*
4,1,4,$2,$3,$4,$5,$6,$7,$8,$9,$2,$3,0*
0 Add four circle primitives for the rounded corners*
1,1,$1+$1,$2,$3*
1,1,$1+$1,$4,$5*
1,1,$1+$1,$6,$7*
1,1,$1+$1,$8,$9*
0 Add four rect primitives between the rounded corners*
20,1,$1+$1,$2,$3,$4,$5,0*
20,1,$1+$1,$4,$5,$6,$7,0*
20,1,$1+$1,$6,$7,$8,$9,0*
20,1,$1+$1,$8,$9,$2,$3,0*%
G04 Aperture macros list end*
%TA.AperFunction,ComponentPad*%
%ADD10O,1.700000X1.700000*%
%TD*%
%TA.AperFunction,ComponentPad*%
%ADD11R,1.700000X1.700000*%
%TD*%
%TA.AperFunction,ComponentPad*%
%ADD12R,6.000000X5.000000*%
%TD*%
%TA.AperFunction,ComponentPad*%
%ADD13RoundRect,0.250000X-0.600000X-0.725000X0.600000X-0.725000X0.600000X0.725000X-0.600000X0.725000X0*%
%TD*%
%TA.AperFunction,ComponentPad*%
%ADD14O,1.700000X1.950000*%
%TD*%
%TA.AperFunction,ComponentPad*%
%ADD15RoundRect,0.250000X-0.725000X0.600000X-0.725000X-0.600000X0.725000X-0.600000X0.725000X0.600000X0*%
%TD*%
%TA.AperFunction,ComponentPad*%
%ADD16O,1.950000X1.700000*%
%TD*%
%TA.AperFunction,ComponentPad*%
%ADD17R,2.600000X2.600000*%
%TD*%
%TA.AperFunction,ComponentPad*%
%ADD18C,2.600000*%
%TD*%
%TA.AperFunction,ComponentPad*%
%ADD19RoundRect,0.250000X-0.750000X0.600000X-0.750000X-0.600000X0.750000X-0.600000X0.750000X0.600000X0*%
%TD*%
%TA.AperFunction,ComponentPad*%
%ADD20O,2.000000X1.700000*%
%TD*%
%TA.AperFunction,ComponentPad*%
%ADD21C,1.600000*%
%TD*%
%TA.AperFunction,ComponentPad*%
%ADD22O,1.600000X1.600000*%
%TD*%
%TA.AperFunction,ComponentPad*%
%ADD23R,8.000000X5.000000*%
%TD*%
%TA.AperFunction,ComponentPad*%
%ADD24R,1.600000X1.600000*%
%TD*%
%TA.AperFunction,ComponentPad*%
%ADD25C,1.900000*%
%TD*%
%TA.AperFunction,Conductor*%
%ADD26C,1.270000*%
%TD*%
%TA.AperFunction,Conductor*%
%ADD27C,0.400000*%
%TD*%
G04 APERTURE END LIST*
D10*
%TO.P,J10,3,Pin_3*%
%TO.N,unconnected-(J10-Pad3)*%
X133096000Y-121410000D03*
%TO.P,J10,2,Pin_2*%
%TO.N,Net-(J10-Pad2)*%
X133096000Y-118870000D03*
D11*
%TO.P,J10,1,Pin_1*%
%TO.N,GND*%
X133096000Y-116330000D03*
%TD*%
D10*
%TO.P,J2,3,Pin_3*%
%TO.N,unconnected-(J2-Pad3)*%
X98156000Y-61341000D03*
%TO.P,J2,2,Pin_2*%
%TO.N,/B+*%
X100696000Y-61341000D03*
D11*
%TO.P,J2,1,Pin_1*%
%TO.N,/B-*%
X103236000Y-61341000D03*
%TD*%
D12*
%TO.P,J5,1,Pin_1*%
%TO.N,/B-*%
X109851000Y-77228000D03*
%TD*%
D13*
%TO.P,J8,1,Pin_1*%
%TO.N,GND*%
X119928000Y-118855000D03*
D14*
%TO.P,J8,2,Pin_2*%
%TO.N,Net-(J10-Pad2)*%
X122428000Y-118855000D03*
%TO.P,J8,3,Pin_3*%
%TO.N,Net-(J8-Pad3)*%
X124928000Y-118855000D03*
%TD*%
D15*
%TO.P,J9,1,Pin_1*%
%TO.N,GND*%
X152908000Y-101593000D03*
D16*
%TO.P,J9,2,Pin_2*%
%TO.N,Net-(J9-Pad2)*%
X152908000Y-104093000D03*
%TO.P,J9,3,Pin_3*%
%TO.N,Net-(J9-Pad3)*%
X152908000Y-106593000D03*
%TO.P,J9,4,Pin_4*%
%TO.N,Net-(J9-Pad4)*%
X152908000Y-109093000D03*
%TD*%
D17*
%TO.P,J11,1,Pin_1*%
%TO.N,GND*%
X143561000Y-68077000D03*
D18*
%TO.P,J11,2,Pin_2*%
%TO.N,VCC*%
X143561000Y-62997000D03*
%TD*%
D19*
%TO.P,J12,1,Pin_1*%
%TO.N,VCC*%
X152908000Y-76073000D03*
D20*
%TO.P,J12,2,Pin_2*%
%TO.N,Net-(J12-Pad2)*%
X152908000Y-78573000D03*
%TD*%
D13*
%TO.P,J1,1,Pin_1*%
%TO.N,/B+*%
X98211000Y-68338000D03*
D14*
%TO.P,J1,2,Pin_2*%
%TO.N,/BM*%
X100711000Y-68338000D03*
%TO.P,J1,3,Pin_3*%
%TO.N,/B-*%
X103211000Y-68338000D03*
%TD*%
D21*
%TO.P,R3,1*%
%TO.N,Net-(J9-Pad4)*%
X140208000Y-109093000D03*
D22*
%TO.P,R3,2*%
%TO.N,Net-(R3-Pad2)*%
X140208000Y-93853000D03*
%TD*%
D23*
%TO.P,J6,1,Pin_1*%
%TO.N,Net-(J10-Pad2)*%
X94107000Y-120384000D03*
%TD*%
D21*
%TO.P,R1,1*%
%TO.N,Net-(J9-Pad2)*%
X146558000Y-104013000D03*
D22*
%TO.P,R1,2*%
%TO.N,Net-(R1-Pad2)*%
X146558000Y-88773000D03*
%TD*%
D24*
%TO.P,U1,1,GND*%
%TO.N,GND*%
X118364000Y-76073000D03*
D21*
%TO.P,U1,2,0_RX1_Touch*%
%TO.N,unconnected-(U1-Pad2)*%
X118364000Y-78613000D03*
%TO.P,U1,3,1_TX1_Touch*%
%TO.N,unconnected-(U1-Pad3)*%
X118364000Y-81153000D03*
%TO.P,U1,4,2*%
%TO.N,unconnected-(U1-Pad4)*%
X118364000Y-83693000D03*
%TO.P,U1,5,3_TX_PWM*%
%TO.N,unconnected-(U1-Pad5)*%
X118364000Y-86233000D03*
%TO.P,U1,6,4_RX_PWM*%
%TO.N,unconnected-(U1-Pad6)*%
X118364000Y-88773000D03*
%TO.P,U1,7,5_TX1_PWM*%
%TO.N,unconnected-(U1-Pad7)*%
X118364000Y-91313000D03*
%TO.P,U1,8,6_PWM*%
%TO.N,unconnected-(U1-Pad8)*%
X118364000Y-93853000D03*
%TO.P,U1,9,7_RX3_DOUT*%
%TO.N,unconnected-(U1-Pad9)*%
X118364000Y-96393000D03*
%TO.P,U1,10,8_TX3_DIN*%
%TO.N,unconnected-(U1-Pad10)*%
X118364000Y-98933000D03*
%TO.P,U1,11,9_RX2_CS_PWM*%
%TO.N,Net-(J8-Pad3)*%
X118364000Y-101473000D03*
%TO.P,U1,12,10_TX2_CS_PWM*%
%TO.N,unconnected-(U1-Pad12)*%
X118364000Y-104013000D03*
%TO.P,U1,13,11_DOUT*%
%TO.N,unconnected-(U1-Pad13)*%
X118364000Y-106553000D03*
%TO.P,U1,14,12_DIN*%
%TO.N,unconnected-(U1-Pad14)*%
X118364000Y-109093000D03*
%TO.P,U1,15,VBat*%
%TO.N,unconnected-(U1-Pad15)*%
X120904000Y-109093000D03*
%TO.P,U1,16,3.3V*%
%TO.N,unconnected-(U1-Pad16)*%
X123444000Y-109093000D03*
%TO.P,U1,17,GND*%
%TO.N,unconnected-(U1-Pad17)*%
X125984000Y-109093000D03*
%TO.P,U1,18,Program*%
%TO.N,unconnected-(U1-Pad18)*%
X128524000Y-109093000D03*
%TO.P,U1,19,A14/DAC*%
%TO.N,unconnected-(U1-Pad19)*%
X131064000Y-109093000D03*
%TO.P,U1,20,13_LED_SCK*%
%TO.N,unconnected-(U1-Pad20)*%
X133604000Y-109093000D03*
%TO.P,U1,21,14_A0_SCK*%
%TO.N,unconnected-(U1-Pad21)*%
X133604000Y-106553000D03*
%TO.P,U1,22,15_A1_CS_Touch*%
%TO.N,unconnected-(U1-Pad22)*%
X133604000Y-104013000D03*
%TO.P,U1,23,16_A2_SCL0_Touch*%
%TO.N,unconnected-(U1-Pad23)*%
X133604000Y-101473000D03*
%TO.P,U1,24,17_A3_SDA0_Touch*%
%TO.N,unconnected-(U1-Pad24)*%
X133604000Y-98933000D03*
%TO.P,U1,25,18_A4_SDA0_Touch*%
%TO.N,unconnected-(U1-Pad25)*%
X133604000Y-96393000D03*
%TO.P,U1,26,19_A5_SCL0_Touch*%
%TO.N,Net-(R3-Pad2)*%
X133604000Y-93853000D03*
%TO.P,U1,27,20_A6_CS_PWM*%
%TO.N,Net-(R2-Pad2)*%
X133604000Y-91313000D03*
%TO.P,U1,28,21_A7_RX1_CS_PWM*%
%TO.N,Net-(R1-Pad2)*%
X133604000Y-88773000D03*
%TO.P,U1,29,22_A8_Touch_PWM*%
%TO.N,unconnected-(U1-Pad29)*%
X133604000Y-86233000D03*
%TO.P,U1,30,23_A9_Touch_PWM*%
%TO.N,Net-(J12-Pad2)*%
X133604000Y-83693000D03*
%TO.P,U1,31,3.3V*%
%TO.N,unconnected-(U1-Pad31)*%
X133604000Y-81153000D03*
%TO.P,U1,32,AGND*%
%TO.N,unconnected-(U1-Pad32)*%
X133604000Y-78613000D03*
%TO.P,U1,33,Vin*%
%TO.N,VCC*%
X133604000Y-76073000D03*
%TO.P,U1,34,VUSB*%
%TO.N,unconnected-(U1-Pad34)*%
X131064000Y-78613000D03*
%TO.P,U1,35,AREF*%
%TO.N,unconnected-(U1-Pad35)*%
X131064000Y-83693000D03*
%TO.P,U1,36,A10*%
%TO.N,unconnected-(U1-Pad36)*%
X131064000Y-86233000D03*
%TO.P,U1,37,A11*%
%TO.N,unconnected-(U1-Pad37)*%
X131064000Y-88773000D03*
D25*
%TO.P,U1,38,Reset*%
%TO.N,N/C*%
X125984000Y-82423000D03*
X125984000Y-86233000D03*
%TD*%
D23*
%TO.P,J7,1,Pin_1*%
%TO.N,GND*%
X107351000Y-120384000D03*
%TD*%
D21*
%TO.P,R2,1*%
%TO.N,Net-(J9-Pad3)*%
X143510000Y-106553000D03*
D22*
%TO.P,R2,2*%
%TO.N,Net-(R2-Pad2)*%
X143510000Y-91313000D03*
%TD*%
D12*
%TO.P,J3,1,Pin_1*%
%TO.N,/B+*%
X91571000Y-77228000D03*
%TD*%
%TO.P,J4,1,Pin_1*%
%TO.N,/BM*%
X100711000Y-77228000D03*
%TD*%
D26*
%TO.N,Net-(J10-Pad2)*%
X117221020Y-127126980D02*
X122428000Y-121920000D01*
X102849980Y-127126980D02*
X117221020Y-127126980D01*
D27*
%TO.N,VCC*%
X138049000Y-68509000D02*
X138049000Y-76073000D01*
X143561000Y-62997000D02*
X138049000Y-68509000D01*
X138049000Y-76073000D02*
X143510000Y-76073000D01*
X133604000Y-76073000D02*
X138049000Y-76073000D01*
D26*
%TO.N,Net-(J10-Pad2)*%
X127000000Y-121920000D02*
X122428000Y-121920000D01*
X130050000Y-118870000D02*
X127000000Y-121920000D01*
X133096000Y-118870000D02*
X130050000Y-118870000D01*
X122428000Y-118855000D02*
X122428000Y-121920000D01*
%TO.N,/B+*%
X98211000Y-67016000D02*
X98211000Y-68338000D01*
X100696000Y-64531000D02*
X98211000Y-67016000D01*
X100696000Y-61341000D02*
X100696000Y-64531000D01*
%TO.N,/B-*%
X103236000Y-68313000D02*
X103211000Y-68338000D01*
X103236000Y-61341000D02*
X103236000Y-68313000D01*
%TO.N,Net-(J10-Pad2)*%
X102849980Y-127126980D02*
X96107000Y-120384000D01*
D27*
%TO.N,Net-(J8-Pad3)*%
X117856000Y-112903000D02*
X115443000Y-110490000D01*
X121793000Y-112903000D02*
X117856000Y-112903000D01*
X124928000Y-116038000D02*
X121793000Y-112903000D01*
X124928000Y-118855000D02*
X124928000Y-116038000D01*
X115443000Y-110490000D02*
X115443000Y-102489000D01*
D26*
%TO.N,/B-*%
X103211000Y-70588000D02*
X109851000Y-77228000D01*
X103211000Y-68338000D02*
X103211000Y-70588000D01*
%TO.N,/B+*%
X98211000Y-68338000D02*
X98211000Y-70588000D01*
X98211000Y-70588000D02*
X91571000Y-77228000D01*
%TO.N,/BM*%
X100711000Y-68338000D02*
X100711000Y-77228000D01*
D27*
%TO.N,Net-(R3-Pad2)*%
X140208000Y-93853000D02*
X133604000Y-93853000D01*
%TO.N,Net-(R2-Pad2)*%
X143510000Y-91313000D02*
X133604000Y-91313000D01*
%TO.N,Net-(R1-Pad2)*%
X146558000Y-88773000D02*
X133604000Y-88773000D01*
%TO.N,VCC*%
X143510000Y-76073000D02*
X152908000Y-76073000D01*
%TO.N,Net-(J8-Pad3)*%
X115443000Y-102489000D02*
X116459000Y-101473000D01*
X116459000Y-101473000D02*
X118364000Y-101473000D01*
%TO.N,Net-(J9-Pad3)*%
X143510000Y-106553000D02*
X152868000Y-106553000D01*
X152868000Y-106553000D02*
X152908000Y-106593000D01*
%TO.N,Net-(J9-Pad2)*%
X152828000Y-104013000D02*
X152908000Y-104093000D01*
X146558000Y-104013000D02*
X152828000Y-104013000D01*
%TO.N,Net-(J9-Pad4)*%
X140208000Y-109093000D02*
X152908000Y-109093000D01*
%TO.N,Net-(J12-Pad2)*%
X152908000Y-78573000D02*
X138724000Y-78573000D01*
X138724000Y-78573000D02*
X133604000Y-83693000D01*
%TD*%
%TA.AperFunction,Conductor*%
%TO.N,GND*%
G36*
X157427121Y-53361002D02*
G01*
X157473614Y-53414658D01*
X157485000Y-53467000D01*
X157485000Y-132213000D01*
X157464998Y-132281121D01*
X157411342Y-132327614D01*
X157359000Y-132339000D01*
X86487000Y-132339000D01*
X86418879Y-132318998D01*
X86372386Y-132265342D01*
X86361000Y-132213000D01*
X86361000Y-122903748D01*
X89906500Y-122903748D01*
X89918133Y-122962231D01*
X89962448Y-123028552D01*
X90028769Y-123072867D01*
X90040938Y-123075288D01*
X90040939Y-123075288D01*
X90081184Y-123083293D01*
X90087252Y-123084500D01*
X97573735Y-123084500D01*
X97641856Y-123104502D01*
X97662830Y-123121405D01*
X102230591Y-127689166D01*
X102237733Y-127696932D01*
X102270405Y-127735594D01*
X102275829Y-127739741D01*
X102275830Y-127739742D01*
X102333184Y-127783592D01*
X102335595Y-127785483D01*
X102397182Y-127835000D01*
X102403294Y-127838034D01*
X102405564Y-127839486D01*
X102405992Y-127839786D01*
X102406434Y-127840061D01*
X102406909Y-127840322D01*
X102409194Y-127841706D01*
X102414616Y-127845851D01*
X102420801Y-127848735D01*
X102486223Y-127879243D01*
X102488995Y-127880577D01*
X102548919Y-127910323D01*
X102559782Y-127915715D01*
X102566405Y-127917366D01*
X102568910Y-127918288D01*
X102569406Y-127918494D01*
X102569914Y-127918674D01*
X102570410Y-127918820D01*
X102572956Y-127919687D01*
X102579139Y-127922570D01*
X102585793Y-127924057D01*
X102585795Y-127924058D01*
X102656273Y-127939811D01*
X102659270Y-127940520D01*
X102729297Y-127957980D01*
X102729302Y-127957981D01*
X102735921Y-127959631D01*
X102742741Y-127959821D01*
X102745395Y-127960185D01*
X102746460Y-127960377D01*
X102751257Y-127961042D01*
X102756298Y-127962169D01*
X102761860Y-127962480D01*
X102836166Y-127962480D01*
X102839685Y-127962529D01*
X102917382Y-127964699D01*
X102924089Y-127963420D01*
X102930722Y-127962886D01*
X102940829Y-127962480D01*
X117180589Y-127962480D01*
X117191131Y-127962922D01*
X117241554Y-127967156D01*
X117319904Y-127956701D01*
X117322894Y-127956340D01*
X117401489Y-127947802D01*
X117407950Y-127945628D01*
X117410587Y-127945048D01*
X117411088Y-127944960D01*
X117411618Y-127944836D01*
X117412132Y-127944687D01*
X117414728Y-127944049D01*
X117421490Y-127943147D01*
X117495741Y-127916123D01*
X117498644Y-127915106D01*
X117567073Y-127892077D01*
X117573539Y-127889901D01*
X117579389Y-127886386D01*
X117581817Y-127885264D01*
X117582307Y-127885062D01*
X117582797Y-127884828D01*
X117583255Y-127884579D01*
X117585661Y-127883395D01*
X117592074Y-127881061D01*
X117658817Y-127838704D01*
X117661437Y-127837086D01*
X117723289Y-127799921D01*
X117729141Y-127796405D01*
X117734102Y-127791713D01*
X117736225Y-127790102D01*
X117737119Y-127789480D01*
X117740972Y-127786566D01*
X117745345Y-127783791D01*
X117749497Y-127780078D01*
X117802025Y-127727550D01*
X117804547Y-127725097D01*
X117861037Y-127671677D01*
X117864875Y-127666029D01*
X117869198Y-127660950D01*
X117876057Y-127653518D01*
X122737170Y-122792405D01*
X122799482Y-122758379D01*
X122826265Y-122755500D01*
X126959569Y-122755500D01*
X126970111Y-122755942D01*
X127020534Y-122760176D01*
X127098884Y-122749721D01*
X127101874Y-122749360D01*
X127180469Y-122740822D01*
X127186930Y-122738648D01*
X127189567Y-122738068D01*
X127190068Y-122737980D01*
X127190598Y-122737856D01*
X127191112Y-122737707D01*
X127193708Y-122737069D01*
X127200470Y-122736167D01*
X127274721Y-122709143D01*
X127277624Y-122708126D01*
X127346053Y-122685097D01*
X127352519Y-122682921D01*
X127358369Y-122679406D01*
X127360797Y-122678284D01*
X127361287Y-122678082D01*
X127361777Y-122677848D01*
X127362235Y-122677599D01*
X127364641Y-122676415D01*
X127371054Y-122674081D01*
X127437797Y-122631724D01*
X127440417Y-122630106D01*
X127502269Y-122592941D01*
X127508121Y-122589425D01*
X127513082Y-122584733D01*
X127515205Y-122583122D01*
X127516099Y-122582500D01*
X127519952Y-122579586D01*
X127524325Y-122576811D01*
X127528477Y-122573098D01*
X127581006Y-122520569D01*
X127583528Y-122518116D01*
X127635056Y-122469388D01*
X127640017Y-122464697D01*
X127643855Y-122459049D01*
X127648178Y-122453970D01*
X127655037Y-122446538D01*
X128706313Y-121395262D01*
X132040520Y-121395262D01*
X132057759Y-121600553D01*
X132114544Y-121798586D01*
X132117359Y-121804063D01*
X132117360Y-121804066D01*
X132138247Y-121844707D01*
X132208712Y-121981818D01*
X132336677Y-122143270D01*
X132493564Y-122276791D01*
X132673398Y-122377297D01*
X132768238Y-122408113D01*
X132863471Y-122439056D01*
X132863475Y-122439057D01*
X132869329Y-122440959D01*
X133073894Y-122465351D01*
X133080029Y-122464879D01*
X133080031Y-122464879D01*
X133136039Y-122460569D01*
X133279300Y-122449546D01*
X133285230Y-122447890D01*
X133285232Y-122447890D01*
X133471797Y-122395800D01*
X133471796Y-122395800D01*
X133477725Y-122394145D01*
X133483214Y-122391372D01*
X133483220Y-122391370D01*
X133656116Y-122304033D01*
X133661610Y-122301258D01*
X133823951Y-122174424D01*
X133958564Y-122018472D01*
X133979387Y-121981818D01*
X134057276Y-121844707D01*
X134060323Y-121839344D01*
X134125351Y-121643863D01*
X134151171Y-121439474D01*
X134151583Y-121410000D01*
X134131480Y-121204970D01*
X134071935Y-121007749D01*
X133975218Y-120825849D01*
X133901859Y-120735902D01*
X133848906Y-120670975D01*
X133848903Y-120670972D01*
X133845011Y-120666200D01*
X133838173Y-120660543D01*
X133691025Y-120538811D01*
X133691021Y-120538809D01*
X133686275Y-120534882D01*
X133505055Y-120436897D01*
X133308254Y-120375977D01*
X133302129Y-120375333D01*
X133302128Y-120375333D01*
X133109498Y-120355087D01*
X133109496Y-120355087D01*
X133103369Y-120354443D01*
X133016529Y-120362346D01*
X132904342Y-120372555D01*
X132904339Y-120372556D01*
X132898203Y-120373114D01*
X132700572Y-120431280D01*
X132518002Y-120526726D01*
X132513201Y-120530586D01*
X132513198Y-120530588D01*
X132502971Y-120538811D01*
X132357447Y-120655815D01*
X132225024Y-120813630D01*
X132222056Y-120819028D01*
X132222053Y-120819033D01*
X132215315Y-120831290D01*
X132125776Y-120994162D01*
X132063484Y-121190532D01*
X132062798Y-121196649D01*
X132062797Y-121196653D01*
X132042510Y-121377517D01*
X132040520Y-121395262D01*
X128706313Y-121395262D01*
X130359171Y-119742405D01*
X130421483Y-119708379D01*
X130448266Y-119705500D01*
X132410438Y-119705500D01*
X132478559Y-119725502D01*
X132483755Y-119729356D01*
X132483809Y-119729279D01*
X132488872Y-119732798D01*
X132493564Y-119736791D01*
X132673398Y-119837297D01*
X132737266Y-119858049D01*
X132863471Y-119899056D01*
X132863475Y-119899057D01*
X132869329Y-119900959D01*
X133073894Y-119925351D01*
X133080029Y-119924879D01*
X133080031Y-119924879D01*
X133136039Y-119920569D01*
X133279300Y-119909546D01*
X133285230Y-119907890D01*
X133285232Y-119907890D01*
X133445028Y-119863274D01*
X133477725Y-119854145D01*
X133483214Y-119851372D01*
X133483220Y-119851370D01*
X133656116Y-119764033D01*
X133661610Y-119761258D01*
X133702542Y-119729279D01*
X133819101Y-119638213D01*
X133823951Y-119634424D01*
X133830278Y-119627095D01*
X133954540Y-119483134D01*
X133954540Y-119483133D01*
X133958564Y-119478472D01*
X134060323Y-119299344D01*
X134125351Y-119103863D01*
X134151171Y-118899474D01*
X134151583Y-118870000D01*
X134131480Y-118664970D01*
X134071935Y-118467749D01*
X133975218Y-118285849D01*
X133865474Y-118151290D01*
X133848906Y-118130975D01*
X133848903Y-118130972D01*
X133845011Y-118126200D01*
X133828320Y-118112392D01*
X133691025Y-117998811D01*
X133691021Y-117998809D01*
X133686275Y-117994882D01*
X133558255Y-117925662D01*
X133556726Y-117924835D01*
X133506317Y-117874840D01*
X133490940Y-117805529D01*
X133515476Y-117738907D01*
X133572136Y-117696126D01*
X133616655Y-117687999D01*
X133990669Y-117687999D01*
X133997490Y-117687629D01*
X134048352Y-117682105D01*
X134063604Y-117678479D01*
X134184054Y-117633324D01*
X134199649Y-117624786D01*
X134301724Y-117548285D01*
X134314285Y-117535724D01*
X134390786Y-117433649D01*
X134399324Y-117418054D01*
X134444478Y-117297606D01*
X134448105Y-117282351D01*
X134453631Y-117231486D01*
X134454000Y-117224672D01*
X134454000Y-116602115D01*
X134449525Y-116586876D01*
X134448135Y-116585671D01*
X134440452Y-116584000D01*
X131756116Y-116584000D01*
X131740877Y-116588475D01*
X131739672Y-116589865D01*
X131738001Y-116597548D01*
X131738001Y-117224669D01*
X131738371Y-117231490D01*
X131743895Y-117282352D01*
X131747521Y-117297604D01*
X131792676Y-117418054D01*
X131801214Y-117433649D01*
X131877715Y-117535724D01*
X131890276Y-117548285D01*
X131992351Y-117624786D01*
X132007946Y-117633324D01*
X132128394Y-117678478D01*
X132143649Y-117682105D01*
X132194514Y-117687631D01*
X132201328Y-117688000D01*
X132576432Y-117688000D01*
X132644553Y-117708002D01*
X132691046Y-117761658D01*
X132701150Y-117831932D01*
X132671656Y-117896512D01*
X132634812Y-117925659D01*
X132518002Y-117986726D01*
X132513201Y-117990586D01*
X132513198Y-117990588D01*
X132493163Y-118006697D01*
X132427540Y-118033793D01*
X132414211Y-118034500D01*
X130090431Y-118034500D01*
X130079888Y-118034058D01*
X130076732Y-118033793D01*
X130029466Y-118029824D01*
X129951116Y-118040279D01*
X129948126Y-118040640D01*
X129869531Y-118049178D01*
X129863070Y-118051352D01*
X129860433Y-118051932D01*
X129859932Y-118052021D01*
X129859405Y-118052143D01*
X129858886Y-118052294D01*
X129856296Y-118052930D01*
X129849530Y-118053833D01*
X129843116Y-118056168D01*
X129843114Y-118056168D01*
X129775294Y-118080852D01*
X129772389Y-118081870D01*
X129697481Y-118107079D01*
X129691627Y-118110596D01*
X129689199Y-118111718D01*
X129688709Y-118111920D01*
X129688237Y-118112145D01*
X129687775Y-118112397D01*
X129685361Y-118113585D01*
X129678946Y-118115920D01*
X129631786Y-118145849D01*
X129612237Y-118158255D01*
X129609634Y-118159863D01*
X129541879Y-118200575D01*
X129536918Y-118205267D01*
X129534795Y-118206878D01*
X129533896Y-118207503D01*
X129530041Y-118210418D01*
X129525675Y-118213189D01*
X129521522Y-118216902D01*
X129468976Y-118269448D01*
X129466454Y-118271901D01*
X129415554Y-118320035D01*
X129409983Y-118325303D01*
X129406149Y-118330944D01*
X129401820Y-118336031D01*
X129394963Y-118343461D01*
X126690829Y-121047595D01*
X126628517Y-121081621D01*
X126601734Y-121084500D01*
X123389500Y-121084500D01*
X123321379Y-121064498D01*
X123274886Y-121010842D01*
X123263500Y-120958500D01*
X123263500Y-119664509D01*
X123283502Y-119596388D01*
X123292978Y-119583518D01*
X123293426Y-119582984D01*
X123298976Y-119576370D01*
X123301939Y-119570981D01*
X123301942Y-119570976D01*
X123395257Y-119401235D01*
X123398224Y-119395838D01*
X123460516Y-119199468D01*
X123461474Y-119190932D01*
X123478107Y-119042636D01*
X123478500Y-119039136D01*
X123478500Y-118678159D01*
X123463480Y-118524970D01*
X123403935Y-118327749D01*
X123307218Y-118145849D01*
X123230793Y-118052143D01*
X123180906Y-117990975D01*
X123180903Y-117990972D01*
X123177011Y-117986200D01*
X123172038Y-117982086D01*
X123023025Y-117858811D01*
X123023021Y-117858809D01*
X123018275Y-117854882D01*
X122837055Y-117756897D01*
X122640254Y-117695977D01*
X122634129Y-117695333D01*
X122634128Y-117695333D01*
X122441498Y-117675087D01*
X122441496Y-117675087D01*
X122435369Y-117674443D01*
X122351175Y-117682105D01*
X122236342Y-117692555D01*
X122236339Y-117692556D01*
X122230203Y-117693114D01*
X122032572Y-117751280D01*
X121850002Y-117846726D01*
X121845201Y-117850586D01*
X121845198Y-117850588D01*
X121751825Y-117925662D01*
X121689447Y-117975815D01*
X121557024Y-118133630D01*
X121554055Y-118139031D01*
X121554048Y-118139041D01*
X121522413Y-118196585D01*
X121472068Y-118246644D01*
X121402651Y-118261537D01*
X121336202Y-118236536D01*
X121293818Y-118179579D01*
X121285999Y-118135884D01*
X121285999Y-118082905D01*
X121285662Y-118076386D01*
X121275743Y-117980794D01*
X121272851Y-117967400D01*
X121221412Y-117813216D01*
X121215239Y-117800038D01*
X121129937Y-117662193D01*
X121120901Y-117650792D01*
X121006171Y-117536261D01*
X120994760Y-117527249D01*
X120856757Y-117442184D01*
X120843576Y-117436037D01*
X120689290Y-117384862D01*
X120675914Y-117381995D01*
X120581562Y-117372328D01*
X120575145Y-117372000D01*
X120200115Y-117372000D01*
X120184876Y-117376475D01*
X120183671Y-117377865D01*
X120182000Y-117385548D01*
X120182000Y-120319884D01*
X120186475Y-120335123D01*
X120187865Y-120336328D01*
X120195548Y-120337999D01*
X120575095Y-120337999D01*
X120581614Y-120337662D01*
X120677206Y-120327743D01*
X120690600Y-120324851D01*
X120844784Y-120273412D01*
X120857962Y-120267239D01*
X120995807Y-120181937D01*
X121007208Y-120172901D01*
X121121739Y-120058171D01*
X121130751Y-120046760D01*
X121215816Y-119908757D01*
X121221963Y-119895576D01*
X121273138Y-119741290D01*
X121276005Y-119727914D01*
X121285672Y-119633562D01*
X121286000Y-119627146D01*
X121286000Y-119575289D01*
X121306002Y-119507168D01*
X121359658Y-119460675D01*
X121429932Y-119450571D01*
X121494512Y-119480065D01*
X121523251Y-119516136D01*
X121545884Y-119558702D01*
X121545888Y-119558708D01*
X121548782Y-119564151D01*
X121552677Y-119568927D01*
X121552678Y-119568928D01*
X121564142Y-119582984D01*
X121591697Y-119648416D01*
X121592500Y-119662621D01*
X121592500Y-121521735D01*
X121572498Y-121589856D01*
X121555595Y-121610830D01*
X116911849Y-126254575D01*
X116849537Y-126288601D01*
X116822754Y-126291480D01*
X103248245Y-126291480D01*
X103180124Y-126271478D01*
X103159150Y-126254575D01*
X99833245Y-122928669D01*
X102843001Y-122928669D01*
X102843371Y-122935490D01*
X102848895Y-122986352D01*
X102852521Y-123001604D01*
X102897676Y-123122054D01*
X102906214Y-123137649D01*
X102982715Y-123239724D01*
X102995276Y-123252285D01*
X103097351Y-123328786D01*
X103112946Y-123337324D01*
X103233394Y-123382478D01*
X103248649Y-123386105D01*
X103299514Y-123391631D01*
X103306328Y-123392000D01*
X107078885Y-123392000D01*
X107094124Y-123387525D01*
X107095329Y-123386135D01*
X107097000Y-123378452D01*
X107097000Y-123373884D01*
X107605000Y-123373884D01*
X107609475Y-123389123D01*
X107610865Y-123390328D01*
X107618548Y-123391999D01*
X111395669Y-123391999D01*
X111402490Y-123391629D01*
X111453352Y-123386105D01*
X111468604Y-123382479D01*
X111589054Y-123337324D01*
X111604649Y-123328786D01*
X111706724Y-123252285D01*
X111719285Y-123239724D01*
X111795786Y-123137649D01*
X111804324Y-123122054D01*
X111849478Y-123001606D01*
X111853105Y-122986351D01*
X111858631Y-122935486D01*
X111859000Y-122928672D01*
X111859000Y-120656115D01*
X111854525Y-120640876D01*
X111853135Y-120639671D01*
X111845452Y-120638000D01*
X107623115Y-120638000D01*
X107607876Y-120642475D01*
X107606671Y-120643865D01*
X107605000Y-120651548D01*
X107605000Y-123373884D01*
X107097000Y-123373884D01*
X107097000Y-120656115D01*
X107092525Y-120640876D01*
X107091135Y-120639671D01*
X107083452Y-120638000D01*
X102861116Y-120638000D01*
X102845877Y-120642475D01*
X102844672Y-120643865D01*
X102843001Y-120651548D01*
X102843001Y-122928669D01*
X99833245Y-122928669D01*
X98344405Y-121439829D01*
X98310379Y-121377517D01*
X98307500Y-121350734D01*
X98307500Y-120111885D01*
X102843000Y-120111885D01*
X102847475Y-120127124D01*
X102848865Y-120128329D01*
X102856548Y-120130000D01*
X107078885Y-120130000D01*
X107094124Y-120125525D01*
X107095329Y-120124135D01*
X107097000Y-120116452D01*
X107097000Y-120111885D01*
X107605000Y-120111885D01*
X107609475Y-120127124D01*
X107610865Y-120128329D01*
X107618548Y-120130000D01*
X111840884Y-120130000D01*
X111856123Y-120125525D01*
X111857328Y-120124135D01*
X111858999Y-120116452D01*
X111858999Y-119627095D01*
X118570001Y-119627095D01*
X118570338Y-119633614D01*
X118580257Y-119729206D01*
X118583149Y-119742600D01*
X118634588Y-119896784D01*
X118640761Y-119909962D01*
X118726063Y-120047807D01*
X118735099Y-120059208D01*
X118849829Y-120173739D01*
X118861240Y-120182751D01*
X118999243Y-120267816D01*
X119012424Y-120273963D01*
X119166710Y-120325138D01*
X119180086Y-120328005D01*
X119274438Y-120337672D01*
X119280854Y-120338000D01*
X119655885Y-120338000D01*
X119671124Y-120333525D01*
X119672329Y-120332135D01*
X119674000Y-120324452D01*
X119674000Y-119127115D01*
X119669525Y-119111876D01*
X119668135Y-119110671D01*
X119660452Y-119109000D01*
X118588116Y-119109000D01*
X118572877Y-119113475D01*
X118571672Y-119114865D01*
X118570001Y-119122548D01*
X118570001Y-119627095D01*
X111858999Y-119627095D01*
X111858999Y-118582885D01*
X118570000Y-118582885D01*
X118574475Y-118598124D01*
X118575865Y-118599329D01*
X118583548Y-118601000D01*
X119655885Y-118601000D01*
X119671124Y-118596525D01*
X119672329Y-118595135D01*
X119674000Y-118587452D01*
X119674000Y-117390116D01*
X119669525Y-117374877D01*
X119668135Y-117373672D01*
X119660452Y-117372001D01*
X119280905Y-117372001D01*
X119274386Y-117372338D01*
X119178794Y-117382257D01*
X119165400Y-117385149D01*
X119011216Y-117436588D01*
X118998038Y-117442761D01*
X118860193Y-117528063D01*
X118848792Y-117537099D01*
X118734261Y-117651829D01*
X118725249Y-117663240D01*
X118640184Y-117801243D01*
X118634037Y-117814424D01*
X118582862Y-117968710D01*
X118579995Y-117982086D01*
X118570328Y-118076438D01*
X118570000Y-118082855D01*
X118570000Y-118582885D01*
X111858999Y-118582885D01*
X111858999Y-117839331D01*
X111858629Y-117832510D01*
X111853105Y-117781648D01*
X111849479Y-117766396D01*
X111804324Y-117645946D01*
X111795786Y-117630351D01*
X111719285Y-117528276D01*
X111706724Y-117515715D01*
X111604649Y-117439214D01*
X111589054Y-117430676D01*
X111468606Y-117385522D01*
X111453351Y-117381895D01*
X111402486Y-117376369D01*
X111395672Y-117376000D01*
X107623115Y-117376000D01*
X107607876Y-117380475D01*
X107606671Y-117381865D01*
X107605000Y-117389548D01*
X107605000Y-120111885D01*
X107097000Y-120111885D01*
X107097000Y-117394116D01*
X107092525Y-117378877D01*
X107091135Y-117377672D01*
X107083452Y-117376001D01*
X103306331Y-117376001D01*
X103299510Y-117376371D01*
X103248648Y-117381895D01*
X103233396Y-117385521D01*
X103112946Y-117430676D01*
X103097351Y-117439214D01*
X102995276Y-117515715D01*
X102982715Y-117528276D01*
X102906214Y-117630351D01*
X102897676Y-117645946D01*
X102852522Y-117766394D01*
X102848895Y-117781649D01*
X102843369Y-117832514D01*
X102843000Y-117839328D01*
X102843000Y-120111885D01*
X98307500Y-120111885D01*
X98307500Y-117864252D01*
X98295867Y-117805769D01*
X98251552Y-117739448D01*
X98185231Y-117695133D01*
X98173062Y-117692712D01*
X98173061Y-117692712D01*
X98132816Y-117684707D01*
X98126748Y-117683500D01*
X90087252Y-117683500D01*
X90081184Y-117684707D01*
X90040939Y-117692712D01*
X90040938Y-117692712D01*
X90028769Y-117695133D01*
X89962448Y-117739448D01*
X89918133Y-117805769D01*
X89906500Y-117864252D01*
X89906500Y-122903748D01*
X86361000Y-122903748D01*
X86361000Y-110553433D01*
X115042500Y-110553433D01*
X115045564Y-110562864D01*
X115045565Y-110562868D01*
X115049297Y-110574353D01*
X115053913Y-110593578D01*
X115057354Y-110615304D01*
X115061855Y-110624137D01*
X115061856Y-110624141D01*
X115067341Y-110634906D01*
X115074905Y-110653166D01*
X115081704Y-110674090D01*
X115094639Y-110691893D01*
X115104965Y-110708745D01*
X115114950Y-110728342D01*
X115137513Y-110750905D01*
X115137516Y-110750909D01*
X117527950Y-113141342D01*
X117617658Y-113231050D01*
X117626492Y-113235551D01*
X117626493Y-113235552D01*
X117637259Y-113241038D01*
X117654116Y-113251368D01*
X117671910Y-113264296D01*
X117692832Y-113271094D01*
X117711093Y-113278658D01*
X117721861Y-113284145D01*
X117721865Y-113284146D01*
X117730696Y-113288646D01*
X117740485Y-113290197D01*
X117740493Y-113290199D01*
X117752427Y-113292089D01*
X117771647Y-113296703D01*
X117783133Y-113300435D01*
X117783140Y-113300436D01*
X117792567Y-113303499D01*
X117824477Y-113303499D01*
X117824481Y-113303500D01*
X121574917Y-113303500D01*
X121643038Y-113323502D01*
X121664012Y-113340405D01*
X124490595Y-116166988D01*
X124524621Y-116229300D01*
X124527500Y-116256083D01*
X124527500Y-117677624D01*
X124507498Y-117745745D01*
X124459876Y-117789285D01*
X124350002Y-117846726D01*
X124345202Y-117850586D01*
X124345201Y-117850586D01*
X124252854Y-117924835D01*
X124189447Y-117975815D01*
X124057024Y-118133630D01*
X124054056Y-118139028D01*
X124054053Y-118139033D01*
X123981669Y-118270700D01*
X123957776Y-118314162D01*
X123895484Y-118510532D01*
X123894798Y-118516649D01*
X123894797Y-118516653D01*
X123887368Y-118582885D01*
X123877500Y-118670864D01*
X123877500Y-119031841D01*
X123892520Y-119185030D01*
X123952065Y-119382251D01*
X124048782Y-119564151D01*
X124109186Y-119638213D01*
X124175094Y-119719025D01*
X124175097Y-119719028D01*
X124178989Y-119723800D01*
X124183736Y-119727727D01*
X124183738Y-119727729D01*
X124332975Y-119851189D01*
X124332979Y-119851191D01*
X124337725Y-119855118D01*
X124518945Y-119953103D01*
X124715746Y-120014023D01*
X124721871Y-120014667D01*
X124721872Y-120014667D01*
X124914502Y-120034913D01*
X124914504Y-120034913D01*
X124920631Y-120035557D01*
X125007471Y-120027654D01*
X125119658Y-120017445D01*
X125119661Y-120017444D01*
X125125797Y-120016886D01*
X125323428Y-119958720D01*
X125505998Y-119863274D01*
X125510799Y-119859414D01*
X125510802Y-119859412D01*
X125661746Y-119738050D01*
X125661747Y-119738050D01*
X125666553Y-119734185D01*
X125798976Y-119576370D01*
X125801944Y-119570972D01*
X125801947Y-119570967D01*
X125895257Y-119401235D01*
X125898224Y-119395838D01*
X125960516Y-119199468D01*
X125961474Y-119190932D01*
X125978107Y-119042636D01*
X125978500Y-119039136D01*
X125978500Y-118678159D01*
X125963480Y-118524970D01*
X125903935Y-118327749D01*
X125807218Y-118145849D01*
X125730793Y-118052143D01*
X125680906Y-117990975D01*
X125680903Y-117990972D01*
X125677011Y-117986200D01*
X125672038Y-117982086D01*
X125523025Y-117858811D01*
X125523021Y-117858809D01*
X125518275Y-117854882D01*
X125512854Y-117851951D01*
X125512850Y-117851948D01*
X125394572Y-117787996D01*
X125344163Y-117738001D01*
X125328500Y-117677160D01*
X125328500Y-116057885D01*
X131738000Y-116057885D01*
X131742475Y-116073124D01*
X131743865Y-116074329D01*
X131751548Y-116076000D01*
X132823885Y-116076000D01*
X132839124Y-116071525D01*
X132840329Y-116070135D01*
X132842000Y-116062452D01*
X132842000Y-116057885D01*
X133350000Y-116057885D01*
X133354475Y-116073124D01*
X133355865Y-116074329D01*
X133363548Y-116076000D01*
X134435884Y-116076000D01*
X134451123Y-116071525D01*
X134452328Y-116070135D01*
X134453999Y-116062452D01*
X134453999Y-115435331D01*
X134453629Y-115428510D01*
X134448105Y-115377648D01*
X134444479Y-115362396D01*
X134399324Y-115241946D01*
X134390786Y-115226351D01*
X134314285Y-115124276D01*
X134301724Y-115111715D01*
X134199649Y-115035214D01*
X134184054Y-115026676D01*
X134063606Y-114981522D01*
X134048351Y-114977895D01*
X133997486Y-114972369D01*
X133990672Y-114972000D01*
X133368115Y-114972000D01*
X133352876Y-114976475D01*
X133351671Y-114977865D01*
X133350000Y-114985548D01*
X133350000Y-116057885D01*
X132842000Y-116057885D01*
X132842000Y-114990116D01*
X132837525Y-114974877D01*
X132836135Y-114973672D01*
X132828452Y-114972001D01*
X132201331Y-114972001D01*
X132194510Y-114972371D01*
X132143648Y-114977895D01*
X132128396Y-114981521D01*
X132007946Y-115026676D01*
X131992351Y-115035214D01*
X131890276Y-115111715D01*
X131877715Y-115124276D01*
X131801214Y-115226351D01*
X131792676Y-115241946D01*
X131747522Y-115362394D01*
X131743895Y-115377649D01*
X131738369Y-115428514D01*
X131738000Y-115435328D01*
X131738000Y-116057885D01*
X125328500Y-116057885D01*
X125328500Y-115974567D01*
X125321703Y-115953648D01*
X125317087Y-115934422D01*
X125315197Y-115922489D01*
X125313646Y-115912696D01*
X125303660Y-115893097D01*
X125296096Y-115874836D01*
X125289297Y-115853911D01*
X125276366Y-115836113D01*
X125266037Y-115819257D01*
X125260552Y-115808493D01*
X125260551Y-115808492D01*
X125256050Y-115799658D01*
X125233487Y-115777095D01*
X125233484Y-115777091D01*
X122053909Y-112597516D01*
X122053905Y-112597513D01*
X122031342Y-112574950D01*
X122011746Y-112564965D01*
X121994893Y-112554639D01*
X121977090Y-112541704D01*
X121956166Y-112534905D01*
X121937906Y-112527341D01*
X121927141Y-112521856D01*
X121927137Y-112521855D01*
X121918304Y-112517354D01*
X121908513Y-112515803D01*
X121908512Y-112515803D01*
X121896578Y-112513913D01*
X121877353Y-112509297D01*
X121865868Y-112505565D01*
X121865864Y-112505564D01*
X121856433Y-112502500D01*
X118074082Y-112502500D01*
X118005961Y-112482498D01*
X117984987Y-112465595D01*
X115880405Y-110361012D01*
X115846379Y-110298700D01*
X115843500Y-110271917D01*
X115843500Y-109078963D01*
X117358757Y-109078963D01*
X117375175Y-109274483D01*
X117429258Y-109463091D01*
X117432076Y-109468574D01*
X117516123Y-109632113D01*
X117516126Y-109632117D01*
X117518944Y-109637601D01*
X117640818Y-109791369D01*
X117790238Y-109918535D01*
X117795616Y-109921541D01*
X117795618Y-109921542D01*
X117831932Y-109941837D01*
X117961513Y-110014257D01*
X118148118Y-110074889D01*
X118342946Y-110098121D01*
X118349081Y-110097649D01*
X118349083Y-110097649D01*
X118532434Y-110083541D01*
X118532438Y-110083540D01*
X118538576Y-110083068D01*
X118727556Y-110030303D01*
X118902689Y-109941837D01*
X118932515Y-109918535D01*
X119030461Y-109842011D01*
X119057303Y-109821040D01*
X119087084Y-109786539D01*
X119181485Y-109677173D01*
X119181485Y-109677172D01*
X119185509Y-109672511D01*
X119282425Y-109501909D01*
X119344358Y-109315732D01*
X119368949Y-109121071D01*
X119369341Y-109093000D01*
X119367965Y-109078963D01*
X119898757Y-109078963D01*
X119915175Y-109274483D01*
X119969258Y-109463091D01*
X119972076Y-109468574D01*
X120056123Y-109632113D01*
X120056126Y-109632117D01*
X120058944Y-109637601D01*
X120180818Y-109791369D01*
X120330238Y-109918535D01*
X120335616Y-109921541D01*
X120335618Y-109921542D01*
X120371932Y-109941837D01*
X120501513Y-110014257D01*
X120688118Y-110074889D01*
X120882946Y-110098121D01*
X120889081Y-110097649D01*
X120889083Y-110097649D01*
X121072434Y-110083541D01*
X121072438Y-110083540D01*
X121078576Y-110083068D01*
X121267556Y-110030303D01*
X121442689Y-109941837D01*
X121472515Y-109918535D01*
X121570461Y-109842011D01*
X121597303Y-109821040D01*
X121627084Y-109786539D01*
X121721485Y-109677173D01*
X121721485Y-109677172D01*
X121725509Y-109672511D01*
X121822425Y-109501909D01*
X121884358Y-109315732D01*
X121908949Y-109121071D01*
X121909341Y-109093000D01*
X121907965Y-109078963D01*
X122438757Y-109078963D01*
X122455175Y-109274483D01*
X122509258Y-109463091D01*
X122512076Y-109468574D01*
X122596123Y-109632113D01*
X122596126Y-109632117D01*
X122598944Y-109637601D01*
X122720818Y-109791369D01*
X122870238Y-109918535D01*
X122875616Y-109921541D01*
X122875618Y-109921542D01*
X122911932Y-109941837D01*
X123041513Y-110014257D01*
X123228118Y-110074889D01*
X123422946Y-110098121D01*
X123429081Y-110097649D01*
X123429083Y-110097649D01*
X123612434Y-110083541D01*
X123612438Y-110083540D01*
X123618576Y-110083068D01*
X123807556Y-110030303D01*
X123982689Y-109941837D01*
X124012515Y-109918535D01*
X124110461Y-109842011D01*
X124137303Y-109821040D01*
X124167084Y-109786539D01*
X124261485Y-109677173D01*
X124261485Y-109677172D01*
X124265509Y-109672511D01*
X124362425Y-109501909D01*
X124424358Y-109315732D01*
X124448949Y-109121071D01*
X124449341Y-109093000D01*
X124447965Y-109078963D01*
X124978757Y-109078963D01*
X124995175Y-109274483D01*
X125049258Y-109463091D01*
X125052076Y-109468574D01*
X125136123Y-109632113D01*
X125136126Y-109632117D01*
X125138944Y-109637601D01*
X125260818Y-109791369D01*
X125410238Y-109918535D01*
X125415616Y-109921541D01*
X125415618Y-109921542D01*
X125451932Y-109941837D01*
X125581513Y-110014257D01*
X125768118Y-110074889D01*
X125962946Y-110098121D01*
X125969081Y-110097649D01*
X125969083Y-110097649D01*
X126152434Y-110083541D01*
X126152438Y-110083540D01*
X126158576Y-110083068D01*
X126347556Y-110030303D01*
X126522689Y-109941837D01*
X126552515Y-109918535D01*
X126650461Y-109842011D01*
X126677303Y-109821040D01*
X126707084Y-109786539D01*
X126801485Y-109677173D01*
X126801485Y-109677172D01*
X126805509Y-109672511D01*
X126902425Y-109501909D01*
X126964358Y-109315732D01*
X126988949Y-109121071D01*
X126989341Y-109093000D01*
X126987965Y-109078963D01*
X127518757Y-109078963D01*
X127535175Y-109274483D01*
X127589258Y-109463091D01*
X127592076Y-109468574D01*
X127676123Y-109632113D01*
X127676126Y-109632117D01*
X127678944Y-109637601D01*
X127800818Y-109791369D01*
X127950238Y-109918535D01*
X127955616Y-109921541D01*
X127955618Y-109921542D01*
X127991932Y-109941837D01*
X128121513Y-110014257D01*
X128308118Y-110074889D01*
X128502946Y-110098121D01*
X128509081Y-110097649D01*
X128509083Y-110097649D01*
X128692434Y-110083541D01*
X128692438Y-110083540D01*
X128698576Y-110083068D01*
X128887556Y-110030303D01*
X129062689Y-109941837D01*
X129092515Y-109918535D01*
X129190461Y-109842011D01*
X129217303Y-109821040D01*
X129247084Y-109786539D01*
X129341485Y-109677173D01*
X129341485Y-109677172D01*
X129345509Y-109672511D01*
X129442425Y-109501909D01*
X129504358Y-109315732D01*
X129528949Y-109121071D01*
X129529341Y-109093000D01*
X129527965Y-109078963D01*
X130058757Y-109078963D01*
X130075175Y-109274483D01*
X130129258Y-109463091D01*
X130132076Y-109468574D01*
X130216123Y-109632113D01*
X130216126Y-109632117D01*
X130218944Y-109637601D01*
X130340818Y-109791369D01*
X130490238Y-109918535D01*
X130495616Y-109921541D01*
X130495618Y-109921542D01*
X130531932Y-109941837D01*
X130661513Y-110014257D01*
X130848118Y-110074889D01*
X131042946Y-110098121D01*
X131049081Y-110097649D01*
X131049083Y-110097649D01*
X131232434Y-110083541D01*
X131232438Y-110083540D01*
X131238576Y-110083068D01*
X131427556Y-110030303D01*
X131602689Y-109941837D01*
X131632515Y-109918535D01*
X131730461Y-109842011D01*
X131757303Y-109821040D01*
X131787084Y-109786539D01*
X131881485Y-109677173D01*
X131881485Y-109677172D01*
X131885509Y-109672511D01*
X131982425Y-109501909D01*
X132044358Y-109315732D01*
X132068949Y-109121071D01*
X132069341Y-109093000D01*
X132067965Y-109078963D01*
X132598757Y-109078963D01*
X132615175Y-109274483D01*
X132669258Y-109463091D01*
X132672076Y-109468574D01*
X132756123Y-109632113D01*
X132756126Y-109632117D01*
X132758944Y-109637601D01*
X132880818Y-109791369D01*
X133030238Y-109918535D01*
X133035616Y-109921541D01*
X133035618Y-109921542D01*
X133071932Y-109941837D01*
X133201513Y-110014257D01*
X133388118Y-110074889D01*
X133582946Y-110098121D01*
X133589081Y-110097649D01*
X133589083Y-110097649D01*
X133772434Y-110083541D01*
X133772438Y-110083540D01*
X133778576Y-110083068D01*
X133967556Y-110030303D01*
X134142689Y-109941837D01*
X134172515Y-109918535D01*
X134270461Y-109842011D01*
X134297303Y-109821040D01*
X134327084Y-109786539D01*
X134421485Y-109677173D01*
X134421485Y-109677172D01*
X134425509Y-109672511D01*
X134522425Y-109501909D01*
X134584358Y-109315732D01*
X134608949Y-109121071D01*
X134609341Y-109093000D01*
X134607965Y-109078963D01*
X139202757Y-109078963D01*
X139219175Y-109274483D01*
X139273258Y-109463091D01*
X139276076Y-109468574D01*
X139360123Y-109632113D01*
X139360126Y-109632117D01*
X139362944Y-109637601D01*
X139484818Y-109791369D01*
X139634238Y-109918535D01*
X139639616Y-109921541D01*
X139639618Y-109921542D01*
X139675932Y-109941837D01*
X139805513Y-110014257D01*
X139992118Y-110074889D01*
X140186946Y-110098121D01*
X140193081Y-110097649D01*
X140193083Y-110097649D01*
X140376434Y-110083541D01*
X140376438Y-110083540D01*
X140382576Y-110083068D01*
X140571556Y-110030303D01*
X140746689Y-109941837D01*
X140776515Y-109918535D01*
X140874461Y-109842011D01*
X140901303Y-109821040D01*
X140931084Y-109786539D01*
X141025485Y-109677173D01*
X141025485Y-109677172D01*
X141029509Y-109672511D01*
X141094980Y-109557262D01*
X141146018Y-109507913D01*
X141204535Y-109493500D01*
X151730624Y-109493500D01*
X151798745Y-109513502D01*
X151842285Y-109561124D01*
X151899726Y-109670998D01*
X152028815Y-109831553D01*
X152186630Y-109963976D01*
X152192028Y-109966944D01*
X152192033Y-109966947D01*
X152361765Y-110060257D01*
X152367162Y-110063224D01*
X152563532Y-110125516D01*
X152569649Y-110126202D01*
X152569653Y-110126203D01*
X152645874Y-110134752D01*
X152723864Y-110143500D01*
X153084841Y-110143500D01*
X153238030Y-110128480D01*
X153435251Y-110068935D01*
X153617151Y-109972218D01*
X153707098Y-109898859D01*
X153772025Y-109845906D01*
X153772028Y-109845903D01*
X153776800Y-109842011D01*
X153785452Y-109831553D01*
X153904189Y-109688025D01*
X153904191Y-109688021D01*
X153908118Y-109683275D01*
X154006103Y-109502055D01*
X154067023Y-109305254D01*
X154088557Y-109100369D01*
X154069886Y-108895203D01*
X154011720Y-108697572D01*
X154008577Y-108691559D01*
X153919131Y-108520467D01*
X153916274Y-108515002D01*
X153906404Y-108502725D01*
X153791050Y-108359254D01*
X153791050Y-108359253D01*
X153787185Y-108354447D01*
X153629370Y-108222024D01*
X153623972Y-108219056D01*
X153623967Y-108219053D01*
X153454235Y-108125743D01*
X153448838Y-108122776D01*
X153252468Y-108060484D01*
X153246351Y-108059798D01*
X153246347Y-108059797D01*
X153170126Y-108051248D01*
X153092136Y-108042500D01*
X152731159Y-108042500D01*
X152577970Y-108057520D01*
X152380749Y-108117065D01*
X152198849Y-108213782D01*
X152137932Y-108263465D01*
X152043975Y-108340094D01*
X152043972Y-108340097D01*
X152039200Y-108343989D01*
X152035273Y-108348736D01*
X152035271Y-108348738D01*
X151911811Y-108497975D01*
X151911809Y-108497979D01*
X151907882Y-108502725D01*
X151904952Y-108508145D01*
X151904948Y-108508150D01*
X151840996Y-108626428D01*
X151791001Y-108676837D01*
X151730160Y-108692500D01*
X141203943Y-108692500D01*
X141135822Y-108672498D01*
X141092692Y-108625653D01*
X141048268Y-108542104D01*
X141045370Y-108536653D01*
X140921361Y-108384602D01*
X140770180Y-108259535D01*
X140597585Y-108166213D01*
X140503868Y-108137203D01*
X140416039Y-108110015D01*
X140416036Y-108110014D01*
X140410152Y-108108193D01*
X140404027Y-108107549D01*
X140404026Y-108107549D01*
X140221147Y-108088327D01*
X140221146Y-108088327D01*
X140215019Y-108087683D01*
X140092383Y-108098844D01*
X140025759Y-108104907D01*
X140025758Y-108104907D01*
X140019618Y-108105466D01*
X140013704Y-108107207D01*
X140013702Y-108107207D01*
X139980208Y-108117065D01*
X139831393Y-108160864D01*
X139825928Y-108163721D01*
X139662972Y-108248912D01*
X139662968Y-108248915D01*
X139657512Y-108251767D01*
X139652712Y-108255627D01*
X139652711Y-108255627D01*
X139618326Y-108283273D01*
X139504600Y-108374711D01*
X139378480Y-108525016D01*
X139375516Y-108530408D01*
X139375513Y-108530412D01*
X139323154Y-108625653D01*
X139283956Y-108696954D01*
X139282095Y-108702821D01*
X139282094Y-108702823D01*
X139281577Y-108704452D01*
X139224628Y-108883978D01*
X139202757Y-109078963D01*
X134607965Y-109078963D01*
X134590194Y-108897728D01*
X134588413Y-108891829D01*
X134588412Y-108891824D01*
X134535265Y-108715793D01*
X134533484Y-108709894D01*
X134441370Y-108536653D01*
X134317361Y-108384602D01*
X134166180Y-108259535D01*
X133993585Y-108166213D01*
X133899868Y-108137203D01*
X133812039Y-108110015D01*
X133812036Y-108110014D01*
X133806152Y-108108193D01*
X133800027Y-108107549D01*
X133800026Y-108107549D01*
X133617147Y-108088327D01*
X133617146Y-108088327D01*
X133611019Y-108087683D01*
X133488383Y-108098844D01*
X133421759Y-108104907D01*
X133421758Y-108104907D01*
X133415618Y-108105466D01*
X133409704Y-108107207D01*
X133409702Y-108107207D01*
X133376208Y-108117065D01*
X133227393Y-108160864D01*
X133221928Y-108163721D01*
X133058972Y-108248912D01*
X133058968Y-108248915D01*
X133053512Y-108251767D01*
X133048712Y-108255627D01*
X133048711Y-108255627D01*
X133014326Y-108283273D01*
X132900600Y-108374711D01*
X132774480Y-108525016D01*
X132771516Y-108530408D01*
X132771513Y-108530412D01*
X132719154Y-108625653D01*
X132679956Y-108696954D01*
X132678095Y-108702821D01*
X132678094Y-108702823D01*
X132677577Y-108704452D01*
X132620628Y-108883978D01*
X132598757Y-109078963D01*
X132067965Y-109078963D01*
X132050194Y-108897728D01*
X132048413Y-108891829D01*
X132048412Y-108891824D01*
X131995265Y-108715793D01*
X131993484Y-108709894D01*
X131901370Y-108536653D01*
X131777361Y-108384602D01*
X131626180Y-108259535D01*
X131453585Y-108166213D01*
X131359868Y-108137203D01*
X131272039Y-108110015D01*
X131272036Y-108110014D01*
X131266152Y-108108193D01*
X131260027Y-108107549D01*
X131260026Y-108107549D01*
X131077147Y-108088327D01*
X131077146Y-108088327D01*
X131071019Y-108087683D01*
X130948383Y-108098844D01*
X130881759Y-108104907D01*
X130881758Y-108104907D01*
X130875618Y-108105466D01*
X130869704Y-108107207D01*
X130869702Y-108107207D01*
X130836208Y-108117065D01*
X130687393Y-108160864D01*
X130681928Y-108163721D01*
X130518972Y-108248912D01*
X130518968Y-108248915D01*
X130513512Y-108251767D01*
X130508712Y-108255627D01*
X130508711Y-108255627D01*
X130474326Y-108283273D01*
X130360600Y-108374711D01*
X130234480Y-108525016D01*
X130231516Y-108530408D01*
X130231513Y-108530412D01*
X130179154Y-108625653D01*
X130139956Y-108696954D01*
X130138095Y-108702821D01*
X130138094Y-108702823D01*
X130137577Y-108704452D01*
X130080628Y-108883978D01*
X130058757Y-109078963D01*
X129527965Y-109078963D01*
X129510194Y-108897728D01*
X129508413Y-108891829D01*
X129508412Y-108891824D01*
X129455265Y-108715793D01*
X129453484Y-108709894D01*
X129361370Y-108536653D01*
X129237361Y-108384602D01*
X129086180Y-108259535D01*
X128913585Y-108166213D01*
X128819868Y-108137203D01*
X128732039Y-108110015D01*
X128732036Y-108110014D01*
X128726152Y-108108193D01*
X128720027Y-108107549D01*
X128720026Y-108107549D01*
X128537147Y-108088327D01*
X128537146Y-108088327D01*
X128531019Y-108087683D01*
X128408383Y-108098844D01*
X128341759Y-108104907D01*
X128341758Y-108104907D01*
X128335618Y-108105466D01*
X128329704Y-108107207D01*
X128329702Y-108107207D01*
X128296208Y-108117065D01*
X128147393Y-108160864D01*
X128141928Y-108163721D01*
X127978972Y-108248912D01*
X127978968Y-108248915D01*
X127973512Y-108251767D01*
X127968712Y-108255627D01*
X127968711Y-108255627D01*
X127934326Y-108283273D01*
X127820600Y-108374711D01*
X127694480Y-108525016D01*
X127691516Y-108530408D01*
X127691513Y-108530412D01*
X127639154Y-108625653D01*
X127599956Y-108696954D01*
X127598095Y-108702821D01*
X127598094Y-108702823D01*
X127597577Y-108704452D01*
X127540628Y-108883978D01*
X127518757Y-109078963D01*
X126987965Y-109078963D01*
X126970194Y-108897728D01*
X126968413Y-108891829D01*
X126968412Y-108891824D01*
X126915265Y-108715793D01*
X126913484Y-108709894D01*
X126821370Y-108536653D01*
X126697361Y-108384602D01*
X126546180Y-108259535D01*
X126373585Y-108166213D01*
X126279868Y-108137203D01*
X126192039Y-108110015D01*
X126192036Y-108110014D01*
X126186152Y-108108193D01*
X126180027Y-108107549D01*
X126180026Y-108107549D01*
X125997147Y-108088327D01*
X125997146Y-108088327D01*
X125991019Y-108087683D01*
X125868383Y-108098844D01*
X125801759Y-108104907D01*
X125801758Y-108104907D01*
X125795618Y-108105466D01*
X125789704Y-108107207D01*
X125789702Y-108107207D01*
X125756208Y-108117065D01*
X125607393Y-108160864D01*
X125601928Y-108163721D01*
X125438972Y-108248912D01*
X125438968Y-108248915D01*
X125433512Y-108251767D01*
X125428712Y-108255627D01*
X125428711Y-108255627D01*
X125394326Y-108283273D01*
X125280600Y-108374711D01*
X125154480Y-108525016D01*
X125151516Y-108530408D01*
X125151513Y-108530412D01*
X125099154Y-108625653D01*
X125059956Y-108696954D01*
X125058095Y-108702821D01*
X125058094Y-108702823D01*
X125057577Y-108704452D01*
X125000628Y-108883978D01*
X124978757Y-109078963D01*
X124447965Y-109078963D01*
X124430194Y-108897728D01*
X124428413Y-108891829D01*
X124428412Y-108891824D01*
X124375265Y-108715793D01*
X124373484Y-108709894D01*
X124281370Y-108536653D01*
X124157361Y-108384602D01*
X124006180Y-108259535D01*
X123833585Y-108166213D01*
X123739868Y-108137203D01*
X123652039Y-108110015D01*
X123652036Y-108110014D01*
X123646152Y-108108193D01*
X123640027Y-108107549D01*
X123640026Y-108107549D01*
X123457147Y-108088327D01*
X123457146Y-108088327D01*
X123451019Y-108087683D01*
X123328383Y-108098844D01*
X123261759Y-108104907D01*
X123261758Y-108104907D01*
X123255618Y-108105466D01*
X123249704Y-108107207D01*
X123249702Y-108107207D01*
X123216208Y-108117065D01*
X123067393Y-108160864D01*
X123061928Y-108163721D01*
X122898972Y-108248912D01*
X122898968Y-108248915D01*
X122893512Y-108251767D01*
X122888712Y-108255627D01*
X122888711Y-108255627D01*
X122854326Y-108283273D01*
X122740600Y-108374711D01*
X122614480Y-108525016D01*
X122611516Y-108530408D01*
X122611513Y-108530412D01*
X122559154Y-108625653D01*
X122519956Y-108696954D01*
X122518095Y-108702821D01*
X122518094Y-108702823D01*
X122517577Y-108704452D01*
X122460628Y-108883978D01*
X122438757Y-109078963D01*
X121907965Y-109078963D01*
X121890194Y-108897728D01*
X121888413Y-108891829D01*
X121888412Y-108891824D01*
X121835265Y-108715793D01*
X121833484Y-108709894D01*
X121741370Y-108536653D01*
X121617361Y-108384602D01*
X121466180Y-108259535D01*
X121293585Y-108166213D01*
X121199868Y-108137203D01*
X121112039Y-108110015D01*
X121112036Y-108110014D01*
X121106152Y-108108193D01*
X121100027Y-108107549D01*
X121100026Y-108107549D01*
X120917147Y-108088327D01*
X120917146Y-108088327D01*
X120911019Y-108087683D01*
X120788383Y-108098844D01*
X120721759Y-108104907D01*
X120721758Y-108104907D01*
X120715618Y-108105466D01*
X120709704Y-108107207D01*
X120709702Y-108107207D01*
X120676208Y-108117065D01*
X120527393Y-108160864D01*
X120521928Y-108163721D01*
X120358972Y-108248912D01*
X120358968Y-108248915D01*
X120353512Y-108251767D01*
X120348712Y-108255627D01*
X120348711Y-108255627D01*
X120314326Y-108283273D01*
X120200600Y-108374711D01*
X120074480Y-108525016D01*
X120071516Y-108530408D01*
X120071513Y-108530412D01*
X120019154Y-108625653D01*
X119979956Y-108696954D01*
X119978095Y-108702821D01*
X119978094Y-108702823D01*
X119977577Y-108704452D01*
X119920628Y-108883978D01*
X119898757Y-109078963D01*
X119367965Y-109078963D01*
X119350194Y-108897728D01*
X119348413Y-108891829D01*
X119348412Y-108891824D01*
X119295265Y-108715793D01*
X119293484Y-108709894D01*
X119201370Y-108536653D01*
X119077361Y-108384602D01*
X118926180Y-108259535D01*
X118753585Y-108166213D01*
X118659868Y-108137203D01*
X118572039Y-108110015D01*
X118572036Y-108110014D01*
X118566152Y-108108193D01*
X118560027Y-108107549D01*
X118560026Y-108107549D01*
X118377147Y-108088327D01*
X118377146Y-108088327D01*
X118371019Y-108087683D01*
X118248383Y-108098844D01*
X118181759Y-108104907D01*
X118181758Y-108104907D01*
X118175618Y-108105466D01*
X118169704Y-108107207D01*
X118169702Y-108107207D01*
X118136208Y-108117065D01*
X117987393Y-108160864D01*
X117981928Y-108163721D01*
X117818972Y-108248912D01*
X117818968Y-108248915D01*
X117813512Y-108251767D01*
X117808712Y-108255627D01*
X117808711Y-108255627D01*
X117774326Y-108283273D01*
X117660600Y-108374711D01*
X117534480Y-108525016D01*
X117531516Y-108530408D01*
X117531513Y-108530412D01*
X117479154Y-108625653D01*
X117439956Y-108696954D01*
X117438095Y-108702821D01*
X117438094Y-108702823D01*
X117437577Y-108704452D01*
X117380628Y-108883978D01*
X117358757Y-109078963D01*
X115843500Y-109078963D01*
X115843500Y-106538963D01*
X117358757Y-106538963D01*
X117375175Y-106734483D01*
X117429258Y-106923091D01*
X117432076Y-106928574D01*
X117516123Y-107092113D01*
X117516126Y-107092117D01*
X117518944Y-107097601D01*
X117640818Y-107251369D01*
X117790238Y-107378535D01*
X117795616Y-107381541D01*
X117795618Y-107381542D01*
X117831932Y-107401837D01*
X117961513Y-107474257D01*
X118148118Y-107534889D01*
X118342946Y-107558121D01*
X118349081Y-107557649D01*
X118349083Y-107557649D01*
X118532434Y-107543541D01*
X118532438Y-107543540D01*
X118538576Y-107543068D01*
X118727556Y-107490303D01*
X118902689Y-107401837D01*
X118932515Y-107378535D01*
X119052453Y-107284829D01*
X119057303Y-107281040D01*
X119087084Y-107246539D01*
X119181485Y-107137173D01*
X119181485Y-107137172D01*
X119185509Y-107132511D01*
X119282425Y-106961909D01*
X119344358Y-106775732D01*
X119368949Y-106581071D01*
X119369341Y-106553000D01*
X119367965Y-106538963D01*
X132598757Y-106538963D01*
X132615175Y-106734483D01*
X132669258Y-106923091D01*
X132672076Y-106928574D01*
X132756123Y-107092113D01*
X132756126Y-107092117D01*
X132758944Y-107097601D01*
X132880818Y-107251369D01*
X133030238Y-107378535D01*
X133035616Y-107381541D01*
X133035618Y-107381542D01*
X133071932Y-107401837D01*
X133201513Y-107474257D01*
X133388118Y-107534889D01*
X133582946Y-107558121D01*
X133589081Y-107557649D01*
X133589083Y-107557649D01*
X133772434Y-107543541D01*
X133772438Y-107543540D01*
X133778576Y-107543068D01*
X133967556Y-107490303D01*
X134142689Y-107401837D01*
X134172515Y-107378535D01*
X134292453Y-107284829D01*
X134297303Y-107281040D01*
X134327084Y-107246539D01*
X134421485Y-107137173D01*
X134421485Y-107137172D01*
X134425509Y-107132511D01*
X134522425Y-106961909D01*
X134584358Y-106775732D01*
X134608949Y-106581071D01*
X134609341Y-106553000D01*
X134607965Y-106538963D01*
X142504757Y-106538963D01*
X142521175Y-106734483D01*
X142575258Y-106923091D01*
X142578076Y-106928574D01*
X142662123Y-107092113D01*
X142662126Y-107092117D01*
X142664944Y-107097601D01*
X142786818Y-107251369D01*
X142936238Y-107378535D01*
X142941616Y-107381541D01*
X142941618Y-107381542D01*
X142977932Y-107401837D01*
X143107513Y-107474257D01*
X143294118Y-107534889D01*
X143488946Y-107558121D01*
X143495081Y-107557649D01*
X143495083Y-107557649D01*
X143678434Y-107543541D01*
X143678438Y-107543540D01*
X143684576Y-107543068D01*
X143873556Y-107490303D01*
X144048689Y-107401837D01*
X144078515Y-107378535D01*
X144198453Y-107284829D01*
X144203303Y-107281040D01*
X144233084Y-107246539D01*
X144327485Y-107137173D01*
X144327485Y-107137172D01*
X144331509Y-107132511D01*
X144396980Y-107017262D01*
X144448018Y-106967913D01*
X144506535Y-106953500D01*
X151709712Y-106953500D01*
X151777833Y-106973502D01*
X151821373Y-107021124D01*
X151899726Y-107170998D01*
X151903586Y-107175799D01*
X151903588Y-107175802D01*
X151991248Y-107284829D01*
X152028815Y-107331553D01*
X152186630Y-107463976D01*
X152192028Y-107466944D01*
X152192033Y-107466947D01*
X152356554Y-107557392D01*
X152367162Y-107563224D01*
X152563532Y-107625516D01*
X152569649Y-107626202D01*
X152569653Y-107626203D01*
X152645874Y-107634752D01*
X152723864Y-107643500D01*
X153084841Y-107643500D01*
X153238030Y-107628480D01*
X153435251Y-107568935D01*
X153617151Y-107472218D01*
X153708092Y-107398048D01*
X153772025Y-107345906D01*
X153772028Y-107345903D01*
X153776800Y-107342011D01*
X153785452Y-107331553D01*
X153904189Y-107188025D01*
X153904191Y-107188021D01*
X153908118Y-107183275D01*
X154006103Y-107002055D01*
X154067023Y-106805254D01*
X154074461Y-106734483D01*
X154087913Y-106606498D01*
X154087913Y-106606496D01*
X154088557Y-106600369D01*
X154069886Y-106395203D01*
X154011720Y-106197572D01*
X153916274Y-106015002D01*
X153910769Y-106008154D01*
X153791050Y-105859254D01*
X153791050Y-105859253D01*
X153787185Y-105854447D01*
X153629370Y-105722024D01*
X153623972Y-105719056D01*
X153623967Y-105719053D01*
X153454235Y-105625743D01*
X153448838Y-105622776D01*
X153252468Y-105560484D01*
X153246351Y-105559798D01*
X153246347Y-105559797D01*
X153170126Y-105551248D01*
X153092136Y-105542500D01*
X152731159Y-105542500D01*
X152577970Y-105557520D01*
X152380749Y-105617065D01*
X152198849Y-105713782D01*
X152108902Y-105787141D01*
X152043975Y-105840094D01*
X152043972Y-105840097D01*
X152039200Y-105843989D01*
X152035273Y-105848736D01*
X152035271Y-105848738D01*
X151911811Y-105997975D01*
X151911809Y-105997979D01*
X151907882Y-106002725D01*
X151904949Y-106008150D01*
X151904946Y-106008154D01*
X151862622Y-106086429D01*
X151812628Y-106136838D01*
X151751787Y-106152500D01*
X144505943Y-106152500D01*
X144437822Y-106132498D01*
X144394692Y-106085653D01*
X144353485Y-106008154D01*
X144347370Y-105996653D01*
X144223361Y-105844602D01*
X144072180Y-105719535D01*
X143899585Y-105626213D01*
X143805869Y-105597203D01*
X143718039Y-105570015D01*
X143718036Y-105570014D01*
X143712152Y-105568193D01*
X143706027Y-105567549D01*
X143706026Y-105567549D01*
X143523147Y-105548327D01*
X143523146Y-105548327D01*
X143517019Y-105547683D01*
X143394383Y-105558844D01*
X143327759Y-105564907D01*
X143327758Y-105564907D01*
X143321618Y-105565466D01*
X143315704Y-105567207D01*
X143315702Y-105567207D01*
X143186734Y-105605165D01*
X143133393Y-105620864D01*
X143127928Y-105623721D01*
X142964972Y-105708912D01*
X142964968Y-105708915D01*
X142959512Y-105711767D01*
X142954712Y-105715627D01*
X142954711Y-105715627D01*
X142941821Y-105725991D01*
X142806600Y-105834711D01*
X142680480Y-105985016D01*
X142677516Y-105990408D01*
X142677513Y-105990412D01*
X142599401Y-106132498D01*
X142585956Y-106156954D01*
X142526628Y-106343978D01*
X142504757Y-106538963D01*
X134607965Y-106538963D01*
X134590194Y-106357728D01*
X134588413Y-106351829D01*
X134588412Y-106351824D01*
X134535265Y-106175793D01*
X134533484Y-106169894D01*
X134441370Y-105996653D01*
X134317361Y-105844602D01*
X134166180Y-105719535D01*
X133993585Y-105626213D01*
X133899869Y-105597203D01*
X133812039Y-105570015D01*
X133812036Y-105570014D01*
X133806152Y-105568193D01*
X133800027Y-105567549D01*
X133800026Y-105567549D01*
X133617147Y-105548327D01*
X133617146Y-105548327D01*
X133611019Y-105547683D01*
X133488383Y-105558844D01*
X133421759Y-105564907D01*
X133421758Y-105564907D01*
X133415618Y-105565466D01*
X133409704Y-105567207D01*
X133409702Y-105567207D01*
X133280734Y-105605165D01*
X133227393Y-105620864D01*
X133221928Y-105623721D01*
X133058972Y-105708912D01*
X133058968Y-105708915D01*
X133053512Y-105711767D01*
X133048712Y-105715627D01*
X133048711Y-105715627D01*
X133035821Y-105725991D01*
X132900600Y-105834711D01*
X132774480Y-105985016D01*
X132771516Y-105990408D01*
X132771513Y-105990412D01*
X132693401Y-106132498D01*
X132679956Y-106156954D01*
X132620628Y-106343978D01*
X132598757Y-106538963D01*
X119367965Y-106538963D01*
X119350194Y-106357728D01*
X119348413Y-106351829D01*
X119348412Y-106351824D01*
X119295265Y-106175793D01*
X119293484Y-106169894D01*
X119201370Y-105996653D01*
X119077361Y-105844602D01*
X118926180Y-105719535D01*
X118753585Y-105626213D01*
X118659869Y-105597203D01*
X118572039Y-105570015D01*
X118572036Y-105570014D01*
X118566152Y-105568193D01*
X118560027Y-105567549D01*
X118560026Y-105567549D01*
X118377147Y-105548327D01*
X118377146Y-105548327D01*
X118371019Y-105547683D01*
X118248383Y-105558844D01*
X118181759Y-105564907D01*
X118181758Y-105564907D01*
X118175618Y-105565466D01*
X118169704Y-105567207D01*
X118169702Y-105567207D01*
X118040734Y-105605165D01*
X117987393Y-105620864D01*
X117981928Y-105623721D01*
X117818972Y-105708912D01*
X117818968Y-105708915D01*
X117813512Y-105711767D01*
X117808712Y-105715627D01*
X117808711Y-105715627D01*
X117795821Y-105725991D01*
X117660600Y-105834711D01*
X117534480Y-105985016D01*
X117531516Y-105990408D01*
X117531513Y-105990412D01*
X117453401Y-106132498D01*
X117439956Y-106156954D01*
X117380628Y-106343978D01*
X117358757Y-106538963D01*
X115843500Y-106538963D01*
X115843500Y-103998963D01*
X117358757Y-103998963D01*
X117375175Y-104194483D01*
X117429258Y-104383091D01*
X117432076Y-104388574D01*
X117516123Y-104552113D01*
X117516126Y-104552117D01*
X117518944Y-104557601D01*
X117640818Y-104711369D01*
X117790238Y-104838535D01*
X117795616Y-104841541D01*
X117795618Y-104841542D01*
X117831932Y-104861837D01*
X117961513Y-104934257D01*
X118148118Y-104994889D01*
X118342946Y-105018121D01*
X118349081Y-105017649D01*
X118349083Y-105017649D01*
X118532434Y-105003541D01*
X118532438Y-105003540D01*
X118538576Y-105003068D01*
X118727556Y-104950303D01*
X118902689Y-104861837D01*
X118932515Y-104838535D01*
X119052453Y-104744829D01*
X119057303Y-104741040D01*
X119087084Y-104706539D01*
X119181485Y-104597173D01*
X119181485Y-104597172D01*
X119185509Y-104592511D01*
X119282425Y-104421909D01*
X119344358Y-104235732D01*
X119368949Y-104041071D01*
X119369341Y-104013000D01*
X119367965Y-103998963D01*
X132598757Y-103998963D01*
X132615175Y-104194483D01*
X132669258Y-104383091D01*
X132672076Y-104388574D01*
X132756123Y-104552113D01*
X132756126Y-104552117D01*
X132758944Y-104557601D01*
X132880818Y-104711369D01*
X133030238Y-104838535D01*
X133035616Y-104841541D01*
X133035618Y-104841542D01*
X133071932Y-104861837D01*
X133201513Y-104934257D01*
X133388118Y-104994889D01*
X133582946Y-105018121D01*
X133589081Y-105017649D01*
X133589083Y-105017649D01*
X133772434Y-105003541D01*
X133772438Y-105003540D01*
X133778576Y-105003068D01*
X133967556Y-104950303D01*
X134142689Y-104861837D01*
X134172515Y-104838535D01*
X134292453Y-104744829D01*
X134297303Y-104741040D01*
X134327084Y-104706539D01*
X134421485Y-104597173D01*
X134421485Y-104597172D01*
X134425509Y-104592511D01*
X134522425Y-104421909D01*
X134584358Y-104235732D01*
X134608949Y-104041071D01*
X134609341Y-104013000D01*
X134607965Y-103998963D01*
X145552757Y-103998963D01*
X145569175Y-104194483D01*
X145623258Y-104383091D01*
X145626076Y-104388574D01*
X145710123Y-104552113D01*
X145710126Y-104552117D01*
X145712944Y-104557601D01*
X145834818Y-104711369D01*
X145984238Y-104838535D01*
X145989616Y-104841541D01*
X145989618Y-104841542D01*
X146025932Y-104861837D01*
X146155513Y-104934257D01*
X146342118Y-104994889D01*
X146536946Y-105018121D01*
X146543081Y-105017649D01*
X146543083Y-105017649D01*
X146726434Y-105003541D01*
X146726438Y-105003540D01*
X146732576Y-105003068D01*
X146921556Y-104950303D01*
X147096689Y-104861837D01*
X147126515Y-104838535D01*
X147246453Y-104744829D01*
X147251303Y-104741040D01*
X147281084Y-104706539D01*
X147375485Y-104597173D01*
X147375485Y-104597172D01*
X147379509Y-104592511D01*
X147444980Y-104477262D01*
X147496018Y-104427913D01*
X147554535Y-104413500D01*
X151689668Y-104413500D01*
X151757789Y-104433502D01*
X151803586Y-104488791D01*
X151804280Y-104488428D01*
X151899726Y-104670998D01*
X151903586Y-104675799D01*
X151903588Y-104675802D01*
X151932185Y-104711369D01*
X152028815Y-104831553D01*
X152186630Y-104963976D01*
X152192028Y-104966944D01*
X152192033Y-104966947D01*
X152361765Y-105060257D01*
X152367162Y-105063224D01*
X152563532Y-105125516D01*
X152569649Y-105126202D01*
X152569653Y-105126203D01*
X152645874Y-105134752D01*
X152723864Y-105143500D01*
X153084841Y-105143500D01*
X153238030Y-105128480D01*
X153435251Y-105068935D01*
X153617151Y-104972218D01*
X153749089Y-104864612D01*
X153772025Y-104845906D01*
X153772028Y-104845903D01*
X153776800Y-104842011D01*
X153785452Y-104831553D01*
X153904189Y-104688025D01*
X153904191Y-104688021D01*
X153908118Y-104683275D01*
X154006103Y-104502055D01*
X154067023Y-104305254D01*
X154078043Y-104200403D01*
X154087913Y-104106498D01*
X154087913Y-104106496D01*
X154088557Y-104100369D01*
X154069886Y-103895203D01*
X154011720Y-103697572D01*
X153916274Y-103515002D01*
X153910769Y-103508154D01*
X153791050Y-103359254D01*
X153791050Y-103359253D01*
X153787185Y-103354447D01*
X153629370Y-103222024D01*
X153623969Y-103219055D01*
X153623959Y-103219048D01*
X153566415Y-103187413D01*
X153516356Y-103137068D01*
X153501463Y-103067651D01*
X153526464Y-103001202D01*
X153583421Y-102958818D01*
X153627116Y-102950999D01*
X153680095Y-102950999D01*
X153686614Y-102950662D01*
X153782206Y-102940743D01*
X153795600Y-102937851D01*
X153949784Y-102886412D01*
X153962962Y-102880239D01*
X154100807Y-102794937D01*
X154112208Y-102785901D01*
X154226739Y-102671171D01*
X154235751Y-102659760D01*
X154320816Y-102521757D01*
X154326963Y-102508576D01*
X154378138Y-102354290D01*
X154381005Y-102340914D01*
X154390672Y-102246562D01*
X154391000Y-102240146D01*
X154391000Y-101865115D01*
X154386525Y-101849876D01*
X154385135Y-101848671D01*
X154377452Y-101847000D01*
X151443116Y-101847000D01*
X151427877Y-101851475D01*
X151426672Y-101852865D01*
X151425001Y-101860548D01*
X151425001Y-102240095D01*
X151425338Y-102246614D01*
X151435257Y-102342206D01*
X151438149Y-102355600D01*
X151489588Y-102509784D01*
X151495761Y-102522962D01*
X151581063Y-102660807D01*
X151590099Y-102672208D01*
X151704829Y-102786739D01*
X151716240Y-102795751D01*
X151854243Y-102880816D01*
X151867424Y-102886963D01*
X152021710Y-102938138D01*
X152035086Y-102941005D01*
X152129438Y-102950672D01*
X152135854Y-102951000D01*
X152187711Y-102951000D01*
X152255832Y-102971002D01*
X152302325Y-103024658D01*
X152312429Y-103094932D01*
X152282935Y-103159512D01*
X152246864Y-103188251D01*
X152204298Y-103210884D01*
X152204292Y-103210888D01*
X152198849Y-103213782D01*
X152108902Y-103287141D01*
X152043975Y-103340094D01*
X152043972Y-103340097D01*
X152039200Y-103343989D01*
X152035273Y-103348736D01*
X152035271Y-103348738D01*
X151911811Y-103497975D01*
X151911809Y-103497979D01*
X151907882Y-103502725D01*
X151904949Y-103508150D01*
X151904946Y-103508154D01*
X151884250Y-103546429D01*
X151834255Y-103596838D01*
X151773415Y-103612500D01*
X147553943Y-103612500D01*
X147485822Y-103592498D01*
X147442692Y-103545653D01*
X147429300Y-103520467D01*
X147395370Y-103456653D01*
X147271361Y-103304602D01*
X147120180Y-103179535D01*
X146947585Y-103086213D01*
X146806371Y-103042500D01*
X146766039Y-103030015D01*
X146766036Y-103030014D01*
X146760152Y-103028193D01*
X146754027Y-103027549D01*
X146754026Y-103027549D01*
X146571147Y-103008327D01*
X146571146Y-103008327D01*
X146565019Y-103007683D01*
X146442383Y-103018844D01*
X146375759Y-103024907D01*
X146375758Y-103024907D01*
X146369618Y-103025466D01*
X146363704Y-103027207D01*
X146363702Y-103027207D01*
X146250638Y-103060484D01*
X146181393Y-103080864D01*
X146175928Y-103083721D01*
X146012972Y-103168912D01*
X146012968Y-103168915D01*
X146007512Y-103171767D01*
X146002712Y-103175627D01*
X146002711Y-103175627D01*
X145988052Y-103187413D01*
X145854600Y-103294711D01*
X145728480Y-103445016D01*
X145725516Y-103450408D01*
X145725513Y-103450412D01*
X145647401Y-103592498D01*
X145633956Y-103616954D01*
X145574628Y-103803978D01*
X145552757Y-103998963D01*
X134607965Y-103998963D01*
X134590194Y-103817728D01*
X134588413Y-103811829D01*
X134588412Y-103811824D01*
X134535265Y-103635793D01*
X134533484Y-103629894D01*
X134441370Y-103456653D01*
X134317361Y-103304602D01*
X134166180Y-103179535D01*
X133993585Y-103086213D01*
X133852371Y-103042500D01*
X133812039Y-103030015D01*
X133812036Y-103030014D01*
X133806152Y-103028193D01*
X133800027Y-103027549D01*
X133800026Y-103027549D01*
X133617147Y-103008327D01*
X133617146Y-103008327D01*
X133611019Y-103007683D01*
X133488383Y-103018844D01*
X133421759Y-103024907D01*
X133421758Y-103024907D01*
X133415618Y-103025466D01*
X133409704Y-103027207D01*
X133409702Y-103027207D01*
X133296638Y-103060484D01*
X133227393Y-103080864D01*
X133221928Y-103083721D01*
X133058972Y-103168912D01*
X133058968Y-103168915D01*
X133053512Y-103171767D01*
X133048712Y-103175627D01*
X133048711Y-103175627D01*
X133034052Y-103187413D01*
X132900600Y-103294711D01*
X132774480Y-103445016D01*
X132771516Y-103450408D01*
X132771513Y-103450412D01*
X132693401Y-103592498D01*
X132679956Y-103616954D01*
X132620628Y-103803978D01*
X132598757Y-103998963D01*
X119367965Y-103998963D01*
X119350194Y-103817728D01*
X119348413Y-103811829D01*
X119348412Y-103811824D01*
X119295265Y-103635793D01*
X119293484Y-103629894D01*
X119201370Y-103456653D01*
X119077361Y-103304602D01*
X118926180Y-103179535D01*
X118753585Y-103086213D01*
X118612371Y-103042500D01*
X118572039Y-103030015D01*
X118572036Y-103030014D01*
X118566152Y-103028193D01*
X118560027Y-103027549D01*
X118560026Y-103027549D01*
X118377147Y-103008327D01*
X118377146Y-103008327D01*
X118371019Y-103007683D01*
X118248383Y-103018844D01*
X118181759Y-103024907D01*
X118181758Y-103024907D01*
X118175618Y-103025466D01*
X118169704Y-103027207D01*
X118169702Y-103027207D01*
X118056638Y-103060484D01*
X117987393Y-103080864D01*
X117981928Y-103083721D01*
X117818972Y-103168912D01*
X117818968Y-103168915D01*
X117813512Y-103171767D01*
X117808712Y-103175627D01*
X117808711Y-103175627D01*
X117794052Y-103187413D01*
X117660600Y-103294711D01*
X117534480Y-103445016D01*
X117531516Y-103450408D01*
X117531513Y-103450412D01*
X117453401Y-103592498D01*
X117439956Y-103616954D01*
X117380628Y-103803978D01*
X117358757Y-103998963D01*
X115843500Y-103998963D01*
X115843500Y-102707083D01*
X115863502Y-102638962D01*
X115880405Y-102617988D01*
X116587988Y-101910405D01*
X116650300Y-101876379D01*
X116677083Y-101873500D01*
X117367976Y-101873500D01*
X117436097Y-101893502D01*
X117480042Y-101941906D01*
X117516123Y-102012113D01*
X117516126Y-102012117D01*
X117518944Y-102017601D01*
X117640818Y-102171369D01*
X117645511Y-102175363D01*
X117645512Y-102175364D01*
X117776820Y-102287115D01*
X117790238Y-102298535D01*
X117795616Y-102301541D01*
X117795618Y-102301542D01*
X117831932Y-102321837D01*
X117961513Y-102394257D01*
X118148118Y-102454889D01*
X118342946Y-102478121D01*
X118349081Y-102477649D01*
X118349083Y-102477649D01*
X118532434Y-102463541D01*
X118532438Y-102463540D01*
X118538576Y-102463068D01*
X118727556Y-102410303D01*
X118902689Y-102321837D01*
X118932515Y-102298535D01*
X119007249Y-102240146D01*
X119057303Y-102201040D01*
X119087084Y-102166539D01*
X119181485Y-102057173D01*
X119181485Y-102057172D01*
X119185509Y-102052511D01*
X119282425Y-101881909D01*
X119344358Y-101695732D01*
X119368949Y-101501071D01*
X119369341Y-101473000D01*
X119367965Y-101458963D01*
X132598757Y-101458963D01*
X132615175Y-101654483D01*
X132669258Y-101843091D01*
X132672076Y-101848574D01*
X132756123Y-102012113D01*
X132756126Y-102012117D01*
X132758944Y-102017601D01*
X132880818Y-102171369D01*
X132885511Y-102175363D01*
X132885512Y-102175364D01*
X133016820Y-102287115D01*
X133030238Y-102298535D01*
X133035616Y-102301541D01*
X133035618Y-102301542D01*
X133071932Y-102321837D01*
X133201513Y-102394257D01*
X133388118Y-102454889D01*
X133582946Y-102478121D01*
X133589081Y-102477649D01*
X133589083Y-102477649D01*
X133772434Y-102463541D01*
X133772438Y-102463540D01*
X133778576Y-102463068D01*
X133967556Y-102410303D01*
X134142689Y-102321837D01*
X134172515Y-102298535D01*
X134247249Y-102240146D01*
X134297303Y-102201040D01*
X134327084Y-102166539D01*
X134421485Y-102057173D01*
X134421485Y-102057172D01*
X134425509Y-102052511D01*
X134522425Y-101881909D01*
X134584358Y-101695732D01*
X134608949Y-101501071D01*
X134609341Y-101473000D01*
X134594426Y-101320885D01*
X151425000Y-101320885D01*
X151429475Y-101336124D01*
X151430865Y-101337329D01*
X151438548Y-101339000D01*
X152635885Y-101339000D01*
X152651124Y-101334525D01*
X152652329Y-101333135D01*
X152654000Y-101325452D01*
X152654000Y-101320885D01*
X153162000Y-101320885D01*
X153166475Y-101336124D01*
X153167865Y-101337329D01*
X153175548Y-101339000D01*
X154372884Y-101339000D01*
X154388123Y-101334525D01*
X154389328Y-101333135D01*
X154390999Y-101325452D01*
X154390999Y-100945905D01*
X154390662Y-100939386D01*
X154380743Y-100843794D01*
X154377851Y-100830400D01*
X154326412Y-100676216D01*
X154320239Y-100663038D01*
X154234937Y-100525193D01*
X154225901Y-100513792D01*
X154111171Y-100399261D01*
X154099760Y-100390249D01*
X153961757Y-100305184D01*
X153948576Y-100299037D01*
X153794290Y-100247862D01*
X153780914Y-100244995D01*
X153686562Y-100235328D01*
X153680145Y-100235000D01*
X153180115Y-100235000D01*
X153164876Y-100239475D01*
X153163671Y-100240865D01*
X153162000Y-100248548D01*
X153162000Y-101320885D01*
X152654000Y-101320885D01*
X152654000Y-100253116D01*
X152649525Y-100237877D01*
X152648135Y-100236672D01*
X152640452Y-100235001D01*
X152135905Y-100235001D01*
X152129386Y-100235338D01*
X152033794Y-100245257D01*
X152020400Y-100248149D01*
X151866216Y-100299588D01*
X151853038Y-100305761D01*
X151715193Y-100391063D01*
X151703792Y-100400099D01*
X151589261Y-100514829D01*
X151580249Y-100526240D01*
X151495184Y-100664243D01*
X151489037Y-100677424D01*
X151437862Y-100831710D01*
X151434995Y-100845086D01*
X151425328Y-100939438D01*
X151425000Y-100945855D01*
X151425000Y-101320885D01*
X134594426Y-101320885D01*
X134590194Y-101277728D01*
X134588413Y-101271829D01*
X134588412Y-101271824D01*
X134535265Y-101095793D01*
X134533484Y-101089894D01*
X134441370Y-100916653D01*
X134317361Y-100764602D01*
X134166180Y-100639535D01*
X133993585Y-100546213D01*
X133888849Y-100513792D01*
X133812039Y-100490015D01*
X133812036Y-100490014D01*
X133806152Y-100488193D01*
X133800027Y-100487549D01*
X133800026Y-100487549D01*
X133617147Y-100468327D01*
X133617146Y-100468327D01*
X133611019Y-100467683D01*
X133488383Y-100478844D01*
X133421759Y-100484907D01*
X133421758Y-100484907D01*
X133415618Y-100485466D01*
X133409704Y-100487207D01*
X133409702Y-100487207D01*
X133319375Y-100513792D01*
X133227393Y-100540864D01*
X133221928Y-100543721D01*
X133058972Y-100628912D01*
X133058968Y-100628915D01*
X133053512Y-100631767D01*
X133048712Y-100635627D01*
X133048711Y-100635627D01*
X133014619Y-100663038D01*
X132900600Y-100754711D01*
X132774480Y-100905016D01*
X132771516Y-100910408D01*
X132771513Y-100910412D01*
X132752001Y-100945905D01*
X132679956Y-101076954D01*
X132678095Y-101082821D01*
X132678094Y-101082823D01*
X132667084Y-101117531D01*
X132620628Y-101263978D01*
X132598757Y-101458963D01*
X119367965Y-101458963D01*
X119350194Y-101277728D01*
X119348413Y-101271829D01*
X119348412Y-101271824D01*
X119295265Y-101095793D01*
X119293484Y-101089894D01*
X119201370Y-100916653D01*
X119077361Y-100764602D01*
X118926180Y-100639535D01*
X118753585Y-100546213D01*
X118648849Y-100513792D01*
X118572039Y-100490015D01*
X118572036Y-100490014D01*
X118566152Y-100488193D01*
X118560027Y-100487549D01*
X118560026Y-100487549D01*
X118377147Y-100468327D01*
X118377146Y-100468327D01*
X118371019Y-100467683D01*
X118248383Y-100478844D01*
X118181759Y-100484907D01*
X118181758Y-100484907D01*
X118175618Y-100485466D01*
X118169704Y-100487207D01*
X118169702Y-100487207D01*
X118079375Y-100513792D01*
X117987393Y-100540864D01*
X117981928Y-100543721D01*
X117818972Y-100628912D01*
X117818968Y-100628915D01*
X117813512Y-100631767D01*
X117808712Y-100635627D01*
X117808711Y-100635627D01*
X117774619Y-100663038D01*
X117660600Y-100754711D01*
X117534480Y-100905016D01*
X117531514Y-100910412D01*
X117531508Y-100910420D01*
X117478302Y-101007201D01*
X117427957Y-101057260D01*
X117367888Y-101072500D01*
X116395567Y-101072500D01*
X116386136Y-101075564D01*
X116386132Y-101075565D01*
X116374647Y-101079297D01*
X116355422Y-101083913D01*
X116343488Y-101085803D01*
X116343487Y-101085803D01*
X116333696Y-101087354D01*
X116324863Y-101091855D01*
X116324859Y-101091856D01*
X116314094Y-101097341D01*
X116295834Y-101104905D01*
X116274910Y-101111704D01*
X116257107Y-101124639D01*
X116240254Y-101134965D01*
X116220658Y-101144950D01*
X116198095Y-101167513D01*
X116198091Y-101167516D01*
X115137516Y-102228091D01*
X115137513Y-102228095D01*
X115114950Y-102250658D01*
X115110446Y-102259498D01*
X115104965Y-102270255D01*
X115094639Y-102287107D01*
X115081704Y-102304910D01*
X115074907Y-102325830D01*
X115067341Y-102344094D01*
X115061856Y-102354859D01*
X115061855Y-102354863D01*
X115057354Y-102363696D01*
X115055803Y-102373487D01*
X115055803Y-102373488D01*
X115053913Y-102385422D01*
X115049297Y-102404647D01*
X115045565Y-102416132D01*
X115045564Y-102416136D01*
X115042500Y-102425567D01*
X115042500Y-110553433D01*
X86361000Y-110553433D01*
X86361000Y-98918963D01*
X117358757Y-98918963D01*
X117375175Y-99114483D01*
X117429258Y-99303091D01*
X117432076Y-99308574D01*
X117516123Y-99472113D01*
X117516126Y-99472117D01*
X117518944Y-99477601D01*
X117640818Y-99631369D01*
X117790238Y-99758535D01*
X117795616Y-99761541D01*
X117795618Y-99761542D01*
X117831932Y-99781837D01*
X117961513Y-99854257D01*
X118148118Y-99914889D01*
X118342946Y-99938121D01*
X118349081Y-99937649D01*
X118349083Y-99937649D01*
X118532434Y-99923541D01*
X118532438Y-99923540D01*
X118538576Y-99923068D01*
X118727556Y-99870303D01*
X118902689Y-99781837D01*
X118932515Y-99758535D01*
X119052453Y-99664829D01*
X119057303Y-99661040D01*
X119087084Y-99626539D01*
X119181485Y-99517173D01*
X119181485Y-99517172D01*
X119185509Y-99512511D01*
X119282425Y-99341909D01*
X119344358Y-99155732D01*
X119368949Y-98961071D01*
X119369341Y-98933000D01*
X119367965Y-98918963D01*
X132598757Y-98918963D01*
X132615175Y-99114483D01*
X132669258Y-99303091D01*
X132672076Y-99308574D01*
X132756123Y-99472113D01*
X132756126Y-99472117D01*
X132758944Y-99477601D01*
X132880818Y-99631369D01*
X133030238Y-99758535D01*
X133035616Y-99761541D01*
X133035618Y-99761542D01*
X133071932Y-99781837D01*
X133201513Y-99854257D01*
X133388118Y-99914889D01*
X133582946Y-99938121D01*
X133589081Y-99937649D01*
X133589083Y-99937649D01*
X133772434Y-99923541D01*
X133772438Y-99923540D01*
X133778576Y-99923068D01*
X133967556Y-99870303D01*
X134142689Y-99781837D01*
X134172515Y-99758535D01*
X134292453Y-99664829D01*
X134297303Y-99661040D01*
X134327084Y-99626539D01*
X134421485Y-99517173D01*
X134421485Y-99517172D01*
X134425509Y-99512511D01*
X134522425Y-99341909D01*
X134584358Y-99155732D01*
X134608949Y-98961071D01*
X134609341Y-98933000D01*
X134590194Y-98737728D01*
X134588413Y-98731829D01*
X134588412Y-98731824D01*
X134535265Y-98555793D01*
X134533484Y-98549894D01*
X134441370Y-98376653D01*
X134317361Y-98224602D01*
X134166180Y-98099535D01*
X133993585Y-98006213D01*
X133899869Y-97977203D01*
X133812039Y-97950015D01*
X133812036Y-97950014D01*
X133806152Y-97948193D01*
X133800027Y-97947549D01*
X133800026Y-97947549D01*
X133617147Y-97928327D01*
X133617146Y-97928327D01*
X133611019Y-97927683D01*
X133488383Y-97938844D01*
X133421759Y-97944907D01*
X133421758Y-97944907D01*
X133415618Y-97945466D01*
X133409704Y-97947207D01*
X133409702Y-97947207D01*
X133280734Y-97985165D01*
X133227393Y-98000864D01*
X133221928Y-98003721D01*
X133058972Y-98088912D01*
X133058968Y-98088915D01*
X133053512Y-98091767D01*
X133048712Y-98095627D01*
X133048711Y-98095627D01*
X133014326Y-98123273D01*
X132900600Y-98214711D01*
X132774480Y-98365016D01*
X132771516Y-98370408D01*
X132771513Y-98370412D01*
X132692813Y-98513567D01*
X132679956Y-98536954D01*
X132620628Y-98723978D01*
X132598757Y-98918963D01*
X119367965Y-98918963D01*
X119350194Y-98737728D01*
X119348413Y-98731829D01*
X119348412Y-98731824D01*
X119295265Y-98555793D01*
X119293484Y-98549894D01*
X119201370Y-98376653D01*
X119077361Y-98224602D01*
X118926180Y-98099535D01*
X118753585Y-98006213D01*
X118659869Y-97977203D01*
X118572039Y-97950015D01*
X118572036Y-97950014D01*
X118566152Y-97948193D01*
X118560027Y-97947549D01*
X118560026Y-97947549D01*
X118377147Y-97928327D01*
X118377146Y-97928327D01*
X118371019Y-97927683D01*
X118248383Y-97938844D01*
X118181759Y-97944907D01*
X118181758Y-97944907D01*
X118175618Y-97945466D01*
X118169704Y-97947207D01*
X118169702Y-97947207D01*
X118040734Y-97985165D01*
X117987393Y-98000864D01*
X117981928Y-98003721D01*
X117818972Y-98088912D01*
X117818968Y-98088915D01*
X117813512Y-98091767D01*
X117808712Y-98095627D01*
X117808711Y-98095627D01*
X117774326Y-98123273D01*
X117660600Y-98214711D01*
X117534480Y-98365016D01*
X117531516Y-98370408D01*
X117531513Y-98370412D01*
X117452813Y-98513567D01*
X117439956Y-98536954D01*
X117380628Y-98723978D01*
X117358757Y-98918963D01*
X86361000Y-98918963D01*
X86361000Y-96378963D01*
X117358757Y-96378963D01*
X117375175Y-96574483D01*
X117429258Y-96763091D01*
X117432076Y-96768574D01*
X117516123Y-96932113D01*
X117516126Y-96932117D01*
X117518944Y-96937601D01*
X117640818Y-97091369D01*
X117790238Y-97218535D01*
X117795616Y-97221541D01*
X117795618Y-97221542D01*
X117831932Y-97241837D01*
X117961513Y-97314257D01*
X118148118Y-97374889D01*
X118342946Y-97398121D01*
X118349081Y-97397649D01*
X118349083Y-97397649D01*
X118532434Y-97383541D01*
X118532438Y-97383540D01*
X118538576Y-97383068D01*
X118727556Y-97330303D01*
X118902689Y-97241837D01*
X118932515Y-97218535D01*
X119052453Y-97124829D01*
X119057303Y-97121040D01*
X119087084Y-97086539D01*
X119181485Y-96977173D01*
X119181485Y-96977172D01*
X119185509Y-96972511D01*
X119282425Y-96801909D01*
X119344358Y-96615732D01*
X119368949Y-96421071D01*
X119369341Y-96393000D01*
X119367965Y-96378963D01*
X132598757Y-96378963D01*
X132615175Y-96574483D01*
X132669258Y-96763091D01*
X132672076Y-96768574D01*
X132756123Y-96932113D01*
X132756126Y-96932117D01*
X132758944Y-96937601D01*
X132880818Y-97091369D01*
X133030238Y-97218535D01*
X133035616Y-97221541D01*
X133035618Y-97221542D01*
X133071932Y-97241837D01*
X133201513Y-97314257D01*
X133388118Y-97374889D01*
X133582946Y-97398121D01*
X133589081Y-97397649D01*
X133589083Y-97397649D01*
X133772434Y-97383541D01*
X133772438Y-97383540D01*
X133778576Y-97383068D01*
X133967556Y-97330303D01*
X134142689Y-97241837D01*
X134172515Y-97218535D01*
X134292453Y-97124829D01*
X134297303Y-97121040D01*
X134327084Y-97086539D01*
X134421485Y-96977173D01*
X134421485Y-96977172D01*
X134425509Y-96972511D01*
X134522425Y-96801909D01*
X134584358Y-96615732D01*
X134608949Y-96421071D01*
X134609341Y-96393000D01*
X134590194Y-96197728D01*
X134588413Y-96191829D01*
X134588412Y-96191824D01*
X134535265Y-96015793D01*
X134533484Y-96009894D01*
X134441370Y-95836653D01*
X134317361Y-95684602D01*
X134166180Y-95559535D01*
X133993585Y-95466213D01*
X133899868Y-95437203D01*
X133812039Y-95410015D01*
X133812036Y-95410014D01*
X133806152Y-95408193D01*
X133800027Y-95407549D01*
X133800026Y-95407549D01*
X133617147Y-95388327D01*
X133617146Y-95388327D01*
X133611019Y-95387683D01*
X133488383Y-95398844D01*
X133421759Y-95404907D01*
X133421758Y-95404907D01*
X133415618Y-95405466D01*
X133409704Y-95407207D01*
X133409702Y-95407207D01*
X133280734Y-95445165D01*
X133227393Y-95460864D01*
X133221928Y-95463721D01*
X133058972Y-95548912D01*
X133058968Y-95548915D01*
X133053512Y-95551767D01*
X133048712Y-95555627D01*
X133048711Y-95555627D01*
X133014326Y-95583273D01*
X132900600Y-95674711D01*
X132774480Y-95825016D01*
X132771516Y-95830408D01*
X132771513Y-95830412D01*
X132692813Y-95973567D01*
X132679956Y-95996954D01*
X132620628Y-96183978D01*
X132598757Y-96378963D01*
X119367965Y-96378963D01*
X119350194Y-96197728D01*
X119348413Y-96191829D01*
X119348412Y-96191824D01*
X119295265Y-96015793D01*
X119293484Y-96009894D01*
X119201370Y-95836653D01*
X119077361Y-95684602D01*
X118926180Y-95559535D01*
X118753585Y-95466213D01*
X118659868Y-95437203D01*
X118572039Y-95410015D01*
X118572036Y-95410014D01*
X118566152Y-95408193D01*
X118560027Y-95407549D01*
X118560026Y-95407549D01*
X118377147Y-95388327D01*
X118377146Y-95388327D01*
X118371019Y-95387683D01*
X118248383Y-95398844D01*
X118181759Y-95404907D01*
X118181758Y-95404907D01*
X118175618Y-95405466D01*
X118169704Y-95407207D01*
X118169702Y-95407207D01*
X118040734Y-95445165D01*
X117987393Y-95460864D01*
X117981928Y-95463721D01*
X117818972Y-95548912D01*
X117818968Y-95548915D01*
X117813512Y-95551767D01*
X117808712Y-95555627D01*
X117808711Y-95555627D01*
X117774326Y-95583273D01*
X117660600Y-95674711D01*
X117534480Y-95825016D01*
X117531516Y-95830408D01*
X117531513Y-95830412D01*
X117452813Y-95973567D01*
X117439956Y-95996954D01*
X117380628Y-96183978D01*
X117358757Y-96378963D01*
X86361000Y-96378963D01*
X86361000Y-93838963D01*
X117358757Y-93838963D01*
X117375175Y-94034483D01*
X117429258Y-94223091D01*
X117432076Y-94228574D01*
X117516123Y-94392113D01*
X117516126Y-94392117D01*
X117518944Y-94397601D01*
X117640818Y-94551369D01*
X117790238Y-94678535D01*
X117795616Y-94681541D01*
X117795618Y-94681542D01*
X117831932Y-94701837D01*
X117961513Y-94774257D01*
X118148118Y-94834889D01*
X118342946Y-94858121D01*
X118349081Y-94857649D01*
X118349083Y-94857649D01*
X118532434Y-94843541D01*
X118532438Y-94843540D01*
X118538576Y-94843068D01*
X118727556Y-94790303D01*
X118902689Y-94701837D01*
X118932515Y-94678535D01*
X119052453Y-94584829D01*
X119057303Y-94581040D01*
X119087084Y-94546539D01*
X119181485Y-94437173D01*
X119181485Y-94437172D01*
X119185509Y-94432511D01*
X119282425Y-94261909D01*
X119344358Y-94075732D01*
X119368949Y-93881071D01*
X119369341Y-93853000D01*
X119367965Y-93838963D01*
X132598757Y-93838963D01*
X132615175Y-94034483D01*
X132669258Y-94223091D01*
X132672076Y-94228574D01*
X132756123Y-94392113D01*
X132756126Y-94392117D01*
X132758944Y-94397601D01*
X132880818Y-94551369D01*
X133030238Y-94678535D01*
X133035616Y-94681541D01*
X133035618Y-94681542D01*
X133071932Y-94701837D01*
X133201513Y-94774257D01*
X133388118Y-94834889D01*
X133582946Y-94858121D01*
X133589081Y-94857649D01*
X133589083Y-94857649D01*
X133772434Y-94843541D01*
X133772438Y-94843540D01*
X133778576Y-94843068D01*
X133967556Y-94790303D01*
X134142689Y-94701837D01*
X134172515Y-94678535D01*
X134292453Y-94584829D01*
X134297303Y-94581040D01*
X134327084Y-94546539D01*
X134421485Y-94437173D01*
X134421485Y-94437172D01*
X134425509Y-94432511D01*
X134490980Y-94317262D01*
X134542018Y-94267913D01*
X134600535Y-94253500D01*
X139211976Y-94253500D01*
X139280097Y-94273502D01*
X139324042Y-94321906D01*
X139360123Y-94392113D01*
X139360126Y-94392117D01*
X139362944Y-94397601D01*
X139484818Y-94551369D01*
X139634238Y-94678535D01*
X139639616Y-94681541D01*
X139639618Y-94681542D01*
X139675932Y-94701837D01*
X139805513Y-94774257D01*
X139992118Y-94834889D01*
X140186946Y-94858121D01*
X140193081Y-94857649D01*
X140193083Y-94857649D01*
X140376434Y-94843541D01*
X140376438Y-94843540D01*
X140382576Y-94843068D01*
X140571556Y-94790303D01*
X140746689Y-94701837D01*
X140776515Y-94678535D01*
X140896453Y-94584829D01*
X140901303Y-94581040D01*
X140931084Y-94546539D01*
X141025485Y-94437173D01*
X141025485Y-94437172D01*
X141029509Y-94432511D01*
X141126425Y-94261909D01*
X141188358Y-94075732D01*
X141212949Y-93881071D01*
X141213341Y-93853000D01*
X141194194Y-93657728D01*
X141192413Y-93651829D01*
X141192412Y-93651824D01*
X141139265Y-93475793D01*
X141137484Y-93469894D01*
X141045370Y-93296653D01*
X140921361Y-93144602D01*
X140770180Y-93019535D01*
X140597585Y-92926213D01*
X140503869Y-92897203D01*
X140416039Y-92870015D01*
X140416036Y-92870014D01*
X140410152Y-92868193D01*
X140404027Y-92867549D01*
X140404026Y-92867549D01*
X140221147Y-92848327D01*
X140221146Y-92848327D01*
X140215019Y-92847683D01*
X140092383Y-92858844D01*
X140025759Y-92864907D01*
X140025758Y-92864907D01*
X140019618Y-92865466D01*
X140013704Y-92867207D01*
X140013702Y-92867207D01*
X139884734Y-92905165D01*
X139831393Y-92920864D01*
X139825928Y-92923721D01*
X139662972Y-93008912D01*
X139662968Y-93008915D01*
X139657512Y-93011767D01*
X139652712Y-93015627D01*
X139652711Y-93015627D01*
X139618326Y-93043273D01*
X139504600Y-93134711D01*
X139378480Y-93285016D01*
X139375514Y-93290412D01*
X139375508Y-93290420D01*
X139322302Y-93387201D01*
X139271957Y-93437260D01*
X139211888Y-93452500D01*
X134599943Y-93452500D01*
X134531822Y-93432498D01*
X134488692Y-93385653D01*
X134444268Y-93302104D01*
X134441370Y-93296653D01*
X134317361Y-93144602D01*
X134166180Y-93019535D01*
X133993585Y-92926213D01*
X133899869Y-92897203D01*
X133812039Y-92870015D01*
X133812036Y-92870014D01*
X133806152Y-92868193D01*
X133800027Y-92867549D01*
X133800026Y-92867549D01*
X133617147Y-92848327D01*
X133617146Y-92848327D01*
X133611019Y-92847683D01*
X133488383Y-92858844D01*
X133421759Y-92864907D01*
X133421758Y-92864907D01*
X133415618Y-92865466D01*
X133409704Y-92867207D01*
X133409702Y-92867207D01*
X133280734Y-92905165D01*
X133227393Y-92920864D01*
X133221928Y-92923721D01*
X133058972Y-93008912D01*
X133058968Y-93008915D01*
X133053512Y-93011767D01*
X133048712Y-93015627D01*
X133048711Y-93015627D01*
X133014326Y-93043273D01*
X132900600Y-93134711D01*
X132774480Y-93285016D01*
X132771516Y-93290408D01*
X132771513Y-93290412D01*
X132719154Y-93385653D01*
X132679956Y-93456954D01*
X132620628Y-93643978D01*
X132598757Y-93838963D01*
X119367965Y-93838963D01*
X119350194Y-93657728D01*
X119348413Y-93651829D01*
X119348412Y-93651824D01*
X119295265Y-93475793D01*
X119293484Y-93469894D01*
X119201370Y-93296653D01*
X119077361Y-93144602D01*
X118926180Y-93019535D01*
X118753585Y-92926213D01*
X118659869Y-92897203D01*
X118572039Y-92870015D01*
X118572036Y-92870014D01*
X118566152Y-92868193D01*
X118560027Y-92867549D01*
X118560026Y-92867549D01*
X118377147Y-92848327D01*
X118377146Y-92848327D01*
X118371019Y-92847683D01*
X118248383Y-92858844D01*
X118181759Y-92864907D01*
X118181758Y-92864907D01*
X118175618Y-92865466D01*
X118169704Y-92867207D01*
X118169702Y-92867207D01*
X118040734Y-92905165D01*
X117987393Y-92920864D01*
X117981928Y-92923721D01*
X117818972Y-93008912D01*
X117818968Y-93008915D01*
X117813512Y-93011767D01*
X117808712Y-93015627D01*
X117808711Y-93015627D01*
X117774326Y-93043273D01*
X117660600Y-93134711D01*
X117534480Y-93285016D01*
X117531516Y-93290408D01*
X117531513Y-93290412D01*
X117479154Y-93385653D01*
X117439956Y-93456954D01*
X117380628Y-93643978D01*
X117358757Y-93838963D01*
X86361000Y-93838963D01*
X86361000Y-91298963D01*
X117358757Y-91298963D01*
X117375175Y-91494483D01*
X117429258Y-91683091D01*
X117432076Y-91688574D01*
X117516123Y-91852113D01*
X117516126Y-91852117D01*
X117518944Y-91857601D01*
X117640818Y-92011369D01*
X117790238Y-92138535D01*
X117795616Y-92141541D01*
X117795618Y-92141542D01*
X117831932Y-92161837D01*
X117961513Y-92234257D01*
X118148118Y-92294889D01*
X118342946Y-92318121D01*
X118349081Y-92317649D01*
X118349083Y-92317649D01*
X118532434Y-92303541D01*
X118532438Y-92303540D01*
X118538576Y-92303068D01*
X118727556Y-92250303D01*
X118902689Y-92161837D01*
X118932515Y-92138535D01*
X119052453Y-92044829D01*
X119057303Y-92041040D01*
X119087084Y-92006539D01*
X119181485Y-91897173D01*
X119181485Y-91897172D01*
X119185509Y-91892511D01*
X119282425Y-91721909D01*
X119344358Y-91535732D01*
X119368949Y-91341071D01*
X119369341Y-91313000D01*
X119367965Y-91298963D01*
X132598757Y-91298963D01*
X132615175Y-91494483D01*
X132669258Y-91683091D01*
X132672076Y-91688574D01*
X132756123Y-91852113D01*
X132756126Y-91852117D01*
X132758944Y-91857601D01*
X132880818Y-92011369D01*
X133030238Y-92138535D01*
X133035616Y-92141541D01*
X133035618Y-92141542D01*
X133071932Y-92161837D01*
X133201513Y-92234257D01*
X133388118Y-92294889D01*
X133582946Y-92318121D01*
X133589081Y-92317649D01*
X133589083Y-92317649D01*
X133772434Y-92303541D01*
X133772438Y-92303540D01*
X133778576Y-92303068D01*
X133967556Y-92250303D01*
X134142689Y-92161837D01*
X134172515Y-92138535D01*
X134292453Y-92044829D01*
X134297303Y-92041040D01*
X134327084Y-92006539D01*
X134421485Y-91897173D01*
X134421485Y-91897172D01*
X134425509Y-91892511D01*
X134490980Y-91777262D01*
X134542018Y-91727913D01*
X134600535Y-91713500D01*
X142513976Y-91713500D01*
X142582097Y-91733502D01*
X142626042Y-91781906D01*
X142662123Y-91852113D01*
X142662126Y-91852117D01*
X142664944Y-91857601D01*
X142786818Y-92011369D01*
X142936238Y-92138535D01*
X142941616Y-92141541D01*
X142941618Y-92141542D01*
X142977932Y-92161837D01*
X143107513Y-92234257D01*
X143294118Y-92294889D01*
X143488946Y-92318121D01*
X143495081Y-92317649D01*
X143495083Y-92317649D01*
X143678434Y-92303541D01*
X143678438Y-92303540D01*
X143684576Y-92303068D01*
X143873556Y-92250303D01*
X144048689Y-92161837D01*
X144078515Y-92138535D01*
X144198453Y-92044829D01*
X144203303Y-92041040D01*
X144233084Y-92006539D01*
X144327485Y-91897173D01*
X144327485Y-91897172D01*
X144331509Y-91892511D01*
X144428425Y-91721909D01*
X144490358Y-91535732D01*
X144514949Y-91341071D01*
X144515341Y-91313000D01*
X144496194Y-91117728D01*
X144494413Y-91111829D01*
X144494412Y-91111824D01*
X144441265Y-90935793D01*
X144439484Y-90929894D01*
X144347370Y-90756653D01*
X144223361Y-90604602D01*
X144072180Y-90479535D01*
X143899585Y-90386213D01*
X143805868Y-90357203D01*
X143718039Y-90330015D01*
X143718036Y-90330014D01*
X143712152Y-90328193D01*
X143706027Y-90327549D01*
X143706026Y-90327549D01*
X143523147Y-90308327D01*
X143523146Y-90308327D01*
X143517019Y-90307683D01*
X143394383Y-90318844D01*
X143327759Y-90324907D01*
X143327758Y-90324907D01*
X143321618Y-90325466D01*
X143315704Y-90327207D01*
X143315702Y-90327207D01*
X143186734Y-90365165D01*
X143133393Y-90380864D01*
X143127928Y-90383721D01*
X142964972Y-90468912D01*
X142964968Y-90468915D01*
X142959512Y-90471767D01*
X142954712Y-90475627D01*
X142954711Y-90475627D01*
X142920326Y-90503273D01*
X142806600Y-90594711D01*
X142680480Y-90745016D01*
X142677514Y-90750412D01*
X142677508Y-90750420D01*
X142624302Y-90847201D01*
X142573957Y-90897260D01*
X142513888Y-90912500D01*
X134599943Y-90912500D01*
X134531822Y-90892498D01*
X134488692Y-90845653D01*
X134444268Y-90762104D01*
X134441370Y-90756653D01*
X134317361Y-90604602D01*
X134166180Y-90479535D01*
X133993585Y-90386213D01*
X133899868Y-90357203D01*
X133812039Y-90330015D01*
X133812036Y-90330014D01*
X133806152Y-90328193D01*
X133800027Y-90327549D01*
X133800026Y-90327549D01*
X133617147Y-90308327D01*
X133617146Y-90308327D01*
X133611019Y-90307683D01*
X133488383Y-90318844D01*
X133421759Y-90324907D01*
X133421758Y-90324907D01*
X133415618Y-90325466D01*
X133409704Y-90327207D01*
X133409702Y-90327207D01*
X133280734Y-90365165D01*
X133227393Y-90380864D01*
X133221928Y-90383721D01*
X133058972Y-90468912D01*
X133058968Y-90468915D01*
X133053512Y-90471767D01*
X133048712Y-90475627D01*
X133048711Y-90475627D01*
X133014326Y-90503273D01*
X132900600Y-90594711D01*
X132774480Y-90745016D01*
X132771516Y-90750408D01*
X132771513Y-90750412D01*
X132719154Y-90845653D01*
X132679956Y-90916954D01*
X132620628Y-91103978D01*
X132598757Y-91298963D01*
X119367965Y-91298963D01*
X119350194Y-91117728D01*
X119348413Y-91111829D01*
X119348412Y-91111824D01*
X119295265Y-90935793D01*
X119293484Y-90929894D01*
X119201370Y-90756653D01*
X119077361Y-90604602D01*
X118926180Y-90479535D01*
X118753585Y-90386213D01*
X118659868Y-90357203D01*
X118572039Y-90330015D01*
X118572036Y-90330014D01*
X118566152Y-90328193D01*
X118560027Y-90327549D01*
X118560026Y-90327549D01*
X118377147Y-90308327D01*
X118377146Y-90308327D01*
X118371019Y-90307683D01*
X118248383Y-90318844D01*
X118181759Y-90324907D01*
X118181758Y-90324907D01*
X118175618Y-90325466D01*
X118169704Y-90327207D01*
X118169702Y-90327207D01*
X118040734Y-90365165D01*
X117987393Y-90380864D01*
X117981928Y-90383721D01*
X117818972Y-90468912D01*
X117818968Y-90468915D01*
X117813512Y-90471767D01*
X117808712Y-90475627D01*
X117808711Y-90475627D01*
X117774326Y-90503273D01*
X117660600Y-90594711D01*
X117534480Y-90745016D01*
X117531516Y-90750408D01*
X117531513Y-90750412D01*
X117479154Y-90845653D01*
X117439956Y-90916954D01*
X117380628Y-91103978D01*
X117358757Y-91298963D01*
X86361000Y-91298963D01*
X86361000Y-88758963D01*
X117358757Y-88758963D01*
X117375175Y-88954483D01*
X117429258Y-89143091D01*
X117432076Y-89148574D01*
X117516123Y-89312113D01*
X117516126Y-89312117D01*
X117518944Y-89317601D01*
X117640818Y-89471369D01*
X117790238Y-89598535D01*
X117795616Y-89601541D01*
X117795618Y-89601542D01*
X117831932Y-89621837D01*
X117961513Y-89694257D01*
X118148118Y-89754889D01*
X118342946Y-89778121D01*
X118349081Y-89777649D01*
X118349083Y-89777649D01*
X118532434Y-89763541D01*
X118532438Y-89763540D01*
X118538576Y-89763068D01*
X118727556Y-89710303D01*
X118902689Y-89621837D01*
X118932515Y-89598535D01*
X119052453Y-89504829D01*
X119057303Y-89501040D01*
X119087084Y-89466539D01*
X119181485Y-89357173D01*
X119181485Y-89357172D01*
X119185509Y-89352511D01*
X119282425Y-89181909D01*
X119344358Y-88995732D01*
X119368949Y-88801071D01*
X119369341Y-88773000D01*
X119367965Y-88758963D01*
X130058757Y-88758963D01*
X130075175Y-88954483D01*
X130129258Y-89143091D01*
X130132076Y-89148574D01*
X130216123Y-89312113D01*
X130216126Y-89312117D01*
X130218944Y-89317601D01*
X130340818Y-89471369D01*
X130490238Y-89598535D01*
X130495616Y-89601541D01*
X130495618Y-89601542D01*
X130531932Y-89621837D01*
X130661513Y-89694257D01*
X130848118Y-89754889D01*
X131042946Y-89778121D01*
X131049081Y-89777649D01*
X131049083Y-89777649D01*
X131232434Y-89763541D01*
X131232438Y-89763540D01*
X131238576Y-89763068D01*
X131427556Y-89710303D01*
X131602689Y-89621837D01*
X131632515Y-89598535D01*
X131752453Y-89504829D01*
X131757303Y-89501040D01*
X131787084Y-89466539D01*
X131881485Y-89357173D01*
X131881485Y-89357172D01*
X131885509Y-89352511D01*
X131982425Y-89181909D01*
X132044358Y-88995732D01*
X132068949Y-88801071D01*
X132069341Y-88773000D01*
X132067965Y-88758963D01*
X132598757Y-88758963D01*
X132615175Y-88954483D01*
X132669258Y-89143091D01*
X132672076Y-89148574D01*
X132756123Y-89312113D01*
X132756126Y-89312117D01*
X132758944Y-89317601D01*
X132880818Y-89471369D01*
X133030238Y-89598535D01*
X133035616Y-89601541D01*
X133035618Y-89601542D01*
X133071932Y-89621837D01*
X133201513Y-89694257D01*
X133388118Y-89754889D01*
X133582946Y-89778121D01*
X133589081Y-89777649D01*
X133589083Y-89777649D01*
X133772434Y-89763541D01*
X133772438Y-89763540D01*
X133778576Y-89763068D01*
X133967556Y-89710303D01*
X134142689Y-89621837D01*
X134172515Y-89598535D01*
X134292453Y-89504829D01*
X134297303Y-89501040D01*
X134327084Y-89466539D01*
X134421485Y-89357173D01*
X134421485Y-89357172D01*
X134425509Y-89352511D01*
X134490980Y-89237262D01*
X134542018Y-89187913D01*
X134600535Y-89173500D01*
X145561976Y-89173500D01*
X145630097Y-89193502D01*
X145674042Y-89241906D01*
X145710123Y-89312113D01*
X145710126Y-89312117D01*
X145712944Y-89317601D01*
X145834818Y-89471369D01*
X145984238Y-89598535D01*
X145989616Y-89601541D01*
X145989618Y-89601542D01*
X146025932Y-89621837D01*
X146155513Y-89694257D01*
X146342118Y-89754889D01*
X146536946Y-89778121D01*
X146543081Y-89777649D01*
X146543083Y-89777649D01*
X146726434Y-89763541D01*
X146726438Y-89763540D01*
X146732576Y-89763068D01*
X146921556Y-89710303D01*
X147096689Y-89621837D01*
X147126515Y-89598535D01*
X147246453Y-89504829D01*
X147251303Y-89501040D01*
X147281084Y-89466539D01*
X147375485Y-89357173D01*
X147375485Y-89357172D01*
X147379509Y-89352511D01*
X147476425Y-89181909D01*
X147538358Y-88995732D01*
X147562949Y-88801071D01*
X147563341Y-88773000D01*
X147544194Y-88577728D01*
X147542413Y-88571829D01*
X147542412Y-88571824D01*
X147489265Y-88395793D01*
X147487484Y-88389894D01*
X147395370Y-88216653D01*
X147271361Y-88064602D01*
X147120180Y-87939535D01*
X146947585Y-87846213D01*
X146853869Y-87817203D01*
X146766039Y-87790015D01*
X146766036Y-87790014D01*
X146760152Y-87788193D01*
X146754027Y-87787549D01*
X146754026Y-87787549D01*
X146571147Y-87768327D01*
X146571146Y-87768327D01*
X146565019Y-87767683D01*
X146442383Y-87778844D01*
X146375759Y-87784907D01*
X146375758Y-87784907D01*
X146369618Y-87785466D01*
X146363704Y-87787207D01*
X146363702Y-87787207D01*
X146234734Y-87825165D01*
X146181393Y-87840864D01*
X146175928Y-87843721D01*
X146012972Y-87928912D01*
X146012968Y-87928915D01*
X146007512Y-87931767D01*
X146002712Y-87935627D01*
X146002711Y-87935627D01*
X145968326Y-87963273D01*
X145854600Y-88054711D01*
X145728480Y-88205016D01*
X145725514Y-88210412D01*
X145725508Y-88210420D01*
X145672302Y-88307201D01*
X145621957Y-88357260D01*
X145561888Y-88372500D01*
X134599943Y-88372500D01*
X134531822Y-88352498D01*
X134488692Y-88305653D01*
X134444268Y-88222104D01*
X134441370Y-88216653D01*
X134317361Y-88064602D01*
X134166180Y-87939535D01*
X133993585Y-87846213D01*
X133899869Y-87817203D01*
X133812039Y-87790015D01*
X133812036Y-87790014D01*
X133806152Y-87788193D01*
X133800027Y-87787549D01*
X133800026Y-87787549D01*
X133617147Y-87768327D01*
X133617146Y-87768327D01*
X133611019Y-87767683D01*
X133488383Y-87778844D01*
X133421759Y-87784907D01*
X133421758Y-87784907D01*
X133415618Y-87785466D01*
X133409704Y-87787207D01*
X133409702Y-87787207D01*
X133280734Y-87825165D01*
X133227393Y-87840864D01*
X133221928Y-87843721D01*
X133058972Y-87928912D01*
X133058968Y-87928915D01*
X133053512Y-87931767D01*
X133048712Y-87935627D01*
X133048711Y-87935627D01*
X133014326Y-87963273D01*
X132900600Y-88054711D01*
X132774480Y-88205016D01*
X132771516Y-88210408D01*
X132771513Y-88210412D01*
X132719154Y-88305653D01*
X132679956Y-88376954D01*
X132620628Y-88563978D01*
X132598757Y-88758963D01*
X132067965Y-88758963D01*
X132050194Y-88577728D01*
X132048413Y-88571829D01*
X132048412Y-88571824D01*
X131995265Y-88395793D01*
X131993484Y-88389894D01*
X131901370Y-88216653D01*
X131777361Y-88064602D01*
X131626180Y-87939535D01*
X131453585Y-87846213D01*
X131359869Y-87817203D01*
X131272039Y-87790015D01*
X131272036Y-87790014D01*
X131266152Y-87788193D01*
X131260027Y-87787549D01*
X131260026Y-87787549D01*
X131077147Y-87768327D01*
X131077146Y-87768327D01*
X131071019Y-87767683D01*
X130948383Y-87778844D01*
X130881759Y-87784907D01*
X130881758Y-87784907D01*
X130875618Y-87785466D01*
X130869704Y-87787207D01*
X130869702Y-87787207D01*
X130740734Y-87825165D01*
X130687393Y-87840864D01*
X130681928Y-87843721D01*
X130518972Y-87928912D01*
X130518968Y-87928915D01*
X130513512Y-87931767D01*
X130508712Y-87935627D01*
X130508711Y-87935627D01*
X130474326Y-87963273D01*
X130360600Y-88054711D01*
X130234480Y-88205016D01*
X130231516Y-88210408D01*
X130231513Y-88210412D01*
X130179154Y-88305653D01*
X130139956Y-88376954D01*
X130080628Y-88563978D01*
X130058757Y-88758963D01*
X119367965Y-88758963D01*
X119350194Y-88577728D01*
X119348413Y-88571829D01*
X119348412Y-88571824D01*
X119295265Y-88395793D01*
X119293484Y-88389894D01*
X119201370Y-88216653D01*
X119077361Y-88064602D01*
X118926180Y-87939535D01*
X118753585Y-87846213D01*
X118659869Y-87817203D01*
X118572039Y-87790015D01*
X118572036Y-87790014D01*
X118566152Y-87788193D01*
X118560027Y-87787549D01*
X118560026Y-87787549D01*
X118377147Y-87768327D01*
X118377146Y-87768327D01*
X118371019Y-87767683D01*
X118248383Y-87778844D01*
X118181759Y-87784907D01*
X118181758Y-87784907D01*
X118175618Y-87785466D01*
X118169704Y-87787207D01*
X118169702Y-87787207D01*
X118040734Y-87825165D01*
X117987393Y-87840864D01*
X117981928Y-87843721D01*
X117818972Y-87928912D01*
X117818968Y-87928915D01*
X117813512Y-87931767D01*
X117808712Y-87935627D01*
X117808711Y-87935627D01*
X117774326Y-87963273D01*
X117660600Y-88054711D01*
X117534480Y-88205016D01*
X117531516Y-88210408D01*
X117531513Y-88210412D01*
X117479154Y-88305653D01*
X117439956Y-88376954D01*
X117380628Y-88563978D01*
X117358757Y-88758963D01*
X86361000Y-88758963D01*
X86361000Y-86218963D01*
X117358757Y-86218963D01*
X117375175Y-86414483D01*
X117429258Y-86603091D01*
X117432076Y-86608574D01*
X117516123Y-86772113D01*
X117516126Y-86772117D01*
X117518944Y-86777601D01*
X117640818Y-86931369D01*
X117645511Y-86935363D01*
X117645512Y-86935364D01*
X117706676Y-86987418D01*
X117790238Y-87058535D01*
X117795616Y-87061541D01*
X117795618Y-87061542D01*
X117831932Y-87081837D01*
X117961513Y-87154257D01*
X118148118Y-87214889D01*
X118342946Y-87238121D01*
X118349081Y-87237649D01*
X118349083Y-87237649D01*
X118532434Y-87223541D01*
X118532438Y-87223540D01*
X118538576Y-87223068D01*
X118727556Y-87170303D01*
X118902689Y-87081837D01*
X118932515Y-87058535D01*
X118979996Y-87021439D01*
X119057303Y-86961040D01*
X119087084Y-86926539D01*
X119181485Y-86817173D01*
X119181485Y-86817172D01*
X119185509Y-86812511D01*
X119189510Y-86805469D01*
X119279378Y-86647272D01*
X119282425Y-86641909D01*
X119344358Y-86455732D01*
X119368949Y-86261071D01*
X119369341Y-86233000D01*
X119366375Y-86202754D01*
X124828967Y-86202754D01*
X124842796Y-86413749D01*
X124844217Y-86419345D01*
X124844218Y-86419350D01*
X124866784Y-86508200D01*
X124894845Y-86618690D01*
X124983369Y-86810714D01*
X125105405Y-86983391D01*
X125109539Y-86987418D01*
X125206463Y-87081837D01*
X125256865Y-87130937D01*
X125261661Y-87134142D01*
X125261664Y-87134144D01*
X125379658Y-87212985D01*
X125432677Y-87248411D01*
X125437985Y-87250692D01*
X125437986Y-87250692D01*
X125621650Y-87329600D01*
X125621653Y-87329601D01*
X125626953Y-87331878D01*
X125632582Y-87333152D01*
X125632583Y-87333152D01*
X125827550Y-87377269D01*
X125827553Y-87377269D01*
X125833186Y-87378544D01*
X125838957Y-87378771D01*
X125838959Y-87378771D01*
X125900989Y-87381208D01*
X126044470Y-87386846D01*
X126050179Y-87386018D01*
X126050183Y-87386018D01*
X126248015Y-87357333D01*
X126248019Y-87357332D01*
X126253730Y-87356504D01*
X126332987Y-87329600D01*
X126448483Y-87290395D01*
X126448488Y-87290393D01*
X126453955Y-87288537D01*
X126458998Y-87285713D01*
X126633395Y-87188046D01*
X126633399Y-87188043D01*
X126638442Y-87185219D01*
X126801012Y-87050012D01*
X126936219Y-86887442D01*
X126939043Y-86882399D01*
X126939046Y-86882395D01*
X127036713Y-86707998D01*
X127036714Y-86707996D01*
X127039537Y-86702955D01*
X127041393Y-86697488D01*
X127041395Y-86697483D01*
X127105647Y-86508200D01*
X127107504Y-86502730D01*
X127137846Y-86293470D01*
X127139429Y-86233000D01*
X127138139Y-86218963D01*
X130058757Y-86218963D01*
X130075175Y-86414483D01*
X130129258Y-86603091D01*
X130132076Y-86608574D01*
X130216123Y-86772113D01*
X130216126Y-86772117D01*
X130218944Y-86777601D01*
X130340818Y-86931369D01*
X130345511Y-86935363D01*
X130345512Y-86935364D01*
X130406676Y-86987418D01*
X130490238Y-87058535D01*
X130495616Y-87061541D01*
X130495618Y-87061542D01*
X130531932Y-87081837D01*
X130661513Y-87154257D01*
X130848118Y-87214889D01*
X131042946Y-87238121D01*
X131049081Y-87237649D01*
X131049083Y-87237649D01*
X131232434Y-87223541D01*
X131232438Y-87223540D01*
X131238576Y-87223068D01*
X131427556Y-87170303D01*
X131602689Y-87081837D01*
X131632515Y-87058535D01*
X131679996Y-87021439D01*
X131757303Y-86961040D01*
X131787084Y-86926539D01*
X131881485Y-86817173D01*
X131881485Y-86817172D01*
X131885509Y-86812511D01*
X131889510Y-86805469D01*
X131979378Y-86647272D01*
X131982425Y-86641909D01*
X132044358Y-86455732D01*
X132068949Y-86261071D01*
X132069341Y-86233000D01*
X132067965Y-86218963D01*
X132598757Y-86218963D01*
X132615175Y-86414483D01*
X132669258Y-86603091D01*
X132672076Y-86608574D01*
X132756123Y-86772113D01*
X132756126Y-86772117D01*
X132758944Y-86777601D01*
X132880818Y-86931369D01*
X132885511Y-86935363D01*
X132885512Y-86935364D01*
X132946676Y-86987418D01*
X133030238Y-87058535D01*
X133035616Y-87061541D01*
X133035618Y-87061542D01*
X133071932Y-87081837D01*
X133201513Y-87154257D01*
X133388118Y-87214889D01*
X133582946Y-87238121D01*
X133589081Y-87237649D01*
X133589083Y-87237649D01*
X133772434Y-87223541D01*
X133772438Y-87223540D01*
X133778576Y-87223068D01*
X133967556Y-87170303D01*
X134142689Y-87081837D01*
X134172515Y-87058535D01*
X134219996Y-87021439D01*
X134297303Y-86961040D01*
X134327084Y-86926539D01*
X134421485Y-86817173D01*
X134421485Y-86817172D01*
X134425509Y-86812511D01*
X134429510Y-86805469D01*
X134519378Y-86647272D01*
X134522425Y-86641909D01*
X134584358Y-86455732D01*
X134608949Y-86261071D01*
X134609341Y-86233000D01*
X134590194Y-86037728D01*
X134588413Y-86031829D01*
X134588412Y-86031824D01*
X134535265Y-85855793D01*
X134533484Y-85849894D01*
X134441370Y-85676653D01*
X134317361Y-85524602D01*
X134166180Y-85399535D01*
X133993585Y-85306213D01*
X133899868Y-85277203D01*
X133812039Y-85250015D01*
X133812036Y-85250014D01*
X133806152Y-85248193D01*
X133800027Y-85247549D01*
X133800026Y-85247549D01*
X133617147Y-85228327D01*
X133617146Y-85228327D01*
X133611019Y-85227683D01*
X133488383Y-85238844D01*
X133421759Y-85244907D01*
X133421758Y-85244907D01*
X133415618Y-85245466D01*
X133409704Y-85247207D01*
X133409702Y-85247207D01*
X133280734Y-85285165D01*
X133227393Y-85300864D01*
X133221928Y-85303721D01*
X133058972Y-85388912D01*
X133058968Y-85388915D01*
X133053512Y-85391767D01*
X133048712Y-85395627D01*
X133048711Y-85395627D01*
X133014326Y-85423273D01*
X132900600Y-85514711D01*
X132774480Y-85665016D01*
X132771516Y-85670408D01*
X132771513Y-85670412D01*
X132708122Y-85785720D01*
X132679956Y-85836954D01*
X132620628Y-86023978D01*
X132598757Y-86218963D01*
X132067965Y-86218963D01*
X132050194Y-86037728D01*
X132048413Y-86031829D01*
X132048412Y-86031824D01*
X131995265Y-85855793D01*
X131993484Y-85849894D01*
X131901370Y-85676653D01*
X131777361Y-85524602D01*
X131626180Y-85399535D01*
X131453585Y-85306213D01*
X131359868Y-85277203D01*
X131272039Y-85250015D01*
X131272036Y-85250014D01*
X131266152Y-85248193D01*
X131260027Y-85247549D01*
X131260026Y-85247549D01*
X131077147Y-85228327D01*
X131077146Y-85228327D01*
X131071019Y-85227683D01*
X130948383Y-85238844D01*
X130881759Y-85244907D01*
X130881758Y-85244907D01*
X130875618Y-85245466D01*
X130869704Y-85247207D01*
X130869702Y-85247207D01*
X130740734Y-85285165D01*
X130687393Y-85300864D01*
X130681928Y-85303721D01*
X130518972Y-85388912D01*
X130518968Y-85388915D01*
X130513512Y-85391767D01*
X130508712Y-85395627D01*
X130508711Y-85395627D01*
X130474326Y-85423273D01*
X130360600Y-85514711D01*
X130234480Y-85665016D01*
X130231516Y-85670408D01*
X130231513Y-85670412D01*
X130168122Y-85785720D01*
X130139956Y-85836954D01*
X130080628Y-86023978D01*
X130058757Y-86218963D01*
X127138139Y-86218963D01*
X127120081Y-86022440D01*
X127062686Y-85818931D01*
X127051553Y-85796354D01*
X126971719Y-85634469D01*
X126969165Y-85629290D01*
X126842651Y-85459867D01*
X126687381Y-85316337D01*
X126508554Y-85203505D01*
X126312160Y-85125152D01*
X126306503Y-85124027D01*
X126306497Y-85124025D01*
X126110442Y-85085028D01*
X126110440Y-85085028D01*
X126104775Y-85083901D01*
X126099000Y-85083825D01*
X126098996Y-85083825D01*
X125992976Y-85082437D01*
X125893346Y-85081133D01*
X125887649Y-85082112D01*
X125887648Y-85082112D01*
X125690650Y-85115962D01*
X125690649Y-85115962D01*
X125684953Y-85116941D01*
X125486575Y-85190127D01*
X125481614Y-85193079D01*
X125481613Y-85193079D01*
X125464089Y-85203505D01*
X125304856Y-85298238D01*
X125145881Y-85437655D01*
X125014976Y-85603708D01*
X125012287Y-85608819D01*
X125012285Y-85608822D01*
X124982720Y-85665016D01*
X124916523Y-85790836D01*
X124853820Y-85992773D01*
X124828967Y-86202754D01*
X119366375Y-86202754D01*
X119350194Y-86037728D01*
X119348413Y-86031829D01*
X119348412Y-86031824D01*
X119295265Y-85855793D01*
X119293484Y-85849894D01*
X119201370Y-85676653D01*
X119077361Y-85524602D01*
X118926180Y-85399535D01*
X118753585Y-85306213D01*
X118659868Y-85277203D01*
X118572039Y-85250015D01*
X118572036Y-85250014D01*
X118566152Y-85248193D01*
X118560027Y-85247549D01*
X118560026Y-85247549D01*
X118377147Y-85228327D01*
X118377146Y-85228327D01*
X118371019Y-85227683D01*
X118248383Y-85238844D01*
X118181759Y-85244907D01*
X118181758Y-85244907D01*
X118175618Y-85245466D01*
X118169704Y-85247207D01*
X118169702Y-85247207D01*
X118040734Y-85285165D01*
X117987393Y-85300864D01*
X117981928Y-85303721D01*
X117818972Y-85388912D01*
X117818968Y-85388915D01*
X117813512Y-85391767D01*
X117808712Y-85395627D01*
X117808711Y-85395627D01*
X117774326Y-85423273D01*
X117660600Y-85514711D01*
X117534480Y-85665016D01*
X117531516Y-85670408D01*
X117531513Y-85670412D01*
X117468122Y-85785720D01*
X117439956Y-85836954D01*
X117380628Y-86023978D01*
X117358757Y-86218963D01*
X86361000Y-86218963D01*
X86361000Y-83678963D01*
X117358757Y-83678963D01*
X117375175Y-83874483D01*
X117429258Y-84063091D01*
X117432076Y-84068574D01*
X117516123Y-84232113D01*
X117516126Y-84232117D01*
X117518944Y-84237601D01*
X117640818Y-84391369D01*
X117790238Y-84518535D01*
X117795616Y-84521541D01*
X117795618Y-84521542D01*
X117831932Y-84541837D01*
X117961513Y-84614257D01*
X118148118Y-84674889D01*
X118342946Y-84698121D01*
X118349081Y-84697649D01*
X118349083Y-84697649D01*
X118532434Y-84683541D01*
X118532438Y-84683540D01*
X118538576Y-84683068D01*
X118727556Y-84630303D01*
X118902689Y-84541837D01*
X118932515Y-84518535D01*
X119052453Y-84424829D01*
X119057303Y-84421040D01*
X119087084Y-84386539D01*
X119181485Y-84277173D01*
X119181485Y-84277172D01*
X119185509Y-84272511D01*
X119282425Y-84101909D01*
X119344358Y-83915732D01*
X119368949Y-83721071D01*
X119369341Y-83693000D01*
X119367965Y-83678963D01*
X130058757Y-83678963D01*
X130075175Y-83874483D01*
X130129258Y-84063091D01*
X130132076Y-84068574D01*
X130216123Y-84232113D01*
X130216126Y-84232117D01*
X130218944Y-84237601D01*
X130340818Y-84391369D01*
X130490238Y-84518535D01*
X130495616Y-84521541D01*
X130495618Y-84521542D01*
X130531932Y-84541837D01*
X130661513Y-84614257D01*
X130848118Y-84674889D01*
X131042946Y-84698121D01*
X131049081Y-84697649D01*
X131049083Y-84697649D01*
X131232434Y-84683541D01*
X131232438Y-84683540D01*
X131238576Y-84683068D01*
X131427556Y-84630303D01*
X131602689Y-84541837D01*
X131632515Y-84518535D01*
X131752453Y-84424829D01*
X131757303Y-84421040D01*
X131787084Y-84386539D01*
X131881485Y-84277173D01*
X131881485Y-84277172D01*
X131885509Y-84272511D01*
X131982425Y-84101909D01*
X132044358Y-83915732D01*
X132068949Y-83721071D01*
X132069341Y-83693000D01*
X132067965Y-83678963D01*
X132598757Y-83678963D01*
X132615175Y-83874483D01*
X132669258Y-84063091D01*
X132672076Y-84068574D01*
X132756123Y-84232113D01*
X132756126Y-84232117D01*
X132758944Y-84237601D01*
X132880818Y-84391369D01*
X133030238Y-84518535D01*
X133035616Y-84521541D01*
X133035618Y-84521542D01*
X133071932Y-84541837D01*
X133201513Y-84614257D01*
X133388118Y-84674889D01*
X133582946Y-84698121D01*
X133589081Y-84697649D01*
X133589083Y-84697649D01*
X133772434Y-84683541D01*
X133772438Y-84683540D01*
X133778576Y-84683068D01*
X133967556Y-84630303D01*
X134142689Y-84541837D01*
X134172515Y-84518535D01*
X134292453Y-84424829D01*
X134297303Y-84421040D01*
X134327084Y-84386539D01*
X134421485Y-84277173D01*
X134421485Y-84277172D01*
X134425509Y-84272511D01*
X134522425Y-84101909D01*
X134584358Y-83915732D01*
X134608949Y-83721071D01*
X134609341Y-83693000D01*
X134590194Y-83497728D01*
X134588412Y-83491825D01*
X134588411Y-83491821D01*
X134559921Y-83397456D01*
X134559380Y-83326462D01*
X134591448Y-83271944D01*
X138852987Y-79010405D01*
X138915299Y-78976379D01*
X138942082Y-78973500D01*
X151705624Y-78973500D01*
X151773745Y-78993502D01*
X151817285Y-79041124D01*
X151874726Y-79150998D01*
X152003815Y-79311553D01*
X152161630Y-79443976D01*
X152167028Y-79446944D01*
X152167033Y-79446947D01*
X152320381Y-79531250D01*
X152342162Y-79543224D01*
X152538532Y-79605516D01*
X152544649Y-79606202D01*
X152544653Y-79606203D01*
X152620874Y-79614752D01*
X152698864Y-79623500D01*
X153109841Y-79623500D01*
X153263030Y-79608480D01*
X153460251Y-79548935D01*
X153642151Y-79452218D01*
X153732098Y-79378859D01*
X153797025Y-79325906D01*
X153797028Y-79325903D01*
X153801800Y-79322011D01*
X153810604Y-79311369D01*
X153929189Y-79168025D01*
X153929191Y-79168021D01*
X153933118Y-79163275D01*
X154031103Y-78982055D01*
X154092023Y-78785254D01*
X154109757Y-78616523D01*
X154112913Y-78586498D01*
X154112913Y-78586496D01*
X154113557Y-78580369D01*
X154094886Y-78375203D01*
X154036720Y-78177572D01*
X153941274Y-77995002D01*
X153931404Y-77982725D01*
X153816050Y-77839254D01*
X153816050Y-77839253D01*
X153812185Y-77834447D01*
X153654370Y-77702024D01*
X153648972Y-77699056D01*
X153648967Y-77699053D01*
X153479235Y-77605743D01*
X153473838Y-77602776D01*
X153277468Y-77540484D01*
X153271351Y-77539798D01*
X153271347Y-77539797D01*
X153195126Y-77531248D01*
X153117136Y-77522500D01*
X152706159Y-77522500D01*
X152552970Y-77537520D01*
X152355749Y-77597065D01*
X152173849Y-77693782D01*
X152083902Y-77767141D01*
X152018975Y-77820094D01*
X152018972Y-77820097D01*
X152014200Y-77823989D01*
X152010273Y-77828736D01*
X152010271Y-77828738D01*
X151886811Y-77977975D01*
X151886809Y-77977979D01*
X151882882Y-77982725D01*
X151879952Y-77988145D01*
X151879948Y-77988150D01*
X151815996Y-78106428D01*
X151766001Y-78156837D01*
X151705160Y-78172500D01*
X138692481Y-78172500D01*
X138692477Y-78172501D01*
X138660567Y-78172501D01*
X138651140Y-78175564D01*
X138651133Y-78175565D01*
X138639647Y-78179297D01*
X138620427Y-78183911D01*
X138608493Y-78185801D01*
X138608485Y-78185803D01*
X138598696Y-78187354D01*
X138589865Y-78191854D01*
X138589861Y-78191855D01*
X138579093Y-78197342D01*
X138560832Y-78204906D01*
X138539910Y-78211704D01*
X138524918Y-78222597D01*
X138522116Y-78224632D01*
X138505259Y-78234962D01*
X138494493Y-78240448D01*
X138494492Y-78240449D01*
X138485658Y-78244950D01*
X138463091Y-78267517D01*
X134025040Y-82705567D01*
X133962728Y-82739593D01*
X133898686Y-82736837D01*
X133812039Y-82710015D01*
X133812036Y-82710014D01*
X133806152Y-82708193D01*
X133800027Y-82707549D01*
X133800026Y-82707549D01*
X133617147Y-82688327D01*
X133617146Y-82688327D01*
X133611019Y-82687683D01*
X133488383Y-82698844D01*
X133421759Y-82704907D01*
X133421758Y-82704907D01*
X133415618Y-82705466D01*
X133409704Y-82707207D01*
X133409702Y-82707207D01*
X133309029Y-82736837D01*
X133227393Y-82760864D01*
X133221928Y-82763721D01*
X133058972Y-82848912D01*
X133058968Y-82848915D01*
X133053512Y-82851767D01*
X133048712Y-82855627D01*
X133048711Y-82855627D01*
X133014326Y-82883273D01*
X132900600Y-82974711D01*
X132774480Y-83125016D01*
X132771516Y-83130408D01*
X132771513Y-83130412D01*
X132713700Y-83235574D01*
X132679956Y-83296954D01*
X132678095Y-83302821D01*
X132678094Y-83302823D01*
X132670595Y-83326462D01*
X132620628Y-83483978D01*
X132598757Y-83678963D01*
X132067965Y-83678963D01*
X132050194Y-83497728D01*
X132048413Y-83491829D01*
X132048412Y-83491824D01*
X131995265Y-83315793D01*
X131993484Y-83309894D01*
X131901370Y-83136653D01*
X131777361Y-82984602D01*
X131626180Y-82859535D01*
X131453585Y-82766213D01*
X131358686Y-82736837D01*
X131272039Y-82710015D01*
X131272036Y-82710014D01*
X131266152Y-82708193D01*
X131260027Y-82707549D01*
X131260026Y-82707549D01*
X131077147Y-82688327D01*
X131077146Y-82688327D01*
X131071019Y-82687683D01*
X130948383Y-82698844D01*
X130881759Y-82704907D01*
X130881758Y-82704907D01*
X130875618Y-82705466D01*
X130869704Y-82707207D01*
X130869702Y-82707207D01*
X130769029Y-82736837D01*
X130687393Y-82760864D01*
X130681928Y-82763721D01*
X130518972Y-82848912D01*
X130518968Y-82848915D01*
X130513512Y-82851767D01*
X130508712Y-82855627D01*
X130508711Y-82855627D01*
X130474326Y-82883273D01*
X130360600Y-82974711D01*
X130234480Y-83125016D01*
X130231516Y-83130408D01*
X130231513Y-83130412D01*
X130173700Y-83235574D01*
X130139956Y-83296954D01*
X130138095Y-83302821D01*
X130138094Y-83302823D01*
X130130595Y-83326462D01*
X130080628Y-83483978D01*
X130058757Y-83678963D01*
X119367965Y-83678963D01*
X119350194Y-83497728D01*
X119348413Y-83491829D01*
X119348412Y-83491824D01*
X119295265Y-83315793D01*
X119293484Y-83309894D01*
X119201370Y-83136653D01*
X119077361Y-82984602D01*
X118926180Y-82859535D01*
X118753585Y-82766213D01*
X118658686Y-82736837D01*
X118572039Y-82710015D01*
X118572036Y-82710014D01*
X118566152Y-82708193D01*
X118560027Y-82707549D01*
X118560026Y-82707549D01*
X118377147Y-82688327D01*
X118377146Y-82688327D01*
X118371019Y-82687683D01*
X118248383Y-82698844D01*
X118181759Y-82704907D01*
X118181758Y-82704907D01*
X118175618Y-82705466D01*
X118169704Y-82707207D01*
X118169702Y-82707207D01*
X118069029Y-82736837D01*
X117987393Y-82760864D01*
X117981928Y-82763721D01*
X117818972Y-82848912D01*
X117818968Y-82848915D01*
X117813512Y-82851767D01*
X117808712Y-82855627D01*
X117808711Y-82855627D01*
X117774326Y-82883273D01*
X117660600Y-82974711D01*
X117534480Y-83125016D01*
X117531516Y-83130408D01*
X117531513Y-83130412D01*
X117473700Y-83235574D01*
X117439956Y-83296954D01*
X117438095Y-83302821D01*
X117438094Y-83302823D01*
X117430595Y-83326462D01*
X117380628Y-83483978D01*
X117358757Y-83678963D01*
X86361000Y-83678963D01*
X86361000Y-82392754D01*
X124828967Y-82392754D01*
X124842796Y-82603749D01*
X124844217Y-82609345D01*
X124844218Y-82609350D01*
X124883424Y-82763721D01*
X124894845Y-82808690D01*
X124897262Y-82813933D01*
X124931169Y-82887483D01*
X124983369Y-83000714D01*
X125105405Y-83173391D01*
X125109539Y-83177418D01*
X125251585Y-83315793D01*
X125256865Y-83320937D01*
X125261661Y-83324142D01*
X125261664Y-83324144D01*
X125404936Y-83419875D01*
X125432677Y-83438411D01*
X125437985Y-83440692D01*
X125437986Y-83440692D01*
X125621650Y-83519600D01*
X125621653Y-83519601D01*
X125626953Y-83521878D01*
X125632582Y-83523152D01*
X125632583Y-83523152D01*
X125827550Y-83567269D01*
X125827553Y-83567269D01*
X125833186Y-83568544D01*
X125838957Y-83568771D01*
X125838959Y-83568771D01*
X125900989Y-83571208D01*
X126044470Y-83576846D01*
X126050179Y-83576018D01*
X126050183Y-83576018D01*
X126248015Y-83547333D01*
X126248019Y-83547332D01*
X126253730Y-83546504D01*
X126379350Y-83503862D01*
X126448483Y-83480395D01*
X126448488Y-83480393D01*
X126453955Y-83478537D01*
X126458998Y-83475713D01*
X126633395Y-83378046D01*
X126633399Y-83378043D01*
X126638442Y-83375219D01*
X126801012Y-83240012D01*
X126936219Y-83077442D01*
X126939043Y-83072399D01*
X126939046Y-83072395D01*
X127036713Y-82897998D01*
X127036714Y-82897996D01*
X127039537Y-82892955D01*
X127041393Y-82887488D01*
X127041395Y-82887483D01*
X127092532Y-82736837D01*
X127107504Y-82692730D01*
X127137846Y-82483470D01*
X127139429Y-82423000D01*
X127120081Y-82212440D01*
X127062686Y-82008931D01*
X127057320Y-81998048D01*
X126971719Y-81824469D01*
X126969165Y-81819290D01*
X126842651Y-81649867D01*
X126711437Y-81528574D01*
X126691622Y-81510257D01*
X126691620Y-81510255D01*
X126687381Y-81506337D01*
X126508554Y-81393505D01*
X126312160Y-81315152D01*
X126306503Y-81314027D01*
X126306497Y-81314025D01*
X126110442Y-81275028D01*
X126110440Y-81275028D01*
X126104775Y-81273901D01*
X126099000Y-81273825D01*
X126098996Y-81273825D01*
X125992976Y-81272437D01*
X125893346Y-81271133D01*
X125887649Y-81272112D01*
X125887648Y-81272112D01*
X125690650Y-81305962D01*
X125690649Y-81305962D01*
X125684953Y-81306941D01*
X125486575Y-81380127D01*
X125481614Y-81383079D01*
X125481613Y-81383079D01*
X125464089Y-81393505D01*
X125304856Y-81488238D01*
X125145881Y-81627655D01*
X125014976Y-81793708D01*
X125012287Y-81798819D01*
X125012285Y-81798822D01*
X124998792Y-81824469D01*
X124916523Y-81980836D01*
X124853820Y-82182773D01*
X124828967Y-82392754D01*
X86361000Y-82392754D01*
X86361000Y-81138963D01*
X117358757Y-81138963D01*
X117375175Y-81334483D01*
X117429258Y-81523091D01*
X117432076Y-81528574D01*
X117516123Y-81692113D01*
X117516126Y-81692117D01*
X117518944Y-81697601D01*
X117640818Y-81851369D01*
X117790238Y-81978535D01*
X117795616Y-81981541D01*
X117795618Y-81981542D01*
X117831932Y-82001837D01*
X117961513Y-82074257D01*
X118148118Y-82134889D01*
X118342946Y-82158121D01*
X118349081Y-82157649D01*
X118349083Y-82157649D01*
X118532434Y-82143541D01*
X118532438Y-82143540D01*
X118538576Y-82143068D01*
X118727556Y-82090303D01*
X118902689Y-82001837D01*
X118922507Y-81986354D01*
X119052453Y-81884829D01*
X119057303Y-81881040D01*
X119087084Y-81846539D01*
X119181485Y-81737173D01*
X119181485Y-81737172D01*
X119185509Y-81732511D01*
X119282425Y-81561909D01*
X119344358Y-81375732D01*
X119368949Y-81181071D01*
X119369341Y-81153000D01*
X119367965Y-81138963D01*
X132598757Y-81138963D01*
X132615175Y-81334483D01*
X132669258Y-81523091D01*
X132672076Y-81528574D01*
X132756123Y-81692113D01*
X132756126Y-81692117D01*
X132758944Y-81697601D01*
X132880818Y-81851369D01*
X133030238Y-81978535D01*
X133035616Y-81981541D01*
X133035618Y-81981542D01*
X133071932Y-82001837D01*
X133201513Y-82074257D01*
X133388118Y-82134889D01*
X133582946Y-82158121D01*
X133589081Y-82157649D01*
X133589083Y-82157649D01*
X133772434Y-82143541D01*
X133772438Y-82143540D01*
X133778576Y-82143068D01*
X133967556Y-82090303D01*
X134142689Y-82001837D01*
X134162507Y-81986354D01*
X134292453Y-81884829D01*
X134297303Y-81881040D01*
X134327084Y-81846539D01*
X134421485Y-81737173D01*
X134421485Y-81737172D01*
X134425509Y-81732511D01*
X134522425Y-81561909D01*
X134584358Y-81375732D01*
X134608949Y-81181071D01*
X134609341Y-81153000D01*
X134590194Y-80957728D01*
X134588413Y-80951829D01*
X134588412Y-80951824D01*
X134535265Y-80775793D01*
X134533484Y-80769894D01*
X134441370Y-80596653D01*
X134317361Y-80444602D01*
X134166180Y-80319535D01*
X133993585Y-80226213D01*
X133899869Y-80197203D01*
X133812039Y-80170015D01*
X133812036Y-80170014D01*
X133806152Y-80168193D01*
X133800027Y-80167549D01*
X133800026Y-80167549D01*
X133617147Y-80148327D01*
X133617146Y-80148327D01*
X133611019Y-80147683D01*
X133488383Y-80158844D01*
X133421759Y-80164907D01*
X133421758Y-80164907D01*
X133415618Y-80165466D01*
X133409704Y-80167207D01*
X133409702Y-80167207D01*
X133280734Y-80205165D01*
X133227393Y-80220864D01*
X133221928Y-80223721D01*
X133058972Y-80308912D01*
X133058968Y-80308915D01*
X133053512Y-80311767D01*
X133048712Y-80315627D01*
X133048711Y-80315627D01*
X133014326Y-80343273D01*
X132900600Y-80434711D01*
X132774480Y-80585016D01*
X132771516Y-80590408D01*
X132771513Y-80590412D01*
X132692813Y-80733567D01*
X132679956Y-80756954D01*
X132620628Y-80943978D01*
X132598757Y-81138963D01*
X119367965Y-81138963D01*
X119350194Y-80957728D01*
X119348413Y-80951829D01*
X119348412Y-80951824D01*
X119295265Y-80775793D01*
X119293484Y-80769894D01*
X119201370Y-80596653D01*
X119077361Y-80444602D01*
X118926180Y-80319535D01*
X118753585Y-80226213D01*
X118659869Y-80197203D01*
X118572039Y-80170015D01*
X118572036Y-80170014D01*
X118566152Y-80168193D01*
X118560027Y-80167549D01*
X118560026Y-80167549D01*
X118377147Y-80148327D01*
X118377146Y-80148327D01*
X118371019Y-80147683D01*
X118248383Y-80158844D01*
X118181759Y-80164907D01*
X118181758Y-80164907D01*
X118175618Y-80165466D01*
X118169704Y-80167207D01*
X118169702Y-80167207D01*
X118040734Y-80205165D01*
X117987393Y-80220864D01*
X117981928Y-80223721D01*
X117818972Y-80308912D01*
X117818968Y-80308915D01*
X117813512Y-80311767D01*
X117808712Y-80315627D01*
X117808711Y-80315627D01*
X117774326Y-80343273D01*
X117660600Y-80434711D01*
X117534480Y-80585016D01*
X117531516Y-80590408D01*
X117531513Y-80590412D01*
X117452813Y-80733567D01*
X117439956Y-80756954D01*
X117380628Y-80943978D01*
X117358757Y-81138963D01*
X86361000Y-81138963D01*
X86361000Y-79747748D01*
X88370500Y-79747748D01*
X88382133Y-79806231D01*
X88426448Y-79872552D01*
X88492769Y-79916867D01*
X88504938Y-79919288D01*
X88504939Y-79919288D01*
X88545184Y-79927293D01*
X88551252Y-79928500D01*
X94590748Y-79928500D01*
X94596816Y-79927293D01*
X94637061Y-79919288D01*
X94637062Y-79919288D01*
X94649231Y-79916867D01*
X94715552Y-79872552D01*
X94759867Y-79806231D01*
X94771500Y-79747748D01*
X97510500Y-79747748D01*
X97522133Y-79806231D01*
X97566448Y-79872552D01*
X97632769Y-79916867D01*
X97644938Y-79919288D01*
X97644939Y-79919288D01*
X97685184Y-79927293D01*
X97691252Y-79928500D01*
X103730748Y-79928500D01*
X103736816Y-79927293D01*
X103777061Y-79919288D01*
X103777062Y-79919288D01*
X103789231Y-79916867D01*
X103855552Y-79872552D01*
X103899867Y-79806231D01*
X103911500Y-79747748D01*
X103911500Y-74708252D01*
X103899867Y-74649769D01*
X103855552Y-74583448D01*
X103789231Y-74539133D01*
X103777062Y-74536712D01*
X103777061Y-74536712D01*
X103736816Y-74528707D01*
X103730748Y-74527500D01*
X101672500Y-74527500D01*
X101604379Y-74507498D01*
X101557886Y-74453842D01*
X101546500Y-74401500D01*
X101546500Y-69147509D01*
X101566502Y-69079388D01*
X101575978Y-69066518D01*
X101576426Y-69065984D01*
X101581976Y-69059370D01*
X101584939Y-69053981D01*
X101584942Y-69053976D01*
X101678257Y-68884235D01*
X101681224Y-68878838D01*
X101743516Y-68682468D01*
X101744474Y-68673932D01*
X101761107Y-68525636D01*
X101761500Y-68522136D01*
X101761500Y-68514841D01*
X102160500Y-68514841D01*
X102175520Y-68668030D01*
X102235065Y-68865251D01*
X102331782Y-69047151D01*
X102335678Y-69051928D01*
X102347142Y-69065984D01*
X102374697Y-69131416D01*
X102375500Y-69145621D01*
X102375500Y-70547569D01*
X102375058Y-70558111D01*
X102370824Y-70608534D01*
X102379843Y-70676120D01*
X102381274Y-70686845D01*
X102381640Y-70689874D01*
X102390178Y-70768469D01*
X102392352Y-70774930D01*
X102392932Y-70777567D01*
X102393020Y-70778068D01*
X102393144Y-70778598D01*
X102393293Y-70779112D01*
X102393931Y-70781708D01*
X102394833Y-70788470D01*
X102397166Y-70794880D01*
X102421857Y-70862720D01*
X102422874Y-70865624D01*
X102448079Y-70940519D01*
X102451594Y-70946369D01*
X102452716Y-70948797D01*
X102452918Y-70949287D01*
X102453152Y-70949777D01*
X102453401Y-70950235D01*
X102454585Y-70952641D01*
X102456919Y-70959054D01*
X102460575Y-70964814D01*
X102460575Y-70964815D01*
X102499276Y-71025797D01*
X102500894Y-71028417D01*
X102508333Y-71040798D01*
X102541575Y-71096121D01*
X102546267Y-71101082D01*
X102547878Y-71103205D01*
X102548500Y-71104099D01*
X102551414Y-71107952D01*
X102554189Y-71112325D01*
X102557902Y-71116477D01*
X102610430Y-71169005D01*
X102612882Y-71171526D01*
X102666303Y-71228017D01*
X102671951Y-71231855D01*
X102677030Y-71236178D01*
X102684462Y-71243037D01*
X106613595Y-75172171D01*
X106647621Y-75234483D01*
X106650500Y-75261265D01*
X106650500Y-79747748D01*
X106662133Y-79806231D01*
X106706448Y-79872552D01*
X106772769Y-79916867D01*
X106784938Y-79919288D01*
X106784939Y-79919288D01*
X106825184Y-79927293D01*
X106831252Y-79928500D01*
X112870748Y-79928500D01*
X112876816Y-79927293D01*
X112917061Y-79919288D01*
X112917062Y-79919288D01*
X112929231Y-79916867D01*
X112995552Y-79872552D01*
X113039867Y-79806231D01*
X113051500Y-79747748D01*
X113051500Y-76917669D01*
X117056001Y-76917669D01*
X117056371Y-76924490D01*
X117061895Y-76975352D01*
X117065521Y-76990604D01*
X117110676Y-77111054D01*
X117119214Y-77126649D01*
X117195715Y-77228724D01*
X117208276Y-77241285D01*
X117310351Y-77317786D01*
X117325946Y-77326324D01*
X117446394Y-77371478D01*
X117461649Y-77375105D01*
X117512514Y-77380631D01*
X117519328Y-77381000D01*
X118131866Y-77381000D01*
X118199987Y-77401002D01*
X118246480Y-77454658D01*
X118256584Y-77524932D01*
X118227090Y-77589512D01*
X118167445Y-77627871D01*
X117987393Y-77680864D01*
X117981928Y-77683721D01*
X117818972Y-77768912D01*
X117818968Y-77768915D01*
X117813512Y-77771767D01*
X117808712Y-77775627D01*
X117808711Y-77775627D01*
X117774326Y-77803273D01*
X117660600Y-77894711D01*
X117534480Y-78045016D01*
X117531516Y-78050408D01*
X117531513Y-78050412D01*
X117460658Y-78179297D01*
X117439956Y-78216954D01*
X117380628Y-78403978D01*
X117358757Y-78598963D01*
X117375175Y-78794483D01*
X117429258Y-78983091D01*
X117446200Y-79016056D01*
X117516123Y-79152113D01*
X117516126Y-79152117D01*
X117518944Y-79157601D01*
X117640818Y-79311369D01*
X117790238Y-79438535D01*
X117795616Y-79441541D01*
X117795618Y-79441542D01*
X117831932Y-79461837D01*
X117961513Y-79534257D01*
X118148118Y-79594889D01*
X118342946Y-79618121D01*
X118349081Y-79617649D01*
X118349083Y-79617649D01*
X118532434Y-79603541D01*
X118532438Y-79603540D01*
X118538576Y-79603068D01*
X118727556Y-79550303D01*
X118902689Y-79461837D01*
X118921748Y-79446947D01*
X119052453Y-79344829D01*
X119057303Y-79341040D01*
X119070367Y-79325906D01*
X119181485Y-79197173D01*
X119181485Y-79197172D01*
X119185509Y-79192511D01*
X119202118Y-79163275D01*
X119221644Y-79128902D01*
X119282425Y-79021909D01*
X119344358Y-78835732D01*
X119368949Y-78641071D01*
X119369341Y-78613000D01*
X119367965Y-78598963D01*
X130058757Y-78598963D01*
X130075175Y-78794483D01*
X130129258Y-78983091D01*
X130146200Y-79016056D01*
X130216123Y-79152113D01*
X130216126Y-79152117D01*
X130218944Y-79157601D01*
X130340818Y-79311369D01*
X130490238Y-79438535D01*
X130495616Y-79441541D01*
X130495618Y-79441542D01*
X130531932Y-79461837D01*
X130661513Y-79534257D01*
X130848118Y-79594889D01*
X131042946Y-79618121D01*
X131049081Y-79617649D01*
X131049083Y-79617649D01*
X131232434Y-79603541D01*
X131232438Y-79603540D01*
X131238576Y-79603068D01*
X131427556Y-79550303D01*
X131602689Y-79461837D01*
X131621748Y-79446947D01*
X131752453Y-79344829D01*
X131757303Y-79341040D01*
X131770367Y-79325906D01*
X131881485Y-79197173D01*
X131881485Y-79197172D01*
X131885509Y-79192511D01*
X131902118Y-79163275D01*
X131921644Y-79128902D01*
X131982425Y-79021909D01*
X132044358Y-78835732D01*
X132068949Y-78641071D01*
X132069341Y-78613000D01*
X132067965Y-78598963D01*
X132598757Y-78598963D01*
X132615175Y-78794483D01*
X132669258Y-78983091D01*
X132686200Y-79016056D01*
X132756123Y-79152113D01*
X132756126Y-79152117D01*
X132758944Y-79157601D01*
X132880818Y-79311369D01*
X133030238Y-79438535D01*
X133035616Y-79441541D01*
X133035618Y-79441542D01*
X133071932Y-79461837D01*
X133201513Y-79534257D01*
X133388118Y-79594889D01*
X133582946Y-79618121D01*
X133589081Y-79617649D01*
X133589083Y-79617649D01*
X133772434Y-79603541D01*
X133772438Y-79603540D01*
X133778576Y-79603068D01*
X133967556Y-79550303D01*
X134142689Y-79461837D01*
X134161748Y-79446947D01*
X134292453Y-79344829D01*
X134297303Y-79341040D01*
X134310367Y-79325906D01*
X134421485Y-79197173D01*
X134421485Y-79197172D01*
X134425509Y-79192511D01*
X134442118Y-79163275D01*
X134461644Y-79128902D01*
X134522425Y-79021909D01*
X134584358Y-78835732D01*
X134608949Y-78641071D01*
X134609341Y-78613000D01*
X134590194Y-78417728D01*
X134588413Y-78411829D01*
X134588412Y-78411824D01*
X134535265Y-78235793D01*
X134533484Y-78229894D01*
X134441370Y-78056653D01*
X134317361Y-77904602D01*
X134166180Y-77779535D01*
X133993585Y-77686213D01*
X133899868Y-77657203D01*
X133812039Y-77630015D01*
X133812036Y-77630014D01*
X133806152Y-77628193D01*
X133800027Y-77627549D01*
X133800026Y-77627549D01*
X133617147Y-77608327D01*
X133617146Y-77608327D01*
X133611019Y-77607683D01*
X133488383Y-77618844D01*
X133421759Y-77624907D01*
X133421758Y-77624907D01*
X133415618Y-77625466D01*
X133409704Y-77627207D01*
X133409702Y-77627207D01*
X133280734Y-77665165D01*
X133227393Y-77680864D01*
X133221928Y-77683721D01*
X133058972Y-77768912D01*
X133058968Y-77768915D01*
X133053512Y-77771767D01*
X133048712Y-77775627D01*
X133048711Y-77775627D01*
X133014326Y-77803273D01*
X132900600Y-77894711D01*
X132774480Y-78045016D01*
X132771516Y-78050408D01*
X132771513Y-78050412D01*
X132700658Y-78179297D01*
X132679956Y-78216954D01*
X132620628Y-78403978D01*
X132598757Y-78598963D01*
X132067965Y-78598963D01*
X132050194Y-78417728D01*
X132048413Y-78411829D01*
X132048412Y-78411824D01*
X131995265Y-78235793D01*
X131993484Y-78229894D01*
X131901370Y-78056653D01*
X131777361Y-77904602D01*
X131626180Y-77779535D01*
X131453585Y-77686213D01*
X131359868Y-77657203D01*
X131272039Y-77630015D01*
X131272036Y-77630014D01*
X131266152Y-77628193D01*
X131260027Y-77627549D01*
X131260026Y-77627549D01*
X131077147Y-77608327D01*
X131077146Y-77608327D01*
X131071019Y-77607683D01*
X130948383Y-77618844D01*
X130881759Y-77624907D01*
X130881758Y-77624907D01*
X130875618Y-77625466D01*
X130869704Y-77627207D01*
X130869702Y-77627207D01*
X130740734Y-77665165D01*
X130687393Y-77680864D01*
X130681928Y-77683721D01*
X130518972Y-77768912D01*
X130518968Y-77768915D01*
X130513512Y-77771767D01*
X130508712Y-77775627D01*
X130508711Y-77775627D01*
X130474326Y-77803273D01*
X130360600Y-77894711D01*
X130234480Y-78045016D01*
X130231516Y-78050408D01*
X130231513Y-78050412D01*
X130160658Y-78179297D01*
X130139956Y-78216954D01*
X130080628Y-78403978D01*
X130058757Y-78598963D01*
X119367965Y-78598963D01*
X119350194Y-78417728D01*
X119348413Y-78411829D01*
X119348412Y-78411824D01*
X119295265Y-78235793D01*
X119293484Y-78229894D01*
X119201370Y-78056653D01*
X119077361Y-77904602D01*
X118926180Y-77779535D01*
X118753585Y-77686213D01*
X118566152Y-77628193D01*
X118566671Y-77626517D01*
X118511320Y-77597123D01*
X118476574Y-77535211D01*
X118480816Y-77464341D01*
X118522699Y-77407015D01*
X118588927Y-77381433D01*
X118599375Y-77380999D01*
X119208669Y-77380999D01*
X119215490Y-77380629D01*
X119266352Y-77375105D01*
X119281604Y-77371479D01*
X119402054Y-77326324D01*
X119417649Y-77317786D01*
X119519724Y-77241285D01*
X119532285Y-77228724D01*
X119608786Y-77126649D01*
X119617324Y-77111054D01*
X119662478Y-76990606D01*
X119666105Y-76975351D01*
X119671631Y-76924486D01*
X119672000Y-76917672D01*
X119672000Y-76345115D01*
X119667525Y-76329876D01*
X119666135Y-76328671D01*
X119658452Y-76327000D01*
X117074116Y-76327000D01*
X117058877Y-76331475D01*
X117057672Y-76332865D01*
X117056001Y-76340548D01*
X117056001Y-76917669D01*
X113051500Y-76917669D01*
X113051500Y-76058963D01*
X132598757Y-76058963D01*
X132615175Y-76254483D01*
X132669258Y-76443091D01*
X132672076Y-76448574D01*
X132756123Y-76612113D01*
X132756126Y-76612117D01*
X132758944Y-76617601D01*
X132880818Y-76771369D01*
X132885511Y-76775363D01*
X132885512Y-76775364D01*
X133015726Y-76886184D01*
X133030238Y-76898535D01*
X133035616Y-76901541D01*
X133035618Y-76901542D01*
X133071932Y-76921837D01*
X133201513Y-76994257D01*
X133388118Y-77054889D01*
X133582946Y-77078121D01*
X133589081Y-77077649D01*
X133589083Y-77077649D01*
X133772434Y-77063541D01*
X133772438Y-77063540D01*
X133778576Y-77063068D01*
X133967556Y-77010303D01*
X134142689Y-76921837D01*
X134172515Y-76898535D01*
X134292453Y-76804829D01*
X134297303Y-76801040D01*
X134327084Y-76766539D01*
X134421485Y-76657173D01*
X134421485Y-76657172D01*
X134425509Y-76652511D01*
X134490980Y-76537262D01*
X134542018Y-76487913D01*
X134600535Y-76473500D01*
X138007564Y-76473500D01*
X138027274Y-76475051D01*
X138049000Y-76478492D01*
X138070726Y-76475051D01*
X138090436Y-76473500D01*
X151581500Y-76473500D01*
X151649621Y-76493502D01*
X151696114Y-76547158D01*
X151707500Y-76599500D01*
X151707500Y-76726834D01*
X151710481Y-76758369D01*
X151755366Y-76886184D01*
X151760958Y-76893754D01*
X151760959Y-76893757D01*
X151821226Y-76975351D01*
X151835850Y-76995150D01*
X151843421Y-77000742D01*
X151937243Y-77070041D01*
X151937246Y-77070042D01*
X151944816Y-77075634D01*
X152072631Y-77120519D01*
X152080277Y-77121242D01*
X152080278Y-77121242D01*
X152086248Y-77121806D01*
X152104166Y-77123500D01*
X153711834Y-77123500D01*
X153729752Y-77121806D01*
X153735722Y-77121242D01*
X153735723Y-77121242D01*
X153743369Y-77120519D01*
X153871184Y-77075634D01*
X153878754Y-77070042D01*
X153878757Y-77070041D01*
X153972579Y-77000742D01*
X153980150Y-76995150D01*
X153994774Y-76975351D01*
X154055041Y-76893757D01*
X154055042Y-76893754D01*
X154060634Y-76886184D01*
X154105519Y-76758369D01*
X154108500Y-76726834D01*
X154108500Y-75419166D01*
X154105519Y-75387631D01*
X154060634Y-75259816D01*
X154055042Y-75252246D01*
X154055041Y-75252243D01*
X153985742Y-75158421D01*
X153980150Y-75150850D01*
X153963206Y-75138335D01*
X153878757Y-75075959D01*
X153878754Y-75075958D01*
X153871184Y-75070366D01*
X153743369Y-75025481D01*
X153735723Y-75024758D01*
X153735722Y-75024758D01*
X153729752Y-75024194D01*
X153711834Y-75022500D01*
X152104166Y-75022500D01*
X152086248Y-75024194D01*
X152080278Y-75024758D01*
X152080277Y-75024758D01*
X152072631Y-75025481D01*
X151944816Y-75070366D01*
X151937246Y-75075958D01*
X151937243Y-75075959D01*
X151852794Y-75138335D01*
X151835850Y-75150850D01*
X151830258Y-75158421D01*
X151760959Y-75252243D01*
X151760958Y-75252246D01*
X151755366Y-75259816D01*
X151710481Y-75387631D01*
X151707500Y-75419166D01*
X151707500Y-75546500D01*
X151687498Y-75614621D01*
X151633842Y-75661114D01*
X151581500Y-75672500D01*
X138575500Y-75672500D01*
X138507379Y-75652498D01*
X138460886Y-75598842D01*
X138449500Y-75546500D01*
X138449500Y-69421669D01*
X141753001Y-69421669D01*
X141753371Y-69428490D01*
X141758895Y-69479352D01*
X141762521Y-69494604D01*
X141807676Y-69615054D01*
X141816214Y-69630649D01*
X141892715Y-69732724D01*
X141905276Y-69745285D01*
X142007351Y-69821786D01*
X142022946Y-69830324D01*
X142143394Y-69875478D01*
X142158649Y-69879105D01*
X142209514Y-69884631D01*
X142216328Y-69885000D01*
X143288885Y-69885000D01*
X143304124Y-69880525D01*
X143305329Y-69879135D01*
X143307000Y-69871452D01*
X143307000Y-69866884D01*
X143815000Y-69866884D01*
X143819475Y-69882123D01*
X143820865Y-69883328D01*
X143828548Y-69884999D01*
X144905669Y-69884999D01*
X144912490Y-69884629D01*
X144963352Y-69879105D01*
X144978604Y-69875479D01*
X145099054Y-69830324D01*
X145114649Y-69821786D01*
X145216724Y-69745285D01*
X145229285Y-69732724D01*
X145305786Y-69630649D01*
X145314324Y-69615054D01*
X145359478Y-69494606D01*
X145363105Y-69479351D01*
X145368631Y-69428486D01*
X145369000Y-69421672D01*
X145369000Y-68349115D01*
X145364525Y-68333876D01*
X145363135Y-68332671D01*
X145355452Y-68331000D01*
X143833115Y-68331000D01*
X143817876Y-68335475D01*
X143816671Y-68336865D01*
X143815000Y-68344548D01*
X143815000Y-69866884D01*
X143307000Y-69866884D01*
X143307000Y-68349115D01*
X143302525Y-68333876D01*
X143301135Y-68332671D01*
X143293452Y-68331000D01*
X141771116Y-68331000D01*
X141755877Y-68335475D01*
X141754672Y-68336865D01*
X141753001Y-68344548D01*
X141753001Y-69421669D01*
X138449500Y-69421669D01*
X138449500Y-68727083D01*
X138469502Y-68658962D01*
X138486405Y-68637988D01*
X139319508Y-67804885D01*
X141753000Y-67804885D01*
X141757475Y-67820124D01*
X141758865Y-67821329D01*
X141766548Y-67823000D01*
X143288885Y-67823000D01*
X143304124Y-67818525D01*
X143305329Y-67817135D01*
X143307000Y-67809452D01*
X143307000Y-67804885D01*
X143815000Y-67804885D01*
X143819475Y-67820124D01*
X143820865Y-67821329D01*
X143828548Y-67823000D01*
X145350884Y-67823000D01*
X145366123Y-67818525D01*
X145367328Y-67817135D01*
X145368999Y-67809452D01*
X145368999Y-66732331D01*
X145368629Y-66725510D01*
X145363105Y-66674648D01*
X145359479Y-66659396D01*
X145314324Y-66538946D01*
X145305786Y-66523351D01*
X145229285Y-66421276D01*
X145216724Y-66408715D01*
X145114649Y-66332214D01*
X145099054Y-66323676D01*
X144978606Y-66278522D01*
X144963351Y-66274895D01*
X144912486Y-66269369D01*
X144905672Y-66269000D01*
X143833115Y-66269000D01*
X143817876Y-66273475D01*
X143816671Y-66274865D01*
X143815000Y-66282548D01*
X143815000Y-67804885D01*
X143307000Y-67804885D01*
X143307000Y-66287116D01*
X143302525Y-66271877D01*
X143301135Y-66270672D01*
X143293452Y-66269001D01*
X142216331Y-66269001D01*
X142209510Y-66269371D01*
X142158648Y-66274895D01*
X142143396Y-66278521D01*
X142022946Y-66323676D01*
X142007351Y-66332214D01*
X141905276Y-66408715D01*
X141892715Y-66421276D01*
X141816214Y-66523351D01*
X141807676Y-66538946D01*
X141762522Y-66659394D01*
X141758895Y-66674649D01*
X141753369Y-66725514D01*
X141753000Y-66732328D01*
X141753000Y-67804885D01*
X139319508Y-67804885D01*
X140601042Y-66523351D01*
X142752777Y-64371615D01*
X142815089Y-64337589D01*
X142885904Y-64342654D01*
X142905434Y-64351917D01*
X142910433Y-64354838D01*
X142915253Y-64356678D01*
X142915258Y-64356681D01*
X143029547Y-64400323D01*
X143140939Y-64442859D01*
X143146007Y-64443890D01*
X143146010Y-64443891D01*
X143265587Y-64468219D01*
X143382726Y-64492052D01*
X143387899Y-64492242D01*
X143387902Y-64492242D01*
X143624136Y-64500904D01*
X143624140Y-64500904D01*
X143629300Y-64501093D01*
X143634420Y-64500437D01*
X143634422Y-64500437D01*
X143710703Y-64490665D01*
X143874041Y-64469741D01*
X143878990Y-64468256D01*
X143878996Y-64468255D01*
X144105424Y-64400323D01*
X144105423Y-64400323D01*
X144110374Y-64398838D01*
X144306253Y-64302878D01*
X144327303Y-64292566D01*
X144327308Y-64292563D01*
X144331954Y-64290287D01*
X144336164Y-64287284D01*
X144336169Y-64287281D01*
X144528617Y-64150009D01*
X144528622Y-64150005D01*
X144532829Y-64147004D01*
X144707605Y-63972837D01*
X144851588Y-63772463D01*
X144960911Y-63551264D01*
X144994045Y-63442207D01*
X145031135Y-63320132D01*
X145031136Y-63320126D01*
X145032639Y-63315180D01*
X145064845Y-63070550D01*
X145066643Y-62997000D01*
X145058660Y-62899906D01*
X145046849Y-62756240D01*
X145046848Y-62756234D01*
X145046425Y-62751089D01*
X144986316Y-62511783D01*
X144887928Y-62285507D01*
X144753905Y-62078339D01*
X144727635Y-62049468D01*
X144665175Y-61980826D01*
X144587846Y-61895842D01*
X144583795Y-61892643D01*
X144583791Y-61892639D01*
X144398264Y-61746119D01*
X144398259Y-61746116D01*
X144394210Y-61742918D01*
X144389694Y-61740425D01*
X144389691Y-61740423D01*
X144182722Y-61626170D01*
X144182718Y-61626168D01*
X144178198Y-61623673D01*
X144173329Y-61621949D01*
X144173325Y-61621947D01*
X143950485Y-61543035D01*
X143950481Y-61543034D01*
X143945610Y-61541309D01*
X143940517Y-61540402D01*
X143940514Y-61540401D01*
X143707783Y-61498945D01*
X143707777Y-61498944D01*
X143702694Y-61498039D01*
X143623324Y-61497069D01*
X143461142Y-61495088D01*
X143461140Y-61495088D01*
X143455972Y-61495025D01*
X143212070Y-61532347D01*
X142977540Y-61609003D01*
X142758679Y-61722935D01*
X142754546Y-61726038D01*
X142754543Y-61726040D01*
X142703331Y-61764491D01*
X142561364Y-61871083D01*
X142557792Y-61874821D01*
X142417111Y-62022036D01*
X142390896Y-62049468D01*
X142387982Y-62053740D01*
X142387981Y-62053741D01*
X142368238Y-62082683D01*
X142251851Y-62253300D01*
X142225439Y-62310201D01*
X142169029Y-62431726D01*
X142147965Y-62477104D01*
X142082026Y-62714871D01*
X142055806Y-62960214D01*
X142070010Y-63206545D01*
X142071147Y-63211591D01*
X142071148Y-63211597D01*
X142093336Y-63310051D01*
X142124255Y-63447249D01*
X142126197Y-63452031D01*
X142126198Y-63452035D01*
X142214142Y-63668615D01*
X142221238Y-63739256D01*
X142186494Y-63805114D01*
X137743516Y-68248091D01*
X137743513Y-68248095D01*
X137720950Y-68270658D01*
X137716446Y-68279498D01*
X137710965Y-68290255D01*
X137700639Y-68307107D01*
X137687704Y-68324910D01*
X137680907Y-68345830D01*
X137673341Y-68364094D01*
X137667856Y-68374859D01*
X137667855Y-68374863D01*
X137663354Y-68383696D01*
X137661803Y-68393487D01*
X137661803Y-68393488D01*
X137659913Y-68405422D01*
X137655297Y-68424647D01*
X137651565Y-68436132D01*
X137651564Y-68436136D01*
X137648500Y-68445567D01*
X137648500Y-75546500D01*
X137628498Y-75614621D01*
X137574842Y-75661114D01*
X137522500Y-75672500D01*
X134599943Y-75672500D01*
X134531822Y-75652498D01*
X134488692Y-75605653D01*
X134444268Y-75522104D01*
X134441370Y-75516653D01*
X134317361Y-75364602D01*
X134166180Y-75239535D01*
X133993585Y-75146213D01*
X133899868Y-75117203D01*
X133812039Y-75090015D01*
X133812036Y-75090014D01*
X133806152Y-75088193D01*
X133800027Y-75087549D01*
X133800026Y-75087549D01*
X133617147Y-75068327D01*
X133617146Y-75068327D01*
X133611019Y-75067683D01*
X133520082Y-75075959D01*
X133421759Y-75084907D01*
X133421758Y-75084907D01*
X133415618Y-75085466D01*
X133409704Y-75087207D01*
X133409702Y-75087207D01*
X133280734Y-75125165D01*
X133227393Y-75140864D01*
X133221928Y-75143721D01*
X133058972Y-75228912D01*
X133058968Y-75228915D01*
X133053512Y-75231767D01*
X133048712Y-75235627D01*
X133048711Y-75235627D01*
X133028045Y-75252243D01*
X132900600Y-75354711D01*
X132774480Y-75505016D01*
X132771516Y-75510408D01*
X132771513Y-75510412D01*
X132719154Y-75605653D01*
X132679956Y-75676954D01*
X132620628Y-75863978D01*
X132598757Y-76058963D01*
X113051500Y-76058963D01*
X113051500Y-75800885D01*
X117056000Y-75800885D01*
X117060475Y-75816124D01*
X117061865Y-75817329D01*
X117069548Y-75819000D01*
X118091885Y-75819000D01*
X118107124Y-75814525D01*
X118108329Y-75813135D01*
X118110000Y-75805452D01*
X118110000Y-75800885D01*
X118618000Y-75800885D01*
X118622475Y-75816124D01*
X118623865Y-75817329D01*
X118631548Y-75819000D01*
X119653884Y-75819000D01*
X119669123Y-75814525D01*
X119670328Y-75813135D01*
X119671999Y-75805452D01*
X119671999Y-75228331D01*
X119671629Y-75221510D01*
X119666105Y-75170648D01*
X119662479Y-75155396D01*
X119617324Y-75034946D01*
X119608786Y-75019351D01*
X119532285Y-74917276D01*
X119519724Y-74904715D01*
X119417649Y-74828214D01*
X119402054Y-74819676D01*
X119281606Y-74774522D01*
X119266351Y-74770895D01*
X119215486Y-74765369D01*
X119208672Y-74765000D01*
X118636115Y-74765000D01*
X118620876Y-74769475D01*
X118619671Y-74770865D01*
X118618000Y-74778548D01*
X118618000Y-75800885D01*
X118110000Y-75800885D01*
X118110000Y-74783116D01*
X118105525Y-74767877D01*
X118104135Y-74766672D01*
X118096452Y-74765001D01*
X117519331Y-74765001D01*
X117512510Y-74765371D01*
X117461648Y-74770895D01*
X117446396Y-74774521D01*
X117325946Y-74819676D01*
X117310351Y-74828214D01*
X117208276Y-74904715D01*
X117195715Y-74917276D01*
X117119214Y-75019351D01*
X117110676Y-75034946D01*
X117065522Y-75155394D01*
X117061895Y-75170649D01*
X117056369Y-75221514D01*
X117056000Y-75228328D01*
X117056000Y-75800885D01*
X113051500Y-75800885D01*
X113051500Y-74708252D01*
X113039867Y-74649769D01*
X112995552Y-74583448D01*
X112929231Y-74539133D01*
X112917062Y-74536712D01*
X112917061Y-74536712D01*
X112876816Y-74528707D01*
X112870748Y-74527500D01*
X108384266Y-74527500D01*
X108316145Y-74507498D01*
X108295171Y-74490595D01*
X104083405Y-70278829D01*
X104049379Y-70216517D01*
X104046500Y-70189734D01*
X104046500Y-69147509D01*
X104066502Y-69079388D01*
X104075978Y-69066518D01*
X104076426Y-69065984D01*
X104081976Y-69059370D01*
X104084939Y-69053981D01*
X104084942Y-69053976D01*
X104178257Y-68884235D01*
X104181224Y-68878838D01*
X104243516Y-68682468D01*
X104244474Y-68673932D01*
X104261107Y-68525636D01*
X104261500Y-68522136D01*
X104261500Y-68161159D01*
X104246480Y-68007970D01*
X104186935Y-67810749D01*
X104090218Y-67628849D01*
X104091034Y-67628415D01*
X104071500Y-67563721D01*
X104071500Y-62499847D01*
X104091502Y-62431726D01*
X104149284Y-62383437D01*
X104152056Y-62382289D01*
X104164231Y-62379867D01*
X104230552Y-62335552D01*
X104274867Y-62269231D01*
X104281670Y-62235033D01*
X104285293Y-62216816D01*
X104286500Y-62210748D01*
X104286500Y-60471252D01*
X104274867Y-60412769D01*
X104230552Y-60346448D01*
X104164231Y-60302133D01*
X104152062Y-60299712D01*
X104152061Y-60299712D01*
X104111816Y-60291707D01*
X104105748Y-60290500D01*
X102366252Y-60290500D01*
X102360184Y-60291707D01*
X102319939Y-60299712D01*
X102319938Y-60299712D01*
X102307769Y-60302133D01*
X102241448Y-60346448D01*
X102197133Y-60412769D01*
X102185500Y-60471252D01*
X102185500Y-62210748D01*
X102186707Y-62216816D01*
X102190331Y-62235033D01*
X102197133Y-62269231D01*
X102241448Y-62335552D01*
X102307769Y-62379867D01*
X102319944Y-62382289D01*
X102322716Y-62383437D01*
X102377998Y-62427985D01*
X102400500Y-62499847D01*
X102400500Y-67498697D01*
X102380498Y-67566818D01*
X102371022Y-67579688D01*
X102340024Y-67616630D01*
X102337061Y-67622019D01*
X102337058Y-67622024D01*
X102330315Y-67634290D01*
X102240776Y-67797162D01*
X102178484Y-67993532D01*
X102177798Y-67999649D01*
X102177797Y-67999653D01*
X102169248Y-68075874D01*
X102160500Y-68153864D01*
X102160500Y-68514841D01*
X101761500Y-68514841D01*
X101761500Y-68161159D01*
X101746480Y-68007970D01*
X101686935Y-67810749D01*
X101590218Y-67628849D01*
X101501756Y-67520384D01*
X101463906Y-67473975D01*
X101463903Y-67473972D01*
X101460011Y-67469200D01*
X101386878Y-67408699D01*
X101306025Y-67341811D01*
X101306021Y-67341809D01*
X101301275Y-67337882D01*
X101120055Y-67239897D01*
X100923254Y-67178977D01*
X100917129Y-67178333D01*
X100917128Y-67178333D01*
X100724498Y-67158087D01*
X100724496Y-67158087D01*
X100718369Y-67157443D01*
X100631529Y-67165346D01*
X100519342Y-67175555D01*
X100519339Y-67175556D01*
X100513203Y-67176114D01*
X100315572Y-67234280D01*
X100133002Y-67329726D01*
X100128201Y-67333586D01*
X100128198Y-67333588D01*
X100117971Y-67341811D01*
X99972447Y-67458815D01*
X99840024Y-67616630D01*
X99837059Y-67622024D01*
X99837053Y-67622033D01*
X99830315Y-67634290D01*
X99740776Y-67797162D01*
X99678484Y-67993532D01*
X99677798Y-67999649D01*
X99677797Y-67999653D01*
X99669248Y-68075874D01*
X99660500Y-68153864D01*
X99660500Y-68514841D01*
X99675520Y-68668030D01*
X99735065Y-68865251D01*
X99831782Y-69047151D01*
X99835678Y-69051928D01*
X99847142Y-69065984D01*
X99874697Y-69131416D01*
X99875500Y-69145621D01*
X99875500Y-74401500D01*
X99855498Y-74469621D01*
X99801842Y-74516114D01*
X99749500Y-74527500D01*
X97691252Y-74527500D01*
X97685184Y-74528707D01*
X97644939Y-74536712D01*
X97644938Y-74536712D01*
X97632769Y-74539133D01*
X97566448Y-74583448D01*
X97522133Y-74649769D01*
X97510500Y-74708252D01*
X97510500Y-79747748D01*
X94771500Y-79747748D01*
X94771500Y-75261265D01*
X94791502Y-75193144D01*
X94808405Y-75172170D01*
X98773192Y-71207384D01*
X98780959Y-71200241D01*
X98814401Y-71171980D01*
X98819614Y-71167575D01*
X98823759Y-71162154D01*
X98867600Y-71104813D01*
X98869499Y-71102392D01*
X98914740Y-71046123D01*
X98914745Y-71046115D01*
X98919020Y-71040798D01*
X98922055Y-71034685D01*
X98923505Y-71032417D01*
X98923805Y-71031988D01*
X98924084Y-71031540D01*
X98924342Y-71031071D01*
X98925726Y-71028786D01*
X98929871Y-71023364D01*
X98941196Y-70999078D01*
X98963263Y-70951757D01*
X98964597Y-70948985D01*
X98996699Y-70884314D01*
X98999735Y-70878198D01*
X99001386Y-70871575D01*
X99002308Y-70869070D01*
X99002514Y-70868574D01*
X99002694Y-70868066D01*
X99002840Y-70867570D01*
X99003707Y-70865024D01*
X99006590Y-70858841D01*
X99020887Y-70794880D01*
X99023831Y-70781707D01*
X99024540Y-70778710D01*
X99042000Y-70708683D01*
X99042001Y-70708678D01*
X99043651Y-70702059D01*
X99043841Y-70695239D01*
X99044205Y-70692585D01*
X99044397Y-70691520D01*
X99045062Y-70686723D01*
X99046189Y-70681682D01*
X99046500Y-70676120D01*
X99046500Y-70601814D01*
X99046549Y-70598296D01*
X99047818Y-70552848D01*
X99048719Y-70520599D01*
X99047440Y-70513892D01*
X99046906Y-70507259D01*
X99046500Y-70497152D01*
X99046500Y-69512728D01*
X99066502Y-69444607D01*
X99097636Y-69411381D01*
X99133150Y-69385150D01*
X99138746Y-69377574D01*
X99208041Y-69283757D01*
X99208042Y-69283754D01*
X99213634Y-69276184D01*
X99258519Y-69148369D01*
X99261500Y-69116834D01*
X99261500Y-67559166D01*
X99258519Y-67527631D01*
X99213634Y-67399816D01*
X99208038Y-67392239D01*
X99191044Y-67369231D01*
X99166660Y-67302553D01*
X99182196Y-67233278D01*
X99203299Y-67205276D01*
X101258186Y-65150389D01*
X101265953Y-65143246D01*
X101299400Y-65114981D01*
X101304614Y-65110575D01*
X101352622Y-65047784D01*
X101354512Y-65045373D01*
X101399743Y-64989117D01*
X101404020Y-64983798D01*
X101407054Y-64977686D01*
X101408506Y-64975416D01*
X101408806Y-64974988D01*
X101409081Y-64974546D01*
X101409342Y-64974071D01*
X101410726Y-64971786D01*
X101414871Y-64966364D01*
X101448263Y-64894757D01*
X101449597Y-64891985D01*
X101481699Y-64827314D01*
X101484735Y-64821198D01*
X101486386Y-64814575D01*
X101487308Y-64812070D01*
X101487514Y-64811574D01*
X101487694Y-64811066D01*
X101487840Y-64810570D01*
X101488707Y-64808024D01*
X101491590Y-64801841D01*
X101508831Y-64724707D01*
X101509540Y-64721710D01*
X101527000Y-64651683D01*
X101527001Y-64651678D01*
X101528651Y-64645059D01*
X101528841Y-64638239D01*
X101529205Y-64635585D01*
X101529397Y-64634520D01*
X101530062Y-64629723D01*
X101531189Y-64624682D01*
X101531500Y-64619120D01*
X101531500Y-64544834D01*
X101531549Y-64541316D01*
X101531562Y-64540838D01*
X101533720Y-64463598D01*
X101532441Y-64456892D01*
X101531906Y-64450245D01*
X101531500Y-64440138D01*
X101531500Y-62026764D01*
X101554538Y-61954136D01*
X101558564Y-61949472D01*
X101660323Y-61770344D01*
X101725351Y-61574863D01*
X101751171Y-61370474D01*
X101751583Y-61341000D01*
X101731480Y-61135970D01*
X101671935Y-60938749D01*
X101575218Y-60756849D01*
X101501859Y-60666902D01*
X101448906Y-60601975D01*
X101448903Y-60601972D01*
X101445011Y-60597200D01*
X101427786Y-60582950D01*
X101291025Y-60469811D01*
X101291021Y-60469809D01*
X101286275Y-60465882D01*
X101105055Y-60367897D01*
X100908254Y-60306977D01*
X100902129Y-60306333D01*
X100902128Y-60306333D01*
X100709498Y-60286087D01*
X100709496Y-60286087D01*
X100703369Y-60285443D01*
X100616529Y-60293346D01*
X100504342Y-60303555D01*
X100504339Y-60303556D01*
X100498203Y-60304114D01*
X100300572Y-60362280D01*
X100118002Y-60457726D01*
X100113201Y-60461586D01*
X100113198Y-60461588D01*
X99962254Y-60582950D01*
X99957447Y-60586815D01*
X99825024Y-60744630D01*
X99822056Y-60750028D01*
X99822053Y-60750033D01*
X99815315Y-60762290D01*
X99725776Y-60925162D01*
X99663484Y-61121532D01*
X99662798Y-61127649D01*
X99662797Y-61127653D01*
X99641207Y-61320137D01*
X99640520Y-61326262D01*
X99641036Y-61332406D01*
X99654692Y-61495025D01*
X99657759Y-61531553D01*
X99714544Y-61729586D01*
X99717359Y-61735063D01*
X99717360Y-61735066D01*
X99801952Y-61899665D01*
X99808712Y-61912818D01*
X99812539Y-61917646D01*
X99833245Y-61943771D01*
X99859883Y-62009582D01*
X99860500Y-62022036D01*
X99860500Y-64132735D01*
X99840498Y-64200856D01*
X99823595Y-64221830D01*
X97648808Y-66396616D01*
X97641042Y-66403758D01*
X97602386Y-66436425D01*
X97598243Y-66441844D01*
X97598241Y-66441846D01*
X97554400Y-66499187D01*
X97552501Y-66501608D01*
X97507260Y-66557877D01*
X97507255Y-66557885D01*
X97502980Y-66563202D01*
X97499945Y-66569315D01*
X97498495Y-66571583D01*
X97498195Y-66572012D01*
X97497916Y-66572460D01*
X97497658Y-66572929D01*
X97496274Y-66575214D01*
X97492129Y-66580636D01*
X97489245Y-66586821D01*
X97458737Y-66652243D01*
X97457403Y-66655015D01*
X97447657Y-66674649D01*
X97422265Y-66725802D01*
X97420614Y-66732425D01*
X97419692Y-66734930D01*
X97419486Y-66735426D01*
X97419306Y-66735934D01*
X97419160Y-66736430D01*
X97418293Y-66738976D01*
X97415410Y-66745159D01*
X97413923Y-66751813D01*
X97413922Y-66751815D01*
X97398169Y-66822293D01*
X97397460Y-66825290D01*
X97380000Y-66895317D01*
X97379999Y-66895322D01*
X97378349Y-66901941D01*
X97378159Y-66908761D01*
X97377795Y-66911415D01*
X97377603Y-66912480D01*
X97376938Y-66917277D01*
X97375811Y-66922318D01*
X97375500Y-66927880D01*
X97375500Y-67002186D01*
X97375451Y-67005704D01*
X97373281Y-67083401D01*
X97374560Y-67090108D01*
X97375094Y-67096741D01*
X97375500Y-67106848D01*
X97375500Y-67163272D01*
X97355498Y-67231393D01*
X97324364Y-67264619D01*
X97288850Y-67290850D01*
X97283255Y-67298425D01*
X97283254Y-67298426D01*
X97213959Y-67392243D01*
X97213958Y-67392246D01*
X97208366Y-67399816D01*
X97163481Y-67527631D01*
X97160500Y-67559166D01*
X97160500Y-69116834D01*
X97163481Y-69148369D01*
X97208366Y-69276184D01*
X97213958Y-69283754D01*
X97213959Y-69283757D01*
X97283254Y-69377574D01*
X97288850Y-69385150D01*
X97324362Y-69411379D01*
X97367270Y-69467937D01*
X97375500Y-69512728D01*
X97375500Y-70189734D01*
X97355498Y-70257855D01*
X97338595Y-70278829D01*
X93126829Y-74490595D01*
X93064517Y-74524621D01*
X93037734Y-74527500D01*
X88551252Y-74527500D01*
X88545184Y-74528707D01*
X88504939Y-74536712D01*
X88504938Y-74536712D01*
X88492769Y-74539133D01*
X88426448Y-74583448D01*
X88382133Y-74649769D01*
X88370500Y-74708252D01*
X88370500Y-79747748D01*
X86361000Y-79747748D01*
X86361000Y-61326262D01*
X97100520Y-61326262D01*
X97101036Y-61332406D01*
X97114692Y-61495025D01*
X97117759Y-61531553D01*
X97174544Y-61729586D01*
X97177359Y-61735063D01*
X97177360Y-61735066D01*
X97261952Y-61899665D01*
X97268712Y-61912818D01*
X97396677Y-62074270D01*
X97553564Y-62207791D01*
X97733398Y-62308297D01*
X97817280Y-62335552D01*
X97923471Y-62370056D01*
X97923475Y-62370057D01*
X97929329Y-62371959D01*
X98133894Y-62396351D01*
X98140029Y-62395879D01*
X98140031Y-62395879D01*
X98196939Y-62391500D01*
X98339300Y-62380546D01*
X98345230Y-62378890D01*
X98345232Y-62378890D01*
X98531797Y-62326800D01*
X98531796Y-62326800D01*
X98537725Y-62325145D01*
X98543214Y-62322372D01*
X98543220Y-62322370D01*
X98716116Y-62235033D01*
X98721610Y-62232258D01*
X98883951Y-62105424D01*
X98903581Y-62082683D01*
X99014540Y-61954134D01*
X99014540Y-61954133D01*
X99018564Y-61949472D01*
X99039387Y-61912818D01*
X99117276Y-61775707D01*
X99120323Y-61770344D01*
X99185351Y-61574863D01*
X99211171Y-61370474D01*
X99211583Y-61341000D01*
X99191480Y-61135970D01*
X99131935Y-60938749D01*
X99035218Y-60756849D01*
X98961859Y-60666902D01*
X98908906Y-60601975D01*
X98908903Y-60601972D01*
X98905011Y-60597200D01*
X98887786Y-60582950D01*
X98751025Y-60469811D01*
X98751021Y-60469809D01*
X98746275Y-60465882D01*
X98565055Y-60367897D01*
X98368254Y-60306977D01*
X98362129Y-60306333D01*
X98362128Y-60306333D01*
X98169498Y-60286087D01*
X98169496Y-60286087D01*
X98163369Y-60285443D01*
X98076529Y-60293346D01*
X97964342Y-60303555D01*
X97964339Y-60303556D01*
X97958203Y-60304114D01*
X97760572Y-60362280D01*
X97578002Y-60457726D01*
X97573201Y-60461586D01*
X97573198Y-60461588D01*
X97422254Y-60582950D01*
X97417447Y-60586815D01*
X97285024Y-60744630D01*
X97282056Y-60750028D01*
X97282053Y-60750033D01*
X97275315Y-60762290D01*
X97185776Y-60925162D01*
X97123484Y-61121532D01*
X97122798Y-61127649D01*
X97122797Y-61127653D01*
X97101207Y-61320137D01*
X97100520Y-61326262D01*
X86361000Y-61326262D01*
X86361000Y-53467000D01*
X86381002Y-53398879D01*
X86434658Y-53352386D01*
X86487000Y-53341000D01*
X157359000Y-53341000D01*
X157427121Y-53361002D01*
G37*
%TD.AperFunction*%
%TD*%
M02*
