%TF.GenerationSoftware,KiCad,Pcbnew,(6.0.5)*%
%TF.CreationDate,2022-06-17T01:03:42+02:00*%
%TF.ProjectId,seq,7365712e-6b69-4636-9164-5f7063625858,rev?*%
%TF.SameCoordinates,Original*%
%TF.FileFunction,Legend,Top*%
%TF.FilePolarity,Positive*%
%FSLAX46Y46*%
G04 Gerber Fmt 4.6, Leading zero omitted, Abs format (unit mm)*
G04 Created by KiCad (PCBNEW (6.0.5)) date 2022-06-17 01:03:42*
%MOMM*%
%LPD*%
G01*
G04 APERTURE LIST*
%ADD10C,0.150000*%
%ADD11C,1.000000*%
%ADD12C,0.120000*%
%ADD13C,0.100000*%
G04 APERTURE END LIST*
D10*
X116834000Y-68456285D02*
X116834000Y-67742000D01*
X117262571Y-68599142D02*
X115762571Y-68099142D01*
X117262571Y-67599142D01*
X115762571Y-67313428D02*
X115762571Y-66456285D01*
X117262571Y-66884857D02*
X115762571Y-66884857D01*
X115762571Y-66170571D02*
X115762571Y-65313428D01*
X117262571Y-65742000D02*
X115762571Y-65742000D01*
X116476857Y-64813428D02*
X116476857Y-64313428D01*
X117262571Y-64099142D02*
X117262571Y-64813428D01*
X115762571Y-64813428D01*
X115762571Y-64099142D01*
X117262571Y-63456285D02*
X115762571Y-63456285D01*
X117262571Y-62599142D01*
X115762571Y-62599142D01*
X115762571Y-62099142D02*
X115762571Y-61242000D01*
X117262571Y-61670571D02*
X115762571Y-61670571D01*
X117262571Y-60742000D02*
X115762571Y-60742000D01*
X115762571Y-59742000D02*
X115762571Y-59456285D01*
X115834000Y-59313428D01*
X115976857Y-59170571D01*
X116262571Y-59099142D01*
X116762571Y-59099142D01*
X117048285Y-59170571D01*
X117191142Y-59313428D01*
X117262571Y-59456285D01*
X117262571Y-59742000D01*
X117191142Y-59884857D01*
X117048285Y-60027714D01*
X116762571Y-60099142D01*
X116262571Y-60099142D01*
X115976857Y-60027714D01*
X115834000Y-59884857D01*
X115762571Y-59742000D01*
X117262571Y-58456285D02*
X115762571Y-58456285D01*
X117262571Y-57599142D01*
X115762571Y-57599142D01*
X119249000Y-65170571D02*
X119249000Y-64456285D01*
X119677571Y-65313428D02*
X118177571Y-64813428D01*
X119677571Y-64313428D01*
X117606142Y-64956285D02*
X117820428Y-64742000D01*
X119677571Y-61956285D02*
X119677571Y-62670571D01*
X118177571Y-62670571D01*
X119249000Y-61527714D02*
X119249000Y-60813428D01*
X119677571Y-61670571D02*
X118177571Y-61170571D01*
X119677571Y-60670571D01*
X122092571Y-67777714D02*
X120592571Y-67777714D01*
X120592571Y-67206285D01*
X120664000Y-67063428D01*
X120735428Y-66991999D01*
X120878285Y-66920571D01*
X121092571Y-66920571D01*
X121235428Y-66991999D01*
X121306857Y-67063428D01*
X121378285Y-67206285D01*
X121378285Y-67777714D01*
X120592571Y-65991999D02*
X120592571Y-65706285D01*
X120664000Y-65563428D01*
X120806857Y-65420571D01*
X121092571Y-65349142D01*
X121592571Y-65349142D01*
X121878285Y-65420571D01*
X122021142Y-65563428D01*
X122092571Y-65706285D01*
X122092571Y-65991999D01*
X122021142Y-66134857D01*
X121878285Y-66277714D01*
X121592571Y-66349142D01*
X121092571Y-66349142D01*
X120806857Y-66277714D01*
X120664000Y-66134857D01*
X120592571Y-65991999D01*
X122092571Y-63991999D02*
X122092571Y-64706285D01*
X120592571Y-64706285D01*
X121664000Y-63563428D02*
X121664000Y-62849142D01*
X122092571Y-63706285D02*
X120592571Y-63206285D01*
X122092571Y-62706285D01*
X122092571Y-61349142D02*
X121378285Y-61849142D01*
X122092571Y-62206285D02*
X120592571Y-62206285D01*
X120592571Y-61634857D01*
X120664000Y-61492000D01*
X120735428Y-61420571D01*
X120878285Y-61349142D01*
X121092571Y-61349142D01*
X121235428Y-61420571D01*
X121306857Y-61492000D01*
X121378285Y-61634857D01*
X121378285Y-62206285D01*
X122092571Y-60706285D02*
X120592571Y-60706285D01*
X120592571Y-60206285D02*
X120592571Y-59349142D01*
X122092571Y-59777714D02*
X120592571Y-59777714D01*
X121306857Y-58849142D02*
X121306857Y-58349142D01*
X122092571Y-58134857D02*
X122092571Y-58849142D01*
X120592571Y-58849142D01*
X120592571Y-58134857D01*
X136906000Y-118999000D02*
X137922000Y-121539000D01*
X135890000Y-119507000D02*
X135382000Y-118999000D01*
X135382000Y-118999000D02*
X135890000Y-118491000D01*
X136906000Y-118999000D02*
X135382000Y-118999000D01*
X136144000Y-116713000D02*
X135636000Y-116205000D01*
X135636000Y-116205000D02*
X136144000Y-115697000D01*
X138049000Y-116205000D02*
X135636000Y-116205000D01*
X143887714Y-115310000D02*
X144602000Y-115310000D01*
X143744857Y-115738571D02*
X144244857Y-114238571D01*
X144744857Y-115738571D01*
X145030571Y-114238571D02*
X145887714Y-114238571D01*
X145459142Y-115738571D02*
X145459142Y-114238571D01*
X146173428Y-114238571D02*
X147030571Y-114238571D01*
X146602000Y-115738571D02*
X146602000Y-114238571D01*
X147530571Y-114952857D02*
X148030571Y-114952857D01*
X148244857Y-115738571D02*
X147530571Y-115738571D01*
X147530571Y-114238571D01*
X148244857Y-114238571D01*
X148887714Y-115738571D02*
X148887714Y-114238571D01*
X149744857Y-115738571D01*
X149744857Y-114238571D01*
X150244857Y-114238571D02*
X151102000Y-114238571D01*
X150673428Y-115738571D02*
X150673428Y-114238571D01*
X151602000Y-115738571D02*
X151602000Y-114238571D01*
X152602000Y-114238571D02*
X152887714Y-114238571D01*
X153030571Y-114310000D01*
X153173428Y-114452857D01*
X153244857Y-114738571D01*
X153244857Y-115238571D01*
X153173428Y-115524285D01*
X153030571Y-115667142D01*
X152887714Y-115738571D01*
X152602000Y-115738571D01*
X152459142Y-115667142D01*
X152316285Y-115524285D01*
X152244857Y-115238571D01*
X152244857Y-114738571D01*
X152316285Y-114452857D01*
X152459142Y-114310000D01*
X152602000Y-114238571D01*
X153887714Y-115738571D02*
X153887714Y-114238571D01*
X154744857Y-115738571D01*
X154744857Y-114238571D01*
X147173428Y-117725000D02*
X147887714Y-117725000D01*
X147030571Y-118153571D02*
X147530571Y-116653571D01*
X148030571Y-118153571D01*
X147387714Y-116082142D02*
X147602000Y-116296428D01*
X150387714Y-118153571D02*
X149673428Y-118153571D01*
X149673428Y-116653571D01*
X150816285Y-117725000D02*
X151530571Y-117725000D01*
X150673428Y-118153571D02*
X151173428Y-116653571D01*
X151673428Y-118153571D01*
X144566285Y-120568571D02*
X144566285Y-119068571D01*
X145137714Y-119068571D01*
X145280571Y-119140000D01*
X145352000Y-119211428D01*
X145423428Y-119354285D01*
X145423428Y-119568571D01*
X145352000Y-119711428D01*
X145280571Y-119782857D01*
X145137714Y-119854285D01*
X144566285Y-119854285D01*
X146352000Y-119068571D02*
X146637714Y-119068571D01*
X146780571Y-119140000D01*
X146923428Y-119282857D01*
X146994857Y-119568571D01*
X146994857Y-120068571D01*
X146923428Y-120354285D01*
X146780571Y-120497142D01*
X146637714Y-120568571D01*
X146352000Y-120568571D01*
X146209142Y-120497142D01*
X146066285Y-120354285D01*
X145994857Y-120068571D01*
X145994857Y-119568571D01*
X146066285Y-119282857D01*
X146209142Y-119140000D01*
X146352000Y-119068571D01*
X148352000Y-120568571D02*
X147637714Y-120568571D01*
X147637714Y-119068571D01*
X148780571Y-120140000D02*
X149494857Y-120140000D01*
X148637714Y-120568571D02*
X149137714Y-119068571D01*
X149637714Y-120568571D01*
X150994857Y-120568571D02*
X150494857Y-119854285D01*
X150137714Y-120568571D02*
X150137714Y-119068571D01*
X150709142Y-119068571D01*
X150852000Y-119140000D01*
X150923428Y-119211428D01*
X150994857Y-119354285D01*
X150994857Y-119568571D01*
X150923428Y-119711428D01*
X150852000Y-119782857D01*
X150709142Y-119854285D01*
X150137714Y-119854285D01*
X151637714Y-120568571D02*
X151637714Y-119068571D01*
X152137714Y-119068571D02*
X152994857Y-119068571D01*
X152566285Y-120568571D02*
X152566285Y-119068571D01*
X153494857Y-119782857D02*
X153994857Y-119782857D01*
X154209142Y-120568571D02*
X153494857Y-120568571D01*
X153494857Y-119068571D01*
X154209142Y-119068571D01*
D11*
X139192000Y-118618000D02*
X139192000Y-114554000D01*
X139192000Y-120650000D02*
X139192000Y-124714000D01*
X141224000Y-122682000D02*
X137160000Y-122682000D01*
D10*
X108077000Y-62992000D02*
X110617000Y-62992000D01*
X106172000Y-63500000D02*
X105664000Y-62992000D01*
X105664000Y-62992000D02*
X106172000Y-62484000D01*
X108077000Y-62992000D02*
X105664000Y-62992000D01*
X101219000Y-58547000D02*
X100711000Y-59055000D01*
X100711000Y-59055000D02*
X100203000Y-58547000D01*
X100711000Y-56642000D02*
X100711000Y-59055000D01*
X108458000Y-56642000D02*
X100711000Y-56642000D01*
D11*
X114046000Y-57277000D02*
X109982000Y-57277000D01*
X112014000Y-61341000D02*
X112014000Y-65405000D01*
X112014000Y-59309000D02*
X112014000Y-55245000D01*
D10*
X88646000Y-74803000D02*
X112776000Y-74803000D01*
X112776000Y-74803000D02*
X112776000Y-122809000D01*
X112776000Y-122809000D02*
X88646000Y-122809000D01*
X88646000Y-122809000D02*
X88646000Y-74803000D01*
%TO.C,J10*%
X131905476Y-112736380D02*
X131905476Y-113450666D01*
X131857857Y-113593523D01*
X131762619Y-113688761D01*
X131619761Y-113736380D01*
X131524523Y-113736380D01*
X132905476Y-113736380D02*
X132334047Y-113736380D01*
X132619761Y-113736380D02*
X132619761Y-112736380D01*
X132524523Y-112879238D01*
X132429285Y-112974476D01*
X132334047Y-113022095D01*
X133524523Y-112736380D02*
X133619761Y-112736380D01*
X133715000Y-112784000D01*
X133762619Y-112831619D01*
X133810238Y-112926857D01*
X133857857Y-113117333D01*
X133857857Y-113355428D01*
X133810238Y-113545904D01*
X133762619Y-113641142D01*
X133715000Y-113688761D01*
X133619761Y-113736380D01*
X133524523Y-113736380D01*
X133429285Y-113688761D01*
X133381666Y-113641142D01*
X133334047Y-113545904D01*
X133286428Y-113355428D01*
X133286428Y-113117333D01*
X133334047Y-112926857D01*
X133381666Y-112831619D01*
X133429285Y-112784000D01*
X133524523Y-112736380D01*
%TO.C,J2*%
X106346666Y-60793380D02*
X106346666Y-61507666D01*
X106299047Y-61650523D01*
X106203809Y-61745761D01*
X106060952Y-61793380D01*
X105965714Y-61793380D01*
X106775238Y-60888619D02*
X106822857Y-60841000D01*
X106918095Y-60793380D01*
X107156190Y-60793380D01*
X107251428Y-60841000D01*
X107299047Y-60888619D01*
X107346666Y-60983857D01*
X107346666Y-61079095D01*
X107299047Y-61221952D01*
X106727619Y-61793380D01*
X107346666Y-61793380D01*
%TO.C,J5*%
X111172666Y-72350380D02*
X111172666Y-73064666D01*
X111125047Y-73207523D01*
X111029809Y-73302761D01*
X110886952Y-73350380D01*
X110791714Y-73350380D01*
X112125047Y-72350380D02*
X111648857Y-72350380D01*
X111601238Y-72826571D01*
X111648857Y-72778952D01*
X111744095Y-72731333D01*
X111982190Y-72731333D01*
X112077428Y-72778952D01*
X112125047Y-72826571D01*
X112172666Y-72921809D01*
X112172666Y-73159904D01*
X112125047Y-73255142D01*
X112077428Y-73302761D01*
X111982190Y-73350380D01*
X111744095Y-73350380D01*
X111648857Y-73302761D01*
X111601238Y-73255142D01*
%TO.C,J8*%
X120316666Y-114260380D02*
X120316666Y-114974666D01*
X120269047Y-115117523D01*
X120173809Y-115212761D01*
X120030952Y-115260380D01*
X119935714Y-115260380D01*
X120935714Y-114688952D02*
X120840476Y-114641333D01*
X120792857Y-114593714D01*
X120745238Y-114498476D01*
X120745238Y-114450857D01*
X120792857Y-114355619D01*
X120840476Y-114308000D01*
X120935714Y-114260380D01*
X121126190Y-114260380D01*
X121221428Y-114308000D01*
X121269047Y-114355619D01*
X121316666Y-114450857D01*
X121316666Y-114498476D01*
X121269047Y-114593714D01*
X121221428Y-114641333D01*
X121126190Y-114688952D01*
X120935714Y-114688952D01*
X120840476Y-114736571D01*
X120792857Y-114784190D01*
X120745238Y-114879428D01*
X120745238Y-115069904D01*
X120792857Y-115165142D01*
X120840476Y-115212761D01*
X120935714Y-115260380D01*
X121126190Y-115260380D01*
X121221428Y-115212761D01*
X121269047Y-115165142D01*
X121316666Y-115069904D01*
X121316666Y-114879428D01*
X121269047Y-114784190D01*
X121221428Y-114736571D01*
X121126190Y-114688952D01*
%TO.C,J9*%
X155910380Y-105676333D02*
X156624666Y-105676333D01*
X156767523Y-105723952D01*
X156862761Y-105819190D01*
X156910380Y-105962047D01*
X156910380Y-106057285D01*
X156910380Y-105152523D02*
X156910380Y-104962047D01*
X156862761Y-104866809D01*
X156815142Y-104819190D01*
X156672285Y-104723952D01*
X156481809Y-104676333D01*
X156100857Y-104676333D01*
X156005619Y-104723952D01*
X155958000Y-104771571D01*
X155910380Y-104866809D01*
X155910380Y-105057285D01*
X155958000Y-105152523D01*
X156005619Y-105200142D01*
X156100857Y-105247761D01*
X156338952Y-105247761D01*
X156434190Y-105200142D01*
X156481809Y-105152523D01*
X156529428Y-105057285D01*
X156529428Y-104866809D01*
X156481809Y-104771571D01*
X156434190Y-104723952D01*
X156338952Y-104676333D01*
%TO.C,J11*%
X136753380Y-66346523D02*
X137467666Y-66346523D01*
X137610523Y-66394142D01*
X137705761Y-66489380D01*
X137753380Y-66632238D01*
X137753380Y-66727476D01*
X137753380Y-65346523D02*
X137753380Y-65917952D01*
X137753380Y-65632238D02*
X136753380Y-65632238D01*
X136896238Y-65727476D01*
X136991476Y-65822714D01*
X137039095Y-65917952D01*
X137753380Y-64394142D02*
X137753380Y-64965571D01*
X137753380Y-64679857D02*
X136753380Y-64679857D01*
X136896238Y-64775095D01*
X136991476Y-64870333D01*
X137039095Y-64965571D01*
%TO.C,J12*%
X155910380Y-78132523D02*
X156624666Y-78132523D01*
X156767523Y-78180142D01*
X156862761Y-78275380D01*
X156910380Y-78418238D01*
X156910380Y-78513476D01*
X156910380Y-77132523D02*
X156910380Y-77703952D01*
X156910380Y-77418238D02*
X155910380Y-77418238D01*
X156053238Y-77513476D01*
X156148476Y-77608714D01*
X156196095Y-77703952D01*
X156005619Y-76751571D02*
X155958000Y-76703952D01*
X155910380Y-76608714D01*
X155910380Y-76370619D01*
X155958000Y-76275380D01*
X156005619Y-76227761D01*
X156100857Y-76180142D01*
X156196095Y-76180142D01*
X156338952Y-76227761D01*
X156910380Y-76799190D01*
X156910380Y-76180142D01*
%TO.C,J1*%
X107108666Y-68413380D02*
X107108666Y-69127666D01*
X107061047Y-69270523D01*
X106965809Y-69365761D01*
X106822952Y-69413380D01*
X106727714Y-69413380D01*
X108108666Y-69413380D02*
X107537238Y-69413380D01*
X107822952Y-69413380D02*
X107822952Y-68413380D01*
X107727714Y-68556238D01*
X107632476Y-68651476D01*
X107537238Y-68699095D01*
%TO.C,R3*%
X140660380Y-85764666D02*
X140184190Y-86098000D01*
X140660380Y-86336095D02*
X139660380Y-86336095D01*
X139660380Y-85955142D01*
X139708000Y-85859904D01*
X139755619Y-85812285D01*
X139850857Y-85764666D01*
X139993714Y-85764666D01*
X140088952Y-85812285D01*
X140136571Y-85859904D01*
X140184190Y-85955142D01*
X140184190Y-86336095D01*
X139660380Y-85431333D02*
X139660380Y-84812285D01*
X140041333Y-85145619D01*
X140041333Y-85002761D01*
X140088952Y-84907523D01*
X140136571Y-84859904D01*
X140231809Y-84812285D01*
X140469904Y-84812285D01*
X140565142Y-84859904D01*
X140612761Y-84907523D01*
X140660380Y-85002761D01*
X140660380Y-85288476D01*
X140612761Y-85383714D01*
X140565142Y-85431333D01*
%TO.C,J6*%
X93773666Y-115276380D02*
X93773666Y-115990666D01*
X93726047Y-116133523D01*
X93630809Y-116228761D01*
X93487952Y-116276380D01*
X93392714Y-116276380D01*
X94678428Y-115276380D02*
X94487952Y-115276380D01*
X94392714Y-115324000D01*
X94345095Y-115371619D01*
X94249857Y-115514476D01*
X94202238Y-115704952D01*
X94202238Y-116085904D01*
X94249857Y-116181142D01*
X94297476Y-116228761D01*
X94392714Y-116276380D01*
X94583190Y-116276380D01*
X94678428Y-116228761D01*
X94726047Y-116181142D01*
X94773666Y-116085904D01*
X94773666Y-115847809D01*
X94726047Y-115752571D01*
X94678428Y-115704952D01*
X94583190Y-115657333D01*
X94392714Y-115657333D01*
X94297476Y-115704952D01*
X94249857Y-115752571D01*
X94202238Y-115847809D01*
%TO.C,R1*%
X147010380Y-85764666D02*
X146534190Y-86098000D01*
X147010380Y-86336095D02*
X146010380Y-86336095D01*
X146010380Y-85955142D01*
X146058000Y-85859904D01*
X146105619Y-85812285D01*
X146200857Y-85764666D01*
X146343714Y-85764666D01*
X146438952Y-85812285D01*
X146486571Y-85859904D01*
X146534190Y-85955142D01*
X146534190Y-86336095D01*
X147010380Y-84812285D02*
X147010380Y-85383714D01*
X147010380Y-85098000D02*
X146010380Y-85098000D01*
X146153238Y-85193238D01*
X146248476Y-85288476D01*
X146296095Y-85383714D01*
%TO.C,U1*%
X135596380Y-96519904D02*
X136405904Y-96519904D01*
X136501142Y-96472285D01*
X136548761Y-96424666D01*
X136596380Y-96329428D01*
X136596380Y-96138952D01*
X136548761Y-96043714D01*
X136501142Y-95996095D01*
X136405904Y-95948476D01*
X135596380Y-95948476D01*
X136596380Y-94948476D02*
X136596380Y-95519904D01*
X136596380Y-95234190D02*
X135596380Y-95234190D01*
X135739238Y-95329428D01*
X135834476Y-95424666D01*
X135882095Y-95519904D01*
X127824666Y-101244666D02*
X127124666Y-101244666D01*
X127624666Y-101011333D01*
X127124666Y-100778000D01*
X127824666Y-100778000D01*
X127824666Y-100444666D02*
X127124666Y-100444666D01*
X127824666Y-100044666D02*
X127424666Y-100344666D01*
X127124666Y-100044666D02*
X127524666Y-100444666D01*
X127191333Y-99778000D02*
X127158000Y-99744666D01*
X127124666Y-99678000D01*
X127124666Y-99511333D01*
X127158000Y-99444666D01*
X127191333Y-99411333D01*
X127258000Y-99378000D01*
X127324666Y-99378000D01*
X127424666Y-99411333D01*
X127824666Y-99811333D01*
X127824666Y-99378000D01*
X127124666Y-98944666D02*
X127124666Y-98878000D01*
X127158000Y-98811333D01*
X127191333Y-98778000D01*
X127258000Y-98744666D01*
X127391333Y-98711333D01*
X127558000Y-98711333D01*
X127691333Y-98744666D01*
X127758000Y-98778000D01*
X127791333Y-98811333D01*
X127824666Y-98878000D01*
X127824666Y-98944666D01*
X127791333Y-99011333D01*
X127758000Y-99044666D01*
X127691333Y-99078000D01*
X127558000Y-99111333D01*
X127391333Y-99111333D01*
X127258000Y-99078000D01*
X127191333Y-99044666D01*
X127158000Y-99011333D01*
X127124666Y-98944666D01*
X127824666Y-98411333D02*
X127124666Y-98411333D01*
X127124666Y-98244666D01*
X127158000Y-98144666D01*
X127224666Y-98078000D01*
X127291333Y-98044666D01*
X127424666Y-98011333D01*
X127524666Y-98011333D01*
X127658000Y-98044666D01*
X127724666Y-98078000D01*
X127791333Y-98144666D01*
X127824666Y-98244666D01*
X127824666Y-98411333D01*
X127124666Y-97778000D02*
X127824666Y-97311333D01*
X127124666Y-97311333D02*
X127824666Y-97778000D01*
X127824666Y-96678000D02*
X127824666Y-97078000D01*
X127824666Y-96878000D02*
X127124666Y-96878000D01*
X127224666Y-96944666D01*
X127291333Y-97011333D01*
X127324666Y-97078000D01*
X127191333Y-96411333D02*
X127158000Y-96378000D01*
X127124666Y-96311333D01*
X127124666Y-96144666D01*
X127158000Y-96078000D01*
X127191333Y-96044666D01*
X127258000Y-96011333D01*
X127324666Y-96011333D01*
X127424666Y-96044666D01*
X127824666Y-96444666D01*
X127824666Y-96011333D01*
X127424666Y-95611333D02*
X127391333Y-95678000D01*
X127358000Y-95711333D01*
X127291333Y-95744666D01*
X127258000Y-95744666D01*
X127191333Y-95711333D01*
X127158000Y-95678000D01*
X127124666Y-95611333D01*
X127124666Y-95478000D01*
X127158000Y-95411333D01*
X127191333Y-95378000D01*
X127258000Y-95344666D01*
X127291333Y-95344666D01*
X127358000Y-95378000D01*
X127391333Y-95411333D01*
X127424666Y-95478000D01*
X127424666Y-95611333D01*
X127458000Y-95678000D01*
X127491333Y-95711333D01*
X127558000Y-95744666D01*
X127691333Y-95744666D01*
X127758000Y-95711333D01*
X127791333Y-95678000D01*
X127824666Y-95611333D01*
X127824666Y-95478000D01*
X127791333Y-95411333D01*
X127758000Y-95378000D01*
X127691333Y-95344666D01*
X127558000Y-95344666D01*
X127491333Y-95378000D01*
X127458000Y-95411333D01*
X127424666Y-95478000D01*
X127124666Y-95144666D02*
X127824666Y-94911333D01*
X127124666Y-94678000D01*
X127824666Y-94111333D02*
X127824666Y-94444666D01*
X127124666Y-94444666D01*
X127824666Y-93878000D02*
X127124666Y-93878000D01*
X127458000Y-93878000D02*
X127458000Y-93478000D01*
X127824666Y-93478000D02*
X127124666Y-93478000D01*
X127124666Y-92811333D02*
X127124666Y-93144666D01*
X127458000Y-93178000D01*
X127424666Y-93144666D01*
X127391333Y-93078000D01*
X127391333Y-92911333D01*
X127424666Y-92844666D01*
X127458000Y-92811333D01*
X127524666Y-92778000D01*
X127691333Y-92778000D01*
X127758000Y-92811333D01*
X127791333Y-92844666D01*
X127824666Y-92911333D01*
X127824666Y-93078000D01*
X127791333Y-93144666D01*
X127758000Y-93178000D01*
X129094666Y-101244666D02*
X128394666Y-101244666D01*
X128894666Y-101011333D01*
X128394666Y-100778000D01*
X129094666Y-100778000D01*
X129094666Y-100444666D02*
X128394666Y-100444666D01*
X129094666Y-100044666D02*
X128694666Y-100344666D01*
X128394666Y-100044666D02*
X128794666Y-100444666D01*
X128461333Y-99778000D02*
X128428000Y-99744666D01*
X128394666Y-99678000D01*
X128394666Y-99511333D01*
X128428000Y-99444666D01*
X128461333Y-99411333D01*
X128528000Y-99378000D01*
X128594666Y-99378000D01*
X128694666Y-99411333D01*
X129094666Y-99811333D01*
X129094666Y-99378000D01*
X128394666Y-98944666D02*
X128394666Y-98878000D01*
X128428000Y-98811333D01*
X128461333Y-98778000D01*
X128528000Y-98744666D01*
X128661333Y-98711333D01*
X128828000Y-98711333D01*
X128961333Y-98744666D01*
X129028000Y-98778000D01*
X129061333Y-98811333D01*
X129094666Y-98878000D01*
X129094666Y-98944666D01*
X129061333Y-99011333D01*
X129028000Y-99044666D01*
X128961333Y-99078000D01*
X128828000Y-99111333D01*
X128661333Y-99111333D01*
X128528000Y-99078000D01*
X128461333Y-99044666D01*
X128428000Y-99011333D01*
X128394666Y-98944666D01*
X129094666Y-98411333D02*
X128394666Y-98411333D01*
X128394666Y-98244666D01*
X128428000Y-98144666D01*
X128494666Y-98078000D01*
X128561333Y-98044666D01*
X128694666Y-98011333D01*
X128794666Y-98011333D01*
X128928000Y-98044666D01*
X128994666Y-98078000D01*
X129061333Y-98144666D01*
X129094666Y-98244666D01*
X129094666Y-98411333D01*
X128394666Y-97778000D02*
X129094666Y-97311333D01*
X128394666Y-97311333D02*
X129094666Y-97778000D01*
X128461333Y-97078000D02*
X128428000Y-97044666D01*
X128394666Y-96978000D01*
X128394666Y-96811333D01*
X128428000Y-96744666D01*
X128461333Y-96711333D01*
X128528000Y-96678000D01*
X128594666Y-96678000D01*
X128694666Y-96711333D01*
X129094666Y-97111333D01*
X129094666Y-96678000D01*
X128394666Y-96044666D02*
X128394666Y-96378000D01*
X128728000Y-96411333D01*
X128694666Y-96378000D01*
X128661333Y-96311333D01*
X128661333Y-96144666D01*
X128694666Y-96078000D01*
X128728000Y-96044666D01*
X128794666Y-96011333D01*
X128961333Y-96011333D01*
X129028000Y-96044666D01*
X129061333Y-96078000D01*
X129094666Y-96144666D01*
X129094666Y-96311333D01*
X129061333Y-96378000D01*
X129028000Y-96411333D01*
X128394666Y-95411333D02*
X128394666Y-95544666D01*
X128428000Y-95611333D01*
X128461333Y-95644666D01*
X128561333Y-95711333D01*
X128694666Y-95744666D01*
X128961333Y-95744666D01*
X129028000Y-95711333D01*
X129061333Y-95678000D01*
X129094666Y-95611333D01*
X129094666Y-95478000D01*
X129061333Y-95411333D01*
X129028000Y-95378000D01*
X128961333Y-95344666D01*
X128794666Y-95344666D01*
X128728000Y-95378000D01*
X128694666Y-95411333D01*
X128661333Y-95478000D01*
X128661333Y-95611333D01*
X128694666Y-95678000D01*
X128728000Y-95711333D01*
X128794666Y-95744666D01*
X128394666Y-95144666D02*
X129094666Y-94911333D01*
X128394666Y-94678000D01*
X129094666Y-94111333D02*
X129094666Y-94444666D01*
X128394666Y-94444666D01*
X129094666Y-93878000D02*
X128394666Y-93878000D01*
X128728000Y-93878000D02*
X128728000Y-93478000D01*
X129094666Y-93478000D02*
X128394666Y-93478000D01*
X128394666Y-93211333D02*
X128394666Y-92744666D01*
X129094666Y-93044666D01*
X127047809Y-81875380D02*
X127619238Y-81875380D01*
X127333523Y-82875380D02*
X127333523Y-81875380D01*
X127857333Y-81875380D02*
X128476380Y-81875380D01*
X128143047Y-82256333D01*
X128285904Y-82256333D01*
X128381142Y-82303952D01*
X128428761Y-82351571D01*
X128476380Y-82446809D01*
X128476380Y-82684904D01*
X128428761Y-82780142D01*
X128381142Y-82827761D01*
X128285904Y-82875380D01*
X128000190Y-82875380D01*
X127904952Y-82827761D01*
X127857333Y-82780142D01*
X128904952Y-82780142D02*
X128952571Y-82827761D01*
X128904952Y-82875380D01*
X128857333Y-82827761D01*
X128904952Y-82780142D01*
X128904952Y-82875380D01*
X129333523Y-81970619D02*
X129381142Y-81923000D01*
X129476380Y-81875380D01*
X129714476Y-81875380D01*
X129809714Y-81923000D01*
X129857333Y-81970619D01*
X129904952Y-82065857D01*
X129904952Y-82161095D01*
X129857333Y-82303952D01*
X129285904Y-82875380D01*
X129904952Y-82875380D01*
X127047809Y-85685380D02*
X127619238Y-85685380D01*
X127333523Y-86685380D02*
X127333523Y-85685380D01*
X127857333Y-85685380D02*
X128476380Y-85685380D01*
X128143047Y-86066333D01*
X128285904Y-86066333D01*
X128381142Y-86113952D01*
X128428761Y-86161571D01*
X128476380Y-86256809D01*
X128476380Y-86494904D01*
X128428761Y-86590142D01*
X128381142Y-86637761D01*
X128285904Y-86685380D01*
X128000190Y-86685380D01*
X127904952Y-86637761D01*
X127857333Y-86590142D01*
X128904952Y-86590142D02*
X128952571Y-86637761D01*
X128904952Y-86685380D01*
X128857333Y-86637761D01*
X128904952Y-86590142D01*
X128904952Y-86685380D01*
X129904952Y-86685380D02*
X129333523Y-86685380D01*
X129619238Y-86685380D02*
X129619238Y-85685380D01*
X129524000Y-85828238D01*
X129428761Y-85923476D01*
X129333523Y-85971095D01*
X126554666Y-100761333D02*
X125854666Y-100761333D01*
X126354666Y-100528000D01*
X125854666Y-100294666D01*
X126554666Y-100294666D01*
X126554666Y-99961333D02*
X125854666Y-99961333D01*
X126554666Y-99561333D02*
X126154666Y-99861333D01*
X125854666Y-99561333D02*
X126254666Y-99961333D01*
X126554666Y-98928000D02*
X126554666Y-99261333D01*
X125854666Y-99261333D01*
X125921333Y-98728000D02*
X125888000Y-98694666D01*
X125854666Y-98628000D01*
X125854666Y-98461333D01*
X125888000Y-98394666D01*
X125921333Y-98361333D01*
X125988000Y-98328000D01*
X126054666Y-98328000D01*
X126154666Y-98361333D01*
X126554666Y-98761333D01*
X126554666Y-98328000D01*
X125854666Y-97728000D02*
X125854666Y-97861333D01*
X125888000Y-97928000D01*
X125921333Y-97961333D01*
X126021333Y-98028000D01*
X126154666Y-98061333D01*
X126421333Y-98061333D01*
X126488000Y-98028000D01*
X126521333Y-97994666D01*
X126554666Y-97928000D01*
X126554666Y-97794666D01*
X126521333Y-97728000D01*
X126488000Y-97694666D01*
X126421333Y-97661333D01*
X126254666Y-97661333D01*
X126188000Y-97694666D01*
X126154666Y-97728000D01*
X126121333Y-97794666D01*
X126121333Y-97928000D01*
X126154666Y-97994666D01*
X126188000Y-98028000D01*
X126254666Y-98061333D01*
X125854666Y-97428000D02*
X125854666Y-96961333D01*
X126554666Y-97428000D01*
X126554666Y-96961333D01*
X125854666Y-96394666D02*
X125854666Y-96528000D01*
X125888000Y-96594666D01*
X125921333Y-96628000D01*
X126021333Y-96694666D01*
X126154666Y-96728000D01*
X126421333Y-96728000D01*
X126488000Y-96694666D01*
X126521333Y-96661333D01*
X126554666Y-96594666D01*
X126554666Y-96461333D01*
X126521333Y-96394666D01*
X126488000Y-96361333D01*
X126421333Y-96328000D01*
X126254666Y-96328000D01*
X126188000Y-96361333D01*
X126154666Y-96394666D01*
X126121333Y-96461333D01*
X126121333Y-96594666D01*
X126154666Y-96661333D01*
X126188000Y-96694666D01*
X126254666Y-96728000D01*
X126088000Y-95728000D02*
X126554666Y-95728000D01*
X125821333Y-95894666D02*
X126321333Y-96061333D01*
X126321333Y-95628000D01*
X125854666Y-95461333D02*
X126554666Y-95228000D01*
X125854666Y-94994666D01*
X126188000Y-94528000D02*
X126188000Y-94761333D01*
X126554666Y-94761333D02*
X125854666Y-94761333D01*
X125854666Y-94428000D01*
X125854666Y-94261333D02*
X125854666Y-93861333D01*
X126554666Y-94061333D02*
X125854666Y-94061333D01*
X126088000Y-93328000D02*
X126554666Y-93328000D01*
X125821333Y-93494666D02*
X126321333Y-93661333D01*
X126321333Y-93228000D01*
%TO.C,J7*%
X107017666Y-115022380D02*
X107017666Y-115736666D01*
X106970047Y-115879523D01*
X106874809Y-115974761D01*
X106731952Y-116022380D01*
X106636714Y-116022380D01*
X107398619Y-115022380D02*
X108065285Y-115022380D01*
X107636714Y-116022380D01*
%TO.C,R2*%
X143454380Y-111672666D02*
X142978190Y-112006000D01*
X143454380Y-112244095D02*
X142454380Y-112244095D01*
X142454380Y-111863142D01*
X142502000Y-111767904D01*
X142549619Y-111720285D01*
X142644857Y-111672666D01*
X142787714Y-111672666D01*
X142882952Y-111720285D01*
X142930571Y-111767904D01*
X142978190Y-111863142D01*
X142978190Y-112244095D01*
X142549619Y-111291714D02*
X142502000Y-111244095D01*
X142454380Y-111148857D01*
X142454380Y-110910761D01*
X142502000Y-110815523D01*
X142549619Y-110767904D01*
X142644857Y-110720285D01*
X142740095Y-110720285D01*
X142882952Y-110767904D01*
X143454380Y-111339333D01*
X143454380Y-110720285D01*
%TO.C,J3*%
X89709666Y-72858380D02*
X89709666Y-73572666D01*
X89662047Y-73715523D01*
X89566809Y-73810761D01*
X89423952Y-73858380D01*
X89328714Y-73858380D01*
X90090619Y-72858380D02*
X90709666Y-72858380D01*
X90376333Y-73239333D01*
X90519190Y-73239333D01*
X90614428Y-73286952D01*
X90662047Y-73334571D01*
X90709666Y-73429809D01*
X90709666Y-73667904D01*
X90662047Y-73763142D01*
X90614428Y-73810761D01*
X90519190Y-73858380D01*
X90233476Y-73858380D01*
X90138238Y-73810761D01*
X90090619Y-73763142D01*
%TO.C,J4*%
X97837666Y-72604380D02*
X97837666Y-73318666D01*
X97790047Y-73461523D01*
X97694809Y-73556761D01*
X97551952Y-73604380D01*
X97456714Y-73604380D01*
X98742428Y-72937714D02*
X98742428Y-73604380D01*
X98504333Y-72556761D02*
X98266238Y-73271047D01*
X98885285Y-73271047D01*
%TO.C,G\u002A\u002A\u002A*%
G36*
X128015909Y-68498981D02*
G01*
X125516419Y-65999490D01*
X123025919Y-63508991D01*
X123782940Y-63508991D01*
X128025880Y-67723133D01*
X130124381Y-65624952D01*
X132222883Y-63526772D01*
X131802772Y-63077289D01*
X131691593Y-62960557D01*
X131527434Y-62791297D01*
X131317662Y-62576971D01*
X131069647Y-62325039D01*
X130790755Y-62042963D01*
X130488357Y-61738202D01*
X130169819Y-61418219D01*
X129842512Y-61090474D01*
X129701029Y-60949137D01*
X128019398Y-59270468D01*
X125901169Y-61389730D01*
X123782940Y-63508991D01*
X123025919Y-63508991D01*
X123016928Y-63500000D01*
X128015909Y-58501019D01*
X130504899Y-60989737D01*
X130886264Y-61371313D01*
X131249809Y-61735556D01*
X131591099Y-62077991D01*
X131905701Y-62394146D01*
X132189178Y-62679548D01*
X132437096Y-62929724D01*
X132645019Y-63140201D01*
X132808514Y-63306507D01*
X132923145Y-63424169D01*
X132984477Y-63488713D01*
X132993890Y-63500000D01*
X132964514Y-63532674D01*
X132879342Y-63620983D01*
X132742810Y-63760455D01*
X132559352Y-63946616D01*
X132333404Y-64174993D01*
X132069399Y-64441115D01*
X131771774Y-64740507D01*
X131444963Y-65068698D01*
X131093400Y-65421214D01*
X130721522Y-65793583D01*
X130504899Y-66010263D01*
X128025880Y-68489011D01*
X128015909Y-68498981D01*
G37*
G36*
X130185849Y-64904020D02*
G01*
X129888027Y-64904020D01*
X129888027Y-61883249D01*
X130185849Y-61883249D01*
X130185849Y-64904020D01*
G37*
G36*
X128137190Y-61646584D02*
G01*
X128164911Y-61649556D01*
X128558139Y-61717271D01*
X128881506Y-61830431D01*
X129139302Y-61992734D01*
X129335816Y-62207882D01*
X129475338Y-62479574D01*
X129562157Y-62811510D01*
X129570173Y-62861809D01*
X129598636Y-63053266D01*
X129376862Y-62807028D01*
X129258576Y-62687076D01*
X129134682Y-62579700D01*
X129017980Y-62493173D01*
X128921272Y-62435766D01*
X128857359Y-62415751D01*
X128839043Y-62441400D01*
X128846461Y-62464295D01*
X128873841Y-62557550D01*
X128897251Y-62686385D01*
X128900379Y-62710969D01*
X128920066Y-62879225D01*
X128819038Y-62805441D01*
X128672793Y-62714229D01*
X128513981Y-62639773D01*
X128360005Y-62586893D01*
X128228265Y-62560412D01*
X128136161Y-62565149D01*
X128101096Y-62605926D01*
X128101092Y-62606533D01*
X128133274Y-62647844D01*
X128143371Y-62649079D01*
X128186342Y-62679067D01*
X128254523Y-62753203D01*
X128329617Y-62847744D01*
X128393329Y-62938946D01*
X128427363Y-63003067D01*
X128427410Y-63017680D01*
X128381229Y-63029603D01*
X128272163Y-63047941D01*
X128121830Y-63069141D01*
X128087212Y-63073602D01*
X127771645Y-63137196D01*
X127525348Y-63240628D01*
X127343230Y-63384442D01*
X127244831Y-63489895D01*
X127416022Y-63492258D01*
X127541860Y-63505220D01*
X127713734Y-63537172D01*
X127896537Y-63581480D01*
X127914069Y-63586336D01*
X128086365Y-63628237D01*
X128242047Y-63654889D01*
X128351280Y-63661377D01*
X128362466Y-63660214D01*
X128448859Y-63654858D01*
X128483848Y-63666916D01*
X128455252Y-63744140D01*
X128385748Y-63847403D01*
X128298708Y-63946985D01*
X128217502Y-64013169D01*
X128207555Y-64018250D01*
X128119323Y-64071663D01*
X128113714Y-64111258D01*
X128188940Y-64133955D01*
X128277207Y-64138191D01*
X128466713Y-64105354D01*
X128660761Y-64010553D01*
X128777509Y-63941237D01*
X128863426Y-63894881D01*
X128893569Y-63882914D01*
X128908141Y-63918066D01*
X128896604Y-64006943D01*
X128865470Y-64124680D01*
X128821248Y-64246409D01*
X128773103Y-64343009D01*
X128686430Y-64484008D01*
X128844247Y-64418068D01*
X129108025Y-64265136D01*
X129324999Y-64052675D01*
X129442157Y-63871351D01*
X129556074Y-63648911D01*
X129528434Y-63915237D01*
X129477875Y-64240973D01*
X129396635Y-64498067D01*
X129276880Y-64699849D01*
X129110778Y-64859644D01*
X128898620Y-64986815D01*
X128764784Y-65043188D01*
X128582072Y-65107825D01*
X128372679Y-65174257D01*
X128158800Y-65236012D01*
X127962631Y-65286621D01*
X127806368Y-65319614D01*
X127724871Y-65328977D01*
X127721799Y-65301134D01*
X127767759Y-65227463D01*
X127852904Y-65123567D01*
X127858350Y-65117483D01*
X127969444Y-64978178D01*
X128051783Y-64844651D01*
X128095907Y-64735340D01*
X128092354Y-64668683D01*
X128089990Y-64666006D01*
X128045564Y-64671918D01*
X127946072Y-64702864D01*
X127843280Y-64740626D01*
X127723284Y-64775457D01*
X127561511Y-64806697D01*
X127376307Y-64832775D01*
X127186017Y-64852119D01*
X127008987Y-64863158D01*
X126863562Y-64864320D01*
X126768087Y-64854034D01*
X126739909Y-64835141D01*
X126772152Y-64789566D01*
X126852079Y-64722283D01*
X126880944Y-64701839D01*
X127007052Y-64603745D01*
X127131657Y-64488912D01*
X127146566Y-64473419D01*
X127222035Y-64391499D01*
X127241422Y-64359009D01*
X127207124Y-64363564D01*
X127165079Y-64377778D01*
X127052089Y-64400239D01*
X126893350Y-64410246D01*
X126707368Y-64409251D01*
X126512649Y-64398707D01*
X126327700Y-64380066D01*
X126171027Y-64354780D01*
X126061136Y-64324301D01*
X126016534Y-64290082D01*
X126016335Y-64287635D01*
X126057529Y-64201604D01*
X126175856Y-64116811D01*
X126363437Y-64038157D01*
X126469712Y-64005692D01*
X126618516Y-63960593D01*
X126735090Y-63918203D01*
X126794486Y-63887606D01*
X126794778Y-63887319D01*
X126796688Y-63842467D01*
X126727744Y-63794271D01*
X126601903Y-63746307D01*
X126433121Y-63702147D01*
X126235355Y-63665367D01*
X126022561Y-63639541D01*
X125808697Y-63628243D01*
X125782332Y-63628030D01*
X125569262Y-63620432D01*
X125388219Y-63600930D01*
X125248211Y-63572732D01*
X125158247Y-63539047D01*
X125127334Y-63503084D01*
X125164481Y-63468053D01*
X125257673Y-63441129D01*
X125348919Y-63412752D01*
X125496041Y-63355794D01*
X125678292Y-63278681D01*
X125863954Y-63194946D01*
X126089559Y-63093785D01*
X126265339Y-63025848D01*
X126416098Y-62983471D01*
X126566636Y-62958991D01*
X126654526Y-62950676D01*
X126973622Y-62925628D01*
X126841748Y-62790482D01*
X126673414Y-62669337D01*
X126543926Y-62628383D01*
X126388336Y-62600930D01*
X126236918Y-62571042D01*
X126229065Y-62569363D01*
X126080154Y-62537297D01*
X126229065Y-62457792D01*
X126362699Y-62411801D01*
X126551846Y-62377871D01*
X126767529Y-62357948D01*
X126980773Y-62353977D01*
X127162602Y-62367906D01*
X127254441Y-62388916D01*
X127350488Y-62417132D01*
X127404364Y-62423031D01*
X127406577Y-62421762D01*
X127395748Y-62378478D01*
X127336307Y-62298876D01*
X127244856Y-62201298D01*
X127138001Y-62104081D01*
X127072866Y-62053166D01*
X126908941Y-61934420D01*
X127043359Y-61887562D01*
X127291287Y-61839871D01*
X127565734Y-61850215D01*
X127835376Y-61914224D01*
X128068885Y-62027525D01*
X128074778Y-62031486D01*
X128166623Y-62085340D01*
X128221690Y-62101272D01*
X128228730Y-62093331D01*
X128202510Y-61984227D01*
X128137976Y-61852917D01*
X128056318Y-61738023D01*
X128009858Y-61694409D01*
X127959196Y-61655105D01*
X127955635Y-61636317D01*
X128011018Y-61634619D01*
X128137190Y-61646584D01*
G37*
G36*
X146344510Y-123992419D02*
G01*
X148844000Y-121492928D01*
X153842981Y-126491909D01*
X151354263Y-128980899D01*
X150972687Y-129362264D01*
X150608444Y-129725809D01*
X150266009Y-130067099D01*
X149949854Y-130381701D01*
X149664452Y-130665178D01*
X149414276Y-130913096D01*
X149203799Y-131121019D01*
X149037493Y-131284514D01*
X148919831Y-131399145D01*
X148855287Y-131460477D01*
X148844000Y-131469890D01*
X148811326Y-131440514D01*
X148723017Y-131355342D01*
X148583545Y-131218810D01*
X148397384Y-131035352D01*
X148169007Y-130809404D01*
X147902885Y-130545399D01*
X147603493Y-130247774D01*
X147275302Y-129920963D01*
X146922786Y-129569400D01*
X146550417Y-129197522D01*
X146333737Y-128980899D01*
X143854989Y-126501880D01*
X144620867Y-126501880D01*
X146719048Y-128600381D01*
X148817228Y-130698883D01*
X149266711Y-130278772D01*
X149383443Y-130167593D01*
X149552703Y-130003434D01*
X149767029Y-129793662D01*
X150018961Y-129545647D01*
X150301037Y-129266755D01*
X150605798Y-128964357D01*
X150925781Y-128645819D01*
X151253526Y-128318512D01*
X151394863Y-128177029D01*
X153073532Y-126495398D01*
X150954270Y-124377169D01*
X148835009Y-122258940D01*
X144620867Y-126501880D01*
X143854989Y-126501880D01*
X143845019Y-126491909D01*
X146344510Y-123992419D01*
G37*
G36*
X150460751Y-128661849D02*
G01*
X147439980Y-128661849D01*
X147439980Y-128364027D01*
X150460751Y-128364027D01*
X150460751Y-128661849D01*
G37*
G36*
X148875947Y-123640481D02*
G01*
X148902871Y-123733673D01*
X148931248Y-123824919D01*
X148988206Y-123972041D01*
X149065319Y-124154292D01*
X149149054Y-124339954D01*
X149250215Y-124565559D01*
X149318152Y-124741339D01*
X149360529Y-124892098D01*
X149385009Y-125042636D01*
X149393324Y-125130526D01*
X149418372Y-125449622D01*
X149553518Y-125317748D01*
X149674663Y-125149414D01*
X149715617Y-125019926D01*
X149743070Y-124864336D01*
X149772958Y-124712918D01*
X149774637Y-124705065D01*
X149806703Y-124556154D01*
X149886208Y-124705065D01*
X149932199Y-124838699D01*
X149966129Y-125027846D01*
X149986052Y-125243529D01*
X149990023Y-125456773D01*
X149976094Y-125638602D01*
X149955084Y-125730441D01*
X149926868Y-125826488D01*
X149920969Y-125880364D01*
X149922238Y-125882577D01*
X149965522Y-125871748D01*
X150045124Y-125812307D01*
X150142702Y-125720856D01*
X150239919Y-125614001D01*
X150290834Y-125548866D01*
X150409580Y-125384941D01*
X150456438Y-125519359D01*
X150504129Y-125767287D01*
X150493785Y-126041734D01*
X150429776Y-126311376D01*
X150316475Y-126544885D01*
X150312514Y-126550778D01*
X150258660Y-126642623D01*
X150242728Y-126697690D01*
X150250669Y-126704730D01*
X150359773Y-126678510D01*
X150491083Y-126613976D01*
X150605977Y-126532318D01*
X150649591Y-126485858D01*
X150688895Y-126435196D01*
X150707683Y-126431635D01*
X150709381Y-126487018D01*
X150697416Y-126613190D01*
X150694444Y-126640911D01*
X150626729Y-127034139D01*
X150513569Y-127357506D01*
X150351266Y-127615302D01*
X150136118Y-127811816D01*
X149864426Y-127951338D01*
X149532490Y-128038157D01*
X149482191Y-128046173D01*
X149290734Y-128074636D01*
X149536972Y-127852862D01*
X149656924Y-127734576D01*
X149764300Y-127610682D01*
X149850827Y-127493980D01*
X149908234Y-127397272D01*
X149928249Y-127333359D01*
X149902600Y-127315043D01*
X149879705Y-127322461D01*
X149786450Y-127349841D01*
X149657615Y-127373251D01*
X149633031Y-127376379D01*
X149464775Y-127396066D01*
X149538559Y-127295038D01*
X149629771Y-127148793D01*
X149704227Y-126989981D01*
X149757107Y-126836005D01*
X149783588Y-126704265D01*
X149778851Y-126612161D01*
X149738074Y-126577096D01*
X149737467Y-126577092D01*
X149696156Y-126609274D01*
X149694921Y-126619371D01*
X149664933Y-126662342D01*
X149590797Y-126730523D01*
X149496256Y-126805617D01*
X149405054Y-126869329D01*
X149340933Y-126903363D01*
X149326320Y-126903410D01*
X149314397Y-126857229D01*
X149296059Y-126748163D01*
X149274859Y-126597830D01*
X149270398Y-126563212D01*
X149206804Y-126247645D01*
X149103372Y-126001348D01*
X148959558Y-125819230D01*
X148854105Y-125720831D01*
X148851742Y-125892022D01*
X148838780Y-126017860D01*
X148806828Y-126189734D01*
X148762520Y-126372537D01*
X148757664Y-126390069D01*
X148715763Y-126562365D01*
X148689111Y-126718047D01*
X148682623Y-126827280D01*
X148683786Y-126838466D01*
X148689142Y-126924859D01*
X148677084Y-126959848D01*
X148599860Y-126931252D01*
X148496597Y-126861748D01*
X148397015Y-126774708D01*
X148330831Y-126693502D01*
X148325750Y-126683555D01*
X148272337Y-126595323D01*
X148232742Y-126589714D01*
X148210045Y-126664940D01*
X148205809Y-126753207D01*
X148238646Y-126942713D01*
X148333447Y-127136761D01*
X148402763Y-127253509D01*
X148449119Y-127339426D01*
X148461086Y-127369569D01*
X148425934Y-127384141D01*
X148337057Y-127372604D01*
X148219320Y-127341470D01*
X148097591Y-127297248D01*
X148000991Y-127249103D01*
X147859992Y-127162430D01*
X147925932Y-127320247D01*
X148078864Y-127584025D01*
X148291325Y-127800999D01*
X148472649Y-127918157D01*
X148695089Y-128032074D01*
X148428763Y-128004434D01*
X148103027Y-127953875D01*
X147845933Y-127872635D01*
X147644151Y-127752880D01*
X147484356Y-127586778D01*
X147357185Y-127374620D01*
X147300812Y-127240784D01*
X147236175Y-127058072D01*
X147169743Y-126848679D01*
X147107988Y-126634800D01*
X147057379Y-126438631D01*
X147024386Y-126282368D01*
X147015023Y-126200871D01*
X147042866Y-126197799D01*
X147116537Y-126243759D01*
X147220433Y-126328904D01*
X147226517Y-126334350D01*
X147365822Y-126445444D01*
X147499349Y-126527783D01*
X147608660Y-126571907D01*
X147675317Y-126568354D01*
X147677994Y-126565990D01*
X147672082Y-126521564D01*
X147641136Y-126422072D01*
X147603374Y-126319280D01*
X147568543Y-126199284D01*
X147537303Y-126037511D01*
X147511225Y-125852307D01*
X147491881Y-125662017D01*
X147480842Y-125484987D01*
X147479680Y-125339562D01*
X147489966Y-125244087D01*
X147508859Y-125215909D01*
X147554434Y-125248152D01*
X147621717Y-125328079D01*
X147642161Y-125356944D01*
X147740255Y-125483052D01*
X147855088Y-125607657D01*
X147870581Y-125622566D01*
X147952501Y-125698035D01*
X147984991Y-125717422D01*
X147980436Y-125683124D01*
X147966222Y-125641079D01*
X147943761Y-125528089D01*
X147933754Y-125369350D01*
X147934749Y-125183368D01*
X147945293Y-124988649D01*
X147963934Y-124803700D01*
X147989220Y-124647027D01*
X148019699Y-124537136D01*
X148053918Y-124492534D01*
X148056365Y-124492335D01*
X148142396Y-124533529D01*
X148227189Y-124651856D01*
X148305843Y-124839437D01*
X148338308Y-124945712D01*
X148383407Y-125094516D01*
X148425797Y-125211090D01*
X148456394Y-125270486D01*
X148456681Y-125270778D01*
X148501533Y-125272688D01*
X148549729Y-125203744D01*
X148597693Y-125077903D01*
X148641853Y-124909121D01*
X148678633Y-124711355D01*
X148704459Y-124498561D01*
X148715757Y-124284697D01*
X148715970Y-124258332D01*
X148723568Y-124045262D01*
X148743070Y-123864219D01*
X148771268Y-123724211D01*
X148804953Y-123634247D01*
X148840916Y-123603334D01*
X148875947Y-123640481D01*
G37*
D12*
%TO.C,J10*%
X131766000Y-117600000D02*
X134426000Y-117600000D01*
X131766000Y-115000000D02*
X133096000Y-115000000D01*
X134426000Y-117600000D02*
X134426000Y-122740000D01*
X131766000Y-116330000D02*
X131766000Y-115000000D01*
X131766000Y-117600000D02*
X131766000Y-122740000D01*
X131766000Y-122740000D02*
X134426000Y-122740000D01*
%TO.C,J2*%
X101966000Y-60011000D02*
X101966000Y-62671000D01*
X104566000Y-60011000D02*
X104566000Y-61341000D01*
X101966000Y-62671000D02*
X96826000Y-62671000D01*
X103236000Y-60011000D02*
X104566000Y-60011000D01*
X101966000Y-60011000D02*
X96826000Y-60011000D01*
X96826000Y-60011000D02*
X96826000Y-62671000D01*
%TO.C,J5*%
X108521000Y-78558000D02*
X111181000Y-78558000D01*
X108521000Y-78438000D02*
X108521000Y-78558000D01*
X111181000Y-75898000D02*
X111181000Y-77228000D01*
X111181000Y-78438000D02*
X111181000Y-78558000D01*
X109851000Y-75898000D02*
X111181000Y-75898000D01*
%TO.C,J8*%
X126728000Y-121605000D02*
X122428000Y-121605000D01*
X127478000Y-116405000D02*
X125678000Y-116405000D01*
X119178000Y-116405000D02*
X117378000Y-116405000D01*
X125678000Y-116405000D02*
X125678000Y-117155000D01*
X127478000Y-118655000D02*
X126728000Y-118655000D01*
X126728000Y-118655000D02*
X126728000Y-121605000D01*
X124178000Y-116405000D02*
X120678000Y-116405000D01*
X127478000Y-117155000D02*
X127478000Y-116405000D01*
X118328000Y-116105000D02*
X117078000Y-116105000D01*
X127488000Y-116395000D02*
X117368000Y-116395000D01*
X117378000Y-116405000D02*
X117378000Y-117155000D01*
X118128000Y-121605000D02*
X122428000Y-121605000D01*
X124178000Y-117155000D02*
X124178000Y-116405000D01*
X117368000Y-116395000D02*
X117368000Y-122365000D01*
X117378000Y-118655000D02*
X118128000Y-118655000D01*
X118128000Y-118655000D02*
X118128000Y-121605000D01*
X125678000Y-117155000D02*
X127478000Y-117155000D01*
X119178000Y-117155000D02*
X119178000Y-116405000D01*
X120678000Y-116405000D02*
X120678000Y-117155000D01*
X127488000Y-122365000D02*
X127488000Y-116395000D01*
X117378000Y-117155000D02*
X119178000Y-117155000D01*
X120678000Y-117155000D02*
X124178000Y-117155000D01*
X117368000Y-122365000D02*
X127488000Y-122365000D01*
X117078000Y-116105000D02*
X117078000Y-117355000D01*
%TO.C,J9*%
X155368000Y-111653000D02*
X155368000Y-99033000D01*
X153108000Y-111643000D02*
X153108000Y-110893000D01*
X150158000Y-110893000D02*
X150158000Y-105343000D01*
X153108000Y-99043000D02*
X153108000Y-99793000D01*
X149398000Y-99033000D02*
X149398000Y-111653000D01*
X155368000Y-99033000D02*
X149398000Y-99033000D01*
X149398000Y-111653000D02*
X155368000Y-111653000D01*
X154608000Y-109843000D02*
X154608000Y-111643000D01*
X154608000Y-108343000D02*
X155358000Y-108343000D01*
X155658000Y-99993000D02*
X155658000Y-98743000D01*
X153108000Y-110893000D02*
X150158000Y-110893000D01*
X154608000Y-100843000D02*
X155358000Y-100843000D01*
X155658000Y-98743000D02*
X154408000Y-98743000D01*
X155358000Y-99043000D02*
X154608000Y-99043000D01*
X155358000Y-111643000D02*
X155358000Y-109843000D01*
X154608000Y-99043000D02*
X154608000Y-100843000D01*
X155358000Y-109843000D02*
X154608000Y-109843000D01*
X153108000Y-99793000D02*
X150158000Y-99793000D01*
X155358000Y-108343000D02*
X155358000Y-102343000D01*
X155358000Y-100843000D02*
X155358000Y-99043000D01*
X154608000Y-111643000D02*
X155358000Y-111643000D01*
X150158000Y-99793000D02*
X150158000Y-105343000D01*
X154608000Y-102343000D02*
X154608000Y-108343000D01*
X155358000Y-102343000D02*
X154608000Y-102343000D01*
%TO.C,J11*%
X138300000Y-70677000D02*
X138300000Y-60397000D01*
X141260000Y-70677000D02*
X141260000Y-60397000D01*
X138300000Y-60397000D02*
X148221000Y-60397000D01*
X144584000Y-64224000D02*
X144630000Y-64271000D01*
X147721000Y-70917000D02*
X148461000Y-70917000D01*
X138300000Y-70677000D02*
X148221000Y-70677000D01*
X142286000Y-61927000D02*
X142322000Y-61962000D01*
X144800000Y-64031000D02*
X144835000Y-64066000D01*
X148221000Y-70677000D02*
X148221000Y-60397000D01*
X142492000Y-61722000D02*
X142538000Y-61769000D01*
X146161000Y-70677000D02*
X146161000Y-60397000D01*
X148461000Y-70917000D02*
X148461000Y-70417000D01*
X147661000Y-70677000D02*
X147661000Y-60397000D01*
X142026000Y-67393000D02*
G75*
G03*
X142025573Y-68760042I1534993J-684001D01*
G01*
X145241000Y-68077000D02*
G75*
G03*
X145095756Y-67393682I-1680000J0D01*
G01*
X142877000Y-69612000D02*
G75*
G03*
X144244042Y-69612427I684001J1534993D01*
G01*
X145096000Y-68761000D02*
G75*
G03*
X145241253Y-68048195I-1535001J683999D01*
G01*
X144245000Y-66541999D02*
G75*
G03*
X142877958Y-66541573I-684000J-1535001D01*
G01*
X145241000Y-62997000D02*
G75*
G03*
X145241000Y-62997000I-1680000J0D01*
G01*
%TO.C,J12*%
X153108000Y-81123000D02*
X153108000Y-80373000D01*
X153108000Y-80373000D02*
X150158000Y-80373000D01*
X150158000Y-80373000D02*
X150158000Y-77323000D01*
X153108000Y-74273000D02*
X150158000Y-74273000D01*
X155358000Y-77823000D02*
X155358000Y-76823000D01*
X155358000Y-76823000D02*
X154608000Y-76823000D01*
X154608000Y-76823000D02*
X154608000Y-77823000D01*
X154608000Y-79323000D02*
X154608000Y-81123000D01*
X155358000Y-81123000D02*
X155358000Y-79323000D01*
X155658000Y-73223000D02*
X154408000Y-73223000D01*
X155368000Y-73513000D02*
X149398000Y-73513000D01*
X155358000Y-73523000D02*
X154608000Y-73523000D01*
X149398000Y-73513000D02*
X149398000Y-81133000D01*
X154608000Y-77823000D02*
X155358000Y-77823000D01*
X153108000Y-73523000D02*
X153108000Y-74273000D01*
X154608000Y-73523000D02*
X154608000Y-75323000D01*
X155658000Y-74473000D02*
X155658000Y-73223000D01*
X154608000Y-81123000D02*
X155358000Y-81123000D01*
X155358000Y-75323000D02*
X155358000Y-73523000D01*
X155368000Y-81133000D02*
X155368000Y-73513000D01*
X150158000Y-74273000D02*
X150158000Y-77323000D01*
X155358000Y-79323000D02*
X154608000Y-79323000D01*
X149398000Y-81133000D02*
X155368000Y-81133000D01*
X154608000Y-75323000D02*
X155358000Y-75323000D01*
%TO.C,J1*%
X105011000Y-71088000D02*
X100711000Y-71088000D01*
X105761000Y-65888000D02*
X103961000Y-65888000D01*
X97461000Y-65888000D02*
X95661000Y-65888000D01*
X103961000Y-65888000D02*
X103961000Y-66638000D01*
X105761000Y-68138000D02*
X105011000Y-68138000D01*
X105011000Y-68138000D02*
X105011000Y-71088000D01*
X102461000Y-65888000D02*
X98961000Y-65888000D01*
X105761000Y-66638000D02*
X105761000Y-65888000D01*
X96611000Y-65588000D02*
X95361000Y-65588000D01*
X105771000Y-65878000D02*
X95651000Y-65878000D01*
X95661000Y-65888000D02*
X95661000Y-66638000D01*
X96411000Y-71088000D02*
X100711000Y-71088000D01*
X102461000Y-66638000D02*
X102461000Y-65888000D01*
X95651000Y-65878000D02*
X95651000Y-71848000D01*
X95661000Y-68138000D02*
X96411000Y-68138000D01*
X96411000Y-68138000D02*
X96411000Y-71088000D01*
X103961000Y-66638000D02*
X105761000Y-66638000D01*
X97461000Y-66638000D02*
X97461000Y-65888000D01*
X98961000Y-65888000D02*
X98961000Y-66638000D01*
X105771000Y-71848000D02*
X105771000Y-65878000D01*
X95661000Y-66638000D02*
X97461000Y-66638000D01*
X98961000Y-66638000D02*
X102461000Y-66638000D01*
X95651000Y-71848000D02*
X105771000Y-71848000D01*
X95361000Y-65588000D02*
X95361000Y-66838000D01*
%TO.C,R3*%
X138838000Y-98203000D02*
X138838000Y-104743000D01*
X141578000Y-104743000D02*
X141578000Y-98203000D01*
X140208000Y-108053000D02*
X140208000Y-104743000D01*
X138838000Y-104743000D02*
X141578000Y-104743000D01*
X140208000Y-94893000D02*
X140208000Y-98203000D01*
X141578000Y-98203000D02*
X138838000Y-98203000D01*
%TO.C,J6*%
X94777000Y-121594000D02*
X94777000Y-121714000D01*
X97437000Y-119054000D02*
X97437000Y-120384000D01*
X97437000Y-121594000D02*
X97437000Y-121714000D01*
X96107000Y-119054000D02*
X97437000Y-119054000D01*
X94777000Y-121714000D02*
X97437000Y-121714000D01*
%TO.C,R1*%
X147928000Y-93123000D02*
X145188000Y-93123000D01*
X147928000Y-99663000D02*
X147928000Y-93123000D01*
X146558000Y-89813000D02*
X146558000Y-93123000D01*
X146558000Y-102973000D02*
X146558000Y-99663000D01*
X145188000Y-99663000D02*
X147928000Y-99663000D01*
X145188000Y-93123000D02*
X145188000Y-99663000D01*
D10*
%TO.C,U1*%
X131064000Y-101473000D02*
X131064000Y-92583000D01*
X123444000Y-90043000D02*
X123444000Y-86233000D01*
X122174000Y-79883000D02*
X129794000Y-79883000D01*
X120904000Y-101473000D02*
X131064000Y-101473000D01*
X129794000Y-73533000D02*
X129794000Y-74803000D01*
X120904000Y-83693000D02*
X123444000Y-83693000D01*
X129794000Y-79883000D02*
X129794000Y-74803000D01*
X120904000Y-81153000D02*
X120904000Y-83693000D01*
X128524000Y-107823000D02*
X123444000Y-107823000D01*
X123444000Y-83693000D02*
X123444000Y-81153000D01*
X123444000Y-86233000D02*
X120904000Y-86233000D01*
X117094000Y-74803000D02*
X134874000Y-74803000D01*
X123444000Y-107823000D02*
X123444000Y-105283000D01*
X122174000Y-74803000D02*
X122174000Y-73533000D01*
X134874000Y-74803000D02*
X134874000Y-110363000D01*
X120904000Y-101473000D02*
X120904000Y-92583000D01*
X117094000Y-110363000D02*
X117094000Y-74803000D01*
X120904000Y-90043000D02*
X123444000Y-90043000D01*
X120904000Y-86233000D02*
X120904000Y-90043000D01*
X122174000Y-79883000D02*
X122174000Y-74803000D01*
X123444000Y-105283000D02*
X128524000Y-105283000D01*
X131064000Y-92583000D02*
X120904000Y-92583000D01*
X134874000Y-110363000D02*
X117094000Y-110363000D01*
X122174000Y-73533000D02*
X129794000Y-73533000D01*
X123444000Y-81153000D02*
X120904000Y-81153000D01*
X128524000Y-105283000D02*
X128524000Y-107823000D01*
G36*
X123190000Y-97028000D02*
G01*
X122936000Y-97282000D01*
X122682000Y-96901000D01*
X122936000Y-96647000D01*
X123190000Y-97028000D01*
G37*
D13*
X123190000Y-97028000D02*
X122936000Y-97282000D01*
X122682000Y-96901000D01*
X122936000Y-96647000D01*
X123190000Y-97028000D01*
G36*
X122428000Y-96901000D02*
G01*
X122174000Y-97155000D01*
X121920000Y-96774000D01*
X122174000Y-96520000D01*
X122428000Y-96901000D01*
G37*
X122428000Y-96901000D02*
X122174000Y-97155000D01*
X121920000Y-96774000D01*
X122174000Y-96520000D01*
X122428000Y-96901000D01*
G36*
X123571000Y-97536000D02*
G01*
X123317000Y-97790000D01*
X123063000Y-97409000D01*
X123317000Y-97155000D01*
X123571000Y-97536000D01*
G37*
X123571000Y-97536000D02*
X123317000Y-97790000D01*
X123063000Y-97409000D01*
X123317000Y-97155000D01*
X123571000Y-97536000D01*
G36*
X123571000Y-96647000D02*
G01*
X123317000Y-96901000D01*
X123063000Y-96520000D01*
X123317000Y-96266000D01*
X123571000Y-96647000D01*
G37*
X123571000Y-96647000D02*
X123317000Y-96901000D01*
X123063000Y-96520000D01*
X123317000Y-96266000D01*
X123571000Y-96647000D01*
G36*
X124333000Y-97663000D02*
G01*
X124079000Y-97917000D01*
X123825000Y-97536000D01*
X124079000Y-97282000D01*
X124333000Y-97663000D01*
G37*
X124333000Y-97663000D02*
X124079000Y-97917000D01*
X123825000Y-97536000D01*
X124079000Y-97282000D01*
X124333000Y-97663000D01*
G36*
X122809000Y-96520000D02*
G01*
X122555000Y-96774000D01*
X122301000Y-96393000D01*
X122555000Y-96139000D01*
X122809000Y-96520000D01*
G37*
X122809000Y-96520000D02*
X122555000Y-96774000D01*
X122301000Y-96393000D01*
X122555000Y-96139000D01*
X122809000Y-96520000D01*
G36*
X122047000Y-97282000D02*
G01*
X121793000Y-97536000D01*
X121539000Y-97155000D01*
X121793000Y-96901000D01*
X122047000Y-97282000D01*
G37*
X122047000Y-97282000D02*
X121793000Y-97536000D01*
X121539000Y-97155000D01*
X121793000Y-96901000D01*
X122047000Y-97282000D01*
G36*
X123952000Y-97155000D02*
G01*
X123698000Y-97409000D01*
X123444000Y-97028000D01*
X123698000Y-96774000D01*
X123952000Y-97155000D01*
G37*
X123952000Y-97155000D02*
X123698000Y-97409000D01*
X123444000Y-97028000D01*
X123698000Y-96774000D01*
X123952000Y-97155000D01*
D12*
%TO.C,J7*%
X106681000Y-119054000D02*
X106681000Y-120384000D01*
X104021000Y-121594000D02*
X104021000Y-121714000D01*
X104021000Y-121714000D02*
X106681000Y-121714000D01*
X106681000Y-121594000D02*
X106681000Y-121714000D01*
X105351000Y-119054000D02*
X106681000Y-119054000D01*
%TO.C,R2*%
X142140000Y-102203000D02*
X144880000Y-102203000D01*
X142140000Y-95663000D02*
X142140000Y-102203000D01*
X144880000Y-95663000D02*
X142140000Y-95663000D01*
X143510000Y-92353000D02*
X143510000Y-95663000D01*
X143510000Y-105513000D02*
X143510000Y-102203000D01*
X144880000Y-102203000D02*
X144880000Y-95663000D01*
%TO.C,J3*%
X90241000Y-78558000D02*
X92901000Y-78558000D01*
X90241000Y-78438000D02*
X90241000Y-78558000D01*
X92901000Y-78438000D02*
X92901000Y-78558000D01*
X91571000Y-75898000D02*
X92901000Y-75898000D01*
X92901000Y-75898000D02*
X92901000Y-77228000D01*
%TO.C,J4*%
X102041000Y-78438000D02*
X102041000Y-78558000D01*
X99381000Y-78438000D02*
X99381000Y-78558000D01*
X99381000Y-78558000D02*
X102041000Y-78558000D01*
X100711000Y-75898000D02*
X102041000Y-75898000D01*
X102041000Y-75898000D02*
X102041000Y-77228000D01*
%TD*%
M02*
