%TF.GenerationSoftware,KiCad,Pcbnew,(6.0.5)*%
%TF.CreationDate,2022-06-17T01:03:42+02:00*%
%TF.ProjectId,seq,7365712e-6b69-4636-9164-5f7063625858,rev?*%
%TF.SameCoordinates,Original*%
%TF.FileFunction,Soldermask,Top*%
%TF.FilePolarity,Negative*%
%FSLAX46Y46*%
G04 Gerber Fmt 4.6, Leading zero omitted, Abs format (unit mm)*
G04 Created by KiCad (PCBNEW (6.0.5)) date 2022-06-17 01:03:42*
%MOMM*%
%LPD*%
G01*
G04 APERTURE LIST*
G04 Aperture macros list*
%AMRoundRect*
0 Rectangle with rounded corners*
0 $1 Rounding radius*
0 $2 $3 $4 $5 $6 $7 $8 $9 X,Y pos of 4 corners*
0 Add a 4 corners polygon primitive as box body*
4,1,4,$2,$3,$4,$5,$6,$7,$8,$9,$2,$3,0*
0 Add four circle primitives for the rounded corners*
1,1,$1+$1,$2,$3*
1,1,$1+$1,$4,$5*
1,1,$1+$1,$6,$7*
1,1,$1+$1,$8,$9*
0 Add four rect primitives between the rounded corners*
20,1,$1+$1,$2,$3,$4,$5,0*
20,1,$1+$1,$4,$5,$6,$7,0*
20,1,$1+$1,$6,$7,$8,$9,0*
20,1,$1+$1,$8,$9,$2,$3,0*%
G04 Aperture macros list end*
%ADD10O,1.700000X1.700000*%
%ADD11R,1.700000X1.700000*%
%ADD12R,6.000000X5.000000*%
%ADD13RoundRect,0.250000X-0.600000X-0.725000X0.600000X-0.725000X0.600000X0.725000X-0.600000X0.725000X0*%
%ADD14O,1.700000X1.950000*%
%ADD15RoundRect,0.250000X-0.725000X0.600000X-0.725000X-0.600000X0.725000X-0.600000X0.725000X0.600000X0*%
%ADD16O,1.950000X1.700000*%
%ADD17R,2.600000X2.600000*%
%ADD18C,2.600000*%
%ADD19RoundRect,0.250000X-0.750000X0.600000X-0.750000X-0.600000X0.750000X-0.600000X0.750000X0.600000X0*%
%ADD20O,2.000000X1.700000*%
%ADD21C,1.600000*%
%ADD22O,1.600000X1.600000*%
%ADD23R,8.000000X5.000000*%
%ADD24R,1.600000X1.600000*%
%ADD25C,1.900000*%
G04 APERTURE END LIST*
D10*
%TO.C,J10*%
X133096000Y-121410000D03*
X133096000Y-118870000D03*
D11*
X133096000Y-116330000D03*
%TD*%
D10*
%TO.C,J2*%
X98156000Y-61341000D03*
X100696000Y-61341000D03*
D11*
X103236000Y-61341000D03*
%TD*%
D12*
%TO.C,J5*%
X109851000Y-77228000D03*
%TD*%
D13*
%TO.C,J8*%
X119928000Y-118855000D03*
D14*
X122428000Y-118855000D03*
X124928000Y-118855000D03*
%TD*%
D15*
%TO.C,J9*%
X152908000Y-101593000D03*
D16*
X152908000Y-104093000D03*
X152908000Y-106593000D03*
X152908000Y-109093000D03*
%TD*%
D17*
%TO.C,J11*%
X143561000Y-68077000D03*
D18*
X143561000Y-62997000D03*
%TD*%
D19*
%TO.C,J12*%
X152908000Y-76073000D03*
D20*
X152908000Y-78573000D03*
%TD*%
D13*
%TO.C,J1*%
X98211000Y-68338000D03*
D14*
X100711000Y-68338000D03*
X103211000Y-68338000D03*
%TD*%
D21*
%TO.C,R3*%
X140208000Y-109093000D03*
D22*
X140208000Y-93853000D03*
%TD*%
D23*
%TO.C,J6*%
X94107000Y-120384000D03*
%TD*%
D21*
%TO.C,R1*%
X146558000Y-104013000D03*
D22*
X146558000Y-88773000D03*
%TD*%
D24*
%TO.C,U1*%
X118364000Y-76073000D03*
D21*
X118364000Y-78613000D03*
X118364000Y-81153000D03*
X118364000Y-83693000D03*
X118364000Y-86233000D03*
X118364000Y-88773000D03*
X118364000Y-91313000D03*
X118364000Y-93853000D03*
X118364000Y-96393000D03*
X118364000Y-98933000D03*
X118364000Y-101473000D03*
X118364000Y-104013000D03*
X118364000Y-106553000D03*
X118364000Y-109093000D03*
X120904000Y-109093000D03*
X123444000Y-109093000D03*
X125984000Y-109093000D03*
X128524000Y-109093000D03*
X131064000Y-109093000D03*
X133604000Y-109093000D03*
X133604000Y-106553000D03*
X133604000Y-104013000D03*
X133604000Y-101473000D03*
X133604000Y-98933000D03*
X133604000Y-96393000D03*
X133604000Y-93853000D03*
X133604000Y-91313000D03*
X133604000Y-88773000D03*
X133604000Y-86233000D03*
X133604000Y-83693000D03*
X133604000Y-81153000D03*
X133604000Y-78613000D03*
X133604000Y-76073000D03*
X131064000Y-78613000D03*
X131064000Y-83693000D03*
X131064000Y-86233000D03*
X131064000Y-88773000D03*
D25*
X125984000Y-82423000D03*
X125984000Y-86233000D03*
%TD*%
D23*
%TO.C,J7*%
X107351000Y-120384000D03*
%TD*%
D21*
%TO.C,R2*%
X143510000Y-106553000D03*
D22*
X143510000Y-91313000D03*
%TD*%
D12*
%TO.C,J3*%
X91571000Y-77228000D03*
%TD*%
%TO.C,J4*%
X100711000Y-77228000D03*
%TD*%
M02*
