M48
; DRILL file {KiCad (6.0.5)} date Fri Jun 17 01:03:47 2022
; FORMAT={-:-/ absolute / inch / decimal}
; #@! TF.CreationDate,2022-06-17T01:03:47+02:00
; #@! TF.GenerationSoftware,Kicad,Pcbnew,(6.0.5)
; #@! TF.FileFunction,Plated,1,2,PTH
FMAT,2
INCH
; #@! TA.AperFunction,Plated,PTH,ComponentDrill
T1C0.0197
; #@! TA.AperFunction,Plated,PTH,ComponentDrill
T2C0.0315
; #@! TA.AperFunction,Plated,PTH,ComponentDrill
T3C0.0374
; #@! TA.AperFunction,Plated,PTH,ComponentDrill
T4C0.0394
; #@! TA.AperFunction,Plated,PTH,ComponentDrill
T5C0.0433
; #@! TA.AperFunction,Plated,PTH,ComponentDrill
T6C0.0512
%
G90
G05
T1
X4.96Y-3.245
X4.96Y-3.395
T2
X5.52Y-3.695
X5.52Y-4.295
X5.65Y-3.595
X5.65Y-4.195
X5.77Y-3.495
X5.77Y-4.095
T3
X3.8666Y-2.6905
X3.965Y-2.6905
X4.0634Y-2.6905
X4.7216Y-4.6793
X4.82Y-4.6793
X4.9184Y-4.6793
X6.02Y-3.9997
X6.02Y-4.0981
X6.02Y-4.1966
X6.02Y-4.295
T4
X3.6052Y-3.0405
X3.7837Y-4.7395
X3.8644Y-2.415
X3.9644Y-2.415
X3.965Y-3.0405
X4.0644Y-2.415
X4.1477Y-4.7395
X4.3248Y-3.0405
X5.24Y-4.5799
X5.24Y-4.6799
X5.24Y-4.7799
X6.02Y-2.995
X6.02Y-3.0934
T5
X4.66Y-2.995
X4.66Y-3.095
X4.66Y-3.195
X4.66Y-3.295
X4.66Y-3.395
X4.66Y-3.495
X4.66Y-3.595
X4.66Y-3.695
X4.66Y-3.795
X4.66Y-3.895
X4.66Y-3.995
X4.66Y-4.095
X4.66Y-4.195
X4.66Y-4.295
X4.76Y-4.295
X4.86Y-4.295
X4.96Y-4.295
X5.06Y-4.295
X5.16Y-3.095
X5.16Y-3.295
X5.16Y-3.395
X5.16Y-3.495
X5.16Y-4.295
X5.26Y-2.995
X5.26Y-3.095
X5.26Y-3.195
X5.26Y-3.295
X5.26Y-3.395
X5.26Y-3.495
X5.26Y-3.595
X5.26Y-3.695
X5.26Y-3.795
X5.26Y-3.895
X5.26Y-3.995
X5.26Y-4.095
X5.26Y-4.195
X5.26Y-4.295
T6
X5.652Y-2.4802
X5.652Y-2.6802
T0
M30
