M48
; DRILL file {KiCad 6.0.5-a6ca702e91~116~ubuntu20.04.1} date ven. 17 juin 2022 11:05:16
; FORMAT={-:-/ absolute / inch / decimal}
; #@! TF.CreationDate,2022-06-17T11:05:16+02:00
; #@! TF.GenerationSoftware,Kicad,Pcbnew,6.0.5-a6ca702e91~116~ubuntu20.04.1
; #@! TF.FileFunction,Plated,1,2,PTH
FMAT,2
INCH
; #@! TA.AperFunction,Plated,PTH,ComponentDrill
T1C0.0394
; #@! TA.AperFunction,Plated,PTH,ComponentDrill
T2C0.0433
; #@! TA.AperFunction,Plated,PTH,ComponentDrill
T3C0.0472
; #@! TA.AperFunction,Plated,PTH,ComponentDrill
T4C0.0512
%
G90
G05
T1
X4.105Y-4.8726
X4.205Y-4.8726
X4.305Y-4.8726
X4.405Y-4.8726
X4.505Y-4.8726
X4.6066Y-4.8726
X5.92Y-3.7726
X5.92Y-3.8726
X5.92Y-3.9726
X5.92Y-4.0726
X5.92Y-4.1726
X5.92Y-4.2726
X5.92Y-4.3726
X6.0Y-2.5718
X6.0Y-2.6718
X6.0Y-2.7718
X6.0Y-2.8718
X6.0Y-2.9718
X6.0Y-3.0718
X6.0Y-3.1718
X6.0Y-3.2718
X6.0Y-3.3718
X6.1037Y-4.8963
X6.3037Y-4.8963
X6.6013Y-4.7764
X6.8013Y-4.7764
X6.8715Y-3.7226
X6.9715Y-3.7226
X6.9715Y-4.4226
X7.0715Y-3.7226
X7.0715Y-4.4226
X7.1715Y-3.7226
X7.1715Y-4.4226
X7.2715Y-3.7226
X7.2715Y-4.4226
X7.3715Y-3.7226
T2
X5.0722Y-2.5738
X5.0722Y-2.6738
X5.0722Y-2.7738
X5.0722Y-2.8738
X5.0722Y-2.9738
X5.0722Y-3.0738
X5.0722Y-3.1738
X5.0722Y-3.2738
X5.0722Y-3.3738
X5.0722Y-3.4738
X5.0722Y-3.5738
X5.0722Y-3.6738
X5.0722Y-3.7738
X5.0722Y-3.8738
X5.0722Y-3.9738
X5.0722Y-4.0738
X5.0722Y-4.1738
X5.0722Y-4.2738
X5.0722Y-4.3738
X5.0722Y-4.4738
X5.0722Y-4.5738
X5.0722Y-4.6738
X5.0722Y-4.7738
X5.0722Y-4.8738
X5.1722Y-2.6738
X5.1722Y-2.8738
X5.1722Y-2.9738
X5.1722Y-3.0738
X5.1722Y-4.3738
X5.2722Y-4.3738
X5.3722Y-4.3738
X5.4722Y-4.3738
X5.5541Y-2.8238
X5.5541Y-2.9238
X5.5541Y-3.0238
X5.5541Y-3.1238
X5.5541Y-3.2238
X5.5722Y-4.3738
X5.6722Y-2.5738
X5.6722Y-2.6738
X5.6722Y-2.7738
X5.6722Y-2.8738
X5.6722Y-2.9738
X5.6722Y-3.0738
X5.6722Y-3.1738
X5.6722Y-3.2738
X5.6722Y-3.3738
X5.6722Y-3.4738
X5.6722Y-3.5738
X5.6722Y-3.6738
X5.6722Y-3.7738
X5.6722Y-3.8738
X5.6722Y-3.9738
X5.6722Y-4.0738
X5.6722Y-4.1738
X5.6722Y-4.2738
X5.6722Y-4.3738
X5.6722Y-4.4738
X5.6722Y-4.5738
X5.6722Y-4.6738
X5.6722Y-4.7738
X5.6722Y-4.8738
T3
X4.5215Y-3.1742
X4.5215Y-3.2726
X4.5215Y-3.371
X4.5215Y-3.4695
X4.5215Y-3.5679
X4.5215Y-3.6663
X4.5215Y-3.7647
X4.6199Y-3.1742
X4.6199Y-3.2726
X4.6199Y-3.371
X4.6199Y-3.4695
X4.6199Y-3.5679
X4.6199Y-3.6663
X4.6199Y-3.7647
T4
X7.305Y-4.7726
X7.505Y-4.7726
T0
M30
