%TF.GenerationSoftware,KiCad,Pcbnew,(6.0.5)*%
%TF.CreationDate,2022-06-23T19:18:52+02:00*%
%TF.ProjectId,odb,6f64622e-6b69-4636-9164-5f7063625858,3*%
%TF.SameCoordinates,Original*%
%TF.FileFunction,Legend,Bot*%
%TF.FilePolarity,Positive*%
%FSLAX46Y46*%
G04 Gerber Fmt 4.6, Leading zero omitted, Abs format (unit mm)*
G04 Created by KiCad (PCBNEW (6.0.5)) date 2022-06-23 19:18:52*
%MOMM*%
%LPD*%
G01*
G04 APERTURE LIST*
%ADD10C,0.150000*%
%ADD11C,0.190500*%
%ADD12C,0.160020*%
%ADD13C,0.121920*%
%ADD14C,0.101600*%
%ADD15C,0.097536*%
%ADD16C,0.152400*%
%ADD17C,0.120000*%
%ADD18C,0.406400*%
%ADD19C,0.050000*%
%ADD20C,0.100000*%
G04 APERTURE END LIST*
D10*
%TO.C,SW1*%
X179133333Y-124229261D02*
X178990476Y-124276880D01*
X178752380Y-124276880D01*
X178657142Y-124229261D01*
X178609523Y-124181642D01*
X178561904Y-124086404D01*
X178561904Y-123991166D01*
X178609523Y-123895928D01*
X178657142Y-123848309D01*
X178752380Y-123800690D01*
X178942857Y-123753071D01*
X179038095Y-123705452D01*
X179085714Y-123657833D01*
X179133333Y-123562595D01*
X179133333Y-123467357D01*
X179085714Y-123372119D01*
X179038095Y-123324500D01*
X178942857Y-123276880D01*
X178704761Y-123276880D01*
X178561904Y-123324500D01*
X178228571Y-123276880D02*
X177990476Y-124276880D01*
X177800000Y-123562595D01*
X177609523Y-124276880D01*
X177371428Y-123276880D01*
X176466666Y-124276880D02*
X177038095Y-124276880D01*
X176752380Y-124276880D02*
X176752380Y-123276880D01*
X176847619Y-123419738D01*
X176942857Y-123514976D01*
X177038095Y-123562595D01*
%TO.C,SW2*%
X149853740Y-123333082D02*
X149996597Y-123285463D01*
X150234693Y-123285463D01*
X150329931Y-123333082D01*
X150377550Y-123380701D01*
X150425169Y-123475939D01*
X150425169Y-123571177D01*
X150377550Y-123666415D01*
X150329931Y-123714034D01*
X150234693Y-123761653D01*
X150044216Y-123809272D01*
X149948978Y-123856891D01*
X149901359Y-123904510D01*
X149853740Y-123999748D01*
X149853740Y-124094986D01*
X149901359Y-124190224D01*
X149948978Y-124237844D01*
X150044216Y-124285463D01*
X150282312Y-124285463D01*
X150425169Y-124237844D01*
X150758502Y-124285463D02*
X150996597Y-123285463D01*
X151187074Y-123999748D01*
X151377550Y-123285463D01*
X151615645Y-124285463D01*
X151948978Y-124190224D02*
X151996597Y-124237844D01*
X152091835Y-124285463D01*
X152329931Y-124285463D01*
X152425169Y-124237844D01*
X152472788Y-124190224D01*
X152520407Y-124094986D01*
X152520407Y-123999748D01*
X152472788Y-123856891D01*
X151901359Y-123285463D01*
X152520407Y-123285463D01*
%TO.C,J1*%
X188420333Y-114416880D02*
X188420333Y-115131166D01*
X188467952Y-115274023D01*
X188563190Y-115369261D01*
X188706047Y-115416880D01*
X188801285Y-115416880D01*
X187420333Y-115416880D02*
X187991761Y-115416880D01*
X187706047Y-115416880D02*
X187706047Y-114416880D01*
X187801285Y-114559738D01*
X187896523Y-114654976D01*
X187991761Y-114702595D01*
%TO.C,U4*%
X164211095Y-93812061D02*
X164211095Y-93002537D01*
X164258714Y-92907299D01*
X164306333Y-92859680D01*
X164401571Y-92812061D01*
X164592047Y-92812061D01*
X164687285Y-92859680D01*
X164734904Y-92907299D01*
X164782523Y-93002537D01*
X164782523Y-93812061D01*
X165687285Y-93478727D02*
X165687285Y-92812061D01*
X165449190Y-93859680D02*
X165211095Y-93145394D01*
X165830142Y-93145394D01*
D11*
X180987095Y-70785290D02*
X181860976Y-70785290D01*
X181963785Y-70836695D01*
X182015190Y-70888100D01*
X182066595Y-70990909D01*
X182066595Y-71196528D01*
X182015190Y-71299338D01*
X181963785Y-71350743D01*
X181860976Y-71402147D01*
X180987095Y-71402147D01*
X182066595Y-72070409D02*
X182015190Y-71967600D01*
X181912380Y-71916195D01*
X180987095Y-71916195D01*
X181346928Y-72327433D02*
X181346928Y-72738671D01*
X180987095Y-72481647D02*
X181912380Y-72481647D01*
X182015190Y-72533052D01*
X182066595Y-72635862D01*
X182066595Y-72738671D01*
X182066595Y-73098505D02*
X181346928Y-73098505D01*
X180987095Y-73098505D02*
X181038500Y-73047100D01*
X181089904Y-73098505D01*
X181038500Y-73149909D01*
X180987095Y-73098505D01*
X181089904Y-73098505D01*
X182066595Y-73612552D02*
X181346928Y-73612552D01*
X181449738Y-73612552D02*
X181398333Y-73663957D01*
X181346928Y-73766767D01*
X181346928Y-73920981D01*
X181398333Y-74023790D01*
X181501142Y-74075195D01*
X182066595Y-74075195D01*
X181501142Y-74075195D02*
X181398333Y-74126600D01*
X181346928Y-74229409D01*
X181346928Y-74383624D01*
X181398333Y-74486433D01*
X181501142Y-74537838D01*
X182066595Y-74537838D01*
X182066595Y-75514528D02*
X181501142Y-75514528D01*
X181398333Y-75463124D01*
X181346928Y-75360314D01*
X181346928Y-75154695D01*
X181398333Y-75051886D01*
X182015190Y-75514528D02*
X182066595Y-75411719D01*
X182066595Y-75154695D01*
X182015190Y-75051886D01*
X181912380Y-75000481D01*
X181809571Y-75000481D01*
X181706761Y-75051886D01*
X181655357Y-75154695D01*
X181655357Y-75411719D01*
X181603952Y-75514528D01*
X181346928Y-75874362D02*
X181346928Y-76285600D01*
X180987095Y-76028576D02*
X181912380Y-76028576D01*
X182015190Y-76079981D01*
X182066595Y-76182790D01*
X182066595Y-76285600D01*
X182015190Y-77056671D02*
X182066595Y-76953862D01*
X182066595Y-76748243D01*
X182015190Y-76645433D01*
X181912380Y-76594028D01*
X181501142Y-76594028D01*
X181398333Y-76645433D01*
X181346928Y-76748243D01*
X181346928Y-76953862D01*
X181398333Y-77056671D01*
X181501142Y-77108076D01*
X181603952Y-77108076D01*
X181706761Y-76594028D01*
X181038500Y-78958647D02*
X180987095Y-78855838D01*
X180987095Y-78701624D01*
X181038500Y-78547409D01*
X181141309Y-78444600D01*
X181244119Y-78393195D01*
X181449738Y-78341790D01*
X181603952Y-78341790D01*
X181809571Y-78393195D01*
X181912380Y-78444600D01*
X182015190Y-78547409D01*
X182066595Y-78701624D01*
X182066595Y-78804433D01*
X182015190Y-78958647D01*
X181963785Y-79010052D01*
X181603952Y-79010052D01*
X181603952Y-78804433D01*
X182066595Y-79472695D02*
X180987095Y-79472695D01*
X180987095Y-79883933D01*
X181038500Y-79986743D01*
X181089904Y-80038147D01*
X181192714Y-80089552D01*
X181346928Y-80089552D01*
X181449738Y-80038147D01*
X181501142Y-79986743D01*
X181552547Y-79883933D01*
X181552547Y-79472695D01*
X182015190Y-80500790D02*
X182066595Y-80655005D01*
X182066595Y-80912028D01*
X182015190Y-81014838D01*
X181963785Y-81066243D01*
X181860976Y-81117647D01*
X181758166Y-81117647D01*
X181655357Y-81066243D01*
X181603952Y-81014838D01*
X181552547Y-80912028D01*
X181501142Y-80706409D01*
X181449738Y-80603600D01*
X181398333Y-80552195D01*
X181295523Y-80500790D01*
X181192714Y-80500790D01*
X181089904Y-80552195D01*
X181038500Y-80603600D01*
X180987095Y-80706409D01*
X180987095Y-80963433D01*
X181038500Y-81117647D01*
D12*
X158109793Y-79106482D02*
X157807533Y-80013262D01*
X157505273Y-79106482D01*
X156900753Y-79538282D02*
X156771213Y-79581462D01*
X156728033Y-79624642D01*
X156684853Y-79711002D01*
X156684853Y-79840542D01*
X156728033Y-79926902D01*
X156771213Y-79970082D01*
X156857573Y-80013262D01*
X157203013Y-80013262D01*
X157203013Y-79106482D01*
X156900753Y-79106482D01*
X156814393Y-79149662D01*
X156771213Y-79192842D01*
X156728033Y-79279202D01*
X156728033Y-79365562D01*
X156771213Y-79451922D01*
X156814393Y-79495102D01*
X156900753Y-79538282D01*
X157203013Y-79538282D01*
X156339413Y-79754182D02*
X155907613Y-79754182D01*
X156425773Y-80013262D02*
X156123513Y-79106482D01*
X155821253Y-80013262D01*
X155648533Y-79106482D02*
X155130373Y-79106482D01*
X155389453Y-80013262D02*
X155389453Y-79106482D01*
D11*
X156261253Y-68816942D02*
X156364063Y-68765537D01*
X156518277Y-68765537D01*
X156672491Y-68816942D01*
X156775301Y-68919751D01*
X156826705Y-69022561D01*
X156878110Y-69228180D01*
X156878110Y-69382394D01*
X156826705Y-69588013D01*
X156775301Y-69690822D01*
X156672491Y-69793632D01*
X156518277Y-69845037D01*
X156415467Y-69845037D01*
X156261253Y-69793632D01*
X156209848Y-69742227D01*
X156209848Y-69382394D01*
X156415467Y-69382394D01*
X155747205Y-69845037D02*
X155747205Y-68765537D01*
X155130348Y-69845037D01*
X155130348Y-68765537D01*
X154616301Y-69845037D02*
X154616301Y-68765537D01*
X154359277Y-68765537D01*
X154205063Y-68816942D01*
X154102253Y-68919751D01*
X154050848Y-69022561D01*
X153999444Y-69228180D01*
X153999444Y-69382394D01*
X154050848Y-69588013D01*
X154102253Y-69690822D01*
X154205063Y-69793632D01*
X154359277Y-69845037D01*
X154616301Y-69845037D01*
X179596142Y-71145124D02*
X179647547Y-71299338D01*
X179698952Y-71350743D01*
X179801761Y-71402147D01*
X179955976Y-71402147D01*
X180058785Y-71350743D01*
X180110190Y-71299338D01*
X180161595Y-71196528D01*
X180161595Y-70785290D01*
X179082095Y-70785290D01*
X179082095Y-71145124D01*
X179133500Y-71247933D01*
X179184904Y-71299338D01*
X179287714Y-71350743D01*
X179390523Y-71350743D01*
X179493333Y-71299338D01*
X179544738Y-71247933D01*
X179596142Y-71145124D01*
X179596142Y-70785290D01*
X180161595Y-71864790D02*
X179441928Y-71864790D01*
X179647547Y-71864790D02*
X179544738Y-71916195D01*
X179493333Y-71967600D01*
X179441928Y-72070409D01*
X179441928Y-72173219D01*
X180110190Y-72944290D02*
X180161595Y-72841481D01*
X180161595Y-72635862D01*
X180110190Y-72533052D01*
X180007380Y-72481647D01*
X179596142Y-72481647D01*
X179493333Y-72533052D01*
X179441928Y-72635862D01*
X179441928Y-72841481D01*
X179493333Y-72944290D01*
X179596142Y-72995695D01*
X179698952Y-72995695D01*
X179801761Y-72481647D01*
X180161595Y-73920981D02*
X179596142Y-73920981D01*
X179493333Y-73869576D01*
X179441928Y-73766767D01*
X179441928Y-73561147D01*
X179493333Y-73458338D01*
X180110190Y-73920981D02*
X180161595Y-73818171D01*
X180161595Y-73561147D01*
X180110190Y-73458338D01*
X180007380Y-73406933D01*
X179904571Y-73406933D01*
X179801761Y-73458338D01*
X179750357Y-73561147D01*
X179750357Y-73818171D01*
X179698952Y-73920981D01*
X180161595Y-74435028D02*
X179082095Y-74435028D01*
X179750357Y-74537838D02*
X180161595Y-74846267D01*
X179441928Y-74846267D02*
X179853166Y-74435028D01*
X180161595Y-75463124D02*
X180110190Y-75360314D01*
X180058785Y-75308909D01*
X179955976Y-75257505D01*
X179647547Y-75257505D01*
X179544738Y-75308909D01*
X179493333Y-75360314D01*
X179441928Y-75463124D01*
X179441928Y-75617338D01*
X179493333Y-75720147D01*
X179544738Y-75771552D01*
X179647547Y-75822957D01*
X179955976Y-75822957D01*
X180058785Y-75771552D01*
X180110190Y-75720147D01*
X180161595Y-75617338D01*
X180161595Y-75463124D01*
X179441928Y-76748243D02*
X180161595Y-76748243D01*
X179441928Y-76285600D02*
X180007380Y-76285600D01*
X180110190Y-76337005D01*
X180161595Y-76439814D01*
X180161595Y-76594028D01*
X180110190Y-76696838D01*
X180058785Y-76748243D01*
X179441928Y-77108076D02*
X179441928Y-77519314D01*
X179082095Y-77262290D02*
X180007380Y-77262290D01*
X180110190Y-77313695D01*
X180161595Y-77416505D01*
X180161595Y-77519314D01*
X179441928Y-78598814D02*
X180161595Y-78855838D01*
X179441928Y-79112862D01*
X179082095Y-79421290D02*
X179082095Y-80089552D01*
X179493333Y-79729719D01*
X179493333Y-79883933D01*
X179544738Y-79986743D01*
X179596142Y-80038147D01*
X179698952Y-80089552D01*
X179955976Y-80089552D01*
X180058785Y-80038147D01*
X180110190Y-79986743D01*
X180161595Y-79883933D01*
X180161595Y-79575505D01*
X180110190Y-79472695D01*
X180058785Y-79421290D01*
X157531253Y-66225537D02*
X157171420Y-67305037D01*
X156811586Y-66225537D01*
X156451753Y-67305037D02*
X156451753Y-66225537D01*
X155937705Y-67305037D02*
X155937705Y-66225537D01*
X155320848Y-67305037D01*
X155320848Y-66225537D01*
X156914396Y-76899584D02*
X157274229Y-76899584D01*
X157274229Y-77465037D02*
X157274229Y-76385537D01*
X156760182Y-76385537D01*
X156348944Y-77465037D02*
X156348944Y-76385537D01*
X155937705Y-76385537D02*
X155218039Y-77465037D01*
X155218039Y-76385537D02*
X155937705Y-77465037D01*
X157993896Y-64511037D02*
X157993896Y-63431537D01*
X157582658Y-63431537D01*
X157479848Y-63482942D01*
X157428444Y-63534346D01*
X157377039Y-63637156D01*
X157377039Y-63791370D01*
X157428444Y-63894180D01*
X157479848Y-63945584D01*
X157582658Y-63996989D01*
X157993896Y-63996989D01*
X156914396Y-64511037D02*
X156914396Y-63431537D01*
X156503158Y-63431537D01*
X156400348Y-63482942D01*
X156348944Y-63534346D01*
X156297539Y-63637156D01*
X156297539Y-63791370D01*
X156348944Y-63894180D01*
X156400348Y-63945584D01*
X156503158Y-63996989D01*
X156914396Y-63996989D01*
X155886301Y-64459632D02*
X155732086Y-64511037D01*
X155475063Y-64511037D01*
X155372253Y-64459632D01*
X155320848Y-64408227D01*
X155269444Y-64305418D01*
X155269444Y-64202608D01*
X155320848Y-64099799D01*
X155372253Y-64048394D01*
X155475063Y-63996989D01*
X155680682Y-63945584D01*
X155783491Y-63894180D01*
X155834896Y-63842775D01*
X155886301Y-63739965D01*
X155886301Y-63637156D01*
X155834896Y-63534346D01*
X155783491Y-63482942D01*
X155680682Y-63431537D01*
X155423658Y-63431537D01*
X155269444Y-63482942D01*
X156811586Y-73845537D02*
X156194729Y-73845537D01*
X156503158Y-74925037D02*
X156503158Y-73845537D01*
X155937705Y-73845537D02*
X155218039Y-74925037D01*
X155218039Y-73845537D02*
X155937705Y-74925037D01*
X156297539Y-72385037D02*
X156657372Y-71870989D01*
X156914396Y-72385037D02*
X156914396Y-71305537D01*
X156503158Y-71305537D01*
X156400348Y-71356942D01*
X156348944Y-71408346D01*
X156297539Y-71511156D01*
X156297539Y-71665370D01*
X156348944Y-71768180D01*
X156400348Y-71819584D01*
X156503158Y-71870989D01*
X156914396Y-71870989D01*
X155937705Y-71305537D02*
X155218039Y-72385037D01*
X155218039Y-71305537D02*
X155937705Y-72385037D01*
X158405134Y-84005537D02*
X157736872Y-84005537D01*
X158096705Y-84416775D01*
X157942491Y-84416775D01*
X157839682Y-84468180D01*
X157788277Y-84519584D01*
X157736872Y-84622394D01*
X157736872Y-84879418D01*
X157788277Y-84982227D01*
X157839682Y-85033632D01*
X157942491Y-85085037D01*
X158250920Y-85085037D01*
X158353729Y-85033632D01*
X158405134Y-84982227D01*
X157274229Y-84982227D02*
X157222825Y-85033632D01*
X157274229Y-85085037D01*
X157325634Y-85033632D01*
X157274229Y-84982227D01*
X157274229Y-85085037D01*
X156862991Y-84005537D02*
X156194729Y-84005537D01*
X156554563Y-84416775D01*
X156400348Y-84416775D01*
X156297539Y-84468180D01*
X156246134Y-84519584D01*
X156194729Y-84622394D01*
X156194729Y-84879418D01*
X156246134Y-84982227D01*
X156297539Y-85033632D01*
X156400348Y-85085037D01*
X156708777Y-85085037D01*
X156811586Y-85033632D01*
X156862991Y-84982227D01*
X155886301Y-84005537D02*
X155526467Y-85085037D01*
X155166634Y-84005537D01*
X156914396Y-81979584D02*
X156554563Y-81979584D01*
X156400348Y-82545037D02*
X156914396Y-82545037D01*
X156914396Y-81465537D01*
X156400348Y-81465537D01*
X155937705Y-82545037D02*
X155937705Y-81465537D01*
X155320848Y-82545037D01*
X155320848Y-81465537D01*
D10*
%TO.C,U5*%
X125746447Y-93822537D02*
X126555971Y-93822537D01*
X126651209Y-93870156D01*
X126698828Y-93917775D01*
X126746447Y-94013013D01*
X126746447Y-94203489D01*
X126698828Y-94298727D01*
X126651209Y-94346346D01*
X126555971Y-94393965D01*
X125746447Y-94393965D01*
X125746447Y-95346346D02*
X125746447Y-94870156D01*
X126222638Y-94822537D01*
X126175019Y-94870156D01*
X126127400Y-94965394D01*
X126127400Y-95203489D01*
X126175019Y-95298727D01*
X126222638Y-95346346D01*
X126317876Y-95393965D01*
X126555971Y-95393965D01*
X126651209Y-95346346D01*
X126698828Y-95298727D01*
X126746447Y-95203489D01*
X126746447Y-94965394D01*
X126698828Y-94870156D01*
X126651209Y-94822537D01*
X137913733Y-91254442D02*
X137213733Y-91254442D01*
X137713733Y-91487775D01*
X137213733Y-91721108D01*
X137913733Y-91721108D01*
X137913733Y-92054442D02*
X137213733Y-92054442D01*
X137913733Y-92454442D02*
X137513733Y-92154442D01*
X137213733Y-92454442D02*
X137613733Y-92054442D01*
X137213733Y-93054442D02*
X137213733Y-92921108D01*
X137247067Y-92854442D01*
X137280400Y-92821108D01*
X137380400Y-92754442D01*
X137513733Y-92721108D01*
X137780400Y-92721108D01*
X137847067Y-92754442D01*
X137880400Y-92787775D01*
X137913733Y-92854442D01*
X137913733Y-92987775D01*
X137880400Y-93054442D01*
X137847067Y-93087775D01*
X137780400Y-93121108D01*
X137613733Y-93121108D01*
X137547067Y-93087775D01*
X137513733Y-93054442D01*
X137480400Y-92987775D01*
X137480400Y-92854442D01*
X137513733Y-92787775D01*
X137547067Y-92754442D01*
X137613733Y-92721108D01*
X137447067Y-93721108D02*
X137913733Y-93721108D01*
X137180400Y-93554442D02*
X137680400Y-93387775D01*
X137680400Y-93821108D01*
X137547067Y-94321108D02*
X137547067Y-94087775D01*
X137913733Y-94087775D02*
X137213733Y-94087775D01*
X137213733Y-94421108D01*
X137213733Y-94621108D02*
X137913733Y-95087775D01*
X137213733Y-95087775D02*
X137913733Y-94621108D01*
X137213733Y-95687775D02*
X137213733Y-95354442D01*
X137547067Y-95321108D01*
X137513733Y-95354442D01*
X137480400Y-95421108D01*
X137480400Y-95587775D01*
X137513733Y-95654442D01*
X137547067Y-95687775D01*
X137613733Y-95721108D01*
X137780400Y-95721108D01*
X137847067Y-95687775D01*
X137880400Y-95654442D01*
X137913733Y-95587775D01*
X137913733Y-95421108D01*
X137880400Y-95354442D01*
X137847067Y-95321108D01*
X137913733Y-96387775D02*
X137913733Y-95987775D01*
X137913733Y-96187775D02*
X137213733Y-96187775D01*
X137313733Y-96121108D01*
X137380400Y-96054442D01*
X137413733Y-95987775D01*
X137280400Y-96654442D02*
X137247067Y-96687775D01*
X137213733Y-96754442D01*
X137213733Y-96921108D01*
X137247067Y-96987775D01*
X137280400Y-97021108D01*
X137347067Y-97054442D01*
X137413733Y-97054442D01*
X137513733Y-97021108D01*
X137913733Y-96621108D01*
X137913733Y-97054442D01*
X137213733Y-97254442D02*
X137913733Y-97487775D01*
X137213733Y-97721108D01*
X137913733Y-97954442D02*
X137213733Y-97954442D01*
X137713733Y-98187775D01*
X137213733Y-98421108D01*
X137913733Y-98421108D01*
X137913733Y-98754442D02*
X137213733Y-98754442D01*
X137213733Y-98921108D01*
X137247067Y-99021108D01*
X137313733Y-99087775D01*
X137380400Y-99121108D01*
X137513733Y-99154442D01*
X137613733Y-99154442D01*
X137747067Y-99121108D01*
X137813733Y-99087775D01*
X137880400Y-99021108D01*
X137913733Y-98921108D01*
X137913733Y-98754442D01*
X137913733Y-99821108D02*
X137913733Y-99421108D01*
X137913733Y-99621108D02*
X137213733Y-99621108D01*
X137313733Y-99554442D01*
X137380400Y-99487775D01*
X137413733Y-99421108D01*
X137280400Y-100087775D02*
X137247067Y-100121108D01*
X137213733Y-100187775D01*
X137213733Y-100354442D01*
X137247067Y-100421108D01*
X137280400Y-100454442D01*
X137347067Y-100487775D01*
X137413733Y-100487775D01*
X137513733Y-100454442D01*
X137913733Y-100054442D01*
X137913733Y-100487775D01*
X136770733Y-90804442D02*
X136070733Y-90804442D01*
X136570733Y-91037775D01*
X136070733Y-91271108D01*
X136770733Y-91271108D01*
X136770733Y-91604442D02*
X136070733Y-91604442D01*
X136770733Y-92004442D02*
X136370733Y-91704442D01*
X136070733Y-92004442D02*
X136470733Y-91604442D01*
X136070733Y-92604442D02*
X136070733Y-92471108D01*
X136104067Y-92404442D01*
X136137400Y-92371108D01*
X136237400Y-92304442D01*
X136370733Y-92271108D01*
X136637400Y-92271108D01*
X136704067Y-92304442D01*
X136737400Y-92337775D01*
X136770733Y-92404442D01*
X136770733Y-92537775D01*
X136737400Y-92604442D01*
X136704067Y-92637775D01*
X136637400Y-92671108D01*
X136470733Y-92671108D01*
X136404067Y-92637775D01*
X136370733Y-92604442D01*
X136337400Y-92537775D01*
X136337400Y-92404442D01*
X136370733Y-92337775D01*
X136404067Y-92304442D01*
X136470733Y-92271108D01*
X136070733Y-93271108D02*
X136070733Y-93137775D01*
X136104067Y-93071108D01*
X136137400Y-93037775D01*
X136237400Y-92971108D01*
X136370733Y-92937775D01*
X136637400Y-92937775D01*
X136704067Y-92971108D01*
X136737400Y-93004442D01*
X136770733Y-93071108D01*
X136770733Y-93204442D01*
X136737400Y-93271108D01*
X136704067Y-93304442D01*
X136637400Y-93337775D01*
X136470733Y-93337775D01*
X136404067Y-93304442D01*
X136370733Y-93271108D01*
X136337400Y-93204442D01*
X136337400Y-93071108D01*
X136370733Y-93004442D01*
X136404067Y-92971108D01*
X136470733Y-92937775D01*
X136404067Y-93871108D02*
X136404067Y-93637775D01*
X136770733Y-93637775D02*
X136070733Y-93637775D01*
X136070733Y-93971108D01*
X136070733Y-94171108D02*
X136770733Y-94637775D01*
X136070733Y-94637775D02*
X136770733Y-94171108D01*
X136770733Y-95271108D02*
X136770733Y-94871108D01*
X136770733Y-95071108D02*
X136070733Y-95071108D01*
X136170733Y-95004442D01*
X136237400Y-94937775D01*
X136270733Y-94871108D01*
X136770733Y-95571108D02*
X136070733Y-95571108D01*
X136570733Y-95804442D01*
X136070733Y-96037775D01*
X136770733Y-96037775D01*
X136404067Y-96604442D02*
X136437400Y-96704442D01*
X136470733Y-96737775D01*
X136537400Y-96771108D01*
X136637400Y-96771108D01*
X136704067Y-96737775D01*
X136737400Y-96704442D01*
X136770733Y-96637775D01*
X136770733Y-96371108D01*
X136070733Y-96371108D01*
X136070733Y-96604442D01*
X136104067Y-96671108D01*
X136137400Y-96704442D01*
X136204067Y-96737775D01*
X136270733Y-96737775D01*
X136337400Y-96704442D01*
X136370733Y-96671108D01*
X136404067Y-96604442D01*
X136404067Y-96371108D01*
X136070733Y-96971108D02*
X136770733Y-97204442D01*
X136070733Y-97437775D01*
X136770733Y-97671108D02*
X136070733Y-97671108D01*
X136570733Y-97904442D01*
X136070733Y-98137775D01*
X136770733Y-98137775D01*
X136770733Y-98471108D02*
X136070733Y-98471108D01*
X136070733Y-98637775D01*
X136104067Y-98737775D01*
X136170733Y-98804442D01*
X136237400Y-98837775D01*
X136370733Y-98871108D01*
X136470733Y-98871108D01*
X136604067Y-98837775D01*
X136670733Y-98804442D01*
X136737400Y-98737775D01*
X136770733Y-98637775D01*
X136770733Y-98471108D01*
X136770733Y-99537775D02*
X136770733Y-99137775D01*
X136770733Y-99337775D02*
X136070733Y-99337775D01*
X136170733Y-99271108D01*
X136237400Y-99204442D01*
X136270733Y-99137775D01*
X136370733Y-99937775D02*
X136337400Y-99871108D01*
X136304067Y-99837775D01*
X136237400Y-99804442D01*
X136204067Y-99804442D01*
X136137400Y-99837775D01*
X136104067Y-99871108D01*
X136070733Y-99937775D01*
X136070733Y-100071108D01*
X136104067Y-100137775D01*
X136137400Y-100171108D01*
X136204067Y-100204442D01*
X136237400Y-100204442D01*
X136304067Y-100171108D01*
X136337400Y-100137775D01*
X136370733Y-100071108D01*
X136370733Y-99937775D01*
X136404067Y-99871108D01*
X136437400Y-99837775D01*
X136504067Y-99804442D01*
X136637400Y-99804442D01*
X136704067Y-99837775D01*
X136737400Y-99871108D01*
X136770733Y-99937775D01*
X136770733Y-100071108D01*
X136737400Y-100137775D01*
X136704067Y-100171108D01*
X136637400Y-100204442D01*
X136504067Y-100204442D01*
X136437400Y-100171108D01*
X136404067Y-100137775D01*
X136370733Y-100071108D01*
X136037400Y-101004442D02*
X136937400Y-100404442D01*
%TO.C,U1*%
X125348904Y-99896880D02*
X125348904Y-100706404D01*
X125301285Y-100801642D01*
X125253666Y-100849261D01*
X125158428Y-100896880D01*
X124967952Y-100896880D01*
X124872714Y-100849261D01*
X124825095Y-100801642D01*
X124777476Y-100706404D01*
X124777476Y-99896880D01*
X123777476Y-100896880D02*
X124348904Y-100896880D01*
X124063190Y-100896880D02*
X124063190Y-99896880D01*
X124158428Y-100039738D01*
X124253666Y-100134976D01*
X124348904Y-100182595D01*
D13*
X107357000Y-125990912D02*
X107357000Y-125096832D01*
X106957000Y-125990912D01*
X106957000Y-125096832D01*
X106223666Y-125905762D02*
X106257000Y-125948337D01*
X106357000Y-125990912D01*
X106423666Y-125990912D01*
X106523666Y-125948337D01*
X106590333Y-125863187D01*
X106623666Y-125778036D01*
X106657000Y-125607735D01*
X106657000Y-125480009D01*
X106623666Y-125309708D01*
X106590333Y-125224558D01*
X106523666Y-125139408D01*
X106423666Y-125096832D01*
X106357000Y-125096832D01*
X106257000Y-125139408D01*
X106223666Y-125181983D01*
X117940333Y-125096832D02*
X117707000Y-125990912D01*
X117473666Y-125096832D01*
X117240333Y-125990912D02*
X117240333Y-125096832D01*
X117073666Y-125096832D01*
X116973666Y-125139408D01*
X116907000Y-125224558D01*
X116873666Y-125309708D01*
X116840333Y-125480009D01*
X116840333Y-125607735D01*
X116873666Y-125778036D01*
X116907000Y-125863187D01*
X116973666Y-125948337D01*
X117073666Y-125990912D01*
X117240333Y-125990912D01*
X116540333Y-125990912D02*
X116540333Y-125096832D01*
X116373666Y-125096832D01*
X116273666Y-125139408D01*
X116207000Y-125224558D01*
X116173666Y-125309708D01*
X116140333Y-125480009D01*
X116140333Y-125607735D01*
X116173666Y-125778036D01*
X116207000Y-125863187D01*
X116273666Y-125948337D01*
X116373666Y-125990912D01*
X116540333Y-125990912D01*
X104800333Y-125139408D02*
X104867000Y-125096832D01*
X104967000Y-125096832D01*
X105067000Y-125139408D01*
X105133666Y-125224558D01*
X105167000Y-125309708D01*
X105200333Y-125480009D01*
X105200333Y-125607735D01*
X105167000Y-125778036D01*
X105133666Y-125863187D01*
X105067000Y-125948337D01*
X104967000Y-125990912D01*
X104900333Y-125990912D01*
X104800333Y-125948337D01*
X104767000Y-125905762D01*
X104767000Y-125607735D01*
X104900333Y-125607735D01*
X104467000Y-125990912D02*
X104467000Y-125096832D01*
X104067000Y-125990912D01*
X104067000Y-125096832D01*
X103733666Y-125990912D02*
X103733666Y-125096832D01*
X103567000Y-125096832D01*
X103467000Y-125139408D01*
X103400333Y-125224558D01*
X103367000Y-125309708D01*
X103333666Y-125480009D01*
X103333666Y-125607735D01*
X103367000Y-125778036D01*
X103400333Y-125863187D01*
X103467000Y-125948337D01*
X103567000Y-125990912D01*
X103733666Y-125990912D01*
X112809624Y-108928964D02*
X113107651Y-108503212D01*
X113320527Y-108928964D02*
X113320527Y-108034884D01*
X112979925Y-108034884D01*
X112894775Y-108077460D01*
X112852200Y-108120035D01*
X112809624Y-108205185D01*
X112809624Y-108332911D01*
X112852200Y-108418061D01*
X112894775Y-108460637D01*
X112979925Y-108503212D01*
X113320527Y-108503212D01*
X112256146Y-108503212D02*
X112256146Y-108928964D01*
X112554173Y-108034884D02*
X112256146Y-108503212D01*
X111958120Y-108034884D01*
X111234340Y-108928964D02*
X111660093Y-108928964D01*
X111660093Y-108034884D01*
X110425411Y-108928964D02*
X110723438Y-108503212D01*
X110936314Y-108928964D02*
X110936314Y-108034884D01*
X110595712Y-108034884D01*
X110510561Y-108077460D01*
X110467986Y-108120035D01*
X110425411Y-108205185D01*
X110425411Y-108332911D01*
X110467986Y-108418061D01*
X110510561Y-108460637D01*
X110595712Y-108503212D01*
X110936314Y-108503212D01*
X109914508Y-108418061D02*
X109999659Y-108375486D01*
X110042234Y-108332911D01*
X110084809Y-108247760D01*
X110084809Y-108205185D01*
X110042234Y-108120035D01*
X109999659Y-108077460D01*
X109914508Y-108034884D01*
X109744207Y-108034884D01*
X109659057Y-108077460D01*
X109616481Y-108120035D01*
X109573906Y-108205185D01*
X109573906Y-108247760D01*
X109616481Y-108332911D01*
X109659057Y-108375486D01*
X109744207Y-108418061D01*
X109914508Y-108418061D01*
X109999659Y-108460637D01*
X110042234Y-108503212D01*
X110084809Y-108588362D01*
X110084809Y-108758663D01*
X110042234Y-108843814D01*
X109999659Y-108886389D01*
X109914508Y-108928964D01*
X109744207Y-108928964D01*
X109659057Y-108886389D01*
X109616481Y-108843814D01*
X109573906Y-108758663D01*
X109573906Y-108588362D01*
X109616481Y-108503212D01*
X109659057Y-108460637D01*
X109744207Y-108418061D01*
X109148154Y-108928964D02*
X108977853Y-108928964D01*
X108892702Y-108886389D01*
X108850127Y-108843814D01*
X108764977Y-108716088D01*
X108722401Y-108545787D01*
X108722401Y-108205185D01*
X108764977Y-108120035D01*
X108807552Y-108077460D01*
X108892702Y-108034884D01*
X109063003Y-108034884D01*
X109148154Y-108077460D01*
X109190729Y-108120035D01*
X109233304Y-108205185D01*
X109233304Y-108418061D01*
X109190729Y-108503212D01*
X109148154Y-108545787D01*
X109063003Y-108588362D01*
X108892702Y-108588362D01*
X108807552Y-108545787D01*
X108764977Y-108503212D01*
X108722401Y-108418061D01*
X108168923Y-108034884D02*
X108083773Y-108034884D01*
X107998622Y-108077460D01*
X107956047Y-108120035D01*
X107913472Y-108205185D01*
X107870897Y-108375486D01*
X107870897Y-108588362D01*
X107913472Y-108758663D01*
X107956047Y-108843814D01*
X107998622Y-108886389D01*
X108083773Y-108928964D01*
X108168923Y-108928964D01*
X108254074Y-108886389D01*
X108296649Y-108843814D01*
X108339224Y-108758663D01*
X108381800Y-108588362D01*
X108381800Y-108375486D01*
X108339224Y-108205185D01*
X108296649Y-108120035D01*
X108254074Y-108077460D01*
X108168923Y-108034884D01*
X110230333Y-125096832D02*
X109830333Y-125096832D01*
X110030333Y-125990912D02*
X110030333Y-125096832D01*
X109663666Y-125096832D02*
X109197000Y-125990912D01*
X109197000Y-125096832D02*
X109663666Y-125990912D01*
X108930333Y-125990912D02*
X108930333Y-125096832D01*
X108763666Y-125096832D01*
X108663666Y-125139408D01*
X108597000Y-125224558D01*
X108563666Y-125309708D01*
X108530333Y-125480009D01*
X108530333Y-125607735D01*
X108563666Y-125778036D01*
X108597000Y-125863187D01*
X108663666Y-125948337D01*
X108763666Y-125990912D01*
X108930333Y-125990912D01*
X112353666Y-125990912D02*
X112587000Y-125565160D01*
X112753666Y-125990912D02*
X112753666Y-125096832D01*
X112487000Y-125096832D01*
X112420333Y-125139408D01*
X112387000Y-125181983D01*
X112353666Y-125267133D01*
X112353666Y-125394859D01*
X112387000Y-125480009D01*
X112420333Y-125522585D01*
X112487000Y-125565160D01*
X112753666Y-125565160D01*
X112120333Y-125096832D02*
X111653666Y-125990912D01*
X111653666Y-125096832D02*
X112120333Y-125990912D01*
X111387000Y-125990912D02*
X111387000Y-125096832D01*
X111220333Y-125096832D01*
X111120333Y-125139408D01*
X111053666Y-125224558D01*
X111020333Y-125309708D01*
X110987000Y-125480009D01*
X110987000Y-125607735D01*
X111020333Y-125778036D01*
X111053666Y-125863187D01*
X111120333Y-125948337D01*
X111220333Y-125990912D01*
X111387000Y-125990912D01*
X115412714Y-125990912D02*
X115412714Y-125096832D01*
X115069857Y-125990912D01*
X115069857Y-125096832D01*
X114441285Y-125990912D02*
X114641285Y-125565160D01*
X114784142Y-125990912D02*
X114784142Y-125096832D01*
X114555571Y-125096832D01*
X114498428Y-125139408D01*
X114469857Y-125181983D01*
X114441285Y-125267133D01*
X114441285Y-125394859D01*
X114469857Y-125480009D01*
X114498428Y-125522585D01*
X114555571Y-125565160D01*
X114784142Y-125565160D01*
X114212714Y-125948337D02*
X114127000Y-125990912D01*
X113984142Y-125990912D01*
X113927000Y-125948337D01*
X113898428Y-125905762D01*
X113869857Y-125820611D01*
X113869857Y-125735461D01*
X113898428Y-125650310D01*
X113927000Y-125607735D01*
X113984142Y-125565160D01*
X114098428Y-125522585D01*
X114155571Y-125480009D01*
X114184142Y-125437434D01*
X114212714Y-125352284D01*
X114212714Y-125267133D01*
X114184142Y-125181983D01*
X114155571Y-125139408D01*
X114098428Y-125096832D01*
X113955571Y-125096832D01*
X113869857Y-125139408D01*
X113698428Y-125096832D02*
X113355571Y-125096832D01*
X113527000Y-125990912D02*
X113527000Y-125096832D01*
D10*
%TO.C,J2*%
X116428427Y-77156880D02*
X116428427Y-77871166D01*
X116476046Y-78014023D01*
X116571284Y-78109261D01*
X116714141Y-78156880D01*
X116809379Y-78156880D01*
X115999855Y-77252119D02*
X115952236Y-77204500D01*
X115856998Y-77156880D01*
X115618903Y-77156880D01*
X115523665Y-77204500D01*
X115476046Y-77252119D01*
X115428427Y-77347357D01*
X115428427Y-77442595D01*
X115476046Y-77585452D01*
X116047474Y-78156880D01*
X115428427Y-78156880D01*
%TO.C,U3*%
X170981619Y-104587404D02*
X170172095Y-104587404D01*
X170076857Y-104539785D01*
X170029238Y-104492166D01*
X169981619Y-104396928D01*
X169981619Y-104206452D01*
X170029238Y-104111214D01*
X170076857Y-104063595D01*
X170172095Y-104015976D01*
X170981619Y-104015976D01*
X170981619Y-103635023D02*
X170981619Y-103015976D01*
X170600666Y-103349309D01*
X170600666Y-103206452D01*
X170553047Y-103111214D01*
X170505428Y-103063595D01*
X170410190Y-103015976D01*
X170172095Y-103015976D01*
X170076857Y-103063595D01*
X170029238Y-103111214D01*
X169981619Y-103206452D01*
X169981619Y-103492166D01*
X170029238Y-103587404D01*
X170076857Y-103635023D01*
D13*
X149002889Y-96980119D02*
X149045464Y-97107844D01*
X149045464Y-97320720D01*
X149002889Y-97405871D01*
X148960314Y-97448446D01*
X148875163Y-97491021D01*
X148790013Y-97491021D01*
X148704862Y-97448446D01*
X148662287Y-97405871D01*
X148619712Y-97320720D01*
X148577137Y-97150420D01*
X148534561Y-97065269D01*
X148491986Y-97022694D01*
X148406836Y-96980119D01*
X148321685Y-96980119D01*
X148236535Y-97022694D01*
X148193960Y-97065269D01*
X148151384Y-97150420D01*
X148151384Y-97363296D01*
X148193960Y-97491021D01*
X148960314Y-98385101D02*
X149002889Y-98342526D01*
X149045464Y-98214800D01*
X149045464Y-98129650D01*
X149002889Y-98001924D01*
X148917739Y-97916774D01*
X148832588Y-97874199D01*
X148662287Y-97831623D01*
X148534561Y-97831623D01*
X148364260Y-97874199D01*
X148279110Y-97916774D01*
X148193960Y-98001924D01*
X148151384Y-98129650D01*
X148151384Y-98214800D01*
X148193960Y-98342526D01*
X148236535Y-98385101D01*
X149045464Y-99194031D02*
X149045464Y-98768279D01*
X148151384Y-98768279D01*
X148224960Y-107763296D02*
X148182384Y-107678145D01*
X148182384Y-107550420D01*
X148224960Y-107422694D01*
X148310110Y-107337543D01*
X148395260Y-107294968D01*
X148565561Y-107252393D01*
X148693287Y-107252393D01*
X148863588Y-107294968D01*
X148948739Y-107337543D01*
X149033889Y-107422694D01*
X149076464Y-107550420D01*
X149076464Y-107635570D01*
X149033889Y-107763296D01*
X148991314Y-107805871D01*
X148693287Y-107805871D01*
X148693287Y-107635570D01*
X149076464Y-108189048D02*
X148182384Y-108189048D01*
X149076464Y-108699951D01*
X148182384Y-108699951D01*
X149076464Y-109125703D02*
X148182384Y-109125703D01*
X148182384Y-109338580D01*
X148224960Y-109466305D01*
X148310110Y-109551456D01*
X148395260Y-109594031D01*
X148565561Y-109636606D01*
X148693287Y-109636606D01*
X148863588Y-109594031D01*
X148948739Y-109551456D01*
X149033889Y-109466305D01*
X149076464Y-109338580D01*
X149076464Y-109125703D01*
X164360013Y-99364534D02*
X164360013Y-99790286D01*
X164615464Y-99279383D02*
X163721384Y-99577410D01*
X164615464Y-99875437D01*
X164615464Y-100301189D02*
X164572889Y-100216039D01*
X164487739Y-100173463D01*
X163721384Y-100173463D01*
X164019411Y-100514065D02*
X164019411Y-100854667D01*
X163721384Y-100641791D02*
X164487739Y-100641791D01*
X164572889Y-100684366D01*
X164615464Y-100769517D01*
X164615464Y-100854667D01*
X164615464Y-101152694D02*
X164019411Y-101152694D01*
X163721384Y-101152694D02*
X163763960Y-101110119D01*
X163806535Y-101152694D01*
X163763960Y-101195269D01*
X163721384Y-101152694D01*
X163806535Y-101152694D01*
X164615464Y-101578446D02*
X164019411Y-101578446D01*
X164104561Y-101578446D02*
X164061986Y-101621021D01*
X164019411Y-101706172D01*
X164019411Y-101833898D01*
X164061986Y-101919048D01*
X164147137Y-101961623D01*
X164615464Y-101961623D01*
X164147137Y-101961623D02*
X164061986Y-102004199D01*
X164019411Y-102089349D01*
X164019411Y-102217075D01*
X164061986Y-102302225D01*
X164147137Y-102344800D01*
X164615464Y-102344800D01*
X164572889Y-103111155D02*
X164615464Y-103026004D01*
X164615464Y-102855703D01*
X164572889Y-102770553D01*
X164487739Y-102727978D01*
X164147137Y-102727978D01*
X164061986Y-102770553D01*
X164019411Y-102855703D01*
X164019411Y-103026004D01*
X164061986Y-103111155D01*
X164147137Y-103153730D01*
X164232287Y-103153730D01*
X164317438Y-102727978D01*
X164019411Y-103409181D02*
X164019411Y-103749783D01*
X163721384Y-103536907D02*
X164487739Y-103536907D01*
X164572889Y-103579482D01*
X164615464Y-103664633D01*
X164615464Y-103749783D01*
X164572889Y-104388412D02*
X164615464Y-104303261D01*
X164615464Y-104132960D01*
X164572889Y-104047810D01*
X164487739Y-104005235D01*
X164147137Y-104005235D01*
X164061986Y-104047810D01*
X164019411Y-104132960D01*
X164019411Y-104303261D01*
X164061986Y-104388412D01*
X164147137Y-104430987D01*
X164232287Y-104430987D01*
X164317438Y-104005235D01*
X164615464Y-104814164D02*
X164019411Y-104814164D01*
X164189712Y-104814164D02*
X164104561Y-104856740D01*
X164061986Y-104899315D01*
X164019411Y-104984465D01*
X164019411Y-105069616D01*
X152315889Y-94478831D02*
X152358464Y-94606557D01*
X152358464Y-94819433D01*
X152315889Y-94904583D01*
X152273314Y-94947159D01*
X152188163Y-94989734D01*
X152103013Y-94989734D01*
X152017862Y-94947159D01*
X151975287Y-94904583D01*
X151932712Y-94819433D01*
X151890137Y-94649132D01*
X151847561Y-94563981D01*
X151804986Y-94521406D01*
X151719836Y-94478831D01*
X151634685Y-94478831D01*
X151549535Y-94521406D01*
X151506960Y-94563981D01*
X151464384Y-94649132D01*
X151464384Y-94862008D01*
X151506960Y-94989734D01*
X152358464Y-95372911D02*
X151464384Y-95372911D01*
X151464384Y-95585787D01*
X151506960Y-95713513D01*
X151592110Y-95798663D01*
X151677260Y-95841239D01*
X151847561Y-95883814D01*
X151975287Y-95883814D01*
X152145588Y-95841239D01*
X152230739Y-95798663D01*
X152315889Y-95713513D01*
X152358464Y-95585787D01*
X152358464Y-95372911D01*
X152103013Y-96224416D02*
X152103013Y-96650168D01*
X152358464Y-96139265D02*
X151464384Y-96437292D01*
X152358464Y-96735319D01*
D14*
X157424361Y-100236473D02*
X156812342Y-100236473D01*
X156701066Y-100180835D01*
X156645428Y-100069559D01*
X156645428Y-99847006D01*
X156701066Y-99735730D01*
X157368723Y-100236473D02*
X157424361Y-100125197D01*
X157424361Y-99847006D01*
X157368723Y-99735730D01*
X157257447Y-99680092D01*
X157146171Y-99680092D01*
X157034895Y-99735730D01*
X156979257Y-99847006D01*
X156979257Y-100125197D01*
X156923619Y-100236473D01*
X157424361Y-101293597D02*
X156255961Y-101293597D01*
X157368723Y-101293597D02*
X157424361Y-101182320D01*
X157424361Y-100959768D01*
X157368723Y-100848492D01*
X157313085Y-100792854D01*
X157201809Y-100737216D01*
X156867980Y-100737216D01*
X156756704Y-100792854D01*
X156701066Y-100848492D01*
X156645428Y-100959768D01*
X156645428Y-101182320D01*
X156701066Y-101293597D01*
X157424361Y-102350720D02*
X156812342Y-102350720D01*
X156701066Y-102295082D01*
X156645428Y-102183806D01*
X156645428Y-101961254D01*
X156701066Y-101849978D01*
X157368723Y-102350720D02*
X157424361Y-102239444D01*
X157424361Y-101961254D01*
X157368723Y-101849978D01*
X157257447Y-101794340D01*
X157146171Y-101794340D01*
X157034895Y-101849978D01*
X156979257Y-101961254D01*
X156979257Y-102239444D01*
X156923619Y-102350720D01*
X156645428Y-102740187D02*
X156645428Y-103185292D01*
X157424361Y-102907101D02*
X156422876Y-102907101D01*
X156311600Y-102962740D01*
X156255961Y-103074016D01*
X156255961Y-103185292D01*
X157424361Y-103574759D02*
X156645428Y-103574759D01*
X156867980Y-103574759D02*
X156756704Y-103630397D01*
X156701066Y-103686035D01*
X156645428Y-103797311D01*
X156645428Y-103908587D01*
X156645428Y-104798797D02*
X157424361Y-104798797D01*
X156645428Y-104298054D02*
X157257447Y-104298054D01*
X157368723Y-104353692D01*
X157424361Y-104464968D01*
X157424361Y-104631882D01*
X157368723Y-104743159D01*
X157313085Y-104798797D01*
X157424361Y-105355178D02*
X156645428Y-105355178D01*
X156255961Y-105355178D02*
X156311600Y-105299540D01*
X156367238Y-105355178D01*
X156311600Y-105410816D01*
X156255961Y-105355178D01*
X156367238Y-105355178D01*
X156645428Y-105744644D02*
X156645428Y-106189749D01*
X156255961Y-105911559D02*
X157257447Y-105911559D01*
X157368723Y-105967197D01*
X157424361Y-106078473D01*
X157424361Y-106189749D01*
D13*
X151346384Y-110109132D02*
X152240464Y-110407159D01*
X151346384Y-110705185D01*
X152240464Y-111003212D02*
X151644411Y-111003212D01*
X151346384Y-111003212D02*
X151388960Y-110960637D01*
X151431535Y-111003212D01*
X151388960Y-111045787D01*
X151346384Y-111003212D01*
X151431535Y-111003212D01*
X151644411Y-111428964D02*
X152240464Y-111428964D01*
X151729561Y-111428964D02*
X151686986Y-111471540D01*
X151644411Y-111556690D01*
X151644411Y-111684416D01*
X151686986Y-111769566D01*
X151772137Y-111812141D01*
X152240464Y-111812141D01*
D10*
%TO.C,U2*%
X184658095Y-107227619D02*
X184658095Y-106418095D01*
X184705714Y-106322857D01*
X184753333Y-106275238D01*
X184848571Y-106227619D01*
X185039047Y-106227619D01*
X185134285Y-106275238D01*
X185181904Y-106322857D01*
X185229523Y-106418095D01*
X185229523Y-107227619D01*
X185658095Y-107132380D02*
X185705714Y-107180000D01*
X185800952Y-107227619D01*
X186039047Y-107227619D01*
X186134285Y-107180000D01*
X186181904Y-107132380D01*
X186229523Y-107037142D01*
X186229523Y-106941904D01*
X186181904Y-106799047D01*
X185610476Y-106227619D01*
X186229523Y-106227619D01*
D15*
X180478628Y-111134071D02*
X180478628Y-110418807D01*
X180206147Y-110418807D01*
X180138026Y-110452868D01*
X180103966Y-110486928D01*
X180069906Y-110555048D01*
X180069906Y-110657229D01*
X180103966Y-110725349D01*
X180138026Y-110759409D01*
X180206147Y-110793469D01*
X180478628Y-110793469D01*
X179797425Y-111100011D02*
X179695244Y-111134071D01*
X179524943Y-111134071D01*
X179456823Y-111100011D01*
X179422762Y-111065951D01*
X179388702Y-110997831D01*
X179388702Y-110929710D01*
X179422762Y-110861590D01*
X179456823Y-110827530D01*
X179524943Y-110793469D01*
X179661184Y-110759409D01*
X179729304Y-110725349D01*
X179763364Y-110691289D01*
X179797425Y-110623168D01*
X179797425Y-110555048D01*
X179763364Y-110486928D01*
X179729304Y-110452868D01*
X179661184Y-110418807D01*
X179490883Y-110418807D01*
X179388702Y-110452868D01*
X178707498Y-111134071D02*
X179116221Y-111134071D01*
X178911860Y-111134071D02*
X178911860Y-110418807D01*
X178979980Y-110520988D01*
X179048100Y-110589108D01*
X179116221Y-110623168D01*
X180282057Y-95847868D02*
X180350177Y-95813807D01*
X180452358Y-95813807D01*
X180554538Y-95847868D01*
X180622658Y-95915988D01*
X180656719Y-95984108D01*
X180690779Y-96120349D01*
X180690779Y-96222530D01*
X180656719Y-96358770D01*
X180622658Y-96426891D01*
X180554538Y-96495011D01*
X180452358Y-96529071D01*
X180384237Y-96529071D01*
X180282057Y-96495011D01*
X180247996Y-96460951D01*
X180247996Y-96222530D01*
X180384237Y-96222530D01*
X179941455Y-96529071D02*
X179941455Y-95813807D01*
X179532732Y-96529071D01*
X179532732Y-95813807D01*
X179192130Y-96529071D02*
X179192130Y-95813807D01*
X179021830Y-95813807D01*
X178919649Y-95847868D01*
X178851529Y-95915988D01*
X178817468Y-95984108D01*
X178783408Y-96120349D01*
X178783408Y-96222530D01*
X178817468Y-96358770D01*
X178851529Y-96426891D01*
X178919649Y-96495011D01*
X179021830Y-96529071D01*
X179192130Y-96529071D01*
X185668598Y-96495011D02*
X185566418Y-96529071D01*
X185396117Y-96529071D01*
X185327996Y-96495011D01*
X185293936Y-96460951D01*
X185259876Y-96392831D01*
X185259876Y-96324710D01*
X185293936Y-96256590D01*
X185327996Y-96222530D01*
X185396117Y-96188469D01*
X185532358Y-96154409D01*
X185600478Y-96120349D01*
X185634538Y-96086289D01*
X185668598Y-96018168D01*
X185668598Y-95950048D01*
X185634538Y-95881928D01*
X185600478Y-95847868D01*
X185532358Y-95813807D01*
X185362057Y-95813807D01*
X185259876Y-95847868D01*
X184544612Y-96460951D02*
X184578672Y-96495011D01*
X184680853Y-96529071D01*
X184748973Y-96529071D01*
X184851154Y-96495011D01*
X184919274Y-96426891D01*
X184953334Y-96358770D01*
X184987394Y-96222530D01*
X184987394Y-96120349D01*
X184953334Y-95984108D01*
X184919274Y-95915988D01*
X184851154Y-95847868D01*
X184748973Y-95813807D01*
X184680853Y-95813807D01*
X184578672Y-95847868D01*
X184544612Y-95881928D01*
X183897468Y-96529071D02*
X184238070Y-96529071D01*
X184238070Y-95813807D01*
X177938628Y-111134071D02*
X177938628Y-110418807D01*
X177666147Y-110418807D01*
X177598026Y-110452868D01*
X177563966Y-110486928D01*
X177529906Y-110555048D01*
X177529906Y-110657229D01*
X177563966Y-110725349D01*
X177598026Y-110759409D01*
X177666147Y-110793469D01*
X177938628Y-110793469D01*
X177257425Y-111100011D02*
X177155244Y-111134071D01*
X176984943Y-111134071D01*
X176916823Y-111100011D01*
X176882762Y-111065951D01*
X176848702Y-110997831D01*
X176848702Y-110929710D01*
X176882762Y-110861590D01*
X176916823Y-110827530D01*
X176984943Y-110793469D01*
X177121184Y-110759409D01*
X177189304Y-110725349D01*
X177223364Y-110691289D01*
X177257425Y-110623168D01*
X177257425Y-110555048D01*
X177223364Y-110486928D01*
X177189304Y-110452868D01*
X177121184Y-110418807D01*
X176950883Y-110418807D01*
X176848702Y-110452868D01*
X176405920Y-110418807D02*
X176337799Y-110418807D01*
X176269679Y-110452868D01*
X176235619Y-110486928D01*
X176201559Y-110555048D01*
X176167498Y-110691289D01*
X176167498Y-110861590D01*
X176201559Y-110997831D01*
X176235619Y-111065951D01*
X176269679Y-111100011D01*
X176337799Y-111134071D01*
X176405920Y-111134071D01*
X176474040Y-111100011D01*
X176508100Y-111065951D01*
X176542161Y-110997831D01*
X176576221Y-110861590D01*
X176576221Y-110691289D01*
X176542161Y-110555048D01*
X176508100Y-110486928D01*
X176474040Y-110452868D01*
X176405920Y-110418807D01*
X187788786Y-96529071D02*
X188027207Y-96188469D01*
X188197508Y-96529071D02*
X188197508Y-95813807D01*
X187925026Y-95813807D01*
X187856906Y-95847868D01*
X187822846Y-95881928D01*
X187788786Y-95950048D01*
X187788786Y-96052229D01*
X187822846Y-96120349D01*
X187856906Y-96154409D01*
X187925026Y-96188469D01*
X188197508Y-96188469D01*
X187516304Y-96495011D02*
X187414124Y-96529071D01*
X187243823Y-96529071D01*
X187175702Y-96495011D01*
X187141642Y-96460951D01*
X187107582Y-96392831D01*
X187107582Y-96324710D01*
X187141642Y-96256590D01*
X187175702Y-96222530D01*
X187243823Y-96188469D01*
X187380063Y-96154409D01*
X187448184Y-96120349D01*
X187482244Y-96086289D01*
X187516304Y-96018168D01*
X187516304Y-95950048D01*
X187482244Y-95881928D01*
X187448184Y-95847868D01*
X187380063Y-95813807D01*
X187209762Y-95813807D01*
X187107582Y-95847868D01*
X186903221Y-95813807D02*
X186494498Y-95813807D01*
X186698860Y-96529071D02*
X186698860Y-95813807D01*
X185716658Y-110929710D02*
X185376057Y-110929710D01*
X185784779Y-111134071D02*
X185546358Y-110418807D01*
X185307936Y-111134071D01*
X185069515Y-111134071D02*
X185069515Y-110418807D01*
X184899214Y-110418807D01*
X184797033Y-110452868D01*
X184728913Y-110520988D01*
X184694853Y-110589108D01*
X184660793Y-110725349D01*
X184660793Y-110827530D01*
X184694853Y-110963770D01*
X184728913Y-111031891D01*
X184797033Y-111100011D01*
X184899214Y-111134071D01*
X185069515Y-111134071D01*
X183945529Y-111134071D02*
X184183950Y-110793469D01*
X184354251Y-111134071D02*
X184354251Y-110418807D01*
X184081769Y-110418807D01*
X184013649Y-110452868D01*
X183979589Y-110486928D01*
X183945529Y-110555048D01*
X183945529Y-110657229D01*
X183979589Y-110725349D01*
X184013649Y-110759409D01*
X184081769Y-110793469D01*
X184354251Y-110793469D01*
D13*
X191872824Y-99951879D02*
X191872824Y-100122180D01*
X191830249Y-100207330D01*
X191787674Y-100249905D01*
X191659948Y-100335056D01*
X191489647Y-100377631D01*
X191149045Y-100377631D01*
X191063895Y-100335056D01*
X191021320Y-100292480D01*
X190978744Y-100207330D01*
X190978744Y-100037029D01*
X191021320Y-99951879D01*
X191063895Y-99909303D01*
X191149045Y-99866728D01*
X191361921Y-99866728D01*
X191447072Y-99909303D01*
X191489647Y-99951879D01*
X191532222Y-100037029D01*
X191532222Y-100207330D01*
X191489647Y-100292480D01*
X191447072Y-100335056D01*
X191361921Y-100377631D01*
X191532222Y-100760808D02*
X191532222Y-101442012D01*
X191617373Y-101825189D02*
X191617373Y-102250941D01*
X191872824Y-101740039D02*
X190978744Y-102038065D01*
X191872824Y-102336092D01*
X191872824Y-102548968D02*
X191276771Y-103017296D01*
X191276771Y-102548968D02*
X191872824Y-103017296D01*
X191872824Y-103357898D02*
X191276771Y-103357898D01*
X190978744Y-103357898D02*
X191021320Y-103315322D01*
X191063895Y-103357898D01*
X191021320Y-103400473D01*
X190978744Y-103357898D01*
X191063895Y-103357898D01*
X191830249Y-103741075D02*
X191872824Y-103826225D01*
X191872824Y-103996526D01*
X191830249Y-104081677D01*
X191745099Y-104124252D01*
X191702523Y-104124252D01*
X191617373Y-104081677D01*
X191574798Y-103996526D01*
X191574798Y-103868800D01*
X191532222Y-103783650D01*
X191447072Y-103741075D01*
X191404497Y-103741075D01*
X191319346Y-103783650D01*
X191276771Y-103868800D01*
X191276771Y-103996526D01*
X191319346Y-104081677D01*
X191617373Y-105146058D02*
X191617373Y-105571810D01*
X191872824Y-105060907D02*
X190978744Y-105358934D01*
X191872824Y-105656960D01*
X191872824Y-105954987D02*
X190978744Y-105954987D01*
X191319346Y-105954987D02*
X191276771Y-106040138D01*
X191276771Y-106210439D01*
X191319346Y-106295589D01*
X191361921Y-106338164D01*
X191447072Y-106380740D01*
X191702523Y-106380740D01*
X191787674Y-106338164D01*
X191830249Y-106295589D01*
X191872824Y-106210439D01*
X191872824Y-106040138D01*
X191830249Y-105954987D01*
X191830249Y-106721341D02*
X191872824Y-106806492D01*
X191872824Y-106976793D01*
X191830249Y-107061943D01*
X191745099Y-107104519D01*
X191702523Y-107104519D01*
X191617373Y-107061943D01*
X191574798Y-106976793D01*
X191574798Y-106849067D01*
X191532222Y-106763917D01*
X191447072Y-106721341D01*
X191404497Y-106721341D01*
X191319346Y-106763917D01*
X191276771Y-106849067D01*
X191276771Y-106976793D01*
X191319346Y-107061943D01*
X191787674Y-107487696D02*
X191830249Y-107530271D01*
X191872824Y-107487696D01*
X191830249Y-107445120D01*
X191787674Y-107487696D01*
X191872824Y-107487696D01*
X192418213Y-100398919D02*
X192418213Y-100569220D01*
X192460789Y-100654370D01*
X192545939Y-100739520D01*
X192716240Y-100782096D01*
X193014267Y-100782096D01*
X193184568Y-100739520D01*
X193269718Y-100654370D01*
X193312293Y-100569220D01*
X193312293Y-100398919D01*
X193269718Y-100313768D01*
X193184568Y-100228618D01*
X193014267Y-100186042D01*
X192716240Y-100186042D01*
X192545939Y-100228618D01*
X192460789Y-100313768D01*
X192418213Y-100398919D01*
X193312293Y-101165273D02*
X192716240Y-101165273D01*
X192886541Y-101165273D02*
X192801390Y-101207848D01*
X192758815Y-101250423D01*
X192716240Y-101335574D01*
X192716240Y-101420724D01*
X193312293Y-101718751D02*
X192716240Y-101718751D01*
X192418213Y-101718751D02*
X192460789Y-101676176D01*
X192503364Y-101718751D01*
X192460789Y-101761326D01*
X192418213Y-101718751D01*
X192503364Y-101718751D01*
X193269718Y-102485105D02*
X193312293Y-102399955D01*
X193312293Y-102229654D01*
X193269718Y-102144503D01*
X193184568Y-102101928D01*
X192843966Y-102101928D01*
X192758815Y-102144503D01*
X192716240Y-102229654D01*
X192716240Y-102399955D01*
X192758815Y-102485105D01*
X192843966Y-102527680D01*
X192929116Y-102527680D01*
X193014267Y-102101928D01*
X192716240Y-102910858D02*
X193312293Y-102910858D01*
X192801390Y-102910858D02*
X192758815Y-102953433D01*
X192716240Y-103038583D01*
X192716240Y-103166309D01*
X192758815Y-103251460D01*
X192843966Y-103294035D01*
X193312293Y-103294035D01*
X192716240Y-103592061D02*
X192716240Y-103932663D01*
X192418213Y-103719787D02*
X193184568Y-103719787D01*
X193269718Y-103762362D01*
X193312293Y-103847513D01*
X193312293Y-103932663D01*
X193312293Y-104613867D02*
X192843966Y-104613867D01*
X192758815Y-104571292D01*
X192716240Y-104486141D01*
X192716240Y-104315840D01*
X192758815Y-104230690D01*
X193269718Y-104613867D02*
X193312293Y-104528717D01*
X193312293Y-104315840D01*
X193269718Y-104230690D01*
X193184568Y-104188115D01*
X193099417Y-104188115D01*
X193014267Y-104230690D01*
X192971691Y-104315840D01*
X192971691Y-104528717D01*
X192929116Y-104613867D01*
X192716240Y-104911894D02*
X192716240Y-105252496D01*
X192418213Y-105039620D02*
X193184568Y-105039620D01*
X193269718Y-105082195D01*
X193312293Y-105167345D01*
X193312293Y-105252496D01*
X193312293Y-105550522D02*
X192716240Y-105550522D01*
X192418213Y-105550522D02*
X192460789Y-105507947D01*
X192503364Y-105550522D01*
X192460789Y-105593098D01*
X192418213Y-105550522D01*
X192503364Y-105550522D01*
X193312293Y-106104000D02*
X193269718Y-106018850D01*
X193227143Y-105976275D01*
X193141992Y-105933700D01*
X192886541Y-105933700D01*
X192801390Y-105976275D01*
X192758815Y-106018850D01*
X192716240Y-106104000D01*
X192716240Y-106231726D01*
X192758815Y-106316877D01*
X192801390Y-106359452D01*
X192886541Y-106402027D01*
X193141992Y-106402027D01*
X193227143Y-106359452D01*
X193269718Y-106316877D01*
X193312293Y-106231726D01*
X193312293Y-106104000D01*
X192716240Y-106785204D02*
X193312293Y-106785204D01*
X192801390Y-106785204D02*
X192758815Y-106827780D01*
X192716240Y-106912930D01*
X192716240Y-107040656D01*
X192758815Y-107125806D01*
X192843966Y-107168381D01*
X193312293Y-107168381D01*
D15*
X175356388Y-95813807D02*
X175117966Y-96529071D01*
X174879545Y-95813807D01*
X174641124Y-96529071D02*
X174641124Y-96052229D01*
X174641124Y-95813807D02*
X174675184Y-95847868D01*
X174641124Y-95881928D01*
X174607063Y-95847868D01*
X174641124Y-95813807D01*
X174641124Y-95881928D01*
X174300522Y-96052229D02*
X174300522Y-96529071D01*
X174300522Y-96120349D02*
X174266462Y-96086289D01*
X174198341Y-96052229D01*
X174096161Y-96052229D01*
X174028040Y-96086289D01*
X173993980Y-96154409D01*
X173993980Y-96529071D01*
X182955237Y-111182071D02*
X182955237Y-110466807D01*
X182614635Y-111182071D02*
X182614635Y-110466807D01*
X182205913Y-111182071D01*
X182205913Y-110466807D01*
X181967492Y-110466807D02*
X181558769Y-110466807D01*
X181763130Y-111182071D02*
X181763130Y-110466807D01*
X183145628Y-96495011D02*
X183043448Y-96529071D01*
X182873147Y-96529071D01*
X182805026Y-96495011D01*
X182770966Y-96460951D01*
X182736906Y-96392831D01*
X182736906Y-96324710D01*
X182770966Y-96256590D01*
X182805026Y-96222530D01*
X182873147Y-96188469D01*
X183009388Y-96154409D01*
X183077508Y-96120349D01*
X183111568Y-96086289D01*
X183145628Y-96018168D01*
X183145628Y-95950048D01*
X183111568Y-95881928D01*
X183077508Y-95847868D01*
X183009388Y-95813807D01*
X182839087Y-95813807D01*
X182736906Y-95847868D01*
X182430364Y-96529071D02*
X182430364Y-95813807D01*
X182260063Y-95813807D01*
X182157883Y-95847868D01*
X182089762Y-95915988D01*
X182055702Y-95984108D01*
X182021642Y-96120349D01*
X182021642Y-96222530D01*
X182055702Y-96358770D01*
X182089762Y-96426891D01*
X182157883Y-96495011D01*
X182260063Y-96529071D01*
X182430364Y-96529071D01*
X181749161Y-96324710D02*
X181408559Y-96324710D01*
X181817281Y-96529071D02*
X181578860Y-95813807D01*
X181340438Y-96529071D01*
D10*
X189738095Y-109767619D02*
X189738095Y-108958095D01*
X189785714Y-108862857D01*
X189833333Y-108815238D01*
X189928571Y-108767619D01*
X190119047Y-108767619D01*
X190214285Y-108815238D01*
X190261904Y-108862857D01*
X190309523Y-108958095D01*
X190309523Y-109767619D01*
X190738095Y-109672380D02*
X190785714Y-109720000D01*
X190880952Y-109767619D01*
X191119047Y-109767619D01*
X191214285Y-109720000D01*
X191261904Y-109672380D01*
X191309523Y-109577142D01*
X191309523Y-109481904D01*
X191261904Y-109339047D01*
X190690476Y-108767619D01*
X191309523Y-108767619D01*
D15*
X177931568Y-95813807D02*
X177488786Y-95813807D01*
X177727207Y-96086289D01*
X177625026Y-96086289D01*
X177556906Y-96120349D01*
X177522846Y-96154409D01*
X177488786Y-96222530D01*
X177488786Y-96392831D01*
X177522846Y-96460951D01*
X177556906Y-96495011D01*
X177625026Y-96529071D01*
X177829388Y-96529071D01*
X177897508Y-96495011D01*
X177931568Y-96460951D01*
X177250364Y-96052229D02*
X177080063Y-96529071D01*
X176909762Y-96052229D01*
X176535100Y-96529071D02*
X176603221Y-96495011D01*
X176637281Y-96460951D01*
X176671341Y-96392831D01*
X176671341Y-96188469D01*
X176637281Y-96120349D01*
X176603221Y-96086289D01*
X176535100Y-96052229D01*
X176432920Y-96052229D01*
X176364799Y-96086289D01*
X176330739Y-96120349D01*
X176296679Y-96188469D01*
X176296679Y-96392831D01*
X176330739Y-96460951D01*
X176364799Y-96495011D01*
X176432920Y-96529071D01*
X176535100Y-96529071D01*
D16*
X168520265Y-101413938D02*
X168573484Y-101573595D01*
X168626703Y-101626814D01*
X168733141Y-101680033D01*
X168892798Y-101680033D01*
X168999236Y-101626814D01*
X169052455Y-101573595D01*
X169105674Y-101467157D01*
X169105674Y-101041404D01*
X167988074Y-101041404D01*
X167988074Y-101413938D01*
X168041294Y-101520376D01*
X168094513Y-101573595D01*
X168200951Y-101626814D01*
X168307389Y-101626814D01*
X168413827Y-101573595D01*
X168467046Y-101520376D01*
X168520265Y-101413938D01*
X168520265Y-101041404D01*
X169105674Y-102159004D02*
X167988074Y-102159004D01*
X169105674Y-102797633D01*
X167988074Y-102797633D01*
X167988074Y-103542700D02*
X167988074Y-103755576D01*
X168041294Y-103862014D01*
X168147732Y-103968452D01*
X168360608Y-104021671D01*
X168733141Y-104021671D01*
X168946017Y-103968452D01*
X169052455Y-103862014D01*
X169105674Y-103755576D01*
X169105674Y-103542700D01*
X169052455Y-103436261D01*
X168946017Y-103329823D01*
X168733141Y-103276604D01*
X168360608Y-103276604D01*
X168147732Y-103329823D01*
X168041294Y-103436261D01*
X167988074Y-103542700D01*
X167988074Y-104713519D02*
X167988074Y-104819957D01*
X168041294Y-104926395D01*
X168094513Y-104979614D01*
X168200951Y-105032833D01*
X168413827Y-105086052D01*
X168679922Y-105086052D01*
X168892798Y-105032833D01*
X168999236Y-104979614D01*
X169052455Y-104926395D01*
X169105674Y-104819957D01*
X169105674Y-104713519D01*
X169052455Y-104607080D01*
X168999236Y-104553861D01*
X168892798Y-104500642D01*
X168679922Y-104447423D01*
X168413827Y-104447423D01*
X168200951Y-104500642D01*
X168094513Y-104553861D01*
X168041294Y-104607080D01*
X167988074Y-104713519D01*
X167988074Y-106097214D02*
X167988074Y-105565023D01*
X168520265Y-105511804D01*
X168467046Y-105565023D01*
X168413827Y-105671461D01*
X168413827Y-105937557D01*
X168467046Y-106043995D01*
X168520265Y-106097214D01*
X168626703Y-106150433D01*
X168892798Y-106150433D01*
X168999236Y-106097214D01*
X169052455Y-106043995D01*
X169105674Y-105937557D01*
X169105674Y-105671461D01*
X169052455Y-105565023D01*
X168999236Y-105511804D01*
X167988074Y-107161595D02*
X167988074Y-106629404D01*
X168520265Y-106576185D01*
X168467046Y-106629404D01*
X168413827Y-106735842D01*
X168413827Y-107001938D01*
X168467046Y-107108376D01*
X168520265Y-107161595D01*
X168626703Y-107214814D01*
X168892798Y-107214814D01*
X168999236Y-107161595D01*
X169052455Y-107108376D01*
X169105674Y-107001938D01*
X169105674Y-106735842D01*
X169052455Y-106629404D01*
X168999236Y-106576185D01*
D17*
%TO.C,SW1*%
X165132000Y-116239500D02*
X165132000Y-126399500D01*
X180372000Y-116239500D02*
X165132000Y-116239500D01*
X165132000Y-126399500D02*
X180372000Y-126399500D01*
X180372000Y-126399500D02*
X180372000Y-116239500D01*
%TO.C,SW2*%
X147415000Y-119285000D02*
X147415000Y-129445000D01*
X147415000Y-129445000D02*
X162655000Y-129445000D01*
X162655000Y-119285000D02*
X147415000Y-119285000D01*
X162655000Y-129445000D02*
X162655000Y-119285000D01*
%TO.C,J1*%
X186581000Y-122463500D02*
X186616000Y-122498500D01*
X193227000Y-125324500D02*
X182947000Y-125324500D01*
X193467000Y-125384500D02*
X193467000Y-126124500D01*
X186774000Y-122247500D02*
X186821000Y-122293500D01*
X193227000Y-125884500D02*
X182947000Y-125884500D01*
X193227000Y-123824500D02*
X182947000Y-123824500D01*
X182947000Y-115963500D02*
X182947000Y-125884500D01*
X184272000Y-120155500D02*
X184319000Y-120201500D01*
X193467000Y-126124500D02*
X192967000Y-126124500D01*
X184477000Y-119949500D02*
X184512000Y-119985500D01*
X193227000Y-118923500D02*
X182947000Y-118923500D01*
X193227000Y-115963500D02*
X193227000Y-125884500D01*
X193227000Y-115963500D02*
X182947000Y-115963500D01*
X192162427Y-121907542D02*
G75*
G03*
X192162000Y-120540500I-1535420J683041D01*
G01*
X189091573Y-120541458D02*
G75*
G03*
X189092000Y-121908500I1535431J-683041D01*
G01*
X191310042Y-119689073D02*
G75*
G03*
X189943000Y-119689500I-683041J-1535420D01*
G01*
X189943682Y-122759256D02*
G75*
G03*
X190627000Y-122904500I683318J1534756D01*
G01*
X190598195Y-122904753D02*
G75*
G03*
X191311000Y-122759500I28806J1680254D01*
G01*
X187227000Y-121224500D02*
G75*
G03*
X187227000Y-121224500I-1680000J0D01*
G01*
D18*
%TO.C,U4*%
X153924000Y-83612442D02*
X153924000Y-82596442D01*
X153924000Y-81072442D02*
X153924000Y-80056442D01*
X154432000Y-74976442D02*
X154432000Y-75992442D01*
X154432000Y-80564442D02*
X153924000Y-81072442D01*
X154432000Y-75992442D02*
X153924000Y-75484442D01*
X153924000Y-78024442D02*
X154432000Y-77516442D01*
X153924000Y-68372442D02*
X153924000Y-67356442D01*
D19*
X150368000Y-65324442D02*
X150368000Y-85644442D01*
X152908000Y-88184442D02*
X182118000Y-88184442D01*
D18*
X154432000Y-72944442D02*
X153924000Y-73452442D01*
X153924000Y-75484442D02*
X154432000Y-74976442D01*
X154432000Y-77516442D02*
X154432000Y-78532442D01*
X154432000Y-85136442D02*
X154432000Y-86152442D01*
X154432000Y-86152442D02*
X153924000Y-85644442D01*
X153924000Y-82596442D02*
X154432000Y-83104442D01*
X153924000Y-67356442D02*
X154432000Y-67864442D01*
X154432000Y-78532442D02*
X153924000Y-78024442D01*
X154432000Y-65832442D02*
X153924000Y-65324442D01*
X153924000Y-65324442D02*
X154432000Y-64816442D01*
X153924000Y-80056442D02*
X154432000Y-80564442D01*
D19*
X182118000Y-62784442D02*
X152908000Y-62784442D01*
D18*
X154432000Y-83104442D02*
X153924000Y-83612442D01*
X153924000Y-73452442D02*
X153924000Y-72436442D01*
X154432000Y-64816442D02*
X154432000Y-65832442D01*
X154432000Y-67864442D02*
X153924000Y-68372442D01*
X153924000Y-72436442D02*
X154432000Y-72944442D01*
X153924000Y-85644442D02*
X154432000Y-85136442D01*
D19*
X184658000Y-85644442D02*
X184658000Y-65324442D01*
X150368000Y-85644442D02*
G75*
G03*
X152908000Y-88184442I2540001J1D01*
G01*
X184658000Y-65324442D02*
G75*
G03*
X182118000Y-62784442I-2540000J0D01*
G01*
X182118000Y-88184442D02*
G75*
G03*
X184658000Y-85644442I0J2540000D01*
G01*
X152908000Y-62784442D02*
G75*
G03*
X150368000Y-65324442I1J-2540001D01*
G01*
D10*
%TO.C,U5*%
X140264067Y-69184442D02*
X132644067Y-69184442D01*
X140264067Y-64104442D02*
X140264067Y-62834442D01*
X133914067Y-108554442D02*
X138994067Y-108554442D01*
X130104067Y-89504442D02*
X142804067Y-89504442D01*
X141534067Y-123794442D02*
X131374067Y-123794442D01*
X142804067Y-112364442D02*
X142804067Y-125064442D01*
X132644067Y-69184442D02*
X132644067Y-64104442D01*
X130104067Y-112364442D02*
X142804067Y-112364442D01*
X142804067Y-102204442D02*
X130104067Y-102204442D01*
X142804067Y-125064442D02*
X141534067Y-123794442D01*
X137724067Y-123794442D02*
X137724067Y-125064442D01*
X132644067Y-123794442D02*
X132644067Y-125064442D01*
X127564067Y-125064442D02*
X127564067Y-64104442D01*
X140264067Y-62834442D02*
X132644067Y-62834442D01*
X130104067Y-125064442D02*
X130104067Y-112364442D01*
X140264067Y-69184442D02*
X140264067Y-64104442D01*
X132644067Y-62834442D02*
X132644067Y-64104442D01*
X132644067Y-83154442D02*
X132644067Y-80614442D01*
X133914067Y-106014442D02*
X133914067Y-108554442D01*
X138994067Y-88234442D02*
X141534067Y-88234442D01*
X140264067Y-123794442D02*
X140264067Y-125064442D01*
X138994067Y-84424442D02*
X138994067Y-88234442D01*
X138994067Y-108554442D02*
X138994067Y-106014442D01*
X135184067Y-83154442D02*
X132644067Y-83154442D01*
X142804067Y-89504442D02*
X142804067Y-102204442D01*
X141534067Y-84424442D02*
X138994067Y-84424442D01*
X131374067Y-123794442D02*
X131374067Y-125064442D01*
X138994067Y-123794442D02*
X138994067Y-125064442D01*
X130104067Y-89504442D02*
X130104067Y-102204442D01*
X135184067Y-80614442D02*
X135184067Y-83154442D01*
X132644067Y-80614442D02*
X135184067Y-80614442D01*
X136454067Y-123794442D02*
X136454067Y-125064442D01*
X133914067Y-123794442D02*
X133914067Y-125064442D01*
X135184067Y-123794442D02*
X135184067Y-125064442D01*
X145344067Y-64104442D02*
X145344067Y-125064442D01*
X141534067Y-123794442D02*
X141534067Y-125064442D01*
X141534067Y-88234442D02*
X141534067Y-84424442D01*
X131374067Y-123794442D02*
X130104067Y-125064442D01*
X138994067Y-106014442D02*
X133914067Y-106014442D01*
X127564067Y-125064442D02*
X145344067Y-125064442D01*
X145344067Y-64104442D02*
X127564067Y-64104442D01*
G36*
X132009067Y-95473442D02*
G01*
X131755067Y-95854442D01*
X131501067Y-95600442D01*
X131755067Y-95219442D01*
X132009067Y-95473442D01*
G37*
D20*
X132009067Y-95473442D02*
X131755067Y-95854442D01*
X131501067Y-95600442D01*
X131755067Y-95219442D01*
X132009067Y-95473442D01*
G36*
X133533067Y-96108442D02*
G01*
X133279067Y-96489442D01*
X133025067Y-96235442D01*
X133279067Y-95854442D01*
X133533067Y-96108442D01*
G37*
X133533067Y-96108442D02*
X133279067Y-96489442D01*
X133025067Y-96235442D01*
X133279067Y-95854442D01*
X133533067Y-96108442D01*
G36*
X132771067Y-96235442D02*
G01*
X132517067Y-96616442D01*
X132263067Y-96362442D01*
X132517067Y-95981442D01*
X132771067Y-96235442D01*
G37*
X132771067Y-96235442D02*
X132517067Y-96616442D01*
X132263067Y-96362442D01*
X132517067Y-95981442D01*
X132771067Y-96235442D01*
G36*
X133152067Y-95727442D02*
G01*
X132898067Y-96108442D01*
X132644067Y-95854442D01*
X132898067Y-95473442D01*
X133152067Y-95727442D01*
G37*
X133152067Y-95727442D02*
X132898067Y-96108442D01*
X132644067Y-95854442D01*
X132898067Y-95473442D01*
X133152067Y-95727442D01*
G36*
X134295067Y-95092442D02*
G01*
X134041067Y-95473442D01*
X133787067Y-95219442D01*
X134041067Y-94838442D01*
X134295067Y-95092442D01*
G37*
X134295067Y-95092442D02*
X134041067Y-95473442D01*
X133787067Y-95219442D01*
X134041067Y-94838442D01*
X134295067Y-95092442D01*
G36*
X133914067Y-95600442D02*
G01*
X133660067Y-95981442D01*
X133406067Y-95727442D01*
X133660067Y-95346442D01*
X133914067Y-95600442D01*
G37*
X133914067Y-95600442D02*
X133660067Y-95981442D01*
X133406067Y-95727442D01*
X133660067Y-95346442D01*
X133914067Y-95600442D01*
G36*
X132390067Y-95854442D02*
G01*
X132136067Y-96235442D01*
X131882067Y-95981442D01*
X132136067Y-95600442D01*
X132390067Y-95854442D01*
G37*
X132390067Y-95854442D02*
X132136067Y-96235442D01*
X131882067Y-95981442D01*
X132136067Y-95600442D01*
X132390067Y-95854442D01*
G36*
X133533067Y-95219442D02*
G01*
X133279067Y-95600442D01*
X133025067Y-95346442D01*
X133279067Y-94965442D01*
X133533067Y-95219442D01*
G37*
X133533067Y-95219442D02*
X133279067Y-95600442D01*
X133025067Y-95346442D01*
X133279067Y-94965442D01*
X133533067Y-95219442D01*
D17*
%TO.C,U1*%
X114427000Y-111064500D02*
X114427000Y-103444500D01*
X106807000Y-111064500D02*
X114427000Y-111064500D01*
X114427000Y-103444500D02*
X109347000Y-103444500D01*
X106807000Y-103444500D02*
X106807000Y-111064500D01*
X109347000Y-103444500D02*
X106807000Y-103444500D01*
X119507000Y-100904500D02*
X101727000Y-100904500D01*
X101727000Y-100904500D02*
X101727000Y-126304500D01*
X101727000Y-126304500D02*
X119507000Y-126304500D01*
X119507000Y-126304500D02*
X119507000Y-100904500D01*
%TO.C,J2*%
X112995094Y-88124500D02*
X112995094Y-78794500D01*
X112995094Y-88124500D02*
X112995094Y-97454500D01*
X119195094Y-85414500D02*
X122055094Y-85414500D01*
X112995094Y-97454500D02*
X119195094Y-97454500D01*
X119195094Y-90834500D02*
X122055094Y-90834500D01*
X119195094Y-78794500D02*
X119195094Y-85414500D01*
X119195094Y-97454500D02*
X119195094Y-90834500D01*
X117345094Y-78494500D02*
X119495094Y-78494500D01*
X119495094Y-78494500D02*
X119495094Y-80624500D01*
X112995094Y-78794500D02*
X119195094Y-78794500D01*
X122055094Y-85414500D02*
X122055094Y-88124500D01*
X122055094Y-90834500D02*
X122055094Y-88124500D01*
D19*
%TO.C,U3*%
X150368000Y-112969500D02*
X163068000Y-112969500D01*
X163068000Y-93919500D02*
X150368000Y-93919500D01*
X165608000Y-110429500D02*
X165608000Y-96459500D01*
X147828000Y-96459500D02*
X147828000Y-110429500D01*
X150368000Y-93919500D02*
G75*
G03*
X147828000Y-96459500I0J-2540000D01*
G01*
X147828000Y-110429500D02*
G75*
G03*
X150368000Y-112969500I2540001J1D01*
G01*
X165608000Y-96459500D02*
G75*
G03*
X163068000Y-93919500I-2540000J0D01*
G01*
X163068000Y-112969500D02*
G75*
G03*
X165608000Y-110429500I-1J2540001D01*
G01*
%TO.C,U2*%
X191680094Y-93284500D02*
X170090094Y-93284500D01*
X170090094Y-113604500D02*
X191680094Y-113604500D01*
X167550094Y-95824500D02*
X167550094Y-111064500D01*
X194220094Y-111064500D02*
X194220094Y-95824500D01*
X170090094Y-93284500D02*
G75*
G03*
X167550094Y-95824500I1J-2540001D01*
G01*
X194220094Y-95824500D02*
G75*
G03*
X191680094Y-93284500I-2540000J0D01*
G01*
X191680094Y-113604500D02*
G75*
G03*
X194220094Y-111064500I0J2540000D01*
G01*
X167550094Y-111064500D02*
G75*
G03*
X170090094Y-113604500I2540001J1D01*
G01*
%TD*%
M02*
