%FSLAX45Y45*%
G04 Gerber Fmt 4.5, Leading zero omitted, Abs format (unit mm)*
G04 Created by KiCad (PCBNEW 6.0.5-a6ca702e91~116~ubuntu20.04.1) date 2022-06-23 19:21:57*
%MOMM*%
%LPD*%
G01*
G04 APERTURE LIST*
%TA.AperFunction,Profile*%
%ADD10C,0.200000*%
%TD*%
%ADD11C,0.200000*%
%ADD12C,0.130000*%
G04 APERTURE END LIST*
D10*
X10020300Y-5676900D02*
X19824700Y-5676900D01*
X19824700Y-5676900D02*
X19824700Y-13576900D01*
X19824700Y-13576900D02*
X10020300Y-13576900D01*
X10020300Y-13576900D02*
X10020300Y-5676900D01*
D11*
D12*
X11803509Y-8622450D02*
X11933509Y-8752450D01*
X11933509Y-8622450D02*
X11803509Y-8752450D01*
D11*
X10267919Y-13897376D02*
X10267919Y-13697376D01*
X10315538Y-13697376D01*
X10344110Y-13706900D01*
X10363157Y-13725948D01*
X10372681Y-13744995D01*
X10382205Y-13783090D01*
X10382205Y-13811662D01*
X10372681Y-13849757D01*
X10363157Y-13868805D01*
X10344110Y-13887852D01*
X10315538Y-13897376D01*
X10267919Y-13897376D01*
X10467919Y-13897376D02*
X10467919Y-13764043D01*
X10467919Y-13802138D02*
X10477443Y-13783090D01*
X10486967Y-13773567D01*
X10506014Y-13764043D01*
X10525062Y-13764043D01*
X10591729Y-13897376D02*
X10591729Y-13764043D01*
X10591729Y-13697376D02*
X10582205Y-13706900D01*
X10591729Y-13716424D01*
X10601252Y-13706900D01*
X10591729Y-13697376D01*
X10591729Y-13716424D01*
X10715538Y-13897376D02*
X10696490Y-13887852D01*
X10686967Y-13868805D01*
X10686967Y-13697376D01*
X10820300Y-13897376D02*
X10801252Y-13887852D01*
X10791729Y-13868805D01*
X10791729Y-13697376D01*
X11048871Y-13897376D02*
X11048871Y-13697376D01*
X11115538Y-13840233D01*
X11182205Y-13697376D01*
X11182205Y-13897376D01*
X11363157Y-13897376D02*
X11363157Y-13792614D01*
X11353633Y-13773567D01*
X11334586Y-13764043D01*
X11296490Y-13764043D01*
X11277443Y-13773567D01*
X11363157Y-13887852D02*
X11344109Y-13897376D01*
X11296490Y-13897376D01*
X11277443Y-13887852D01*
X11267919Y-13868805D01*
X11267919Y-13849757D01*
X11277443Y-13830709D01*
X11296490Y-13821186D01*
X11344109Y-13821186D01*
X11363157Y-13811662D01*
X11458395Y-13764043D02*
X11458395Y-13964043D01*
X11458395Y-13773567D02*
X11477443Y-13764043D01*
X11515538Y-13764043D01*
X11534586Y-13773567D01*
X11544109Y-13783090D01*
X11553633Y-13802138D01*
X11553633Y-13859281D01*
X11544109Y-13878328D01*
X11534586Y-13887852D01*
X11515538Y-13897376D01*
X11477443Y-13897376D01*
X11458395Y-13887852D01*
X11639348Y-13878328D02*
X11648871Y-13887852D01*
X11639348Y-13897376D01*
X11629824Y-13887852D01*
X11639348Y-13878328D01*
X11639348Y-13897376D01*
X11639348Y-13773567D02*
X11648871Y-13783090D01*
X11639348Y-13792614D01*
X11629824Y-13783090D01*
X11639348Y-13773567D01*
X11639348Y-13792614D01*
D12*
X9880300Y-14161900D02*
X10010300Y-14291900D01*
X10010300Y-14161900D02*
X9880300Y-14291900D01*
D11*
X10372681Y-14317376D02*
X10258395Y-14317376D01*
X10315538Y-14317376D02*
X10315538Y-14117376D01*
X10296490Y-14145948D01*
X10277443Y-14164995D01*
X10258395Y-14174519D01*
X10458395Y-14298328D02*
X10467919Y-14307852D01*
X10458395Y-14317376D01*
X10448871Y-14307852D01*
X10458395Y-14298328D01*
X10458395Y-14317376D01*
X10534586Y-14117376D02*
X10658395Y-14117376D01*
X10591729Y-14193567D01*
X10620300Y-14193567D01*
X10639348Y-14203090D01*
X10648871Y-14212614D01*
X10658395Y-14231662D01*
X10658395Y-14279281D01*
X10648871Y-14298328D01*
X10639348Y-14307852D01*
X10620300Y-14317376D01*
X10563157Y-14317376D01*
X10544110Y-14307852D01*
X10534586Y-14298328D01*
X10782205Y-14117376D02*
X10801252Y-14117376D01*
X10820300Y-14126900D01*
X10829824Y-14136424D01*
X10839348Y-14155471D01*
X10848871Y-14193567D01*
X10848871Y-14241186D01*
X10839348Y-14279281D01*
X10829824Y-14298328D01*
X10820300Y-14307852D01*
X10801252Y-14317376D01*
X10782205Y-14317376D01*
X10763157Y-14307852D01*
X10753633Y-14298328D01*
X10744110Y-14279281D01*
X10734586Y-14241186D01*
X10734586Y-14193567D01*
X10744110Y-14155471D01*
X10753633Y-14136424D01*
X10763157Y-14126900D01*
X10782205Y-14117376D01*
X10972681Y-14117376D02*
X10991729Y-14117376D01*
X11010776Y-14126900D01*
X11020300Y-14136424D01*
X11029824Y-14155471D01*
X11039348Y-14193567D01*
X11039348Y-14241186D01*
X11029824Y-14279281D01*
X11020300Y-14298328D01*
X11010776Y-14307852D01*
X10991729Y-14317376D01*
X10972681Y-14317376D01*
X10953633Y-14307852D01*
X10944110Y-14298328D01*
X10934586Y-14279281D01*
X10925062Y-14241186D01*
X10925062Y-14193567D01*
X10934586Y-14155471D01*
X10944110Y-14136424D01*
X10953633Y-14126900D01*
X10972681Y-14117376D01*
X11125062Y-14317376D02*
X11125062Y-14184043D01*
X11125062Y-14203090D02*
X11134586Y-14193567D01*
X11153633Y-14184043D01*
X11182205Y-14184043D01*
X11201252Y-14193567D01*
X11210776Y-14212614D01*
X11210776Y-14317376D01*
X11210776Y-14212614D02*
X11220300Y-14193567D01*
X11239348Y-14184043D01*
X11267919Y-14184043D01*
X11286967Y-14193567D01*
X11296490Y-14212614D01*
X11296490Y-14317376D01*
X11391728Y-14317376D02*
X11391728Y-14184043D01*
X11391728Y-14203090D02*
X11401252Y-14193567D01*
X11420300Y-14184043D01*
X11448871Y-14184043D01*
X11467919Y-14193567D01*
X11477443Y-14212614D01*
X11477443Y-14317376D01*
X11477443Y-14212614D02*
X11486967Y-14193567D01*
X11506014Y-14184043D01*
X11534586Y-14184043D01*
X11553633Y-14193567D01*
X11563157Y-14212614D01*
X11563157Y-14317376D01*
X11953633Y-14107852D02*
X11782205Y-14364995D01*
X12210776Y-14117376D02*
X12229824Y-14117376D01*
X12248871Y-14126900D01*
X12258395Y-14136424D01*
X12267919Y-14155471D01*
X12277443Y-14193567D01*
X12277443Y-14241186D01*
X12267919Y-14279281D01*
X12258395Y-14298328D01*
X12248871Y-14307852D01*
X12229824Y-14317376D01*
X12210776Y-14317376D01*
X12191728Y-14307852D01*
X12182205Y-14298328D01*
X12172681Y-14279281D01*
X12163157Y-14241186D01*
X12163157Y-14193567D01*
X12172681Y-14155471D01*
X12182205Y-14136424D01*
X12191728Y-14126900D01*
X12210776Y-14117376D01*
X12363157Y-14298328D02*
X12372681Y-14307852D01*
X12363157Y-14317376D01*
X12353633Y-14307852D01*
X12363157Y-14298328D01*
X12363157Y-14317376D01*
X12496490Y-14117376D02*
X12515538Y-14117376D01*
X12534586Y-14126900D01*
X12544109Y-14136424D01*
X12553633Y-14155471D01*
X12563157Y-14193567D01*
X12563157Y-14241186D01*
X12553633Y-14279281D01*
X12544109Y-14298328D01*
X12534586Y-14307852D01*
X12515538Y-14317376D01*
X12496490Y-14317376D01*
X12477443Y-14307852D01*
X12467919Y-14298328D01*
X12458395Y-14279281D01*
X12448871Y-14241186D01*
X12448871Y-14193567D01*
X12458395Y-14155471D01*
X12467919Y-14136424D01*
X12477443Y-14126900D01*
X12496490Y-14117376D01*
X12744109Y-14117376D02*
X12648871Y-14117376D01*
X12639348Y-14212614D01*
X12648871Y-14203090D01*
X12667919Y-14193567D01*
X12715538Y-14193567D01*
X12734586Y-14203090D01*
X12744109Y-14212614D01*
X12753633Y-14231662D01*
X12753633Y-14279281D01*
X12744109Y-14298328D01*
X12734586Y-14307852D01*
X12715538Y-14317376D01*
X12667919Y-14317376D01*
X12648871Y-14307852D01*
X12639348Y-14298328D01*
X12944109Y-14317376D02*
X12829824Y-14317376D01*
X12886967Y-14317376D02*
X12886967Y-14117376D01*
X12867919Y-14145948D01*
X12848871Y-14164995D01*
X12829824Y-14174519D01*
X13020300Y-14136424D02*
X13029824Y-14126900D01*
X13048871Y-14117376D01*
X13096490Y-14117376D01*
X13115538Y-14126900D01*
X13125062Y-14136424D01*
X13134586Y-14155471D01*
X13134586Y-14174519D01*
X13125062Y-14203090D01*
X13010776Y-14317376D01*
X13134586Y-14317376D01*
X13210776Y-14117376D02*
X13210776Y-14155471D01*
X13286967Y-14117376D02*
X13286967Y-14155471D01*
X13582205Y-14393567D02*
X13572681Y-14384043D01*
X13553633Y-14355471D01*
X13544109Y-14336424D01*
X13534586Y-14307852D01*
X13525062Y-14260233D01*
X13525062Y-14222138D01*
X13534586Y-14174519D01*
X13544109Y-14145948D01*
X13553633Y-14126900D01*
X13572681Y-14098328D01*
X13582205Y-14088805D01*
X13763157Y-14317376D02*
X13648871Y-14317376D01*
X13706014Y-14317376D02*
X13706014Y-14117376D01*
X13686967Y-14145948D01*
X13667919Y-14164995D01*
X13648871Y-14174519D01*
X14001252Y-14317376D02*
X14001252Y-14117376D01*
X14086967Y-14317376D02*
X14086967Y-14212614D01*
X14077443Y-14193567D01*
X14058395Y-14184043D01*
X14029824Y-14184043D01*
X14010776Y-14193567D01*
X14001252Y-14203090D01*
X14210776Y-14317376D02*
X14191728Y-14307852D01*
X14182205Y-14298328D01*
X14172681Y-14279281D01*
X14172681Y-14222138D01*
X14182205Y-14203090D01*
X14191728Y-14193567D01*
X14210776Y-14184043D01*
X14239348Y-14184043D01*
X14258395Y-14193567D01*
X14267919Y-14203090D01*
X14277443Y-14222138D01*
X14277443Y-14279281D01*
X14267919Y-14298328D01*
X14258395Y-14307852D01*
X14239348Y-14317376D01*
X14210776Y-14317376D01*
X14391728Y-14317376D02*
X14372681Y-14307852D01*
X14363157Y-14288805D01*
X14363157Y-14117376D01*
X14544109Y-14307852D02*
X14525062Y-14317376D01*
X14486967Y-14317376D01*
X14467919Y-14307852D01*
X14458395Y-14288805D01*
X14458395Y-14212614D01*
X14467919Y-14193567D01*
X14486967Y-14184043D01*
X14525062Y-14184043D01*
X14544109Y-14193567D01*
X14553633Y-14212614D01*
X14553633Y-14231662D01*
X14458395Y-14250709D01*
X14620300Y-14393567D02*
X14629824Y-14384043D01*
X14648871Y-14355471D01*
X14658395Y-14336424D01*
X14667919Y-14307852D01*
X14677443Y-14260233D01*
X14677443Y-14222138D01*
X14667919Y-14174519D01*
X14658395Y-14145948D01*
X14648871Y-14126900D01*
X14629824Y-14098328D01*
X14620300Y-14088805D01*
X14982205Y-14393567D02*
X14972681Y-14384043D01*
X14953633Y-14355471D01*
X14944109Y-14336424D01*
X14934586Y-14307852D01*
X14925062Y-14260233D01*
X14925062Y-14222138D01*
X14934586Y-14174519D01*
X14944109Y-14145948D01*
X14953633Y-14126900D01*
X14972681Y-14098328D01*
X14982205Y-14088805D01*
X15058395Y-14184043D02*
X15058395Y-14317376D01*
X15058395Y-14203090D02*
X15067919Y-14193567D01*
X15086967Y-14184043D01*
X15115538Y-14184043D01*
X15134586Y-14193567D01*
X15144109Y-14212614D01*
X15144109Y-14317376D01*
X15267919Y-14317376D02*
X15248871Y-14307852D01*
X15239348Y-14298328D01*
X15229824Y-14279281D01*
X15229824Y-14222138D01*
X15239348Y-14203090D01*
X15248871Y-14193567D01*
X15267919Y-14184043D01*
X15296490Y-14184043D01*
X15315538Y-14193567D01*
X15325062Y-14203090D01*
X15334586Y-14222138D01*
X15334586Y-14279281D01*
X15325062Y-14298328D01*
X15315538Y-14307852D01*
X15296490Y-14317376D01*
X15267919Y-14317376D01*
X15391728Y-14184043D02*
X15467919Y-14184043D01*
X15420300Y-14117376D02*
X15420300Y-14288805D01*
X15429824Y-14307852D01*
X15448871Y-14317376D01*
X15467919Y-14317376D01*
X15686967Y-14184043D02*
X15686967Y-14384043D01*
X15686967Y-14193567D02*
X15706014Y-14184043D01*
X15744109Y-14184043D01*
X15763157Y-14193567D01*
X15772681Y-14203090D01*
X15782205Y-14222138D01*
X15782205Y-14279281D01*
X15772681Y-14298328D01*
X15763157Y-14307852D01*
X15744109Y-14317376D01*
X15706014Y-14317376D01*
X15686967Y-14307852D01*
X15896490Y-14317376D02*
X15877443Y-14307852D01*
X15867919Y-14288805D01*
X15867919Y-14117376D01*
X16058395Y-14317376D02*
X16058395Y-14212614D01*
X16048871Y-14193567D01*
X16029824Y-14184043D01*
X15991728Y-14184043D01*
X15972681Y-14193567D01*
X16058395Y-14307852D02*
X16039348Y-14317376D01*
X15991728Y-14317376D01*
X15972681Y-14307852D01*
X15963157Y-14288805D01*
X15963157Y-14269757D01*
X15972681Y-14250709D01*
X15991728Y-14241186D01*
X16039348Y-14241186D01*
X16058395Y-14231662D01*
X16125062Y-14184043D02*
X16201252Y-14184043D01*
X16153633Y-14117376D02*
X16153633Y-14288805D01*
X16163157Y-14307852D01*
X16182205Y-14317376D01*
X16201252Y-14317376D01*
X16344109Y-14307852D02*
X16325062Y-14317376D01*
X16286967Y-14317376D01*
X16267919Y-14307852D01*
X16258395Y-14288805D01*
X16258395Y-14212614D01*
X16267919Y-14193567D01*
X16286967Y-14184043D01*
X16325062Y-14184043D01*
X16344109Y-14193567D01*
X16353633Y-14212614D01*
X16353633Y-14231662D01*
X16258395Y-14250709D01*
X16525062Y-14317376D02*
X16525062Y-14117376D01*
X16525062Y-14307852D02*
X16506014Y-14317376D01*
X16467919Y-14317376D01*
X16448871Y-14307852D01*
X16439348Y-14298328D01*
X16429824Y-14279281D01*
X16429824Y-14222138D01*
X16439348Y-14203090D01*
X16448871Y-14193567D01*
X16467919Y-14184043D01*
X16506014Y-14184043D01*
X16525062Y-14193567D01*
X16601252Y-14393567D02*
X16610776Y-14384043D01*
X16629824Y-14355471D01*
X16639348Y-14336424D01*
X16648871Y-14307852D01*
X16658395Y-14260233D01*
X16658395Y-14222138D01*
X16648871Y-14174519D01*
X16639348Y-14145948D01*
X16629824Y-14126900D01*
X16610776Y-14098328D01*
X16601252Y-14088805D01*
M02*
