%TF.GenerationSoftware,KiCad,Pcbnew,6.0.5-a6ca702e91~116~ubuntu20.04.1*%
%TF.CreationDate,2022-06-23T19:20:55+02:00*%
%TF.ProjectId,odb,6f64622e-6b69-4636-9164-5f7063625858,3*%
%TF.SameCoordinates,Original*%
%TF.FileFunction,Legend,Top*%
%TF.FilePolarity,Positive*%
%FSLAX46Y46*%
G04 Gerber Fmt 4.6, Leading zero omitted, Abs format (unit mm)*
G04 Created by KiCad (PCBNEW 6.0.5-a6ca702e91~116~ubuntu20.04.1) date 2022-06-23 19:20:55*
%MOMM*%
%LPD*%
G01*
G04 APERTURE LIST*
G04 Aperture macros list*
%AMRoundRect*
0 Rectangle with rounded corners*
0 $1 Rounding radius*
0 $2 $3 $4 $5 $6 $7 $8 $9 X,Y pos of 4 corners*
0 Add a 4 corners polygon primitive as box body*
4,1,4,$2,$3,$4,$5,$6,$7,$8,$9,$2,$3,0*
0 Add four circle primitives for the rounded corners*
1,1,$1+$1,$2,$3*
1,1,$1+$1,$4,$5*
1,1,$1+$1,$6,$7*
1,1,$1+$1,$8,$9*
0 Add four rect primitives between the rounded corners*
20,1,$1+$1,$2,$3,$4,$5,0*
20,1,$1+$1,$4,$5,$6,$7,0*
20,1,$1+$1,$6,$7,$8,$9,0*
20,1,$1+$1,$8,$9,$2,$3,0*%
G04 Aperture macros list end*
%ADD10C,0.150000*%
%ADD11C,0.120000*%
%ADD12RoundRect,0.250000X0.625000X-0.400000X0.625000X0.400000X-0.625000X0.400000X-0.625000X-0.400000X0*%
%ADD13C,1.879600*%
%ADD14R,2.600000X2.600000*%
%ADD15C,2.600000*%
%ADD16R,1.600000X1.600000*%
%ADD17C,1.600000*%
%ADD18RoundRect,0.050800X0.889000X-0.889000X0.889000X0.889000X-0.889000X0.889000X-0.889000X-0.889000X0*%
%ADD19C,1.300000*%
%ADD20RoundRect,0.250000X0.600000X0.600000X-0.600000X0.600000X-0.600000X-0.600000X0.600000X-0.600000X0*%
%ADD21C,1.700000*%
%ADD22RoundRect,0.050800X-0.889000X-0.889000X0.889000X-0.889000X0.889000X0.889000X-0.889000X0.889000X0*%
%ADD23C,2.032000*%
G04 APERTURE END LIST*
D10*
%TO.C,R1*%
X145952380Y-71286666D02*
X145476190Y-71620000D01*
X145952380Y-71858095D02*
X144952380Y-71858095D01*
X144952380Y-71477142D01*
X145000000Y-71381904D01*
X145047619Y-71334285D01*
X145142857Y-71286666D01*
X145285714Y-71286666D01*
X145380952Y-71334285D01*
X145428571Y-71381904D01*
X145476190Y-71477142D01*
X145476190Y-71858095D01*
X145952380Y-70334285D02*
X145952380Y-70905714D01*
X145952380Y-70620000D02*
X144952380Y-70620000D01*
X145095238Y-70715238D01*
X145190476Y-70810476D01*
X145238095Y-70905714D01*
D11*
X148230000Y-71847064D02*
X148230000Y-70392936D01*
X146410000Y-71847064D02*
X146410000Y-70392936D01*
%TD*%
%LPC*%
D12*
%TO.C,R1*%
X147320000Y-72670000D03*
X147320000Y-69570000D03*
%TD*%
D13*
%TO.C,SW1*%
X172752000Y-121319500D03*
X167672000Y-121319500D03*
%TD*%
%TO.C,SW2*%
X155035000Y-124365000D03*
X160115000Y-124365000D03*
%TD*%
D14*
%TO.C,J1*%
X190627000Y-121224500D03*
D15*
X185547000Y-121224500D03*
%TD*%
D13*
%TO.C,U4*%
X152400000Y-85644442D03*
X152400000Y-83104442D03*
X152400000Y-80564442D03*
X152400000Y-78024442D03*
X152400000Y-75484442D03*
X152400000Y-72944442D03*
X152400000Y-70404442D03*
X152400000Y-67864442D03*
X152400000Y-65324442D03*
%TD*%
D16*
%TO.C,U5*%
X144074067Y-65374442D03*
D17*
X144074067Y-67914442D03*
X144074067Y-70454442D03*
X144074067Y-72994442D03*
X144074067Y-75534442D03*
X144074067Y-78074442D03*
X144074067Y-80614442D03*
X144074067Y-83154442D03*
X144074067Y-85694442D03*
X144074067Y-88234442D03*
X144074067Y-90774442D03*
X144074067Y-93314442D03*
X144074067Y-95854442D03*
X144074067Y-98394442D03*
X144074067Y-100934442D03*
X144074067Y-103474442D03*
X144074067Y-106014442D03*
X144074067Y-108554442D03*
X144074067Y-111094442D03*
X144074067Y-113634442D03*
X144074067Y-116174442D03*
X144074067Y-118714442D03*
X144074067Y-121254442D03*
X144074067Y-123794442D03*
X141534067Y-111094442D03*
X138994067Y-111094442D03*
X136454067Y-111094442D03*
X133914067Y-111094442D03*
X131374067Y-111094442D03*
X128834067Y-123794442D03*
X128834067Y-121254442D03*
X128834067Y-118714442D03*
X128834067Y-116174442D03*
X128834067Y-113634442D03*
X128834067Y-111094442D03*
X128834067Y-108554442D03*
X128834067Y-106014442D03*
X128834067Y-103474442D03*
X128834067Y-100934442D03*
X128834067Y-98394442D03*
X128834067Y-95854442D03*
X128834067Y-93314442D03*
X128834067Y-90774442D03*
X128834067Y-88234442D03*
X128834067Y-85694442D03*
X128834067Y-83154442D03*
X128834067Y-80614442D03*
X128834067Y-78074442D03*
X128834067Y-75534442D03*
X128834067Y-72994442D03*
X128834067Y-70454442D03*
X128834067Y-67914442D03*
X128834067Y-65374442D03*
X131374067Y-67914442D03*
X131374067Y-72994442D03*
X131374067Y-75534442D03*
X131374067Y-78074442D03*
X141074067Y-71724442D03*
X141074067Y-74264442D03*
X141074067Y-76804442D03*
X141074067Y-79344442D03*
X141074067Y-81884442D03*
%TD*%
D18*
%TO.C,U1*%
X117007000Y-123764500D03*
D13*
X114427000Y-123764500D03*
X111887000Y-123764500D03*
X109347000Y-123764500D03*
X106807000Y-123764500D03*
X104267000Y-123764500D03*
%TD*%
D19*
%TO.C,J2*%
X118685094Y-86874500D03*
D20*
X117345094Y-80624500D03*
D21*
X117345094Y-83124500D03*
X117345094Y-85624500D03*
X117345094Y-88124500D03*
X117345094Y-90624500D03*
X117345094Y-93124500D03*
X117345094Y-95624500D03*
X114845094Y-80624500D03*
X114845094Y-83124500D03*
X114845094Y-85624500D03*
X114845094Y-88124500D03*
X114845094Y-90624500D03*
X114845094Y-93124500D03*
X114845094Y-95624500D03*
%TD*%
D22*
%TO.C,U3*%
X150368000Y-111064500D03*
D13*
X150368000Y-108524500D03*
X150368000Y-105984500D03*
X150368000Y-103444500D03*
X150368000Y-100904500D03*
X150368000Y-98364500D03*
X150368000Y-95824500D03*
%TD*%
D23*
%TO.C,U2*%
X174535094Y-94554500D03*
X177075094Y-112334500D03*
X177075094Y-94554500D03*
X179615094Y-112334500D03*
X179615094Y-94554500D03*
X182155094Y-112334500D03*
X182155094Y-94554500D03*
X184695094Y-112334500D03*
X184695094Y-94554500D03*
X187235094Y-94554500D03*
%TD*%
M02*
