%FSLAX45Y45*%
G04 Gerber Fmt 4.5, Leading zero omitted, Abs format (unit mm)*
G04 Created by KiCad (PCBNEW 6.0.5-a6ca702e91~116~ubuntu20.04.1) date 2022-06-23 19:21:57*
%MOMM*%
%LPD*%
G01*
G04 APERTURE LIST*
%TA.AperFunction,Profile*%
%ADD10C,0.200000*%
%TD*%
%ADD11C,0.200000*%
%ADD12C,0.100000*%
%ADD13C,0.110000*%
%ADD14C,0.120000*%
%ADD15C,0.130000*%
G04 APERTURE END LIST*
D10*
X10020300Y-5676900D02*
X19824700Y-5676900D01*
X19824700Y-5676900D02*
X19824700Y-13576900D01*
X19824700Y-13576900D02*
X10020300Y-13576900D01*
X10020300Y-13576900D02*
X10020300Y-5676900D01*
D11*
D12*
X10376700Y-12326450D02*
X10476700Y-12426450D01*
X10476700Y-12326450D02*
X10376700Y-12426450D01*
X10630700Y-12326450D02*
X10730700Y-12426450D01*
X10730700Y-12326450D02*
X10630700Y-12426450D01*
X10884700Y-12326450D02*
X10984700Y-12426450D01*
X10984700Y-12326450D02*
X10884700Y-12426450D01*
X11138700Y-12326450D02*
X11238700Y-12426450D01*
X11238700Y-12326450D02*
X11138700Y-12426450D01*
X11392700Y-12326450D02*
X11492700Y-12426450D01*
X11492700Y-12326450D02*
X11392700Y-12426450D01*
X11650700Y-12326450D02*
X11750700Y-12426450D01*
X11750700Y-12326450D02*
X11650700Y-12426450D01*
X14986800Y-9532450D02*
X15086800Y-9632450D01*
X15086800Y-9532450D02*
X14986800Y-9632450D01*
X14986800Y-9786450D02*
X15086800Y-9886450D01*
X15086800Y-9786450D02*
X14986800Y-9886450D01*
X14986800Y-10040450D02*
X15086800Y-10140450D01*
X15086800Y-10040450D02*
X14986800Y-10140450D01*
X14986800Y-10294450D02*
X15086800Y-10394450D01*
X15086800Y-10294450D02*
X14986800Y-10394450D01*
X14986800Y-10548450D02*
X15086800Y-10648450D01*
X15086800Y-10548450D02*
X14986800Y-10648450D01*
X14986800Y-10802450D02*
X15086800Y-10902450D01*
X15086800Y-10802450D02*
X14986800Y-10902450D01*
X14986800Y-11056450D02*
X15086800Y-11156450D01*
X15086800Y-11056450D02*
X14986800Y-11156450D01*
X15190000Y-6482444D02*
X15290000Y-6582444D01*
X15290000Y-6482444D02*
X15190000Y-6582444D01*
X15190000Y-6736444D02*
X15290000Y-6836444D01*
X15290000Y-6736444D02*
X15190000Y-6836444D01*
X15190000Y-6990444D02*
X15290000Y-7090444D01*
X15290000Y-6990444D02*
X15190000Y-7090444D01*
X15190000Y-7244444D02*
X15290000Y-7344444D01*
X15290000Y-7244444D02*
X15190000Y-7344444D01*
X15190000Y-7498444D02*
X15290000Y-7598444D01*
X15290000Y-7498444D02*
X15190000Y-7598444D01*
X15190000Y-7752444D02*
X15290000Y-7852444D01*
X15290000Y-7752444D02*
X15190000Y-7852444D01*
X15190000Y-8006444D02*
X15290000Y-8106444D01*
X15290000Y-8006444D02*
X15190000Y-8106444D01*
X15190000Y-8260444D02*
X15290000Y-8360444D01*
X15290000Y-8260444D02*
X15190000Y-8360444D01*
X15190000Y-8514444D02*
X15290000Y-8614444D01*
X15290000Y-8514444D02*
X15190000Y-8614444D01*
X15453500Y-12386500D02*
X15553500Y-12486500D01*
X15553500Y-12386500D02*
X15453500Y-12486500D01*
X15961500Y-12386500D02*
X16061500Y-12486500D01*
X16061500Y-12386500D02*
X15961500Y-12486500D01*
X16717200Y-12081950D02*
X16817200Y-12181950D01*
X16817200Y-12081950D02*
X16717200Y-12181950D01*
X17225200Y-12081950D02*
X17325200Y-12181950D01*
X17325200Y-12081950D02*
X17225200Y-12181950D01*
X17403509Y-9405450D02*
X17503509Y-9505450D01*
X17503509Y-9405450D02*
X17403509Y-9505450D01*
X17657509Y-9405450D02*
X17757509Y-9505450D01*
X17757509Y-9405450D02*
X17657509Y-9505450D01*
X17657509Y-11183450D02*
X17757509Y-11283450D01*
X17757509Y-11183450D02*
X17657509Y-11283450D01*
X17911509Y-9405450D02*
X18011509Y-9505450D01*
X18011509Y-9405450D02*
X17911509Y-9505450D01*
X17911509Y-11183450D02*
X18011509Y-11283450D01*
X18011509Y-11183450D02*
X17911509Y-11283450D01*
X18165509Y-9405450D02*
X18265509Y-9505450D01*
X18265509Y-9405450D02*
X18165509Y-9505450D01*
X18165509Y-11183450D02*
X18265509Y-11283450D01*
X18265509Y-11183450D02*
X18165509Y-11283450D01*
X18419509Y-9405450D02*
X18519509Y-9505450D01*
X18519509Y-9405450D02*
X18419509Y-9505450D01*
X18419509Y-11183450D02*
X18519509Y-11283450D01*
X18519509Y-11183450D02*
X18419509Y-11283450D01*
X18673509Y-9405450D02*
X18773509Y-9505450D01*
X18773509Y-9405450D02*
X18673509Y-9505450D01*
D13*
X12938407Y-6537444D02*
G75*
G03*
X12938407Y-6537444I-55000J0D01*
G01*
X12938407Y-6791444D02*
G75*
G03*
X12938407Y-6791444I-55000J0D01*
G01*
X12938407Y-7045444D02*
G75*
G03*
X12938407Y-7045444I-55000J0D01*
G01*
X12938407Y-7299444D02*
G75*
G03*
X12938407Y-7299444I-55000J0D01*
G01*
X12938407Y-7553444D02*
G75*
G03*
X12938407Y-7553444I-55000J0D01*
G01*
X12938407Y-7807444D02*
G75*
G03*
X12938407Y-7807444I-55000J0D01*
G01*
X12938407Y-8061444D02*
G75*
G03*
X12938407Y-8061444I-55000J0D01*
G01*
X12938407Y-8315444D02*
G75*
G03*
X12938407Y-8315444I-55000J0D01*
G01*
X12938407Y-8569444D02*
G75*
G03*
X12938407Y-8569444I-55000J0D01*
G01*
X12938407Y-8823444D02*
G75*
G03*
X12938407Y-8823444I-55000J0D01*
G01*
X12938407Y-9077444D02*
G75*
G03*
X12938407Y-9077444I-55000J0D01*
G01*
X12938407Y-9331444D02*
G75*
G03*
X12938407Y-9331444I-55000J0D01*
G01*
X12938407Y-9585444D02*
G75*
G03*
X12938407Y-9585444I-55000J0D01*
G01*
X12938407Y-9839444D02*
G75*
G03*
X12938407Y-9839444I-55000J0D01*
G01*
X12938407Y-10093444D02*
G75*
G03*
X12938407Y-10093444I-55000J0D01*
G01*
X12938407Y-10347444D02*
G75*
G03*
X12938407Y-10347444I-55000J0D01*
G01*
X12938407Y-10601444D02*
G75*
G03*
X12938407Y-10601444I-55000J0D01*
G01*
X12938407Y-10855444D02*
G75*
G03*
X12938407Y-10855444I-55000J0D01*
G01*
X12938407Y-11109444D02*
G75*
G03*
X12938407Y-11109444I-55000J0D01*
G01*
X12938407Y-11363444D02*
G75*
G03*
X12938407Y-11363444I-55000J0D01*
G01*
X12938407Y-11617444D02*
G75*
G03*
X12938407Y-11617444I-55000J0D01*
G01*
X12938407Y-11871444D02*
G75*
G03*
X12938407Y-11871444I-55000J0D01*
G01*
X12938407Y-12125444D02*
G75*
G03*
X12938407Y-12125444I-55000J0D01*
G01*
X12938407Y-12379444D02*
G75*
G03*
X12938407Y-12379444I-55000J0D01*
G01*
X13192407Y-6791444D02*
G75*
G03*
X13192407Y-6791444I-55000J0D01*
G01*
X13192407Y-7299444D02*
G75*
G03*
X13192407Y-7299444I-55000J0D01*
G01*
X13192407Y-7553444D02*
G75*
G03*
X13192407Y-7553444I-55000J0D01*
G01*
X13192407Y-7807444D02*
G75*
G03*
X13192407Y-7807444I-55000J0D01*
G01*
X13192407Y-11109444D02*
G75*
G03*
X13192407Y-11109444I-55000J0D01*
G01*
X13446407Y-11109444D02*
G75*
G03*
X13446407Y-11109444I-55000J0D01*
G01*
X13700407Y-11109444D02*
G75*
G03*
X13700407Y-11109444I-55000J0D01*
G01*
X13954407Y-11109444D02*
G75*
G03*
X13954407Y-11109444I-55000J0D01*
G01*
X14162407Y-7172444D02*
G75*
G03*
X14162407Y-7172444I-55000J0D01*
G01*
X14162407Y-7426444D02*
G75*
G03*
X14162407Y-7426444I-55000J0D01*
G01*
X14162407Y-7680444D02*
G75*
G03*
X14162407Y-7680444I-55000J0D01*
G01*
X14162407Y-7934444D02*
G75*
G03*
X14162407Y-7934444I-55000J0D01*
G01*
X14162407Y-8188444D02*
G75*
G03*
X14162407Y-8188444I-55000J0D01*
G01*
X14208407Y-11109444D02*
G75*
G03*
X14208407Y-11109444I-55000J0D01*
G01*
X14462407Y-6537444D02*
G75*
G03*
X14462407Y-6537444I-55000J0D01*
G01*
X14462407Y-6791444D02*
G75*
G03*
X14462407Y-6791444I-55000J0D01*
G01*
X14462407Y-7045444D02*
G75*
G03*
X14462407Y-7045444I-55000J0D01*
G01*
X14462407Y-7299444D02*
G75*
G03*
X14462407Y-7299444I-55000J0D01*
G01*
X14462407Y-7553444D02*
G75*
G03*
X14462407Y-7553444I-55000J0D01*
G01*
X14462407Y-7807444D02*
G75*
G03*
X14462407Y-7807444I-55000J0D01*
G01*
X14462407Y-8061444D02*
G75*
G03*
X14462407Y-8061444I-55000J0D01*
G01*
X14462407Y-8315444D02*
G75*
G03*
X14462407Y-8315444I-55000J0D01*
G01*
X14462407Y-8569444D02*
G75*
G03*
X14462407Y-8569444I-55000J0D01*
G01*
X14462407Y-8823444D02*
G75*
G03*
X14462407Y-8823444I-55000J0D01*
G01*
X14462407Y-9077444D02*
G75*
G03*
X14462407Y-9077444I-55000J0D01*
G01*
X14462407Y-9331444D02*
G75*
G03*
X14462407Y-9331444I-55000J0D01*
G01*
X14462407Y-9585444D02*
G75*
G03*
X14462407Y-9585444I-55000J0D01*
G01*
X14462407Y-9839444D02*
G75*
G03*
X14462407Y-9839444I-55000J0D01*
G01*
X14462407Y-10093444D02*
G75*
G03*
X14462407Y-10093444I-55000J0D01*
G01*
X14462407Y-10347444D02*
G75*
G03*
X14462407Y-10347444I-55000J0D01*
G01*
X14462407Y-10601444D02*
G75*
G03*
X14462407Y-10601444I-55000J0D01*
G01*
X14462407Y-10855444D02*
G75*
G03*
X14462407Y-10855444I-55000J0D01*
G01*
X14462407Y-11109444D02*
G75*
G03*
X14462407Y-11109444I-55000J0D01*
G01*
X14462407Y-11363444D02*
G75*
G03*
X14462407Y-11363444I-55000J0D01*
G01*
X14462407Y-11617444D02*
G75*
G03*
X14462407Y-11617444I-55000J0D01*
G01*
X14462407Y-11871444D02*
G75*
G03*
X14462407Y-11871444I-55000J0D01*
G01*
X14462407Y-12125444D02*
G75*
G03*
X14462407Y-12125444I-55000J0D01*
G01*
X14462407Y-12379444D02*
G75*
G03*
X14462407Y-12379444I-55000J0D01*
G01*
D14*
X11484509Y-8002450D02*
X11484509Y-8122450D01*
X11424509Y-8062450D02*
X11544509Y-8062450D01*
X11484509Y-8252450D02*
X11484509Y-8372450D01*
X11424509Y-8312450D02*
X11544509Y-8312450D01*
X11484509Y-8502450D02*
X11484509Y-8622450D01*
X11424509Y-8562450D02*
X11544509Y-8562450D01*
X11484509Y-8752450D02*
X11484509Y-8872450D01*
X11424509Y-8812450D02*
X11544509Y-8812450D01*
X11484509Y-9002450D02*
X11484509Y-9122450D01*
X11424509Y-9062450D02*
X11544509Y-9062450D01*
X11484509Y-9252450D02*
X11484509Y-9372450D01*
X11424509Y-9312450D02*
X11544509Y-9312450D01*
X11484509Y-9502450D02*
X11484509Y-9622450D01*
X11424509Y-9562450D02*
X11544509Y-9562450D01*
X11734509Y-8002450D02*
X11734509Y-8122450D01*
X11674509Y-8062450D02*
X11794509Y-8062450D01*
X11734509Y-8252450D02*
X11734509Y-8372450D01*
X11674509Y-8312450D02*
X11794509Y-8312450D01*
X11734509Y-8502450D02*
X11734509Y-8622450D01*
X11674509Y-8562450D02*
X11794509Y-8562450D01*
X11734509Y-8752450D02*
X11734509Y-8872450D01*
X11674509Y-8812450D02*
X11794509Y-8812450D01*
X11734509Y-9002450D02*
X11734509Y-9122450D01*
X11674509Y-9062450D02*
X11794509Y-9062450D01*
X11734509Y-9252450D02*
X11734509Y-9372450D01*
X11674509Y-9312450D02*
X11794509Y-9312450D01*
X11734509Y-9502450D02*
X11734509Y-9622450D01*
X11674509Y-9562450D02*
X11794509Y-9562450D01*
D15*
X18600662Y-12168412D02*
X18600662Y-12076488D01*
X18508738Y-12076488D01*
X18508738Y-12168412D01*
X18600662Y-12168412D01*
X19108662Y-12168412D02*
X19108662Y-12076488D01*
X19016738Y-12076488D01*
X19016738Y-12168412D01*
X19108662Y-12168412D01*
D11*
X10267919Y-13897376D02*
X10267919Y-13697376D01*
X10315538Y-13697376D01*
X10344110Y-13706900D01*
X10363157Y-13725948D01*
X10372681Y-13744995D01*
X10382205Y-13783090D01*
X10382205Y-13811662D01*
X10372681Y-13849757D01*
X10363157Y-13868805D01*
X10344110Y-13887852D01*
X10315538Y-13897376D01*
X10267919Y-13897376D01*
X10467919Y-13897376D02*
X10467919Y-13764043D01*
X10467919Y-13802138D02*
X10477443Y-13783090D01*
X10486967Y-13773567D01*
X10506014Y-13764043D01*
X10525062Y-13764043D01*
X10591729Y-13897376D02*
X10591729Y-13764043D01*
X10591729Y-13697376D02*
X10582205Y-13706900D01*
X10591729Y-13716424D01*
X10601252Y-13706900D01*
X10591729Y-13697376D01*
X10591729Y-13716424D01*
X10715538Y-13897376D02*
X10696490Y-13887852D01*
X10686967Y-13868805D01*
X10686967Y-13697376D01*
X10820300Y-13897376D02*
X10801252Y-13887852D01*
X10791729Y-13868805D01*
X10791729Y-13697376D01*
X11048871Y-13897376D02*
X11048871Y-13697376D01*
X11115538Y-13840233D01*
X11182205Y-13697376D01*
X11182205Y-13897376D01*
X11363157Y-13897376D02*
X11363157Y-13792614D01*
X11353633Y-13773567D01*
X11334586Y-13764043D01*
X11296490Y-13764043D01*
X11277443Y-13773567D01*
X11363157Y-13887852D02*
X11344109Y-13897376D01*
X11296490Y-13897376D01*
X11277443Y-13887852D01*
X11267919Y-13868805D01*
X11267919Y-13849757D01*
X11277443Y-13830709D01*
X11296490Y-13821186D01*
X11344109Y-13821186D01*
X11363157Y-13811662D01*
X11458395Y-13764043D02*
X11458395Y-13964043D01*
X11458395Y-13773567D02*
X11477443Y-13764043D01*
X11515538Y-13764043D01*
X11534586Y-13773567D01*
X11544109Y-13783090D01*
X11553633Y-13802138D01*
X11553633Y-13859281D01*
X11544109Y-13878328D01*
X11534586Y-13887852D01*
X11515538Y-13897376D01*
X11477443Y-13897376D01*
X11458395Y-13887852D01*
X11639348Y-13878328D02*
X11648871Y-13887852D01*
X11639348Y-13897376D01*
X11629824Y-13887852D01*
X11639348Y-13878328D01*
X11639348Y-13897376D01*
X11639348Y-13773567D02*
X11648871Y-13783090D01*
X11639348Y-13792614D01*
X11629824Y-13783090D01*
X11639348Y-13773567D01*
X11639348Y-13792614D01*
D12*
X9910300Y-14176900D02*
X10010300Y-14276900D01*
X10010300Y-14176900D02*
X9910300Y-14276900D01*
D11*
X10372681Y-14317376D02*
X10258395Y-14317376D01*
X10315538Y-14317376D02*
X10315538Y-14117376D01*
X10296490Y-14145948D01*
X10277443Y-14164995D01*
X10258395Y-14174519D01*
X10458395Y-14298328D02*
X10467919Y-14307852D01*
X10458395Y-14317376D01*
X10448871Y-14307852D01*
X10458395Y-14298328D01*
X10458395Y-14317376D01*
X10591729Y-14117376D02*
X10610776Y-14117376D01*
X10629824Y-14126900D01*
X10639348Y-14136424D01*
X10648871Y-14155471D01*
X10658395Y-14193567D01*
X10658395Y-14241186D01*
X10648871Y-14279281D01*
X10639348Y-14298328D01*
X10629824Y-14307852D01*
X10610776Y-14317376D01*
X10591729Y-14317376D01*
X10572681Y-14307852D01*
X10563157Y-14298328D01*
X10553633Y-14279281D01*
X10544110Y-14241186D01*
X10544110Y-14193567D01*
X10553633Y-14155471D01*
X10563157Y-14136424D01*
X10572681Y-14126900D01*
X10591729Y-14117376D01*
X10782205Y-14117376D02*
X10801252Y-14117376D01*
X10820300Y-14126900D01*
X10829824Y-14136424D01*
X10839348Y-14155471D01*
X10848871Y-14193567D01*
X10848871Y-14241186D01*
X10839348Y-14279281D01*
X10829824Y-14298328D01*
X10820300Y-14307852D01*
X10801252Y-14317376D01*
X10782205Y-14317376D01*
X10763157Y-14307852D01*
X10753633Y-14298328D01*
X10744110Y-14279281D01*
X10734586Y-14241186D01*
X10734586Y-14193567D01*
X10744110Y-14155471D01*
X10753633Y-14136424D01*
X10763157Y-14126900D01*
X10782205Y-14117376D01*
X10972681Y-14117376D02*
X10991729Y-14117376D01*
X11010776Y-14126900D01*
X11020300Y-14136424D01*
X11029824Y-14155471D01*
X11039348Y-14193567D01*
X11039348Y-14241186D01*
X11029824Y-14279281D01*
X11020300Y-14298328D01*
X11010776Y-14307852D01*
X10991729Y-14317376D01*
X10972681Y-14317376D01*
X10953633Y-14307852D01*
X10944110Y-14298328D01*
X10934586Y-14279281D01*
X10925062Y-14241186D01*
X10925062Y-14193567D01*
X10934586Y-14155471D01*
X10944110Y-14136424D01*
X10953633Y-14126900D01*
X10972681Y-14117376D01*
X11125062Y-14317376D02*
X11125062Y-14184043D01*
X11125062Y-14203090D02*
X11134586Y-14193567D01*
X11153633Y-14184043D01*
X11182205Y-14184043D01*
X11201252Y-14193567D01*
X11210776Y-14212614D01*
X11210776Y-14317376D01*
X11210776Y-14212614D02*
X11220300Y-14193567D01*
X11239348Y-14184043D01*
X11267919Y-14184043D01*
X11286967Y-14193567D01*
X11296490Y-14212614D01*
X11296490Y-14317376D01*
X11391728Y-14317376D02*
X11391728Y-14184043D01*
X11391728Y-14203090D02*
X11401252Y-14193567D01*
X11420300Y-14184043D01*
X11448871Y-14184043D01*
X11467919Y-14193567D01*
X11477443Y-14212614D01*
X11477443Y-14317376D01*
X11477443Y-14212614D02*
X11486967Y-14193567D01*
X11506014Y-14184043D01*
X11534586Y-14184043D01*
X11553633Y-14193567D01*
X11563157Y-14212614D01*
X11563157Y-14317376D01*
X11953633Y-14107852D02*
X11782205Y-14364995D01*
X12210776Y-14117376D02*
X12229824Y-14117376D01*
X12248871Y-14126900D01*
X12258395Y-14136424D01*
X12267919Y-14155471D01*
X12277443Y-14193567D01*
X12277443Y-14241186D01*
X12267919Y-14279281D01*
X12258395Y-14298328D01*
X12248871Y-14307852D01*
X12229824Y-14317376D01*
X12210776Y-14317376D01*
X12191728Y-14307852D01*
X12182205Y-14298328D01*
X12172681Y-14279281D01*
X12163157Y-14241186D01*
X12163157Y-14193567D01*
X12172681Y-14155471D01*
X12182205Y-14136424D01*
X12191728Y-14126900D01*
X12210776Y-14117376D01*
X12363157Y-14298328D02*
X12372681Y-14307852D01*
X12363157Y-14317376D01*
X12353633Y-14307852D01*
X12363157Y-14298328D01*
X12363157Y-14317376D01*
X12496490Y-14117376D02*
X12515538Y-14117376D01*
X12534586Y-14126900D01*
X12544109Y-14136424D01*
X12553633Y-14155471D01*
X12563157Y-14193567D01*
X12563157Y-14241186D01*
X12553633Y-14279281D01*
X12544109Y-14298328D01*
X12534586Y-14307852D01*
X12515538Y-14317376D01*
X12496490Y-14317376D01*
X12477443Y-14307852D01*
X12467919Y-14298328D01*
X12458395Y-14279281D01*
X12448871Y-14241186D01*
X12448871Y-14193567D01*
X12458395Y-14155471D01*
X12467919Y-14136424D01*
X12477443Y-14126900D01*
X12496490Y-14117376D01*
X12629824Y-14117376D02*
X12753633Y-14117376D01*
X12686967Y-14193567D01*
X12715538Y-14193567D01*
X12734586Y-14203090D01*
X12744109Y-14212614D01*
X12753633Y-14231662D01*
X12753633Y-14279281D01*
X12744109Y-14298328D01*
X12734586Y-14307852D01*
X12715538Y-14317376D01*
X12658395Y-14317376D01*
X12639348Y-14307852D01*
X12629824Y-14298328D01*
X12848871Y-14317376D02*
X12886967Y-14317376D01*
X12906014Y-14307852D01*
X12915538Y-14298328D01*
X12934586Y-14269757D01*
X12944109Y-14231662D01*
X12944109Y-14155471D01*
X12934586Y-14136424D01*
X12925062Y-14126900D01*
X12906014Y-14117376D01*
X12867919Y-14117376D01*
X12848871Y-14126900D01*
X12839348Y-14136424D01*
X12829824Y-14155471D01*
X12829824Y-14203090D01*
X12839348Y-14222138D01*
X12848871Y-14231662D01*
X12867919Y-14241186D01*
X12906014Y-14241186D01*
X12925062Y-14231662D01*
X12934586Y-14222138D01*
X12944109Y-14203090D01*
X13115538Y-14184043D02*
X13115538Y-14317376D01*
X13067919Y-14107852D02*
X13020300Y-14250709D01*
X13144109Y-14250709D01*
X13210776Y-14117376D02*
X13210776Y-14155471D01*
X13286967Y-14117376D02*
X13286967Y-14155471D01*
X13582205Y-14393567D02*
X13572681Y-14384043D01*
X13553633Y-14355471D01*
X13544109Y-14336424D01*
X13534586Y-14307852D01*
X13525062Y-14260233D01*
X13525062Y-14222138D01*
X13534586Y-14174519D01*
X13544109Y-14145948D01*
X13553633Y-14126900D01*
X13572681Y-14098328D01*
X13582205Y-14088805D01*
X13639348Y-14117376D02*
X13763157Y-14117376D01*
X13696490Y-14193567D01*
X13725062Y-14193567D01*
X13744109Y-14203090D01*
X13753633Y-14212614D01*
X13763157Y-14231662D01*
X13763157Y-14279281D01*
X13753633Y-14298328D01*
X13744109Y-14307852D01*
X13725062Y-14317376D01*
X13667919Y-14317376D01*
X13648871Y-14307852D01*
X13639348Y-14298328D01*
X13934586Y-14117376D02*
X13896490Y-14117376D01*
X13877443Y-14126900D01*
X13867919Y-14136424D01*
X13848871Y-14164995D01*
X13839348Y-14203090D01*
X13839348Y-14279281D01*
X13848871Y-14298328D01*
X13858395Y-14307852D01*
X13877443Y-14317376D01*
X13915538Y-14317376D01*
X13934586Y-14307852D01*
X13944109Y-14298328D01*
X13953633Y-14279281D01*
X13953633Y-14231662D01*
X13944109Y-14212614D01*
X13934586Y-14203090D01*
X13915538Y-14193567D01*
X13877443Y-14193567D01*
X13858395Y-14203090D01*
X13848871Y-14212614D01*
X13839348Y-14231662D01*
X14191728Y-14317376D02*
X14191728Y-14117376D01*
X14277443Y-14317376D02*
X14277443Y-14212614D01*
X14267919Y-14193567D01*
X14248871Y-14184043D01*
X14220300Y-14184043D01*
X14201252Y-14193567D01*
X14191728Y-14203090D01*
X14401252Y-14317376D02*
X14382205Y-14307852D01*
X14372681Y-14298328D01*
X14363157Y-14279281D01*
X14363157Y-14222138D01*
X14372681Y-14203090D01*
X14382205Y-14193567D01*
X14401252Y-14184043D01*
X14429824Y-14184043D01*
X14448871Y-14193567D01*
X14458395Y-14203090D01*
X14467919Y-14222138D01*
X14467919Y-14279281D01*
X14458395Y-14298328D01*
X14448871Y-14307852D01*
X14429824Y-14317376D01*
X14401252Y-14317376D01*
X14582205Y-14317376D02*
X14563157Y-14307852D01*
X14553633Y-14288805D01*
X14553633Y-14117376D01*
X14734586Y-14307852D02*
X14715538Y-14317376D01*
X14677443Y-14317376D01*
X14658395Y-14307852D01*
X14648871Y-14288805D01*
X14648871Y-14212614D01*
X14658395Y-14193567D01*
X14677443Y-14184043D01*
X14715538Y-14184043D01*
X14734586Y-14193567D01*
X14744109Y-14212614D01*
X14744109Y-14231662D01*
X14648871Y-14250709D01*
X14820300Y-14307852D02*
X14839348Y-14317376D01*
X14877443Y-14317376D01*
X14896490Y-14307852D01*
X14906014Y-14288805D01*
X14906014Y-14279281D01*
X14896490Y-14260233D01*
X14877443Y-14250709D01*
X14848871Y-14250709D01*
X14829824Y-14241186D01*
X14820300Y-14222138D01*
X14820300Y-14212614D01*
X14829824Y-14193567D01*
X14848871Y-14184043D01*
X14877443Y-14184043D01*
X14896490Y-14193567D01*
X14972681Y-14393567D02*
X14982205Y-14384043D01*
X15001252Y-14355471D01*
X15010776Y-14336424D01*
X15020300Y-14307852D01*
X15029824Y-14260233D01*
X15029824Y-14222138D01*
X15020300Y-14174519D01*
X15010776Y-14145948D01*
X15001252Y-14126900D01*
X14982205Y-14098328D01*
X14972681Y-14088805D01*
D13*
X10010300Y-14490900D02*
G75*
G03*
X10010300Y-14490900I-55000J0D01*
G01*
D11*
X10372681Y-14581376D02*
X10258395Y-14581376D01*
X10315538Y-14581376D02*
X10315538Y-14381376D01*
X10296490Y-14409948D01*
X10277443Y-14428995D01*
X10258395Y-14438519D01*
X10458395Y-14562328D02*
X10467919Y-14571852D01*
X10458395Y-14581376D01*
X10448871Y-14571852D01*
X10458395Y-14562328D01*
X10458395Y-14581376D01*
X10658395Y-14581376D02*
X10544110Y-14581376D01*
X10601252Y-14581376D02*
X10601252Y-14381376D01*
X10582205Y-14409948D01*
X10563157Y-14428995D01*
X10544110Y-14438519D01*
X10782205Y-14381376D02*
X10801252Y-14381376D01*
X10820300Y-14390900D01*
X10829824Y-14400424D01*
X10839348Y-14419471D01*
X10848871Y-14457567D01*
X10848871Y-14505186D01*
X10839348Y-14543281D01*
X10829824Y-14562328D01*
X10820300Y-14571852D01*
X10801252Y-14581376D01*
X10782205Y-14581376D01*
X10763157Y-14571852D01*
X10753633Y-14562328D01*
X10744110Y-14543281D01*
X10734586Y-14505186D01*
X10734586Y-14457567D01*
X10744110Y-14419471D01*
X10753633Y-14400424D01*
X10763157Y-14390900D01*
X10782205Y-14381376D01*
X10972681Y-14381376D02*
X10991729Y-14381376D01*
X11010776Y-14390900D01*
X11020300Y-14400424D01*
X11029824Y-14419471D01*
X11039348Y-14457567D01*
X11039348Y-14505186D01*
X11029824Y-14543281D01*
X11020300Y-14562328D01*
X11010776Y-14571852D01*
X10991729Y-14581376D01*
X10972681Y-14581376D01*
X10953633Y-14571852D01*
X10944110Y-14562328D01*
X10934586Y-14543281D01*
X10925062Y-14505186D01*
X10925062Y-14457567D01*
X10934586Y-14419471D01*
X10944110Y-14400424D01*
X10953633Y-14390900D01*
X10972681Y-14381376D01*
X11125062Y-14581376D02*
X11125062Y-14448043D01*
X11125062Y-14467090D02*
X11134586Y-14457567D01*
X11153633Y-14448043D01*
X11182205Y-14448043D01*
X11201252Y-14457567D01*
X11210776Y-14476614D01*
X11210776Y-14581376D01*
X11210776Y-14476614D02*
X11220300Y-14457567D01*
X11239348Y-14448043D01*
X11267919Y-14448043D01*
X11286967Y-14457567D01*
X11296490Y-14476614D01*
X11296490Y-14581376D01*
X11391728Y-14581376D02*
X11391728Y-14448043D01*
X11391728Y-14467090D02*
X11401252Y-14457567D01*
X11420300Y-14448043D01*
X11448871Y-14448043D01*
X11467919Y-14457567D01*
X11477443Y-14476614D01*
X11477443Y-14581376D01*
X11477443Y-14476614D02*
X11486967Y-14457567D01*
X11506014Y-14448043D01*
X11534586Y-14448043D01*
X11553633Y-14457567D01*
X11563157Y-14476614D01*
X11563157Y-14581376D01*
X11953633Y-14371852D02*
X11782205Y-14628995D01*
X12210776Y-14381376D02*
X12229824Y-14381376D01*
X12248871Y-14390900D01*
X12258395Y-14400424D01*
X12267919Y-14419471D01*
X12277443Y-14457567D01*
X12277443Y-14505186D01*
X12267919Y-14543281D01*
X12258395Y-14562328D01*
X12248871Y-14571852D01*
X12229824Y-14581376D01*
X12210776Y-14581376D01*
X12191728Y-14571852D01*
X12182205Y-14562328D01*
X12172681Y-14543281D01*
X12163157Y-14505186D01*
X12163157Y-14457567D01*
X12172681Y-14419471D01*
X12182205Y-14400424D01*
X12191728Y-14390900D01*
X12210776Y-14381376D01*
X12363157Y-14562328D02*
X12372681Y-14571852D01*
X12363157Y-14581376D01*
X12353633Y-14571852D01*
X12363157Y-14562328D01*
X12363157Y-14581376D01*
X12496490Y-14381376D02*
X12515538Y-14381376D01*
X12534586Y-14390900D01*
X12544109Y-14400424D01*
X12553633Y-14419471D01*
X12563157Y-14457567D01*
X12563157Y-14505186D01*
X12553633Y-14543281D01*
X12544109Y-14562328D01*
X12534586Y-14571852D01*
X12515538Y-14581376D01*
X12496490Y-14581376D01*
X12477443Y-14571852D01*
X12467919Y-14562328D01*
X12458395Y-14543281D01*
X12448871Y-14505186D01*
X12448871Y-14457567D01*
X12458395Y-14419471D01*
X12467919Y-14400424D01*
X12477443Y-14390900D01*
X12496490Y-14381376D01*
X12734586Y-14448043D02*
X12734586Y-14581376D01*
X12686967Y-14371852D02*
X12639348Y-14514709D01*
X12763157Y-14514709D01*
X12820300Y-14381376D02*
X12944109Y-14381376D01*
X12877443Y-14457567D01*
X12906014Y-14457567D01*
X12925062Y-14467090D01*
X12934586Y-14476614D01*
X12944109Y-14495662D01*
X12944109Y-14543281D01*
X12934586Y-14562328D01*
X12925062Y-14571852D01*
X12906014Y-14581376D01*
X12848871Y-14581376D01*
X12829824Y-14571852D01*
X12820300Y-14562328D01*
X13010776Y-14381376D02*
X13134586Y-14381376D01*
X13067919Y-14457567D01*
X13096490Y-14457567D01*
X13115538Y-14467090D01*
X13125062Y-14476614D01*
X13134586Y-14495662D01*
X13134586Y-14543281D01*
X13125062Y-14562328D01*
X13115538Y-14571852D01*
X13096490Y-14581376D01*
X13039348Y-14581376D01*
X13020300Y-14571852D01*
X13010776Y-14562328D01*
X13210776Y-14381376D02*
X13210776Y-14419471D01*
X13286967Y-14381376D02*
X13286967Y-14419471D01*
X13582205Y-14657567D02*
X13572681Y-14648043D01*
X13553633Y-14619471D01*
X13544109Y-14600424D01*
X13534586Y-14571852D01*
X13525062Y-14524233D01*
X13525062Y-14486138D01*
X13534586Y-14438519D01*
X13544109Y-14409948D01*
X13553633Y-14390900D01*
X13572681Y-14362328D01*
X13582205Y-14352805D01*
X13744109Y-14381376D02*
X13706014Y-14381376D01*
X13686967Y-14390900D01*
X13677443Y-14400424D01*
X13658395Y-14428995D01*
X13648871Y-14467090D01*
X13648871Y-14543281D01*
X13658395Y-14562328D01*
X13667919Y-14571852D01*
X13686967Y-14581376D01*
X13725062Y-14581376D01*
X13744109Y-14571852D01*
X13753633Y-14562328D01*
X13763157Y-14543281D01*
X13763157Y-14495662D01*
X13753633Y-14476614D01*
X13744109Y-14467090D01*
X13725062Y-14457567D01*
X13686967Y-14457567D01*
X13667919Y-14467090D01*
X13658395Y-14476614D01*
X13648871Y-14495662D01*
X13839348Y-14400424D02*
X13848871Y-14390900D01*
X13867919Y-14381376D01*
X13915538Y-14381376D01*
X13934586Y-14390900D01*
X13944109Y-14400424D01*
X13953633Y-14419471D01*
X13953633Y-14438519D01*
X13944109Y-14467090D01*
X13829824Y-14581376D01*
X13953633Y-14581376D01*
X14191728Y-14581376D02*
X14191728Y-14381376D01*
X14277443Y-14581376D02*
X14277443Y-14476614D01*
X14267919Y-14457567D01*
X14248871Y-14448043D01*
X14220300Y-14448043D01*
X14201252Y-14457567D01*
X14191728Y-14467090D01*
X14401252Y-14581376D02*
X14382205Y-14571852D01*
X14372681Y-14562328D01*
X14363157Y-14543281D01*
X14363157Y-14486138D01*
X14372681Y-14467090D01*
X14382205Y-14457567D01*
X14401252Y-14448043D01*
X14429824Y-14448043D01*
X14448871Y-14457567D01*
X14458395Y-14467090D01*
X14467919Y-14486138D01*
X14467919Y-14543281D01*
X14458395Y-14562328D01*
X14448871Y-14571852D01*
X14429824Y-14581376D01*
X14401252Y-14581376D01*
X14582205Y-14581376D02*
X14563157Y-14571852D01*
X14553633Y-14552805D01*
X14553633Y-14381376D01*
X14734586Y-14571852D02*
X14715538Y-14581376D01*
X14677443Y-14581376D01*
X14658395Y-14571852D01*
X14648871Y-14552805D01*
X14648871Y-14476614D01*
X14658395Y-14457567D01*
X14677443Y-14448043D01*
X14715538Y-14448043D01*
X14734586Y-14457567D01*
X14744109Y-14476614D01*
X14744109Y-14495662D01*
X14648871Y-14514709D01*
X14820300Y-14571852D02*
X14839348Y-14581376D01*
X14877443Y-14581376D01*
X14896490Y-14571852D01*
X14906014Y-14552805D01*
X14906014Y-14543281D01*
X14896490Y-14524233D01*
X14877443Y-14514709D01*
X14848871Y-14514709D01*
X14829824Y-14505186D01*
X14820300Y-14486138D01*
X14820300Y-14476614D01*
X14829824Y-14457567D01*
X14848871Y-14448043D01*
X14877443Y-14448043D01*
X14896490Y-14457567D01*
X14972681Y-14657567D02*
X14982205Y-14648043D01*
X15001252Y-14619471D01*
X15010776Y-14600424D01*
X15020300Y-14571852D01*
X15029824Y-14524233D01*
X15029824Y-14486138D01*
X15020300Y-14438519D01*
X15010776Y-14409948D01*
X15001252Y-14390900D01*
X14982205Y-14362328D01*
X14972681Y-14352805D01*
D14*
X9950300Y-14694900D02*
X9950300Y-14814900D01*
X9890300Y-14754900D02*
X10010300Y-14754900D01*
D11*
X10372681Y-14845376D02*
X10258395Y-14845376D01*
X10315538Y-14845376D02*
X10315538Y-14645376D01*
X10296490Y-14673948D01*
X10277443Y-14692995D01*
X10258395Y-14702519D01*
X10458395Y-14826328D02*
X10467919Y-14835852D01*
X10458395Y-14845376D01*
X10448871Y-14835852D01*
X10458395Y-14826328D01*
X10458395Y-14845376D01*
X10544110Y-14664424D02*
X10553633Y-14654900D01*
X10572681Y-14645376D01*
X10620300Y-14645376D01*
X10639348Y-14654900D01*
X10648871Y-14664424D01*
X10658395Y-14683471D01*
X10658395Y-14702519D01*
X10648871Y-14731090D01*
X10534586Y-14845376D01*
X10658395Y-14845376D01*
X10782205Y-14645376D02*
X10801252Y-14645376D01*
X10820300Y-14654900D01*
X10829824Y-14664424D01*
X10839348Y-14683471D01*
X10848871Y-14721567D01*
X10848871Y-14769186D01*
X10839348Y-14807281D01*
X10829824Y-14826328D01*
X10820300Y-14835852D01*
X10801252Y-14845376D01*
X10782205Y-14845376D01*
X10763157Y-14835852D01*
X10753633Y-14826328D01*
X10744110Y-14807281D01*
X10734586Y-14769186D01*
X10734586Y-14721567D01*
X10744110Y-14683471D01*
X10753633Y-14664424D01*
X10763157Y-14654900D01*
X10782205Y-14645376D01*
X10972681Y-14645376D02*
X10991729Y-14645376D01*
X11010776Y-14654900D01*
X11020300Y-14664424D01*
X11029824Y-14683471D01*
X11039348Y-14721567D01*
X11039348Y-14769186D01*
X11029824Y-14807281D01*
X11020300Y-14826328D01*
X11010776Y-14835852D01*
X10991729Y-14845376D01*
X10972681Y-14845376D01*
X10953633Y-14835852D01*
X10944110Y-14826328D01*
X10934586Y-14807281D01*
X10925062Y-14769186D01*
X10925062Y-14721567D01*
X10934586Y-14683471D01*
X10944110Y-14664424D01*
X10953633Y-14654900D01*
X10972681Y-14645376D01*
X11125062Y-14845376D02*
X11125062Y-14712043D01*
X11125062Y-14731090D02*
X11134586Y-14721567D01*
X11153633Y-14712043D01*
X11182205Y-14712043D01*
X11201252Y-14721567D01*
X11210776Y-14740614D01*
X11210776Y-14845376D01*
X11210776Y-14740614D02*
X11220300Y-14721567D01*
X11239348Y-14712043D01*
X11267919Y-14712043D01*
X11286967Y-14721567D01*
X11296490Y-14740614D01*
X11296490Y-14845376D01*
X11391728Y-14845376D02*
X11391728Y-14712043D01*
X11391728Y-14731090D02*
X11401252Y-14721567D01*
X11420300Y-14712043D01*
X11448871Y-14712043D01*
X11467919Y-14721567D01*
X11477443Y-14740614D01*
X11477443Y-14845376D01*
X11477443Y-14740614D02*
X11486967Y-14721567D01*
X11506014Y-14712043D01*
X11534586Y-14712043D01*
X11553633Y-14721567D01*
X11563157Y-14740614D01*
X11563157Y-14845376D01*
X11953633Y-14635852D02*
X11782205Y-14892995D01*
X12210776Y-14645376D02*
X12229824Y-14645376D01*
X12248871Y-14654900D01*
X12258395Y-14664424D01*
X12267919Y-14683471D01*
X12277443Y-14721567D01*
X12277443Y-14769186D01*
X12267919Y-14807281D01*
X12258395Y-14826328D01*
X12248871Y-14835852D01*
X12229824Y-14845376D01*
X12210776Y-14845376D01*
X12191728Y-14835852D01*
X12182205Y-14826328D01*
X12172681Y-14807281D01*
X12163157Y-14769186D01*
X12163157Y-14721567D01*
X12172681Y-14683471D01*
X12182205Y-14664424D01*
X12191728Y-14654900D01*
X12210776Y-14645376D01*
X12363157Y-14826328D02*
X12372681Y-14835852D01*
X12363157Y-14845376D01*
X12353633Y-14835852D01*
X12363157Y-14826328D01*
X12363157Y-14845376D01*
X12496490Y-14645376D02*
X12515538Y-14645376D01*
X12534586Y-14654900D01*
X12544109Y-14664424D01*
X12553633Y-14683471D01*
X12563157Y-14721567D01*
X12563157Y-14769186D01*
X12553633Y-14807281D01*
X12544109Y-14826328D01*
X12534586Y-14835852D01*
X12515538Y-14845376D01*
X12496490Y-14845376D01*
X12477443Y-14835852D01*
X12467919Y-14826328D01*
X12458395Y-14807281D01*
X12448871Y-14769186D01*
X12448871Y-14721567D01*
X12458395Y-14683471D01*
X12467919Y-14664424D01*
X12477443Y-14654900D01*
X12496490Y-14645376D01*
X12734586Y-14712043D02*
X12734586Y-14845376D01*
X12686967Y-14635852D02*
X12639348Y-14778709D01*
X12763157Y-14778709D01*
X12820300Y-14645376D02*
X12953633Y-14645376D01*
X12867919Y-14845376D01*
X13020300Y-14664424D02*
X13029824Y-14654900D01*
X13048871Y-14645376D01*
X13096490Y-14645376D01*
X13115538Y-14654900D01*
X13125062Y-14664424D01*
X13134586Y-14683471D01*
X13134586Y-14702519D01*
X13125062Y-14731090D01*
X13010776Y-14845376D01*
X13134586Y-14845376D01*
X13210776Y-14645376D02*
X13210776Y-14683471D01*
X13286967Y-14645376D02*
X13286967Y-14683471D01*
X13582205Y-14921567D02*
X13572681Y-14912043D01*
X13553633Y-14883471D01*
X13544109Y-14864424D01*
X13534586Y-14835852D01*
X13525062Y-14788233D01*
X13525062Y-14750138D01*
X13534586Y-14702519D01*
X13544109Y-14673948D01*
X13553633Y-14654900D01*
X13572681Y-14626328D01*
X13582205Y-14616805D01*
X13763157Y-14845376D02*
X13648871Y-14845376D01*
X13706014Y-14845376D02*
X13706014Y-14645376D01*
X13686967Y-14673948D01*
X13667919Y-14692995D01*
X13648871Y-14702519D01*
X13934586Y-14712043D02*
X13934586Y-14845376D01*
X13886967Y-14635852D02*
X13839348Y-14778709D01*
X13963157Y-14778709D01*
X14191728Y-14845376D02*
X14191728Y-14645376D01*
X14277443Y-14845376D02*
X14277443Y-14740614D01*
X14267919Y-14721567D01*
X14248871Y-14712043D01*
X14220300Y-14712043D01*
X14201252Y-14721567D01*
X14191728Y-14731090D01*
X14401252Y-14845376D02*
X14382205Y-14835852D01*
X14372681Y-14826328D01*
X14363157Y-14807281D01*
X14363157Y-14750138D01*
X14372681Y-14731090D01*
X14382205Y-14721567D01*
X14401252Y-14712043D01*
X14429824Y-14712043D01*
X14448871Y-14721567D01*
X14458395Y-14731090D01*
X14467919Y-14750138D01*
X14467919Y-14807281D01*
X14458395Y-14826328D01*
X14448871Y-14835852D01*
X14429824Y-14845376D01*
X14401252Y-14845376D01*
X14582205Y-14845376D02*
X14563157Y-14835852D01*
X14553633Y-14816805D01*
X14553633Y-14645376D01*
X14734586Y-14835852D02*
X14715538Y-14845376D01*
X14677443Y-14845376D01*
X14658395Y-14835852D01*
X14648871Y-14816805D01*
X14648871Y-14740614D01*
X14658395Y-14721567D01*
X14677443Y-14712043D01*
X14715538Y-14712043D01*
X14734586Y-14721567D01*
X14744109Y-14740614D01*
X14744109Y-14759662D01*
X14648871Y-14778709D01*
X14820300Y-14835852D02*
X14839348Y-14845376D01*
X14877443Y-14845376D01*
X14896490Y-14835852D01*
X14906014Y-14816805D01*
X14906014Y-14807281D01*
X14896490Y-14788233D01*
X14877443Y-14778709D01*
X14848871Y-14778709D01*
X14829824Y-14769186D01*
X14820300Y-14750138D01*
X14820300Y-14740614D01*
X14829824Y-14721567D01*
X14848871Y-14712043D01*
X14877443Y-14712043D01*
X14896490Y-14721567D01*
X14972681Y-14921567D02*
X14982205Y-14912043D01*
X15001252Y-14883471D01*
X15010776Y-14864424D01*
X15020300Y-14835852D01*
X15029824Y-14788233D01*
X15029824Y-14750138D01*
X15020300Y-14702519D01*
X15010776Y-14673948D01*
X15001252Y-14654900D01*
X14982205Y-14626328D01*
X14972681Y-14616805D01*
D15*
X9991262Y-15064862D02*
X9991262Y-14972938D01*
X9899338Y-14972938D01*
X9899338Y-15064862D01*
X9991262Y-15064862D01*
D11*
X10372681Y-15109376D02*
X10258395Y-15109376D01*
X10315538Y-15109376D02*
X10315538Y-14909376D01*
X10296490Y-14937948D01*
X10277443Y-14956995D01*
X10258395Y-14966519D01*
X10458395Y-15090328D02*
X10467919Y-15099852D01*
X10458395Y-15109376D01*
X10448871Y-15099852D01*
X10458395Y-15090328D01*
X10458395Y-15109376D01*
X10534586Y-14909376D02*
X10658395Y-14909376D01*
X10591729Y-14985567D01*
X10620300Y-14985567D01*
X10639348Y-14995090D01*
X10648871Y-15004614D01*
X10658395Y-15023662D01*
X10658395Y-15071281D01*
X10648871Y-15090328D01*
X10639348Y-15099852D01*
X10620300Y-15109376D01*
X10563157Y-15109376D01*
X10544110Y-15099852D01*
X10534586Y-15090328D01*
X10782205Y-14909376D02*
X10801252Y-14909376D01*
X10820300Y-14918900D01*
X10829824Y-14928424D01*
X10839348Y-14947471D01*
X10848871Y-14985567D01*
X10848871Y-15033186D01*
X10839348Y-15071281D01*
X10829824Y-15090328D01*
X10820300Y-15099852D01*
X10801252Y-15109376D01*
X10782205Y-15109376D01*
X10763157Y-15099852D01*
X10753633Y-15090328D01*
X10744110Y-15071281D01*
X10734586Y-15033186D01*
X10734586Y-14985567D01*
X10744110Y-14947471D01*
X10753633Y-14928424D01*
X10763157Y-14918900D01*
X10782205Y-14909376D01*
X10972681Y-14909376D02*
X10991729Y-14909376D01*
X11010776Y-14918900D01*
X11020300Y-14928424D01*
X11029824Y-14947471D01*
X11039348Y-14985567D01*
X11039348Y-15033186D01*
X11029824Y-15071281D01*
X11020300Y-15090328D01*
X11010776Y-15099852D01*
X10991729Y-15109376D01*
X10972681Y-15109376D01*
X10953633Y-15099852D01*
X10944110Y-15090328D01*
X10934586Y-15071281D01*
X10925062Y-15033186D01*
X10925062Y-14985567D01*
X10934586Y-14947471D01*
X10944110Y-14928424D01*
X10953633Y-14918900D01*
X10972681Y-14909376D01*
X11125062Y-15109376D02*
X11125062Y-14976043D01*
X11125062Y-14995090D02*
X11134586Y-14985567D01*
X11153633Y-14976043D01*
X11182205Y-14976043D01*
X11201252Y-14985567D01*
X11210776Y-15004614D01*
X11210776Y-15109376D01*
X11210776Y-15004614D02*
X11220300Y-14985567D01*
X11239348Y-14976043D01*
X11267919Y-14976043D01*
X11286967Y-14985567D01*
X11296490Y-15004614D01*
X11296490Y-15109376D01*
X11391728Y-15109376D02*
X11391728Y-14976043D01*
X11391728Y-14995090D02*
X11401252Y-14985567D01*
X11420300Y-14976043D01*
X11448871Y-14976043D01*
X11467919Y-14985567D01*
X11477443Y-15004614D01*
X11477443Y-15109376D01*
X11477443Y-15004614D02*
X11486967Y-14985567D01*
X11506014Y-14976043D01*
X11534586Y-14976043D01*
X11553633Y-14985567D01*
X11563157Y-15004614D01*
X11563157Y-15109376D01*
X11953633Y-14899852D02*
X11782205Y-15156995D01*
X12210776Y-14909376D02*
X12229824Y-14909376D01*
X12248871Y-14918900D01*
X12258395Y-14928424D01*
X12267919Y-14947471D01*
X12277443Y-14985567D01*
X12277443Y-15033186D01*
X12267919Y-15071281D01*
X12258395Y-15090328D01*
X12248871Y-15099852D01*
X12229824Y-15109376D01*
X12210776Y-15109376D01*
X12191728Y-15099852D01*
X12182205Y-15090328D01*
X12172681Y-15071281D01*
X12163157Y-15033186D01*
X12163157Y-14985567D01*
X12172681Y-14947471D01*
X12182205Y-14928424D01*
X12191728Y-14918900D01*
X12210776Y-14909376D01*
X12363157Y-15090328D02*
X12372681Y-15099852D01*
X12363157Y-15109376D01*
X12353633Y-15099852D01*
X12363157Y-15090328D01*
X12363157Y-15109376D01*
X12496490Y-14909376D02*
X12515538Y-14909376D01*
X12534586Y-14918900D01*
X12544109Y-14928424D01*
X12553633Y-14947471D01*
X12563157Y-14985567D01*
X12563157Y-15033186D01*
X12553633Y-15071281D01*
X12544109Y-15090328D01*
X12534586Y-15099852D01*
X12515538Y-15109376D01*
X12496490Y-15109376D01*
X12477443Y-15099852D01*
X12467919Y-15090328D01*
X12458395Y-15071281D01*
X12448871Y-15033186D01*
X12448871Y-14985567D01*
X12458395Y-14947471D01*
X12467919Y-14928424D01*
X12477443Y-14918900D01*
X12496490Y-14909376D01*
X12744109Y-14909376D02*
X12648871Y-14909376D01*
X12639348Y-15004614D01*
X12648871Y-14995090D01*
X12667919Y-14985567D01*
X12715538Y-14985567D01*
X12734586Y-14995090D01*
X12744109Y-15004614D01*
X12753633Y-15023662D01*
X12753633Y-15071281D01*
X12744109Y-15090328D01*
X12734586Y-15099852D01*
X12715538Y-15109376D01*
X12667919Y-15109376D01*
X12648871Y-15099852D01*
X12639348Y-15090328D01*
X12944109Y-15109376D02*
X12829824Y-15109376D01*
X12886967Y-15109376D02*
X12886967Y-14909376D01*
X12867919Y-14937948D01*
X12848871Y-14956995D01*
X12829824Y-14966519D01*
X13020300Y-14928424D02*
X13029824Y-14918900D01*
X13048871Y-14909376D01*
X13096490Y-14909376D01*
X13115538Y-14918900D01*
X13125062Y-14928424D01*
X13134586Y-14947471D01*
X13134586Y-14966519D01*
X13125062Y-14995090D01*
X13010776Y-15109376D01*
X13134586Y-15109376D01*
X13210776Y-14909376D02*
X13210776Y-14947471D01*
X13286967Y-14909376D02*
X13286967Y-14947471D01*
X13582205Y-15185567D02*
X13572681Y-15176043D01*
X13553633Y-15147471D01*
X13544109Y-15128424D01*
X13534586Y-15099852D01*
X13525062Y-15052233D01*
X13525062Y-15014138D01*
X13534586Y-14966519D01*
X13544109Y-14937948D01*
X13553633Y-14918900D01*
X13572681Y-14890328D01*
X13582205Y-14880805D01*
X13648871Y-14928424D02*
X13658395Y-14918900D01*
X13677443Y-14909376D01*
X13725062Y-14909376D01*
X13744109Y-14918900D01*
X13753633Y-14928424D01*
X13763157Y-14947471D01*
X13763157Y-14966519D01*
X13753633Y-14995090D01*
X13639348Y-15109376D01*
X13763157Y-15109376D01*
X14001252Y-15109376D02*
X14001252Y-14909376D01*
X14086967Y-15109376D02*
X14086967Y-15004614D01*
X14077443Y-14985567D01*
X14058395Y-14976043D01*
X14029824Y-14976043D01*
X14010776Y-14985567D01*
X14001252Y-14995090D01*
X14210776Y-15109376D02*
X14191728Y-15099852D01*
X14182205Y-15090328D01*
X14172681Y-15071281D01*
X14172681Y-15014138D01*
X14182205Y-14995090D01*
X14191728Y-14985567D01*
X14210776Y-14976043D01*
X14239348Y-14976043D01*
X14258395Y-14985567D01*
X14267919Y-14995090D01*
X14277443Y-15014138D01*
X14277443Y-15071281D01*
X14267919Y-15090328D01*
X14258395Y-15099852D01*
X14239348Y-15109376D01*
X14210776Y-15109376D01*
X14391728Y-15109376D02*
X14372681Y-15099852D01*
X14363157Y-15080805D01*
X14363157Y-14909376D01*
X14544109Y-15099852D02*
X14525062Y-15109376D01*
X14486967Y-15109376D01*
X14467919Y-15099852D01*
X14458395Y-15080805D01*
X14458395Y-15004614D01*
X14467919Y-14985567D01*
X14486967Y-14976043D01*
X14525062Y-14976043D01*
X14544109Y-14985567D01*
X14553633Y-15004614D01*
X14553633Y-15023662D01*
X14458395Y-15042709D01*
X14629824Y-15099852D02*
X14648871Y-15109376D01*
X14686967Y-15109376D01*
X14706014Y-15099852D01*
X14715538Y-15080805D01*
X14715538Y-15071281D01*
X14706014Y-15052233D01*
X14686967Y-15042709D01*
X14658395Y-15042709D01*
X14639348Y-15033186D01*
X14629824Y-15014138D01*
X14629824Y-15004614D01*
X14639348Y-14985567D01*
X14658395Y-14976043D01*
X14686967Y-14976043D01*
X14706014Y-14985567D01*
X14782205Y-15185567D02*
X14791728Y-15176043D01*
X14810776Y-15147471D01*
X14820300Y-15128424D01*
X14829824Y-15099852D01*
X14839348Y-15052233D01*
X14839348Y-15014138D01*
X14829824Y-14966519D01*
X14820300Y-14937948D01*
X14810776Y-14918900D01*
X14791728Y-14890328D01*
X14782205Y-14880805D01*
M02*
