M48
; DRILL file {KiCad (6.0.5)} date Wed Jun  1 16:00:08 2022
; FORMAT={-:-/ absolute / inch / decimal}
; #@! TF.CreationDate,2022-06-01T16:00:08+02:00
; #@! TF.GenerationSoftware,Kicad,Pcbnew,(6.0.5)
; #@! TF.FileFunction,Plated,1,2,PTH
FMAT,2
INCH
; #@! TA.AperFunction,Plated,PTH,ComponentDrill
T1C0.0394
; #@! TA.AperFunction,Plated,PTH,ComponentDrill
T2C0.0433
; #@! TA.AperFunction,Plated,PTH,ComponentDrill
T3C0.0472
; #@! TA.AperFunction,Plated,PTH,ComponentDrill
T4C0.0512
; #@! TA.AperFunction,Plated,PTH,ComponentDrill
T5C0.0984
%
G90
G05
T1
X4.105Y-4.785
X4.205Y-4.785
X4.305Y-4.785
X4.405Y-4.785
X4.505Y-4.785
X4.6066Y-4.785
X5.9013Y-4.6887
X5.92Y-3.685
X5.92Y-3.785
X5.92Y-3.885
X5.92Y-3.985
X5.92Y-4.085
X5.92Y-4.185
X5.92Y-4.285
X6.0Y-2.4842
X6.0Y-2.5842
X6.0Y-2.6842
X6.0Y-2.7842
X6.0Y-2.8842
X6.0Y-2.9842
X6.0Y-3.0842
X6.0Y-3.1842
X6.0Y-3.2842
X6.1013Y-4.6887
X6.6013Y-4.6887
X6.8013Y-4.6887
X6.8715Y-3.635
X6.9715Y-3.635
X6.9715Y-4.335
X7.0715Y-3.635
X7.0715Y-4.335
X7.1715Y-3.635
X7.1715Y-4.335
X7.2715Y-3.635
X7.2715Y-4.335
X7.3715Y-3.635
T2
X5.0722Y-2.4862
X5.0722Y-2.5862
X5.0722Y-2.6862
X5.0722Y-2.7862
X5.0722Y-2.8862
X5.0722Y-2.9862
X5.0722Y-3.0862
X5.0722Y-3.1862
X5.0722Y-3.2862
X5.0722Y-3.3862
X5.0722Y-3.4862
X5.0722Y-3.5862
X5.0722Y-3.6862
X5.0722Y-3.7862
X5.0722Y-3.8862
X5.0722Y-3.9862
X5.0722Y-4.0862
X5.0722Y-4.1862
X5.0722Y-4.2862
X5.0722Y-4.3862
X5.0722Y-4.4862
X5.0722Y-4.5862
X5.0722Y-4.6862
X5.0722Y-4.7862
X5.1722Y-2.5862
X5.1722Y-2.7862
X5.1722Y-2.8862
X5.1722Y-2.9862
X5.1722Y-4.2862
X5.2722Y-4.2862
X5.3722Y-4.2862
X5.4722Y-4.2862
X5.5541Y-2.7362
X5.5541Y-2.8362
X5.5541Y-2.9362
X5.5541Y-3.0362
X5.5541Y-3.1362
X5.5722Y-4.2862
X5.6722Y-2.4862
X5.6722Y-2.5862
X5.6722Y-2.6862
X5.6722Y-2.7862
X5.6722Y-2.8862
X5.6722Y-2.9862
X5.6722Y-3.0862
X5.6722Y-3.1862
X5.6722Y-3.2862
X5.6722Y-3.3862
X5.6722Y-3.4862
X5.6722Y-3.5862
X5.6722Y-3.6862
X5.6722Y-3.7862
X5.6722Y-3.8862
X5.6722Y-3.9862
X5.6722Y-4.0862
X5.6722Y-4.1862
X5.6722Y-4.2862
X5.6722Y-4.3862
X5.6722Y-4.4862
X5.6722Y-4.5862
X5.6722Y-4.6862
X5.6722Y-4.7862
T3
X4.5215Y-3.0866
X4.5215Y-3.185
X4.5215Y-3.2834
X4.5215Y-3.3819
X4.5215Y-3.4803
X4.5215Y-3.5787
X4.5215Y-3.6771
X4.6199Y-3.0866
X4.6199Y-3.185
X4.6199Y-3.2834
X4.6199Y-3.3819
X4.6199Y-3.4803
X4.6199Y-3.5787
X4.6199Y-3.6771
T4
X7.305Y-4.685
X7.505Y-4.685
T5
X6.42Y-3.71
X6.42Y-4.26
X6.6965Y-3.685
X6.6965Y-4.285
X7.17Y-2.4842
X7.17Y-3.2842
X7.5465Y-3.685
X7.5465Y-4.285
T0
M30
